G75*
%MOIN*%
%OFA0B0*%
%FSLAX25Y25*%
%IPPOS*%
%LPD*%
%AMOC8*
5,1,8,0,0,1.08239X$1,22.5*
%
%ADD10C,0.00400*%
%ADD11C,0.00800*%
%ADD12C,0.02200*%
%ADD13C,0.01000*%
%ADD14C,0.00700*%
%ADD15R,0.03000X0.01800*%
%ADD16C,0.02400*%
%ADD17C,0.00500*%
%ADD18C,0.00600*%
D10*
X0110796Y0058659D02*
X0111563Y0057892D01*
X0112331Y0057892D01*
X0113098Y0058659D01*
X0113098Y0060194D01*
X0113865Y0060961D01*
X0114633Y0060961D01*
X0115400Y0060194D01*
X0115400Y0058659D01*
X0114633Y0057892D01*
X0110796Y0058659D02*
X0110796Y0060194D01*
X0111563Y0060961D01*
X0112331Y0062496D02*
X0110796Y0064031D01*
X0115400Y0064031D01*
X0115400Y0065565D02*
X0115400Y0062496D01*
X0140596Y0055798D02*
X0140596Y0054263D01*
X0141363Y0053496D01*
X0141363Y0051961D02*
X0140596Y0051194D01*
X0140596Y0048892D01*
X0145200Y0048892D01*
X0145200Y0051194D01*
X0144433Y0051961D01*
X0141363Y0051961D01*
X0144433Y0053496D02*
X0145200Y0054263D01*
X0145200Y0055798D01*
X0144433Y0056565D01*
X0143665Y0056565D01*
X0142898Y0055798D01*
X0142898Y0055031D01*
X0142898Y0055798D02*
X0142131Y0056565D01*
X0141363Y0056565D01*
X0140596Y0055798D01*
X0162596Y0054565D02*
X0162596Y0051496D01*
X0164898Y0051496D01*
X0164131Y0053031D01*
X0164131Y0053798D01*
X0164898Y0054565D01*
X0166433Y0054565D01*
X0167200Y0053798D01*
X0167200Y0052263D01*
X0166433Y0051496D01*
X0166433Y0049961D02*
X0167200Y0049194D01*
X0167200Y0047659D01*
X0166433Y0046892D01*
X0163363Y0046892D01*
X0162596Y0047659D01*
X0162596Y0049194D01*
X0163363Y0049961D01*
X0175596Y0049835D02*
X0175596Y0051369D01*
X0175596Y0050602D02*
X0179433Y0050602D01*
X0180200Y0049835D01*
X0180200Y0049067D01*
X0179433Y0048300D01*
X0180200Y0052904D02*
X0175596Y0052904D01*
X0175596Y0055206D01*
X0176363Y0055973D01*
X0177898Y0055973D01*
X0178665Y0055206D01*
X0178665Y0052904D01*
X0178665Y0057508D02*
X0178665Y0059810D01*
X0177898Y0060577D01*
X0176363Y0060577D01*
X0175596Y0059810D01*
X0175596Y0057508D01*
X0180200Y0057508D01*
X0178665Y0059042D02*
X0180200Y0060577D01*
X0179433Y0062112D02*
X0176363Y0062112D01*
X0175596Y0062879D01*
X0175596Y0064414D01*
X0176363Y0065181D01*
X0179433Y0065181D01*
X0180200Y0064414D01*
X0180200Y0062879D01*
X0179433Y0062112D01*
X0179433Y0066716D02*
X0176363Y0066716D01*
X0175596Y0067483D01*
X0175596Y0069018D01*
X0176363Y0069785D01*
X0177898Y0069785D02*
X0177898Y0068250D01*
X0177898Y0069785D02*
X0179433Y0069785D01*
X0180200Y0069018D01*
X0180200Y0067483D01*
X0179433Y0066716D01*
X0180271Y0088500D02*
X0181806Y0088500D01*
X0182573Y0089267D01*
X0182573Y0090035D01*
X0181806Y0090802D01*
X0179504Y0090802D01*
X0179504Y0089267D01*
X0180271Y0088500D01*
X0177969Y0088500D02*
X0176435Y0090035D01*
X0177202Y0090035D02*
X0174900Y0090035D01*
X0174900Y0088500D02*
X0174900Y0093104D01*
X0177202Y0093104D01*
X0177969Y0092337D01*
X0177969Y0090802D01*
X0177202Y0090035D01*
X0179504Y0090802D02*
X0181039Y0092337D01*
X0182573Y0093104D01*
X0165988Y0105878D02*
X0165221Y0105110D01*
X0163686Y0105110D01*
X0162919Y0105878D01*
X0161384Y0105110D02*
X0158315Y0105110D01*
X0159850Y0105110D02*
X0159850Y0109714D01*
X0158315Y0108180D01*
X0156780Y0108947D02*
X0156013Y0109714D01*
X0153711Y0109714D01*
X0153711Y0105110D01*
X0153711Y0106645D02*
X0156013Y0106645D01*
X0156780Y0107412D01*
X0156780Y0108947D01*
X0155246Y0106645D02*
X0156780Y0105110D01*
X0162919Y0108947D02*
X0163686Y0109714D01*
X0165221Y0109714D01*
X0165988Y0108947D01*
X0165988Y0108180D01*
X0165221Y0107412D01*
X0165988Y0106645D01*
X0165988Y0105878D01*
X0165221Y0107412D02*
X0164454Y0107412D01*
X0157800Y0113059D02*
X0157033Y0112292D01*
X0153963Y0112292D01*
X0153196Y0113059D01*
X0153196Y0114594D01*
X0153963Y0115361D01*
X0155498Y0116896D02*
X0155498Y0119965D01*
X0153196Y0119198D02*
X0155498Y0116896D01*
X0157033Y0115361D02*
X0157800Y0114594D01*
X0157800Y0113059D01*
X0157800Y0119198D02*
X0153196Y0119198D01*
X0149553Y0124252D02*
X0149553Y0125019D01*
X0152622Y0128089D01*
X0152622Y0128856D01*
X0149553Y0128856D01*
X0148018Y0128856D02*
X0148018Y0125019D01*
X0147251Y0124252D01*
X0145717Y0124252D01*
X0144949Y0125019D01*
X0144949Y0128856D01*
X0144696Y0134200D02*
X0147765Y0137269D01*
X0147765Y0138037D01*
X0146998Y0138804D01*
X0145463Y0138804D01*
X0144696Y0138037D01*
X0141627Y0138804D02*
X0141627Y0134200D01*
X0143161Y0134200D02*
X0140092Y0134200D01*
X0138557Y0134200D02*
X0137023Y0135735D01*
X0137790Y0135735D02*
X0135488Y0135735D01*
X0135488Y0134200D02*
X0135488Y0138804D01*
X0137790Y0138804D01*
X0138557Y0138037D01*
X0138557Y0136502D01*
X0137790Y0135735D01*
X0140092Y0137269D02*
X0141627Y0138804D01*
X0144696Y0134200D02*
X0147765Y0134200D01*
X0120945Y0140794D02*
X0117876Y0140794D01*
X0119410Y0140794D02*
X0119410Y0145398D01*
X0117876Y0143864D01*
X0116341Y0140794D02*
X0113272Y0140794D01*
X0113272Y0145398D01*
X0129596Y0156600D02*
X0129596Y0158902D01*
X0130363Y0159669D01*
X0131898Y0159669D01*
X0132665Y0158902D01*
X0132665Y0156600D01*
X0132665Y0158135D02*
X0134200Y0159669D01*
X0133433Y0161204D02*
X0134200Y0161971D01*
X0134200Y0163506D01*
X0133433Y0164273D01*
X0132665Y0164273D01*
X0131898Y0163506D01*
X0131898Y0162739D01*
X0131898Y0163506D02*
X0131131Y0164273D01*
X0130363Y0164273D01*
X0129596Y0163506D01*
X0129596Y0161971D01*
X0130363Y0161204D01*
X0129596Y0156600D02*
X0134200Y0156600D01*
X0143800Y0155337D02*
X0143800Y0152267D01*
X0144567Y0151500D01*
X0146102Y0151500D01*
X0146869Y0152267D01*
X0148404Y0151500D02*
X0151473Y0151500D01*
X0149939Y0151500D02*
X0149939Y0156104D01*
X0148404Y0154569D01*
X0146869Y0155337D02*
X0146102Y0156104D01*
X0144567Y0156104D01*
X0143800Y0155337D01*
X0156211Y0163410D02*
X0156211Y0168014D01*
X0158513Y0168014D01*
X0159280Y0167247D01*
X0159280Y0165712D01*
X0158513Y0164945D01*
X0156211Y0164945D01*
X0157746Y0164945D02*
X0159280Y0163410D01*
X0160815Y0163410D02*
X0163884Y0166480D01*
X0163884Y0167247D01*
X0163117Y0168014D01*
X0161582Y0168014D01*
X0160815Y0167247D01*
X0160815Y0163410D02*
X0163884Y0163410D01*
X0170296Y0162692D02*
X0170296Y0164994D01*
X0171063Y0165761D01*
X0172598Y0165761D01*
X0173365Y0164994D01*
X0173365Y0162692D01*
X0173365Y0164227D02*
X0174900Y0165761D01*
X0172598Y0167296D02*
X0172598Y0170365D01*
X0170296Y0169598D02*
X0172598Y0167296D01*
X0174900Y0169598D02*
X0170296Y0169598D01*
X0170296Y0162692D02*
X0174900Y0162692D01*
X0155373Y0181900D02*
X0152304Y0181900D01*
X0155373Y0184969D01*
X0155373Y0185737D01*
X0154606Y0186504D01*
X0153071Y0186504D01*
X0152304Y0185737D01*
X0150769Y0185737D02*
X0150002Y0186504D01*
X0148467Y0186504D01*
X0147700Y0185737D01*
X0147700Y0182667D01*
X0148467Y0181900D01*
X0150002Y0181900D01*
X0150769Y0182667D01*
X0156196Y0192900D02*
X0156196Y0195202D01*
X0156963Y0195969D01*
X0158498Y0195969D01*
X0159265Y0195202D01*
X0159265Y0192900D01*
X0159265Y0194435D02*
X0160800Y0195969D01*
X0160033Y0197504D02*
X0160800Y0198271D01*
X0160800Y0199806D01*
X0160033Y0200573D01*
X0158498Y0200573D01*
X0157731Y0199806D01*
X0157731Y0199039D01*
X0158498Y0197504D01*
X0156196Y0197504D01*
X0156196Y0200573D01*
X0156196Y0192900D02*
X0160800Y0192900D01*
X0141165Y0193000D02*
X0138096Y0193000D01*
X0136561Y0193000D02*
X0135027Y0194535D01*
X0135794Y0194535D02*
X0133492Y0194535D01*
X0133492Y0193000D02*
X0133492Y0197604D01*
X0135794Y0197604D01*
X0136561Y0196837D01*
X0136561Y0195302D01*
X0135794Y0194535D01*
X0138096Y0196069D02*
X0139631Y0197604D01*
X0139631Y0193000D01*
X0130322Y0187156D02*
X0128788Y0186389D01*
X0127253Y0184854D01*
X0129555Y0184854D01*
X0130322Y0184087D01*
X0130322Y0183319D01*
X0129555Y0182552D01*
X0128020Y0182552D01*
X0127253Y0183319D01*
X0127253Y0184854D01*
X0125718Y0183319D02*
X0125718Y0187156D01*
X0122649Y0187156D02*
X0122649Y0183319D01*
X0123417Y0182552D01*
X0124951Y0182552D01*
X0125718Y0183319D01*
X0115679Y0173402D02*
X0115679Y0170333D01*
X0115679Y0171868D02*
X0111075Y0171868D01*
X0112609Y0170333D01*
X0111842Y0168798D02*
X0111075Y0168031D01*
X0111075Y0165729D01*
X0115679Y0165729D01*
X0115679Y0168031D01*
X0114911Y0168798D01*
X0111842Y0168798D01*
X0048235Y0138081D02*
X0048235Y0135012D01*
X0048235Y0136546D02*
X0043632Y0136546D01*
X0045166Y0135012D01*
X0043632Y0133477D02*
X0043632Y0130408D01*
X0043632Y0131942D02*
X0048235Y0131942D01*
X0048235Y0128873D02*
X0045166Y0128873D01*
X0043632Y0127339D01*
X0045166Y0125804D01*
X0048235Y0125804D01*
X0047468Y0124269D02*
X0048235Y0123502D01*
X0048235Y0121200D01*
X0043632Y0121200D01*
X0043632Y0123502D01*
X0044399Y0124269D01*
X0045166Y0124269D01*
X0045933Y0123502D01*
X0045933Y0121200D01*
X0045933Y0123502D02*
X0046701Y0124269D01*
X0047468Y0124269D01*
X0045933Y0125804D02*
X0045933Y0128873D01*
X0110375Y0110735D02*
X0110375Y0109200D01*
X0111142Y0108433D01*
X0111142Y0106898D02*
X0110375Y0106131D01*
X0110375Y0103829D01*
X0114979Y0103829D01*
X0114979Y0106131D01*
X0114211Y0106898D01*
X0111142Y0106898D01*
X0114979Y0108433D02*
X0111909Y0111502D01*
X0111142Y0111502D01*
X0110375Y0110735D01*
X0114979Y0111502D02*
X0114979Y0108433D01*
X0142188Y0097604D02*
X0142188Y0093000D01*
X0142188Y0094535D02*
X0144490Y0094535D01*
X0145257Y0095302D01*
X0145257Y0096837D01*
X0144490Y0097604D01*
X0142188Y0097604D01*
X0143723Y0094535D02*
X0145257Y0093000D01*
X0146792Y0093000D02*
X0149861Y0093000D01*
X0148327Y0093000D02*
X0148327Y0097604D01*
X0146792Y0096069D01*
X0151396Y0095302D02*
X0154465Y0095302D01*
X0153698Y0093000D02*
X0153698Y0097604D01*
X0151396Y0095302D01*
X0141248Y0083855D02*
X0139714Y0083855D01*
X0138946Y0083088D01*
X0137412Y0083088D02*
X0136644Y0083855D01*
X0135110Y0083855D01*
X0134343Y0083088D01*
X0134343Y0080018D01*
X0135110Y0079251D01*
X0136644Y0079251D01*
X0137412Y0080018D01*
X0138946Y0080018D02*
X0139714Y0079251D01*
X0141248Y0079251D01*
X0142016Y0080018D01*
X0142016Y0080786D01*
X0141248Y0081553D01*
X0140481Y0081553D01*
X0141248Y0081553D02*
X0142016Y0082320D01*
X0142016Y0083088D01*
X0141248Y0083855D01*
X0119545Y0082694D02*
X0116476Y0082694D01*
X0119545Y0085764D01*
X0119545Y0086531D01*
X0118778Y0087298D01*
X0117243Y0087298D01*
X0116476Y0086531D01*
X0114941Y0082694D02*
X0111872Y0082694D01*
X0111872Y0087298D01*
X0191592Y0040304D02*
X0193894Y0040304D01*
X0194661Y0039537D01*
X0194661Y0038002D01*
X0193894Y0037235D01*
X0191592Y0037235D01*
X0193127Y0037235D02*
X0194661Y0035700D01*
X0196196Y0035700D02*
X0196196Y0036467D01*
X0199265Y0039537D01*
X0199265Y0040304D01*
X0196196Y0040304D01*
X0191592Y0040304D02*
X0191592Y0035700D01*
X0202692Y0035500D02*
X0202692Y0040104D01*
X0204994Y0040104D01*
X0205761Y0039337D01*
X0205761Y0037802D01*
X0204994Y0037035D01*
X0202692Y0037035D01*
X0204227Y0037035D02*
X0205761Y0035500D01*
X0207296Y0036267D02*
X0207296Y0037035D01*
X0208063Y0037802D01*
X0209598Y0037802D01*
X0210365Y0037035D01*
X0210365Y0036267D01*
X0209598Y0035500D01*
X0208063Y0035500D01*
X0207296Y0036267D01*
X0208063Y0037802D02*
X0207296Y0038569D01*
X0207296Y0039337D01*
X0208063Y0040104D01*
X0209598Y0040104D01*
X0210365Y0039337D01*
X0210365Y0038569D01*
X0209598Y0037802D01*
X0236592Y0062867D02*
X0237359Y0062100D01*
X0238894Y0062100D01*
X0239661Y0062867D01*
X0241196Y0062867D02*
X0241196Y0062100D01*
X0241196Y0062867D02*
X0244265Y0065937D01*
X0244265Y0066704D01*
X0241196Y0066704D01*
X0239661Y0065937D02*
X0238894Y0066704D01*
X0237359Y0066704D01*
X0236592Y0065937D01*
X0236592Y0062867D01*
X0260096Y0062002D02*
X0260096Y0060467D01*
X0260863Y0059700D01*
X0263933Y0059700D01*
X0264700Y0060467D01*
X0264700Y0062002D01*
X0263933Y0062769D01*
X0263933Y0064304D02*
X0264700Y0065071D01*
X0264700Y0066606D01*
X0263933Y0067373D01*
X0263165Y0067373D01*
X0262398Y0066606D01*
X0262398Y0064304D01*
X0263933Y0064304D01*
X0262398Y0064304D02*
X0260863Y0065839D01*
X0260096Y0067373D01*
X0260863Y0062769D02*
X0260096Y0062002D01*
X0246433Y0079696D02*
X0242596Y0079696D01*
X0246433Y0079696D02*
X0247200Y0080463D01*
X0247200Y0081998D01*
X0246433Y0082765D01*
X0242596Y0082765D01*
X0244898Y0084300D02*
X0244898Y0087369D01*
X0242596Y0086602D02*
X0244898Y0084300D01*
X0247200Y0086602D02*
X0242596Y0086602D01*
X0247963Y0097500D02*
X0251033Y0097500D01*
X0251800Y0098267D01*
X0251800Y0099802D01*
X0251033Y0100569D01*
X0251033Y0102104D02*
X0250265Y0102104D01*
X0249498Y0102871D01*
X0249498Y0104406D01*
X0250265Y0105173D01*
X0251033Y0105173D01*
X0251800Y0104406D01*
X0251800Y0102871D01*
X0251033Y0102104D01*
X0249498Y0102871D02*
X0248731Y0102104D01*
X0247963Y0102104D01*
X0247196Y0102871D01*
X0247196Y0104406D01*
X0247963Y0105173D01*
X0248731Y0105173D01*
X0249498Y0104406D01*
X0247963Y0100569D02*
X0247196Y0099802D01*
X0247196Y0098267D01*
X0247963Y0097500D01*
X0229700Y0098467D02*
X0228933Y0097700D01*
X0225863Y0097700D01*
X0225096Y0098467D01*
X0225096Y0100002D01*
X0225863Y0100769D01*
X0225863Y0102304D02*
X0226631Y0102304D01*
X0227398Y0103071D01*
X0227398Y0105373D01*
X0225863Y0105373D02*
X0225096Y0104606D01*
X0225096Y0103071D01*
X0225863Y0102304D01*
X0228933Y0102304D02*
X0229700Y0103071D01*
X0229700Y0104606D01*
X0228933Y0105373D01*
X0225863Y0105373D01*
X0228933Y0100769D02*
X0229700Y0100002D01*
X0229700Y0098467D01*
X0240959Y0129100D02*
X0242494Y0129100D01*
X0243261Y0129867D01*
X0243261Y0133704D01*
X0244796Y0133704D02*
X0244796Y0131402D01*
X0246331Y0132169D01*
X0247098Y0132169D01*
X0247865Y0131402D01*
X0247865Y0129867D01*
X0247098Y0129100D01*
X0245563Y0129100D01*
X0244796Y0129867D01*
X0240959Y0129100D02*
X0240192Y0129867D01*
X0240192Y0133704D01*
X0244796Y0133704D02*
X0247865Y0133704D01*
X0248367Y0170300D02*
X0249902Y0170300D01*
X0250669Y0171067D01*
X0250669Y0174904D01*
X0252204Y0173369D02*
X0253739Y0174904D01*
X0253739Y0170300D01*
X0255273Y0170300D02*
X0252204Y0170300D01*
X0248367Y0170300D02*
X0247600Y0171067D01*
X0247600Y0174904D01*
X0259096Y0181467D02*
X0259863Y0180700D01*
X0262933Y0180700D01*
X0263700Y0181467D01*
X0263700Y0183002D01*
X0262933Y0183769D01*
X0263700Y0185304D02*
X0263700Y0188373D01*
X0263700Y0186839D02*
X0259096Y0186839D01*
X0260631Y0185304D01*
X0259863Y0183769D02*
X0259096Y0183002D01*
X0259096Y0181467D01*
X0259863Y0189908D02*
X0259096Y0190675D01*
X0259096Y0192210D01*
X0259863Y0192977D01*
X0260631Y0192977D01*
X0263700Y0189908D01*
X0263700Y0192977D01*
X0288596Y0208056D02*
X0289363Y0207288D01*
X0292433Y0207288D01*
X0293200Y0208056D01*
X0293200Y0209590D01*
X0292433Y0210357D01*
X0293200Y0211892D02*
X0293200Y0214961D01*
X0293200Y0213427D02*
X0288596Y0213427D01*
X0290131Y0211892D01*
X0289363Y0210357D02*
X0288596Y0209590D01*
X0288596Y0208056D01*
X0289363Y0216496D02*
X0288596Y0217263D01*
X0288596Y0218798D01*
X0289363Y0219565D01*
X0292433Y0216496D01*
X0293200Y0217263D01*
X0293200Y0218798D01*
X0292433Y0219565D01*
X0289363Y0219565D01*
X0289363Y0216496D02*
X0292433Y0216496D01*
X0272499Y0213911D02*
X0271732Y0214678D01*
X0270197Y0214678D01*
X0269430Y0213911D01*
X0267895Y0214678D02*
X0267895Y0210841D01*
X0267128Y0210074D01*
X0265593Y0210074D01*
X0264826Y0210841D01*
X0264826Y0214678D01*
X0259442Y0214804D02*
X0259442Y0210200D01*
X0257908Y0210200D02*
X0260977Y0210200D01*
X0256373Y0210200D02*
X0253304Y0210200D01*
X0254839Y0210200D02*
X0254839Y0214804D01*
X0253304Y0213269D01*
X0251769Y0214037D02*
X0251002Y0214804D01*
X0249467Y0214804D01*
X0248700Y0214037D01*
X0248700Y0210967D01*
X0249467Y0210200D01*
X0251002Y0210200D01*
X0251769Y0210967D01*
X0257908Y0213269D02*
X0259442Y0214804D01*
X0269430Y0210074D02*
X0272499Y0213143D01*
X0272499Y0213911D01*
X0272499Y0210074D02*
X0269430Y0210074D01*
X0240965Y0209767D02*
X0240198Y0209000D01*
X0238663Y0209000D01*
X0237896Y0209767D01*
X0236361Y0209000D02*
X0233292Y0209000D01*
X0234827Y0209000D02*
X0234827Y0213604D01*
X0233292Y0212069D01*
X0231757Y0212837D02*
X0230990Y0213604D01*
X0229456Y0213604D01*
X0228688Y0212837D01*
X0228688Y0209767D01*
X0229456Y0209000D01*
X0230990Y0209000D01*
X0231757Y0209767D01*
X0237896Y0212837D02*
X0238663Y0213604D01*
X0240198Y0213604D01*
X0240965Y0212837D01*
X0240965Y0212069D01*
X0240198Y0211302D01*
X0240965Y0210535D01*
X0240965Y0209767D01*
X0240198Y0211302D02*
X0239431Y0211302D01*
X0215941Y0216155D02*
X0215174Y0215388D01*
X0213639Y0215388D01*
X0212872Y0216155D01*
X0211337Y0216155D02*
X0211337Y0219992D01*
X0212872Y0219225D02*
X0213639Y0219992D01*
X0215174Y0219992D01*
X0215941Y0219225D01*
X0215941Y0218457D01*
X0215174Y0217690D01*
X0215941Y0216923D01*
X0215941Y0216155D01*
X0215174Y0217690D02*
X0214406Y0217690D01*
X0211337Y0216155D02*
X0210570Y0215388D01*
X0209035Y0215388D01*
X0208268Y0216155D01*
X0208268Y0219992D01*
X0203377Y0196204D02*
X0200308Y0196204D01*
X0200308Y0193902D01*
X0201842Y0194669D01*
X0202610Y0194669D01*
X0203377Y0193902D01*
X0203377Y0192367D01*
X0202610Y0191600D01*
X0201075Y0191600D01*
X0200308Y0192367D01*
X0198773Y0191600D02*
X0195704Y0191600D01*
X0197239Y0191600D02*
X0197239Y0196204D01*
X0195704Y0194669D01*
X0194169Y0195437D02*
X0193402Y0196204D01*
X0191867Y0196204D01*
X0191100Y0195437D01*
X0191100Y0192367D01*
X0191867Y0191600D01*
X0193402Y0191600D01*
X0194169Y0192367D01*
X0215888Y0193337D02*
X0215888Y0190267D01*
X0216656Y0189500D01*
X0218190Y0189500D01*
X0218957Y0190267D01*
X0220492Y0189500D02*
X0223561Y0189500D01*
X0222027Y0189500D02*
X0222027Y0194104D01*
X0220492Y0192569D01*
X0218957Y0193337D02*
X0218190Y0194104D01*
X0216656Y0194104D01*
X0215888Y0193337D01*
X0225096Y0191802D02*
X0228165Y0191802D01*
X0227398Y0189500D02*
X0227398Y0194104D01*
X0225096Y0191802D01*
X0312796Y0148942D02*
X0314331Y0147408D01*
X0312796Y0148942D02*
X0317400Y0148942D01*
X0317400Y0147408D02*
X0317400Y0150477D01*
X0317400Y0145873D02*
X0317400Y0142804D01*
X0317400Y0144339D02*
X0312796Y0144339D01*
X0314331Y0142804D01*
X0315098Y0141269D02*
X0313563Y0141269D01*
X0312796Y0140502D01*
X0312796Y0138200D01*
X0317400Y0138200D01*
X0315865Y0138200D02*
X0315865Y0140502D01*
X0315098Y0141269D01*
X0315865Y0139735D02*
X0317400Y0141269D01*
X0318133Y0116865D02*
X0318900Y0116098D01*
X0318900Y0114563D01*
X0318133Y0113796D01*
X0315063Y0116865D01*
X0318133Y0116865D01*
X0315063Y0116865D02*
X0314296Y0116098D01*
X0314296Y0114563D01*
X0315063Y0113796D01*
X0318133Y0113796D01*
X0318900Y0112261D02*
X0318900Y0109192D01*
X0318900Y0107657D02*
X0317365Y0106123D01*
X0317365Y0106890D02*
X0317365Y0104588D01*
X0318900Y0104588D02*
X0314296Y0104588D01*
X0314296Y0106890D01*
X0315063Y0107657D01*
X0316598Y0107657D01*
X0317365Y0106890D01*
X0315831Y0109192D02*
X0314296Y0110727D01*
X0318900Y0110727D01*
X0336631Y0105294D02*
X0336631Y0102992D01*
X0337398Y0102225D01*
X0338933Y0102225D01*
X0339700Y0102992D01*
X0339700Y0105294D01*
X0340467Y0105294D02*
X0336631Y0105294D01*
X0340467Y0105294D02*
X0341235Y0104527D01*
X0341235Y0103759D01*
X0339700Y0100690D02*
X0337398Y0100690D01*
X0336631Y0099923D01*
X0336631Y0097621D01*
X0339700Y0097621D01*
X0339700Y0096086D02*
X0339700Y0094552D01*
X0339700Y0095319D02*
X0336631Y0095319D01*
X0336631Y0094552D01*
X0336631Y0093017D02*
X0336631Y0092250D01*
X0338165Y0090715D01*
X0336631Y0090715D02*
X0339700Y0090715D01*
X0338165Y0089180D02*
X0338165Y0086111D01*
X0337398Y0086111D02*
X0336631Y0086878D01*
X0336631Y0088413D01*
X0337398Y0089180D01*
X0338165Y0089180D01*
X0339700Y0088413D02*
X0339700Y0086878D01*
X0338933Y0086111D01*
X0337398Y0086111D01*
X0337398Y0084576D02*
X0338165Y0084576D01*
X0338165Y0081507D01*
X0337398Y0081507D02*
X0336631Y0082274D01*
X0336631Y0083809D01*
X0337398Y0084576D01*
X0339700Y0083809D02*
X0339700Y0082274D01*
X0338933Y0081507D01*
X0337398Y0081507D01*
X0337398Y0079972D02*
X0339700Y0079972D01*
X0337398Y0079972D02*
X0336631Y0079205D01*
X0336631Y0076903D01*
X0339700Y0076903D01*
X0339700Y0075369D02*
X0339700Y0073834D01*
X0339700Y0074601D02*
X0336631Y0074601D01*
X0336631Y0073834D01*
X0336631Y0072299D02*
X0336631Y0069997D01*
X0337398Y0069230D01*
X0338933Y0069230D01*
X0339700Y0069997D01*
X0339700Y0072299D01*
X0340467Y0072299D02*
X0336631Y0072299D01*
X0335096Y0074601D02*
X0334329Y0074601D01*
X0332200Y0073834D02*
X0330665Y0075369D01*
X0327596Y0075369D01*
X0329131Y0076903D02*
X0327596Y0078438D01*
X0332200Y0078438D01*
X0332200Y0079972D02*
X0332200Y0076903D01*
X0332200Y0073834D02*
X0330665Y0072299D01*
X0327596Y0072299D01*
X0324700Y0072683D02*
X0324700Y0074218D01*
X0324700Y0073450D02*
X0321631Y0073450D01*
X0321631Y0072683D01*
X0321631Y0071148D02*
X0321631Y0069614D01*
X0320863Y0070381D02*
X0323933Y0070381D01*
X0324700Y0071148D01*
X0320096Y0073450D02*
X0319329Y0073450D01*
X0322398Y0075752D02*
X0323933Y0075752D01*
X0324700Y0076520D01*
X0324700Y0078822D01*
X0321631Y0078822D02*
X0321631Y0076520D01*
X0322398Y0075752D01*
X0328363Y0083809D02*
X0327596Y0084576D01*
X0327596Y0086111D01*
X0328363Y0086878D01*
X0331433Y0083809D01*
X0332200Y0084576D01*
X0332200Y0086111D01*
X0331433Y0086878D01*
X0328363Y0086878D01*
X0328363Y0083809D02*
X0331433Y0083809D01*
X0331433Y0082274D02*
X0332200Y0082274D01*
X0332200Y0081507D01*
X0331433Y0081507D01*
X0331433Y0082274D01*
X0334329Y0095319D02*
X0335096Y0095319D01*
X0340467Y0072299D02*
X0341235Y0071532D01*
X0341235Y0070765D01*
X0339700Y0067695D02*
X0337398Y0067695D01*
X0336631Y0066928D01*
X0336631Y0064626D01*
X0339700Y0064626D01*
X0339700Y0063091D02*
X0339700Y0060022D01*
X0335096Y0060022D01*
X0335096Y0063091D01*
X0337398Y0061557D02*
X0337398Y0060022D01*
X0332200Y0059255D02*
X0331433Y0058487D01*
X0330665Y0059255D01*
X0330665Y0061557D01*
X0329898Y0061557D02*
X0332200Y0061557D01*
X0332200Y0059255D01*
X0332200Y0056953D02*
X0332200Y0053884D01*
X0327596Y0053884D01*
X0324700Y0055035D02*
X0323933Y0055802D01*
X0323165Y0055035D01*
X0323165Y0053500D01*
X0322398Y0052733D01*
X0321631Y0053500D01*
X0321631Y0055802D01*
X0324700Y0055035D02*
X0324700Y0052733D01*
X0324700Y0051198D02*
X0322398Y0051198D01*
X0321631Y0050431D01*
X0321631Y0048129D01*
X0324700Y0048129D01*
X0323933Y0046594D02*
X0322398Y0046594D01*
X0321631Y0045827D01*
X0321631Y0044292D01*
X0322398Y0043525D01*
X0323933Y0043525D01*
X0324700Y0044292D01*
X0324700Y0045827D01*
X0323933Y0046594D01*
X0329131Y0045443D02*
X0329131Y0047745D01*
X0330665Y0046978D02*
X0330665Y0045443D01*
X0329898Y0044676D01*
X0329131Y0045443D01*
X0330665Y0046978D02*
X0331433Y0047745D01*
X0332200Y0046978D01*
X0332200Y0044676D01*
X0332200Y0043141D02*
X0332200Y0040839D01*
X0331433Y0040072D01*
X0329898Y0040072D01*
X0329131Y0040839D01*
X0329131Y0043141D01*
X0324700Y0041990D02*
X0323933Y0041223D01*
X0320863Y0041223D01*
X0321631Y0041990D02*
X0321631Y0040455D01*
X0321631Y0038921D02*
X0323933Y0038921D01*
X0324700Y0038154D01*
X0323933Y0037386D01*
X0324700Y0036619D01*
X0323933Y0035852D01*
X0321631Y0035852D01*
X0322398Y0034317D02*
X0323165Y0034317D01*
X0323165Y0031248D01*
X0322398Y0031248D02*
X0323933Y0031248D01*
X0324700Y0032015D01*
X0324700Y0033550D01*
X0322398Y0034317D02*
X0321631Y0033550D01*
X0321631Y0032015D01*
X0322398Y0031248D01*
X0324700Y0029713D02*
X0320096Y0029713D01*
X0320096Y0026644D02*
X0324700Y0029713D01*
X0329131Y0030864D02*
X0332967Y0030864D01*
X0333735Y0030097D01*
X0333735Y0029329D01*
X0332200Y0028562D02*
X0332200Y0030864D01*
X0332200Y0032399D02*
X0332200Y0034701D01*
X0331433Y0035468D01*
X0330665Y0034701D01*
X0330665Y0033166D01*
X0329898Y0032399D01*
X0329131Y0033166D01*
X0329131Y0035468D01*
X0329131Y0037003D02*
X0329131Y0037770D01*
X0332200Y0037770D01*
X0332200Y0037003D02*
X0332200Y0038537D01*
X0335096Y0036235D02*
X0335096Y0034701D01*
X0335863Y0033933D01*
X0338933Y0033933D01*
X0339700Y0034701D01*
X0339700Y0036235D01*
X0338933Y0037002D01*
X0339700Y0038537D02*
X0336631Y0038537D01*
X0338165Y0038537D02*
X0336631Y0040072D01*
X0336631Y0040839D01*
X0337398Y0042374D02*
X0336631Y0043141D01*
X0336631Y0044676D01*
X0337398Y0045443D01*
X0338165Y0045443D01*
X0338165Y0042374D01*
X0337398Y0042374D02*
X0338933Y0042374D01*
X0339700Y0043141D01*
X0339700Y0044676D01*
X0338933Y0046978D02*
X0337398Y0046978D01*
X0336631Y0047745D01*
X0336631Y0049280D01*
X0337398Y0050047D01*
X0338165Y0050047D01*
X0338165Y0046978D01*
X0338933Y0046978D02*
X0339700Y0047745D01*
X0339700Y0049280D01*
X0339700Y0051582D02*
X0335096Y0051582D01*
X0336631Y0053884D02*
X0338165Y0051582D01*
X0339700Y0053884D01*
X0329131Y0059255D02*
X0329131Y0060789D01*
X0329898Y0061557D01*
X0329131Y0063091D02*
X0329131Y0065393D01*
X0329898Y0066161D01*
X0331433Y0066161D01*
X0332200Y0065393D01*
X0332200Y0063091D01*
X0327596Y0063091D01*
X0324700Y0061940D02*
X0321631Y0061940D01*
X0320096Y0063475D01*
X0321631Y0065010D01*
X0324700Y0065010D01*
X0322398Y0065010D02*
X0322398Y0061940D01*
X0321631Y0066544D02*
X0321631Y0068079D01*
X0320863Y0067312D02*
X0323933Y0067312D01*
X0324700Y0068079D01*
X0317133Y0057165D02*
X0314063Y0057165D01*
X0313296Y0056398D01*
X0313296Y0054863D01*
X0314063Y0054096D01*
X0314831Y0054096D01*
X0315598Y0054863D01*
X0315598Y0057165D01*
X0317133Y0057165D02*
X0317900Y0056398D01*
X0317900Y0054863D01*
X0317133Y0054096D01*
X0317900Y0052561D02*
X0316365Y0051027D01*
X0316365Y0051794D02*
X0316365Y0049492D01*
X0317900Y0049492D02*
X0313296Y0049492D01*
X0313296Y0051794D01*
X0314063Y0052561D01*
X0315598Y0052561D01*
X0316365Y0051794D01*
X0326829Y0037770D02*
X0327596Y0037770D01*
X0335096Y0036235D02*
X0335863Y0037002D01*
X0332200Y0028562D02*
X0331433Y0027795D01*
X0329131Y0027795D01*
X0329898Y0026260D02*
X0332200Y0026260D01*
X0329898Y0026260D02*
X0329131Y0025493D01*
X0329131Y0023958D01*
X0329898Y0023191D01*
X0329898Y0021656D02*
X0330665Y0020889D01*
X0330665Y0018587D01*
X0332200Y0018587D02*
X0327596Y0018587D01*
X0327596Y0020889D01*
X0328363Y0021656D01*
X0329898Y0021656D01*
X0327596Y0023191D02*
X0332200Y0023191D01*
X0336631Y0023191D02*
X0336631Y0022423D01*
X0338165Y0020889D01*
X0336631Y0020889D02*
X0339700Y0020889D01*
X0338933Y0019354D02*
X0337398Y0019354D01*
X0336631Y0018587D01*
X0336631Y0017052D01*
X0337398Y0016285D01*
X0338933Y0016285D01*
X0339700Y0017052D01*
X0339700Y0018587D01*
X0338933Y0019354D01*
X0339700Y0014750D02*
X0337398Y0014750D01*
X0336631Y0013983D01*
X0336631Y0012448D01*
X0337398Y0011681D01*
X0336631Y0010146D02*
X0338165Y0007844D01*
X0339700Y0010146D01*
X0339700Y0011681D02*
X0335096Y0011681D01*
X0335096Y0007844D02*
X0339700Y0007844D01*
X0339700Y0006310D02*
X0339700Y0004775D01*
X0339700Y0005542D02*
X0335096Y0005542D01*
X0335096Y0004775D01*
X0335096Y0003240D02*
X0335096Y0000171D01*
X0339700Y0000171D01*
X0339700Y0003240D01*
X0337398Y0001706D02*
X0337398Y0000171D01*
X0336631Y0024725D02*
X0336631Y0027027D01*
X0337398Y0027795D01*
X0339700Y0027795D01*
X0339700Y0024725D02*
X0336631Y0024725D01*
X0324700Y0026644D02*
X0320096Y0026644D01*
X0359427Y0028317D02*
X0360194Y0027550D01*
X0361729Y0027550D01*
X0362496Y0028317D01*
X0359427Y0031387D01*
X0359427Y0028317D01*
X0362496Y0028317D02*
X0362496Y0031387D01*
X0361729Y0032154D01*
X0360194Y0032154D01*
X0359427Y0031387D01*
X0364031Y0031387D02*
X0364798Y0032154D01*
X0367100Y0032154D01*
X0367100Y0027550D01*
X0364798Y0027550D01*
X0364031Y0028317D01*
X0364031Y0029085D01*
X0364798Y0029852D01*
X0367100Y0029852D01*
X0364798Y0029852D02*
X0364031Y0030619D01*
X0364031Y0031387D01*
X0363369Y0117900D02*
X0363369Y0122504D01*
X0364904Y0120969D01*
X0366439Y0120969D02*
X0367206Y0120202D01*
X0369508Y0120202D01*
X0369508Y0117900D02*
X0369508Y0122504D01*
X0367206Y0122504D01*
X0366439Y0121737D01*
X0366439Y0120969D01*
X0367206Y0120202D02*
X0366439Y0119435D01*
X0366439Y0118667D01*
X0367206Y0117900D01*
X0369508Y0117900D01*
X0364904Y0117900D02*
X0361835Y0117900D01*
X0362085Y0193500D02*
X0365154Y0193500D01*
X0362085Y0196569D01*
X0362085Y0197337D01*
X0362852Y0198104D01*
X0364387Y0198104D01*
X0365154Y0197337D01*
X0366689Y0197337D02*
X0366689Y0196569D01*
X0367456Y0195802D01*
X0369758Y0195802D01*
X0369758Y0193500D02*
X0369758Y0198104D01*
X0367456Y0198104D01*
X0366689Y0197337D01*
X0367456Y0195802D02*
X0366689Y0195035D01*
X0366689Y0194267D01*
X0367456Y0193500D01*
X0369758Y0193500D01*
X0100465Y0210102D02*
X0097396Y0210102D01*
X0099698Y0212404D01*
X0099698Y0207800D01*
X0095861Y0208567D02*
X0095861Y0211637D01*
X0095094Y0212404D01*
X0092792Y0212404D01*
X0092792Y0207800D01*
X0095094Y0207800D01*
X0095861Y0208567D01*
D11*
X0096057Y0214441D02*
X0101569Y0214441D01*
X0101569Y0219559D01*
X0096057Y0219559D01*
X0101569Y0219559D02*
X0103143Y0219559D01*
X0103143Y0214441D02*
X0101569Y0214441D01*
X0087765Y0218469D02*
X0081627Y0218469D01*
X0084696Y0215400D02*
X0084696Y0221539D01*
X0137800Y0190800D02*
X0137800Y0186800D01*
X0129079Y0178929D02*
X0128279Y0178929D01*
X0129079Y0178929D02*
X0129079Y0158929D01*
X0128279Y0158929D01*
X0127610Y0156144D02*
X0122886Y0156144D01*
X0120524Y0153782D01*
X0118679Y0158529D02*
X0117879Y0158529D01*
X0117879Y0178929D01*
X0118679Y0178929D01*
X0131699Y0177643D02*
X0132072Y0177643D01*
X0131699Y0177643D02*
X0131699Y0171261D01*
X0132072Y0171261D01*
X0135731Y0172542D02*
X0135731Y0173283D01*
X0139668Y0173283D01*
X0139668Y0172502D01*
X0143326Y0171261D02*
X0143699Y0171261D01*
X0143699Y0177643D01*
X0143326Y0177643D01*
X0127479Y0171329D02*
X0123479Y0171329D01*
X0119479Y0165729D01*
X0127479Y0165729D01*
X0123079Y0171329D01*
X0123479Y0171329D01*
X0123079Y0171329D02*
X0119479Y0171329D01*
X0127610Y0156144D02*
X0129972Y0153782D01*
X0129972Y0146695D02*
X0127919Y0144830D01*
X0127918Y0144829D02*
X0127825Y0144746D01*
X0127730Y0144666D01*
X0127631Y0144588D01*
X0127531Y0144514D01*
X0127428Y0144444D01*
X0127323Y0144376D01*
X0127216Y0144312D01*
X0127107Y0144251D01*
X0126996Y0144194D01*
X0126883Y0144141D01*
X0126768Y0144090D01*
X0126653Y0144044D01*
X0126535Y0144001D01*
X0126417Y0143962D01*
X0126297Y0143927D01*
X0126176Y0143896D01*
X0126054Y0143868D01*
X0125931Y0143845D01*
X0125808Y0143825D01*
X0125684Y0143809D01*
X0125560Y0143797D01*
X0125435Y0143789D01*
X0125310Y0143785D01*
X0125186Y0143785D01*
X0125061Y0143789D01*
X0124936Y0143797D01*
X0124812Y0143809D01*
X0124688Y0143825D01*
X0124565Y0143845D01*
X0124442Y0143868D01*
X0124320Y0143896D01*
X0124199Y0143927D01*
X0124079Y0143962D01*
X0123961Y0144001D01*
X0123843Y0144044D01*
X0123728Y0144090D01*
X0123613Y0144141D01*
X0123500Y0144194D01*
X0123389Y0144251D01*
X0123280Y0144312D01*
X0123173Y0144376D01*
X0123068Y0144444D01*
X0122965Y0144514D01*
X0122865Y0144588D01*
X0122766Y0144666D01*
X0122671Y0144746D01*
X0122578Y0144829D01*
X0122578Y0144830D02*
X0120524Y0146695D01*
X0141200Y0158100D02*
X0141200Y0162100D01*
X0153211Y0162110D02*
X0153211Y0158110D01*
X0172500Y0177400D02*
X0175000Y0174900D01*
X0180000Y0174900D01*
X0182500Y0177400D01*
X0182500Y0182400D01*
X0180000Y0184900D01*
X0182500Y0187400D01*
X0182500Y0192400D01*
X0180000Y0194900D01*
X0182500Y0197400D01*
X0182500Y0202400D01*
X0180000Y0204900D01*
X0182500Y0207400D01*
X0182500Y0212400D01*
X0180000Y0214900D01*
X0175000Y0214900D01*
X0172500Y0212400D01*
X0172500Y0207400D01*
X0175000Y0204900D01*
X0172500Y0202400D01*
X0172500Y0197400D01*
X0175000Y0194900D01*
X0172500Y0192400D01*
X0172500Y0187400D01*
X0175000Y0184900D01*
X0172500Y0182400D01*
X0172500Y0177400D01*
X0208144Y0201394D02*
X0213656Y0201394D01*
X0216806Y0213206D02*
X0204994Y0213206D01*
X0234957Y0189006D02*
X0234957Y0185856D01*
X0234957Y0180344D02*
X0234957Y0177194D01*
X0248343Y0183100D02*
X0248345Y0183139D01*
X0248351Y0183178D01*
X0248361Y0183216D01*
X0248374Y0183253D01*
X0248391Y0183288D01*
X0248411Y0183322D01*
X0248435Y0183353D01*
X0248462Y0183382D01*
X0248491Y0183408D01*
X0248523Y0183431D01*
X0248557Y0183451D01*
X0248593Y0183467D01*
X0248630Y0183479D01*
X0248669Y0183488D01*
X0248708Y0183493D01*
X0248747Y0183494D01*
X0248786Y0183491D01*
X0248825Y0183484D01*
X0248862Y0183473D01*
X0248899Y0183459D01*
X0248934Y0183441D01*
X0248967Y0183420D01*
X0248998Y0183395D01*
X0249026Y0183368D01*
X0249051Y0183338D01*
X0249073Y0183305D01*
X0249092Y0183271D01*
X0249107Y0183235D01*
X0249119Y0183197D01*
X0249127Y0183159D01*
X0249131Y0183120D01*
X0249131Y0183080D01*
X0249127Y0183041D01*
X0249119Y0183003D01*
X0249107Y0182965D01*
X0249092Y0182929D01*
X0249073Y0182895D01*
X0249051Y0182862D01*
X0249026Y0182832D01*
X0248998Y0182805D01*
X0248967Y0182780D01*
X0248934Y0182759D01*
X0248899Y0182741D01*
X0248862Y0182727D01*
X0248825Y0182716D01*
X0248786Y0182709D01*
X0248747Y0182706D01*
X0248708Y0182707D01*
X0248669Y0182712D01*
X0248630Y0182721D01*
X0248593Y0182733D01*
X0248557Y0182749D01*
X0248523Y0182769D01*
X0248491Y0182792D01*
X0248462Y0182818D01*
X0248435Y0182847D01*
X0248411Y0182878D01*
X0248391Y0182912D01*
X0248374Y0182947D01*
X0248361Y0182984D01*
X0248351Y0183022D01*
X0248345Y0183061D01*
X0248343Y0183100D01*
X0254643Y0180344D02*
X0254643Y0177194D01*
X0254643Y0185856D02*
X0254643Y0189006D01*
X0273000Y0176000D02*
X0278000Y0178500D01*
X0278000Y0173500D01*
X0273000Y0176000D01*
X0273151Y0176075D02*
X0278000Y0176075D01*
X0278000Y0175277D02*
X0274446Y0175277D01*
X0274748Y0176874D02*
X0278000Y0176874D01*
X0278000Y0177672D02*
X0276345Y0177672D01*
X0277942Y0178471D02*
X0278000Y0178471D01*
X0278000Y0174478D02*
X0276043Y0174478D01*
X0277640Y0173680D02*
X0278000Y0173680D01*
X0252035Y0135900D02*
X0252037Y0135947D01*
X0252043Y0135994D01*
X0252053Y0136041D01*
X0252066Y0136086D01*
X0252084Y0136130D01*
X0252105Y0136172D01*
X0252129Y0136213D01*
X0252157Y0136251D01*
X0252188Y0136287D01*
X0252222Y0136320D01*
X0252258Y0136350D01*
X0252297Y0136377D01*
X0252338Y0136401D01*
X0252381Y0136421D01*
X0252425Y0136437D01*
X0252471Y0136450D01*
X0252517Y0136459D01*
X0252565Y0136464D01*
X0252612Y0136465D01*
X0252659Y0136462D01*
X0252706Y0136455D01*
X0252752Y0136444D01*
X0252797Y0136430D01*
X0252841Y0136411D01*
X0252882Y0136389D01*
X0252922Y0136364D01*
X0252960Y0136335D01*
X0252995Y0136304D01*
X0253028Y0136269D01*
X0253057Y0136232D01*
X0253083Y0136193D01*
X0253106Y0136151D01*
X0253125Y0136108D01*
X0253141Y0136063D01*
X0253153Y0136017D01*
X0253161Y0135971D01*
X0253165Y0135924D01*
X0253165Y0135876D01*
X0253161Y0135829D01*
X0253153Y0135783D01*
X0253141Y0135737D01*
X0253125Y0135692D01*
X0253106Y0135649D01*
X0253083Y0135607D01*
X0253057Y0135568D01*
X0253028Y0135531D01*
X0252995Y0135496D01*
X0252960Y0135465D01*
X0252922Y0135436D01*
X0252883Y0135411D01*
X0252841Y0135389D01*
X0252797Y0135370D01*
X0252752Y0135356D01*
X0252706Y0135345D01*
X0252659Y0135338D01*
X0252612Y0135335D01*
X0252565Y0135336D01*
X0252517Y0135341D01*
X0252471Y0135350D01*
X0252425Y0135363D01*
X0252381Y0135379D01*
X0252338Y0135399D01*
X0252297Y0135423D01*
X0252258Y0135450D01*
X0252222Y0135480D01*
X0252188Y0135513D01*
X0252157Y0135549D01*
X0252129Y0135587D01*
X0252105Y0135628D01*
X0252084Y0135670D01*
X0252066Y0135714D01*
X0252053Y0135759D01*
X0252043Y0135806D01*
X0252037Y0135853D01*
X0252035Y0135900D01*
X0351063Y0124949D02*
X0351063Y0119437D01*
X0351063Y0124949D02*
X0358937Y0124949D01*
X0358937Y0119437D01*
X0360638Y0115681D02*
X0365362Y0115681D01*
X0363000Y0113319D01*
X0360638Y0115681D01*
X0360244Y0113319D02*
X0363000Y0113319D01*
X0365756Y0113319D01*
X0358937Y0109563D02*
X0358937Y0104051D01*
X0351063Y0104051D01*
X0351063Y0109563D01*
X0350063Y0044187D02*
X0344551Y0044187D01*
X0344551Y0036313D01*
X0350063Y0036313D01*
X0353819Y0035006D02*
X0353819Y0032250D01*
X0356181Y0029888D01*
X0356181Y0034612D01*
X0353819Y0032250D01*
X0353819Y0029494D01*
X0359937Y0036313D02*
X0365449Y0036313D01*
X0365449Y0044187D01*
X0359937Y0044187D01*
X0214000Y0066000D02*
X0209000Y0063500D01*
X0209000Y0068500D01*
X0214000Y0066000D01*
X0213762Y0065881D02*
X0209000Y0065881D01*
X0209000Y0066679D02*
X0212641Y0066679D01*
X0212165Y0065082D02*
X0209000Y0065082D01*
X0209000Y0064284D02*
X0210568Y0064284D01*
X0211044Y0067478D02*
X0209000Y0067478D01*
X0209000Y0068276D02*
X0209447Y0068276D01*
X0151659Y0056643D02*
X0151659Y0055069D01*
X0146541Y0055069D01*
X0146541Y0049557D01*
X0151659Y0049557D02*
X0151659Y0055069D01*
X0146541Y0055069D02*
X0146541Y0056643D01*
X0137000Y0055637D02*
X0137000Y0067763D01*
X0132000Y0071700D02*
X0122118Y0071700D01*
X0117000Y0067763D02*
X0117000Y0055637D01*
X0122118Y0051700D02*
X0131882Y0051700D01*
X0122000Y0061700D02*
X0122002Y0061841D01*
X0122008Y0061982D01*
X0122018Y0062122D01*
X0122032Y0062262D01*
X0122050Y0062402D01*
X0122071Y0062541D01*
X0122097Y0062680D01*
X0122126Y0062818D01*
X0122160Y0062954D01*
X0122197Y0063090D01*
X0122238Y0063225D01*
X0122283Y0063359D01*
X0122332Y0063491D01*
X0122384Y0063622D01*
X0122440Y0063751D01*
X0122500Y0063878D01*
X0122563Y0064004D01*
X0122629Y0064128D01*
X0122700Y0064251D01*
X0122773Y0064371D01*
X0122850Y0064489D01*
X0122930Y0064605D01*
X0123014Y0064718D01*
X0123100Y0064829D01*
X0123190Y0064938D01*
X0123283Y0065044D01*
X0123378Y0065147D01*
X0123477Y0065248D01*
X0123578Y0065346D01*
X0123682Y0065441D01*
X0123789Y0065533D01*
X0123898Y0065622D01*
X0124010Y0065707D01*
X0124124Y0065790D01*
X0124240Y0065870D01*
X0124359Y0065946D01*
X0124480Y0066018D01*
X0124602Y0066088D01*
X0124727Y0066153D01*
X0124853Y0066216D01*
X0124981Y0066274D01*
X0125111Y0066329D01*
X0125242Y0066381D01*
X0125375Y0066428D01*
X0125509Y0066472D01*
X0125644Y0066513D01*
X0125780Y0066549D01*
X0125917Y0066581D01*
X0126055Y0066610D01*
X0126193Y0066635D01*
X0126333Y0066655D01*
X0126473Y0066672D01*
X0126613Y0066685D01*
X0126754Y0066694D01*
X0126894Y0066699D01*
X0127035Y0066700D01*
X0127176Y0066697D01*
X0127317Y0066690D01*
X0127457Y0066679D01*
X0127597Y0066664D01*
X0127737Y0066645D01*
X0127876Y0066623D01*
X0128014Y0066596D01*
X0128152Y0066566D01*
X0128288Y0066531D01*
X0128424Y0066493D01*
X0128558Y0066451D01*
X0128692Y0066405D01*
X0128824Y0066356D01*
X0128954Y0066302D01*
X0129083Y0066245D01*
X0129210Y0066185D01*
X0129336Y0066121D01*
X0129459Y0066053D01*
X0129581Y0065982D01*
X0129701Y0065908D01*
X0129818Y0065830D01*
X0129933Y0065749D01*
X0130046Y0065665D01*
X0130157Y0065578D01*
X0130265Y0065487D01*
X0130370Y0065394D01*
X0130473Y0065297D01*
X0130573Y0065198D01*
X0130670Y0065096D01*
X0130764Y0064991D01*
X0130855Y0064884D01*
X0130943Y0064774D01*
X0131028Y0064662D01*
X0131110Y0064547D01*
X0131189Y0064430D01*
X0131264Y0064311D01*
X0131336Y0064190D01*
X0131404Y0064067D01*
X0131469Y0063942D01*
X0131531Y0063815D01*
X0131588Y0063686D01*
X0131643Y0063556D01*
X0131693Y0063425D01*
X0131740Y0063292D01*
X0131783Y0063158D01*
X0131822Y0063022D01*
X0131857Y0062886D01*
X0131889Y0062749D01*
X0131916Y0062611D01*
X0131940Y0062472D01*
X0131960Y0062332D01*
X0131976Y0062192D01*
X0131988Y0062052D01*
X0131996Y0061911D01*
X0132000Y0061770D01*
X0132000Y0061630D01*
X0131996Y0061489D01*
X0131988Y0061348D01*
X0131976Y0061208D01*
X0131960Y0061068D01*
X0131940Y0060928D01*
X0131916Y0060789D01*
X0131889Y0060651D01*
X0131857Y0060514D01*
X0131822Y0060378D01*
X0131783Y0060242D01*
X0131740Y0060108D01*
X0131693Y0059975D01*
X0131643Y0059844D01*
X0131588Y0059714D01*
X0131531Y0059585D01*
X0131469Y0059458D01*
X0131404Y0059333D01*
X0131336Y0059210D01*
X0131264Y0059089D01*
X0131189Y0058970D01*
X0131110Y0058853D01*
X0131028Y0058738D01*
X0130943Y0058626D01*
X0130855Y0058516D01*
X0130764Y0058409D01*
X0130670Y0058304D01*
X0130573Y0058202D01*
X0130473Y0058103D01*
X0130370Y0058006D01*
X0130265Y0057913D01*
X0130157Y0057822D01*
X0130046Y0057735D01*
X0129933Y0057651D01*
X0129818Y0057570D01*
X0129701Y0057492D01*
X0129581Y0057418D01*
X0129459Y0057347D01*
X0129336Y0057279D01*
X0129210Y0057215D01*
X0129083Y0057155D01*
X0128954Y0057098D01*
X0128824Y0057044D01*
X0128692Y0056995D01*
X0128558Y0056949D01*
X0128424Y0056907D01*
X0128288Y0056869D01*
X0128152Y0056834D01*
X0128014Y0056804D01*
X0127876Y0056777D01*
X0127737Y0056755D01*
X0127597Y0056736D01*
X0127457Y0056721D01*
X0127317Y0056710D01*
X0127176Y0056703D01*
X0127035Y0056700D01*
X0126894Y0056701D01*
X0126754Y0056706D01*
X0126613Y0056715D01*
X0126473Y0056728D01*
X0126333Y0056745D01*
X0126193Y0056765D01*
X0126055Y0056790D01*
X0125917Y0056819D01*
X0125780Y0056851D01*
X0125644Y0056887D01*
X0125509Y0056928D01*
X0125375Y0056972D01*
X0125242Y0057019D01*
X0125111Y0057071D01*
X0124981Y0057126D01*
X0124853Y0057184D01*
X0124727Y0057247D01*
X0124602Y0057312D01*
X0124480Y0057382D01*
X0124359Y0057454D01*
X0124240Y0057530D01*
X0124124Y0057610D01*
X0124010Y0057693D01*
X0123898Y0057778D01*
X0123789Y0057867D01*
X0123682Y0057959D01*
X0123578Y0058054D01*
X0123477Y0058152D01*
X0123378Y0058253D01*
X0123283Y0058356D01*
X0123190Y0058462D01*
X0123100Y0058571D01*
X0123014Y0058682D01*
X0122930Y0058795D01*
X0122850Y0058911D01*
X0122773Y0059029D01*
X0122700Y0059149D01*
X0122629Y0059272D01*
X0122563Y0059396D01*
X0122500Y0059522D01*
X0122440Y0059649D01*
X0122384Y0059778D01*
X0122332Y0059909D01*
X0122283Y0060041D01*
X0122238Y0060175D01*
X0122197Y0060310D01*
X0122160Y0060446D01*
X0122126Y0060582D01*
X0122097Y0060720D01*
X0122071Y0060859D01*
X0122050Y0060998D01*
X0122032Y0061138D01*
X0122018Y0061278D01*
X0122008Y0061418D01*
X0122002Y0061559D01*
X0122000Y0061700D01*
X0121978Y0086430D02*
X0119924Y0088295D01*
X0121978Y0086429D02*
X0122071Y0086346D01*
X0122166Y0086266D01*
X0122265Y0086188D01*
X0122365Y0086114D01*
X0122468Y0086044D01*
X0122573Y0085976D01*
X0122680Y0085912D01*
X0122789Y0085851D01*
X0122900Y0085794D01*
X0123013Y0085741D01*
X0123128Y0085690D01*
X0123243Y0085644D01*
X0123361Y0085601D01*
X0123479Y0085562D01*
X0123599Y0085527D01*
X0123720Y0085496D01*
X0123842Y0085468D01*
X0123965Y0085445D01*
X0124088Y0085425D01*
X0124212Y0085409D01*
X0124336Y0085397D01*
X0124461Y0085389D01*
X0124586Y0085385D01*
X0124710Y0085385D01*
X0124835Y0085389D01*
X0124960Y0085397D01*
X0125084Y0085409D01*
X0125208Y0085425D01*
X0125331Y0085445D01*
X0125454Y0085468D01*
X0125576Y0085496D01*
X0125697Y0085527D01*
X0125817Y0085562D01*
X0125935Y0085601D01*
X0126053Y0085644D01*
X0126168Y0085690D01*
X0126283Y0085741D01*
X0126396Y0085794D01*
X0126507Y0085851D01*
X0126616Y0085912D01*
X0126723Y0085976D01*
X0126828Y0086044D01*
X0126931Y0086114D01*
X0127031Y0086188D01*
X0127130Y0086266D01*
X0127225Y0086346D01*
X0127318Y0086429D01*
X0127319Y0086430D02*
X0129372Y0088295D01*
X0137549Y0091043D02*
X0141549Y0091043D01*
X0129372Y0095382D02*
X0127010Y0097744D01*
X0122286Y0097744D01*
X0119924Y0095382D01*
X0118379Y0099829D02*
X0117579Y0099829D01*
X0117579Y0120229D01*
X0118379Y0120229D01*
X0127979Y0120229D02*
X0128779Y0120229D01*
X0128779Y0100229D01*
X0127979Y0100229D01*
X0127179Y0107029D02*
X0119179Y0107029D01*
X0123179Y0112629D01*
X0127179Y0112629D01*
X0123179Y0112629D02*
X0122779Y0112629D01*
X0127179Y0107029D01*
X0131399Y0112561D02*
X0131772Y0112561D01*
X0131399Y0112561D02*
X0131399Y0118943D01*
X0131772Y0118943D01*
X0135431Y0114583D02*
X0135431Y0113842D01*
X0135431Y0114583D02*
X0139368Y0114583D01*
X0139368Y0113802D01*
X0143026Y0112561D02*
X0143399Y0112561D01*
X0143399Y0118943D01*
X0143026Y0118943D01*
X0137500Y0128300D02*
X0137500Y0132300D01*
X0122779Y0112629D02*
X0119179Y0112629D01*
X0140900Y0103400D02*
X0140900Y0099400D01*
X0152811Y0099410D02*
X0152811Y0103410D01*
X0351063Y0178301D02*
X0358937Y0178301D01*
X0358937Y0183813D01*
X0360244Y0187569D02*
X0363000Y0187569D01*
X0365362Y0189931D01*
X0360638Y0189931D01*
X0363000Y0187569D01*
X0365756Y0187569D01*
X0358937Y0193687D02*
X0358937Y0199199D01*
X0351063Y0199199D01*
X0351063Y0193687D01*
X0351063Y0183813D02*
X0351063Y0178301D01*
D12*
X0281000Y0215480D02*
X0281000Y0215720D01*
X0254800Y0206220D02*
X0254800Y0205980D01*
X0254700Y0196820D02*
X0254700Y0196580D01*
X0235700Y0196420D02*
X0235700Y0196180D01*
X0235600Y0204780D02*
X0235600Y0205020D01*
X0197220Y0203600D02*
X0196980Y0203600D01*
X0148620Y0174300D02*
X0148380Y0174300D01*
X0140020Y0149700D02*
X0139780Y0149700D01*
X0148080Y0115600D02*
X0148320Y0115600D01*
X0233880Y0101500D02*
X0234120Y0101500D01*
X0242880Y0101500D02*
X0243120Y0101500D01*
X0261880Y0076000D02*
X0262120Y0076000D01*
X0250200Y0071120D02*
X0250200Y0070880D01*
X0157920Y0053400D02*
X0157680Y0053400D01*
D13*
X0144900Y0060600D02*
X0173900Y0060600D01*
X0173900Y0090600D01*
X0144900Y0090600D01*
X0144900Y0060600D01*
X0122504Y0043610D02*
X0117307Y0039280D01*
X0117307Y0004634D01*
X0120535Y0004634D01*
X0120535Y0011720D01*
X0122504Y0011720D01*
X0122504Y0004634D01*
X0126441Y0004634D01*
X0126507Y0004636D01*
X0126573Y0004641D01*
X0126639Y0004651D01*
X0126704Y0004664D01*
X0126768Y0004680D01*
X0126831Y0004700D01*
X0126893Y0004724D01*
X0126953Y0004751D01*
X0127012Y0004781D01*
X0127069Y0004815D01*
X0127124Y0004852D01*
X0127177Y0004892D01*
X0127228Y0004934D01*
X0127276Y0004980D01*
X0127322Y0005028D01*
X0127364Y0005079D01*
X0127404Y0005132D01*
X0127441Y0005187D01*
X0127475Y0005244D01*
X0127505Y0005303D01*
X0127532Y0005363D01*
X0127556Y0005425D01*
X0127576Y0005488D01*
X0127592Y0005552D01*
X0127605Y0005617D01*
X0127615Y0005683D01*
X0127620Y0005749D01*
X0127622Y0005815D01*
X0127622Y0010933D01*
X0133134Y0010933D01*
X0133134Y0005815D01*
X0133146Y0005744D01*
X0133162Y0005675D01*
X0133181Y0005606D01*
X0133203Y0005538D01*
X0133230Y0005471D01*
X0133259Y0005406D01*
X0133292Y0005342D01*
X0133328Y0005280D01*
X0133367Y0005220D01*
X0133410Y0005162D01*
X0133455Y0005107D01*
X0133503Y0005053D01*
X0133553Y0005003D01*
X0133607Y0004955D01*
X0133662Y0004910D01*
X0133720Y0004867D01*
X0133780Y0004828D01*
X0133842Y0004792D01*
X0133906Y0004759D01*
X0133971Y0004730D01*
X0134038Y0004703D01*
X0134106Y0004681D01*
X0134175Y0004662D01*
X0134244Y0004646D01*
X0134315Y0004634D01*
X0138252Y0004634D01*
X0138318Y0004636D01*
X0138384Y0004641D01*
X0138450Y0004651D01*
X0138515Y0004664D01*
X0138579Y0004680D01*
X0138642Y0004700D01*
X0138704Y0004724D01*
X0138764Y0004751D01*
X0138823Y0004781D01*
X0138880Y0004815D01*
X0138935Y0004852D01*
X0138988Y0004892D01*
X0139039Y0004934D01*
X0139087Y0004980D01*
X0139133Y0005028D01*
X0139175Y0005079D01*
X0139215Y0005132D01*
X0139252Y0005187D01*
X0139286Y0005244D01*
X0139316Y0005303D01*
X0139343Y0005363D01*
X0139367Y0005425D01*
X0139387Y0005488D01*
X0139403Y0005552D01*
X0139416Y0005617D01*
X0139426Y0005683D01*
X0139431Y0005749D01*
X0139433Y0005815D01*
X0139433Y0010933D01*
X0144945Y0010933D01*
X0144945Y0005815D01*
X0144947Y0005749D01*
X0144952Y0005683D01*
X0144962Y0005617D01*
X0144975Y0005552D01*
X0144991Y0005488D01*
X0145011Y0005425D01*
X0145035Y0005363D01*
X0145062Y0005303D01*
X0145092Y0005244D01*
X0145126Y0005187D01*
X0145163Y0005132D01*
X0145203Y0005079D01*
X0145245Y0005028D01*
X0145291Y0004980D01*
X0145339Y0004934D01*
X0145390Y0004892D01*
X0145443Y0004852D01*
X0145498Y0004815D01*
X0145555Y0004781D01*
X0145614Y0004751D01*
X0145674Y0004724D01*
X0145736Y0004700D01*
X0145799Y0004680D01*
X0145863Y0004664D01*
X0145928Y0004651D01*
X0145994Y0004641D01*
X0146060Y0004636D01*
X0146126Y0004634D01*
X0150063Y0004634D01*
X0150129Y0004636D01*
X0150195Y0004641D01*
X0150261Y0004651D01*
X0150326Y0004664D01*
X0150390Y0004680D01*
X0150453Y0004700D01*
X0150515Y0004724D01*
X0150575Y0004751D01*
X0150634Y0004781D01*
X0150691Y0004815D01*
X0150746Y0004852D01*
X0150799Y0004892D01*
X0150850Y0004934D01*
X0150898Y0004980D01*
X0150944Y0005028D01*
X0150986Y0005079D01*
X0151026Y0005132D01*
X0151063Y0005187D01*
X0151097Y0005244D01*
X0151127Y0005303D01*
X0151154Y0005363D01*
X0151178Y0005425D01*
X0151198Y0005488D01*
X0151214Y0005552D01*
X0151227Y0005617D01*
X0151237Y0005683D01*
X0151242Y0005749D01*
X0151244Y0005815D01*
X0151244Y0010933D01*
X0156756Y0010933D01*
X0156756Y0005815D01*
X0156758Y0005749D01*
X0156763Y0005683D01*
X0156773Y0005617D01*
X0156786Y0005552D01*
X0156802Y0005488D01*
X0156822Y0005425D01*
X0156846Y0005363D01*
X0156873Y0005303D01*
X0156903Y0005244D01*
X0156937Y0005187D01*
X0156974Y0005132D01*
X0157014Y0005079D01*
X0157056Y0005028D01*
X0157102Y0004980D01*
X0157150Y0004934D01*
X0157201Y0004892D01*
X0157254Y0004852D01*
X0157309Y0004815D01*
X0157366Y0004781D01*
X0157425Y0004751D01*
X0157485Y0004724D01*
X0157547Y0004700D01*
X0157610Y0004680D01*
X0157674Y0004664D01*
X0157739Y0004651D01*
X0157805Y0004641D01*
X0157871Y0004636D01*
X0157937Y0004634D01*
X0161874Y0004634D01*
X0161940Y0004636D01*
X0162006Y0004641D01*
X0162072Y0004651D01*
X0162137Y0004664D01*
X0162201Y0004680D01*
X0162264Y0004700D01*
X0162326Y0004724D01*
X0162386Y0004751D01*
X0162445Y0004781D01*
X0162502Y0004815D01*
X0162557Y0004852D01*
X0162610Y0004892D01*
X0162661Y0004934D01*
X0162709Y0004980D01*
X0162755Y0005028D01*
X0162797Y0005079D01*
X0162837Y0005132D01*
X0162874Y0005187D01*
X0162908Y0005244D01*
X0162938Y0005303D01*
X0162965Y0005363D01*
X0162989Y0005425D01*
X0163009Y0005488D01*
X0163025Y0005552D01*
X0163038Y0005617D01*
X0163048Y0005683D01*
X0163053Y0005749D01*
X0163055Y0005815D01*
X0163055Y0010933D01*
X0168567Y0010933D01*
X0168567Y0005815D01*
X0168569Y0005749D01*
X0168574Y0005683D01*
X0168584Y0005617D01*
X0168597Y0005552D01*
X0168613Y0005488D01*
X0168633Y0005425D01*
X0168657Y0005363D01*
X0168684Y0005303D01*
X0168714Y0005244D01*
X0168748Y0005187D01*
X0168785Y0005132D01*
X0168825Y0005079D01*
X0168867Y0005028D01*
X0168913Y0004980D01*
X0168961Y0004934D01*
X0169012Y0004892D01*
X0169065Y0004852D01*
X0169120Y0004815D01*
X0169177Y0004781D01*
X0169236Y0004751D01*
X0169296Y0004724D01*
X0169358Y0004700D01*
X0169421Y0004680D01*
X0169485Y0004664D01*
X0169550Y0004651D01*
X0169616Y0004641D01*
X0169682Y0004636D01*
X0169748Y0004634D01*
X0173685Y0004634D01*
X0173751Y0004636D01*
X0173817Y0004641D01*
X0173883Y0004651D01*
X0173948Y0004664D01*
X0174012Y0004680D01*
X0174075Y0004700D01*
X0174137Y0004724D01*
X0174197Y0004751D01*
X0174256Y0004781D01*
X0174313Y0004815D01*
X0174368Y0004852D01*
X0174421Y0004892D01*
X0174472Y0004934D01*
X0174520Y0004980D01*
X0174566Y0005028D01*
X0174608Y0005079D01*
X0174648Y0005132D01*
X0174685Y0005187D01*
X0174719Y0005244D01*
X0174749Y0005303D01*
X0174776Y0005363D01*
X0174800Y0005425D01*
X0174820Y0005488D01*
X0174836Y0005552D01*
X0174849Y0005617D01*
X0174859Y0005683D01*
X0174864Y0005749D01*
X0174866Y0005815D01*
X0174866Y0010933D01*
X0180378Y0010933D01*
X0180378Y0005815D01*
X0180380Y0005749D01*
X0180385Y0005683D01*
X0180395Y0005617D01*
X0180408Y0005552D01*
X0180424Y0005488D01*
X0180444Y0005425D01*
X0180468Y0005363D01*
X0180495Y0005303D01*
X0180525Y0005244D01*
X0180559Y0005187D01*
X0180596Y0005132D01*
X0180636Y0005079D01*
X0180678Y0005028D01*
X0180724Y0004980D01*
X0180772Y0004934D01*
X0180823Y0004892D01*
X0180876Y0004852D01*
X0180931Y0004815D01*
X0180988Y0004781D01*
X0181047Y0004751D01*
X0181107Y0004724D01*
X0181169Y0004700D01*
X0181232Y0004680D01*
X0181296Y0004664D01*
X0181361Y0004651D01*
X0181427Y0004641D01*
X0181493Y0004636D01*
X0181559Y0004634D01*
X0185496Y0004634D01*
X0185496Y0011720D01*
X0187465Y0011720D01*
X0187465Y0004634D01*
X0190693Y0004634D01*
X0190693Y0039280D01*
X0185496Y0043610D01*
X0122504Y0043610D01*
X0150063Y0041248D02*
X0150063Y0037311D01*
X0157937Y0037311D01*
X0157937Y0034949D01*
X0150063Y0034949D01*
X0150063Y0037311D01*
X0150063Y0041248D02*
X0157937Y0041248D01*
X0157937Y0037311D01*
X0184000Y0056000D02*
X0184000Y0186000D01*
X0219000Y0186000D01*
X0219000Y0056000D01*
X0184000Y0056000D01*
X0268000Y0036000D02*
X0303000Y0036000D01*
X0303000Y0186000D01*
X0268000Y0186000D01*
X0268000Y0036000D01*
D14*
X0215369Y0049850D02*
X0213167Y0049850D01*
X0214268Y0049850D02*
X0214268Y0053153D01*
X0213167Y0052052D01*
X0211686Y0053153D02*
X0210585Y0053153D01*
X0211135Y0053153D02*
X0211135Y0050400D01*
X0210585Y0049850D01*
X0210034Y0049850D01*
X0209484Y0050400D01*
X0271400Y0188850D02*
X0271951Y0188850D01*
X0272501Y0189400D01*
X0272501Y0192153D01*
X0271951Y0192153D02*
X0273052Y0192153D01*
X0274533Y0191602D02*
X0275084Y0192153D01*
X0276185Y0192153D01*
X0276735Y0191602D01*
X0276735Y0191052D01*
X0274533Y0188850D01*
X0276735Y0188850D01*
X0271400Y0188850D02*
X0270850Y0189400D01*
D15*
X0308500Y0144000D03*
X0309500Y0111000D03*
X0308500Y0053500D03*
X0205600Y0028500D03*
X0196700Y0028600D03*
X0179000Y0080700D03*
X0178600Y0166900D03*
X0164900Y0196200D03*
D16*
X0279861Y0204553D02*
X0279863Y0204597D01*
X0279869Y0204641D01*
X0279879Y0204684D01*
X0279892Y0204726D01*
X0279910Y0204766D01*
X0279931Y0204805D01*
X0279955Y0204842D01*
X0279982Y0204877D01*
X0280013Y0204909D01*
X0280046Y0204938D01*
X0280082Y0204964D01*
X0280120Y0204986D01*
X0280160Y0205005D01*
X0280201Y0205021D01*
X0280244Y0205033D01*
X0280287Y0205041D01*
X0280331Y0205045D01*
X0280375Y0205045D01*
X0280419Y0205041D01*
X0280462Y0205033D01*
X0280505Y0205021D01*
X0280546Y0205005D01*
X0280586Y0204986D01*
X0280624Y0204964D01*
X0280660Y0204938D01*
X0280693Y0204909D01*
X0280724Y0204877D01*
X0280751Y0204842D01*
X0280775Y0204805D01*
X0280796Y0204766D01*
X0280814Y0204726D01*
X0280827Y0204684D01*
X0280837Y0204641D01*
X0280843Y0204597D01*
X0280845Y0204553D01*
X0280843Y0204509D01*
X0280837Y0204465D01*
X0280827Y0204422D01*
X0280814Y0204380D01*
X0280796Y0204340D01*
X0280775Y0204301D01*
X0280751Y0204264D01*
X0280724Y0204229D01*
X0280693Y0204197D01*
X0280660Y0204168D01*
X0280624Y0204142D01*
X0280586Y0204120D01*
X0280546Y0204101D01*
X0280505Y0204085D01*
X0280462Y0204073D01*
X0280419Y0204065D01*
X0280375Y0204061D01*
X0280331Y0204061D01*
X0280287Y0204065D01*
X0280244Y0204073D01*
X0280201Y0204085D01*
X0280160Y0204101D01*
X0280120Y0204120D01*
X0280082Y0204142D01*
X0280046Y0204168D01*
X0280013Y0204197D01*
X0279982Y0204229D01*
X0279955Y0204264D01*
X0279931Y0204301D01*
X0279910Y0204340D01*
X0279892Y0204380D01*
X0279879Y0204422D01*
X0279869Y0204465D01*
X0279863Y0204509D01*
X0279861Y0204553D01*
X0279863Y0204597D01*
X0279869Y0204641D01*
X0279879Y0204684D01*
X0279892Y0204726D01*
X0279910Y0204766D01*
X0279931Y0204805D01*
X0279955Y0204842D01*
X0279982Y0204877D01*
X0280013Y0204909D01*
X0280046Y0204938D01*
X0280082Y0204964D01*
X0280120Y0204986D01*
X0280160Y0205005D01*
X0280201Y0205021D01*
X0280244Y0205033D01*
X0280287Y0205041D01*
X0280331Y0205045D01*
X0280375Y0205045D01*
X0280419Y0205041D01*
X0280462Y0205033D01*
X0280505Y0205021D01*
X0280546Y0205005D01*
X0280586Y0204986D01*
X0280624Y0204964D01*
X0280660Y0204938D01*
X0280693Y0204909D01*
X0280724Y0204877D01*
X0280751Y0204842D01*
X0280775Y0204805D01*
X0280796Y0204766D01*
X0280814Y0204726D01*
X0280827Y0204684D01*
X0280837Y0204641D01*
X0280843Y0204597D01*
X0280845Y0204553D01*
X0280843Y0204509D01*
X0280837Y0204465D01*
X0280827Y0204422D01*
X0280814Y0204380D01*
X0280796Y0204340D01*
X0280775Y0204301D01*
X0280751Y0204264D01*
X0280724Y0204229D01*
X0280693Y0204197D01*
X0280660Y0204168D01*
X0280624Y0204142D01*
X0280586Y0204120D01*
X0280546Y0204101D01*
X0280505Y0204085D01*
X0280462Y0204073D01*
X0280419Y0204065D01*
X0280375Y0204061D01*
X0280331Y0204061D01*
X0280287Y0204065D01*
X0280244Y0204073D01*
X0280201Y0204085D01*
X0280160Y0204101D01*
X0280120Y0204120D01*
X0280082Y0204142D01*
X0280046Y0204168D01*
X0280013Y0204197D01*
X0279982Y0204229D01*
X0279955Y0204264D01*
X0279931Y0204301D01*
X0279910Y0204340D01*
X0279892Y0204380D01*
X0279879Y0204422D01*
X0279869Y0204465D01*
X0279863Y0204509D01*
X0279861Y0204553D01*
D17*
X0285274Y0208982D02*
X0269526Y0208982D01*
X0269526Y0194218D01*
X0285274Y0194218D01*
X0285274Y0208982D01*
X0189450Y0210846D02*
X0186447Y0213849D01*
X0185697Y0213849D01*
X0184946Y0213098D01*
X0184946Y0211597D01*
X0185697Y0210846D01*
X0185697Y0209245D02*
X0184946Y0208494D01*
X0184946Y0206242D01*
X0189450Y0206242D01*
X0187949Y0206242D02*
X0187949Y0208494D01*
X0187198Y0209245D01*
X0185697Y0209245D01*
X0189450Y0210846D02*
X0189450Y0213849D01*
X0188699Y0203890D02*
X0184946Y0203890D01*
X0184946Y0203139D02*
X0184946Y0204641D01*
X0188699Y0203890D02*
X0189450Y0203139D01*
X0189450Y0202389D01*
X0188699Y0201638D01*
X0132568Y0174052D02*
X0132570Y0174119D01*
X0132576Y0174186D01*
X0132586Y0174252D01*
X0132600Y0174318D01*
X0132617Y0174382D01*
X0132639Y0174446D01*
X0132664Y0174508D01*
X0132693Y0174568D01*
X0132725Y0174627D01*
X0132761Y0174684D01*
X0132800Y0174738D01*
X0132842Y0174790D01*
X0132887Y0174840D01*
X0132936Y0174886D01*
X0132986Y0174930D01*
X0133040Y0174971D01*
X0133095Y0175008D01*
X0133153Y0175042D01*
X0133213Y0175073D01*
X0133274Y0175100D01*
X0133337Y0175123D01*
X0133401Y0175143D01*
X0133466Y0175159D01*
X0133532Y0175171D01*
X0133599Y0175179D01*
X0133665Y0175183D01*
X0133733Y0175183D01*
X0133799Y0175179D01*
X0133866Y0175171D01*
X0133932Y0175159D01*
X0133997Y0175143D01*
X0134061Y0175123D01*
X0134124Y0175100D01*
X0134185Y0175073D01*
X0134245Y0175042D01*
X0134303Y0175008D01*
X0134358Y0174971D01*
X0134412Y0174930D01*
X0134462Y0174886D01*
X0134511Y0174840D01*
X0134556Y0174790D01*
X0134598Y0174738D01*
X0134637Y0174684D01*
X0134673Y0174627D01*
X0134705Y0174568D01*
X0134734Y0174508D01*
X0134759Y0174446D01*
X0134781Y0174382D01*
X0134798Y0174318D01*
X0134812Y0174252D01*
X0134822Y0174186D01*
X0134828Y0174119D01*
X0134830Y0174052D01*
X0134828Y0173985D01*
X0134822Y0173918D01*
X0134812Y0173852D01*
X0134798Y0173786D01*
X0134781Y0173722D01*
X0134759Y0173658D01*
X0134734Y0173596D01*
X0134705Y0173536D01*
X0134673Y0173477D01*
X0134637Y0173420D01*
X0134598Y0173366D01*
X0134556Y0173314D01*
X0134511Y0173264D01*
X0134462Y0173218D01*
X0134412Y0173174D01*
X0134358Y0173133D01*
X0134303Y0173096D01*
X0134245Y0173062D01*
X0134185Y0173031D01*
X0134124Y0173004D01*
X0134061Y0172981D01*
X0133997Y0172961D01*
X0133932Y0172945D01*
X0133866Y0172933D01*
X0133799Y0172925D01*
X0133733Y0172921D01*
X0133665Y0172921D01*
X0133599Y0172925D01*
X0133532Y0172933D01*
X0133466Y0172945D01*
X0133401Y0172961D01*
X0133337Y0172981D01*
X0133274Y0173004D01*
X0133213Y0173031D01*
X0133153Y0173062D01*
X0133095Y0173096D01*
X0133040Y0173133D01*
X0132986Y0173174D01*
X0132936Y0173218D01*
X0132887Y0173264D01*
X0132842Y0173314D01*
X0132800Y0173366D01*
X0132761Y0173420D01*
X0132725Y0173477D01*
X0132693Y0173536D01*
X0132664Y0173596D01*
X0132639Y0173658D01*
X0132617Y0173722D01*
X0132600Y0173786D01*
X0132586Y0173852D01*
X0132576Y0173918D01*
X0132570Y0173985D01*
X0132568Y0174052D01*
X0132268Y0115352D02*
X0132270Y0115419D01*
X0132276Y0115486D01*
X0132286Y0115552D01*
X0132300Y0115618D01*
X0132317Y0115682D01*
X0132339Y0115746D01*
X0132364Y0115808D01*
X0132393Y0115868D01*
X0132425Y0115927D01*
X0132461Y0115984D01*
X0132500Y0116038D01*
X0132542Y0116090D01*
X0132587Y0116140D01*
X0132636Y0116186D01*
X0132686Y0116230D01*
X0132740Y0116271D01*
X0132795Y0116308D01*
X0132853Y0116342D01*
X0132913Y0116373D01*
X0132974Y0116400D01*
X0133037Y0116423D01*
X0133101Y0116443D01*
X0133166Y0116459D01*
X0133232Y0116471D01*
X0133299Y0116479D01*
X0133365Y0116483D01*
X0133433Y0116483D01*
X0133499Y0116479D01*
X0133566Y0116471D01*
X0133632Y0116459D01*
X0133697Y0116443D01*
X0133761Y0116423D01*
X0133824Y0116400D01*
X0133885Y0116373D01*
X0133945Y0116342D01*
X0134003Y0116308D01*
X0134058Y0116271D01*
X0134112Y0116230D01*
X0134162Y0116186D01*
X0134211Y0116140D01*
X0134256Y0116090D01*
X0134298Y0116038D01*
X0134337Y0115984D01*
X0134373Y0115927D01*
X0134405Y0115868D01*
X0134434Y0115808D01*
X0134459Y0115746D01*
X0134481Y0115682D01*
X0134498Y0115618D01*
X0134512Y0115552D01*
X0134522Y0115486D01*
X0134528Y0115419D01*
X0134530Y0115352D01*
X0134528Y0115285D01*
X0134522Y0115218D01*
X0134512Y0115152D01*
X0134498Y0115086D01*
X0134481Y0115022D01*
X0134459Y0114958D01*
X0134434Y0114896D01*
X0134405Y0114836D01*
X0134373Y0114777D01*
X0134337Y0114720D01*
X0134298Y0114666D01*
X0134256Y0114614D01*
X0134211Y0114564D01*
X0134162Y0114518D01*
X0134112Y0114474D01*
X0134058Y0114433D01*
X0134003Y0114396D01*
X0133945Y0114362D01*
X0133885Y0114331D01*
X0133824Y0114304D01*
X0133761Y0114281D01*
X0133697Y0114261D01*
X0133632Y0114245D01*
X0133566Y0114233D01*
X0133499Y0114225D01*
X0133433Y0114221D01*
X0133365Y0114221D01*
X0133299Y0114225D01*
X0133232Y0114233D01*
X0133166Y0114245D01*
X0133101Y0114261D01*
X0133037Y0114281D01*
X0132974Y0114304D01*
X0132913Y0114331D01*
X0132853Y0114362D01*
X0132795Y0114396D01*
X0132740Y0114433D01*
X0132686Y0114474D01*
X0132636Y0114518D01*
X0132587Y0114564D01*
X0132542Y0114614D01*
X0132500Y0114666D01*
X0132461Y0114720D01*
X0132425Y0114777D01*
X0132393Y0114836D01*
X0132364Y0114896D01*
X0132339Y0114958D01*
X0132317Y0115022D01*
X0132300Y0115086D01*
X0132286Y0115152D01*
X0132276Y0115218D01*
X0132270Y0115285D01*
X0132268Y0115352D01*
X0236626Y0092374D02*
X0236626Y0090799D01*
X0236626Y0092374D02*
X0238201Y0092374D01*
X0250799Y0092374D02*
X0252374Y0092374D01*
X0252374Y0090799D01*
X0252374Y0078201D02*
X0252374Y0076626D01*
X0250799Y0076626D01*
X0238201Y0076626D02*
X0236626Y0078201D01*
X0289746Y0019047D02*
X0294250Y0019047D01*
X0294250Y0017546D02*
X0294250Y0020549D01*
X0291247Y0017546D02*
X0289746Y0019047D01*
X0290497Y0015945D02*
X0289746Y0015194D01*
X0289746Y0012942D01*
X0294250Y0012942D01*
X0292749Y0012942D02*
X0292749Y0015194D01*
X0291998Y0015945D01*
X0290497Y0015945D01*
X0289746Y0011341D02*
X0289746Y0009839D01*
X0289746Y0010590D02*
X0293499Y0010590D01*
X0294250Y0009839D01*
X0294250Y0009089D01*
X0293499Y0008338D01*
D18*
X0284500Y0008100D02*
X0282000Y0005600D01*
X0277000Y0005600D01*
X0274500Y0008100D01*
X0274500Y0023100D01*
X0272000Y0025600D01*
X0267000Y0025600D01*
X0264500Y0023100D01*
X0264500Y0008100D01*
X0262000Y0005600D01*
X0257000Y0005600D01*
X0254500Y0008100D01*
X0254500Y0023100D01*
X0252000Y0025600D01*
X0247000Y0025600D01*
X0244500Y0023100D01*
X0244500Y0008100D01*
X0242000Y0005600D01*
X0237000Y0005600D01*
X0234500Y0008100D01*
X0234500Y0023100D01*
X0232000Y0025600D01*
X0227000Y0025600D01*
X0224500Y0023100D01*
X0224500Y0008100D01*
X0227000Y0005600D01*
X0232000Y0005600D01*
X0234500Y0008100D01*
X0244500Y0008100D02*
X0247000Y0005600D01*
X0252000Y0005600D01*
X0254500Y0008100D01*
X0264500Y0008100D02*
X0267000Y0005600D01*
X0272000Y0005600D01*
X0274500Y0008100D01*
X0284500Y0008100D02*
X0284500Y0023100D01*
X0282000Y0025600D01*
X0277000Y0025600D01*
X0274500Y0023100D01*
X0264500Y0023100D02*
X0262000Y0025600D01*
X0257000Y0025600D01*
X0254500Y0023100D01*
X0244500Y0023100D02*
X0242000Y0025600D01*
X0237000Y0025600D01*
X0234500Y0023100D01*
X0236201Y0124902D02*
X0236201Y0139098D01*
X0254799Y0139098D02*
X0254799Y0124902D01*
M02*
