%
M48
M72
T01C0.0130
T02C0.0140
T03C0.0197
T04C0.0200
T05C0.0236
T06C0.0354
T07C0.0400
T08C0.0402
T09C0.0551
T10C0.1181
T11C0.1360
%
T01
X16382Y3891
X21042Y6904
X22006Y7868
X23774Y6261
X21203Y9516
X17466Y12449
X16382Y11766
X29520Y16426
T02
X34000Y13790
X36600Y6765
X34000Y21215
T03
X22430Y10360
T04
X21404Y10560
X21404Y11203
X22087Y13292
X24859Y15100
X24377Y15582
X20399Y18636
X21605Y21006
X27350Y9877
X27029Y9234
X26707Y8672
X26707Y6703
X28435Y4574
X30002Y8551
T05
X31160Y9240
X32400Y10310
X31180Y10620
X31180Y11260
X32240Y11480
X32240Y12740
X32230Y14280
X32650Y15060
X32240Y15580
X33300Y15860
X33960Y16510
X34830Y16430
X36480Y16390
X37320Y16400
X38570Y15410
X39340Y14090
X39360Y11960
X39220Y10540
X36930Y9090
X38370Y8840
X35240Y8950
X33600Y8910
X32220Y8220
X31160Y7860
X32240Y7080
X32530Y6710
X32240Y6080
X30380Y5730
X30280Y6310
X28800Y6210
X27700Y5530
X27080Y4950
X26380Y4390
X25220Y4550
X23660Y4390
X23620Y3690
X23600Y5090
X21570Y5800
X21640Y6670
X22640Y6950
X24240Y7050
X25040Y7030
X26180Y7290
X26160Y6070
X24020Y8110
X23320Y8810
X23130Y10490
X22740Y11350
X23560Y12310
X24260Y12930
X25980Y13010
X26150Y14020
X26130Y14900
X26620Y16790
X26420Y17800
X23720Y18330
X23000Y18950
X23370Y19710
X24850Y19620
X25890Y19620
X25480Y20900
X25130Y22110
X23470Y22130
X24760Y23420
X23010Y23440
X26650Y23380
X30640Y23200
X30870Y22340
X31150Y21270
X31300Y20200
X32850Y17660
X31790Y17370
X31640Y16730
X38580Y18280
X39340Y20300
X39340Y21670
X37800Y22790
X36720Y23350
X34560Y23280
X33130Y23040
X22700Y16810
X22820Y15720
X22920Y14940
X21460Y14190
X21440Y13450
X21900Y12450
X18470Y14300
X17780Y14860
X18550Y15680
X17700Y15950
X17560Y16810
X18630Y16870
X18820Y17670
X19450Y18840
X19240Y19870
X15610Y19120
X15600Y21190
X14120Y22600
X15410Y22720
X12940Y23280
X12640Y22250
X6540Y20670
X3930Y20260
X3360Y17430
X8270Y15860
X10280Y16380
X10410Y14700
X8250Y14190
X8090Y12030
X10340Y11720
X10490Y9480
X8060Y8000
X7200Y7920
X4780Y9100
X2860Y10350
X4710Y13220
X10430Y18270
X16870Y13550
X17130Y10610
X17720Y8230
X18810Y7770
X19410Y7190
X20130Y6960
X18030Y5760
X16950Y5780
X15810Y5060
X14180Y6900
X17750Y7410
X19690Y4020
X20790Y4190
X20330Y3210
X16970Y2250
X14620Y2170
X12140Y2230
X10770Y2420
X10570Y5670
X8100Y5770
X7180Y5610
X10430Y7370
X3400Y4790
X24910Y1950
X29070Y1930
X30110Y1950
X31070Y1970
X31710Y1950
X33970Y2190
X37880Y2250
X38930Y4160
X39280Y5140
X39280Y6440
X29840Y10540
X29820Y11920
X29780Y12440
X27630Y12320
X26800Y11530
X26800Y10850
X19030Y22330
T06
X16018Y2190
X13222Y2190
T07
X12040Y4100
X12040Y5100
X9110Y2890
X4110Y2890
X19650Y8840
X20650Y8840
X20650Y9840
X19650Y9840
X19650Y10840
X20650Y10840
X20650Y11840
X19650Y11840
X19650Y12840
X20650Y12840
X20650Y13840
X19650Y13840
X19650Y14840
X20650Y14840
X20650Y15840
X19650Y15840
X19650Y16840
X20650Y16840
X20650Y17840
X19650Y17840
X17720Y18600
X17720Y19600
X17720Y20600
X17720Y21600
X17720Y22600
X28050Y17840
X29050Y17840
X29050Y16840
X28050Y16840
X28050Y15840
X29050Y15840
X29050Y14840
X28050Y14840
X28050Y13840
X29050Y13840
X29050Y12840
X28050Y12840
X28050Y11840
X29050Y11840
X29050Y10840
X28050Y10840
X28050Y9840
X29050Y9840
X29050Y8840
X28050Y8840
X28050Y7840
X29050Y7840
X29050Y6840
X28050Y6840
X27610Y3660
X26610Y3660
X25610Y3660
X24610Y3660
X24610Y2660
X25610Y2660
X26610Y2660
X27610Y2660
X28610Y2660
X29610Y2660
X30610Y2660
X31610Y2660
X31610Y3660
X30610Y3660
X29610Y3660
X28610Y3660
T08
X22652Y5001
X21471Y5001
X20290Y5001
X19109Y5001
X17928Y5001
T09
X35500Y5265
X35500Y12690
X35500Y20115
T10
X1000Y2290
X18774Y3300
X21806Y3300
X39300Y2290
X39300Y23040
X1000Y23040
T11
X7535Y18090
X5685Y6290
M30
