%
M48
M72
T01C0.0140
T02C0.0197
T03C0.0200
T04C0.0236
T05C0.0354
T06C0.0400
T07C0.0402
T08C0.0551
T09C0.1181
T10C0.1360
%
T01
X34000Y13440
X36600Y6415
X34000Y20865
T02
X22430Y10010
T03
X21404Y10210
X21404Y10853
X21323Y12821
X22087Y12942
X24859Y14750
X24377Y15232
X20399Y18286
X21605Y20656
X30403Y13786
X27350Y9527
X27029Y8884
X26707Y8322
X29761Y9286
X30002Y8201
X26707Y6353
X28435Y4224
X16703Y6795
X16221Y10933
T04
X17130Y10260
X17720Y7880
X17750Y7060
X16950Y5430
X15810Y4710
X17670Y3670
X20150Y3710
X20480Y2800
X17060Y1770
X14620Y1820
X12140Y1880
X10770Y2070
X10570Y5320
X8100Y5420
X7180Y5260
X10430Y7020
X8060Y7650
X7200Y7570
X4780Y8750
X2860Y10000
X4710Y12870
X8090Y11680
X10340Y11370
X10490Y9130
X14180Y6550
X22710Y6770
X23270Y7410
X22620Y8020
X24570Y7080
X25200Y6790
X27700Y5180
X25960Y4900
X24910Y4940
X31160Y7510
X32290Y7020
X32530Y6360
X33600Y8560
X35240Y8600
X36930Y8740
X38370Y8490
X39220Y10190
X39360Y11610
X39340Y13740
X38570Y15060
X37320Y16050
X36480Y16040
X34830Y16080
X33960Y16160
X33300Y15510
X32240Y15230
X32650Y14710
X32230Y13930
X32240Y12390
X32400Y9960
X26290Y10900
X23560Y11960
X25980Y12660
X26150Y13670
X26130Y14550
X26620Y16440
X26420Y17450
X23720Y17980
X23000Y18600
X23370Y19360
X24850Y19270
X25890Y19270
X25480Y20550
X25130Y21760
X23470Y21780
X23010Y23090
X24760Y23070
X26650Y23030
X30640Y22850
X30870Y21990
X31150Y20920
X31300Y19850
X32850Y17310
X31790Y17020
X31640Y16380
X38580Y17930
X39340Y19950
X39340Y21320
X37800Y22440
X36720Y23000
X34560Y22930
X33130Y22690
X22700Y16460
X22820Y15370
X22920Y14590
X18550Y15330
X17700Y15600
X17560Y16460
X18630Y16520
X18820Y17320
X19450Y18490
X19240Y19520
X15610Y18770
X15600Y20840
X14120Y22250
X15410Y22370
X12940Y22930
X12640Y21900
X6540Y20320
X3930Y19910
X3360Y17080
X8270Y15510
X10280Y16030
X10410Y14350
X8250Y13840
X10430Y17920
X17780Y14510
X18470Y13950
X16870Y13200
X23130Y10140
X33970Y1840
X37880Y1900
X38930Y3810
X39280Y4790
X39280Y6090
X19030Y21980
X3400Y4440
T05
X13222Y1840
X16018Y1840
T06
X12040Y3750
X12040Y4750
X9110Y2540
X4110Y2540
X19650Y8490
X20650Y8490
X20650Y9490
X19650Y9490
X19650Y10490
X20650Y10490
X20650Y11490
X19650Y11490
X19650Y12490
X20650Y12490
X20650Y13490
X19650Y13490
X19650Y14490
X20650Y14490
X20650Y15490
X19650Y15490
X19650Y16490
X20650Y16490
X20650Y17490
X19650Y17490
X17720Y18250
X17720Y19250
X17720Y20250
X17720Y21250
X17720Y22250
X28050Y17490
X29050Y17490
X29050Y16490
X28050Y16490
X28050Y15490
X29050Y15490
X29050Y14490
X28050Y14490
X28050Y13490
X29050Y13490
X29050Y12490
X28050Y12490
X28050Y11490
X29050Y11490
X29050Y10490
X28050Y10490
X28050Y9490
X29050Y9490
X29050Y8490
X28050Y8490
X28050Y7490
X29050Y7490
X29050Y6490
X28050Y6490
X27610Y3310
X26610Y3310
X25610Y3310
X24610Y3310
X24610Y2310
X25610Y2310
X26610Y2310
X27610Y2310
X28610Y2310
X29610Y2310
X30610Y2310
X31610Y2310
X31610Y3310
X30610Y3310
X29610Y3310
X28610Y3310
T07
X22652Y4650
X21471Y4650
X20290Y4650
X19109Y4650
X17928Y4650
T08
X35500Y4915
X35500Y12340
X35500Y19765
T09
X1000Y1940
X18774Y2950
X21806Y2950
X39300Y1940
X39300Y22690
X1000Y22690
T10
X7535Y17740
X5685Y5940
M30
