G75*
%MOIN*%
%OFA0B0*%
%FSLAX25Y25*%
%IPPOS*%
%LPD*%
%AMOC8*
5,1,8,0,0,1.08239X$1,22.5*
%
%ADD10C,0.12411*%
%ADD11C,0.09655*%
%ADD12C,0.14200*%
%ADD13R,0.06600X0.06600*%
%ADD14OC8,0.06600*%
%ADD15R,0.06624X0.06624*%
%ADD16C,0.06624*%
%ADD17C,0.06112*%
%ADD18C,0.04143*%
%ADD19C,0.08000*%
%ADD20OC8,0.08000*%
%ADD21C,0.04362*%
%ADD22C,0.04000*%
%ADD23C,0.03969*%
%ADD24R,0.04362X0.04362*%
D10*
X0010000Y0019397D03*
X0187743Y0029497D03*
X0218057Y0029497D03*
X0393000Y0019397D03*
X0393000Y0226897D03*
X0010000Y0226897D03*
D11*
X0041100Y0025397D03*
X0091100Y0025397D03*
D12*
X0056850Y0059397D03*
X0075350Y0177397D03*
D13*
X0206500Y0084897D03*
X0280500Y0174897D03*
D14*
X0290500Y0174897D03*
X0290500Y0164897D03*
X0280500Y0164897D03*
X0280500Y0154897D03*
X0290500Y0154897D03*
X0290500Y0144897D03*
X0280500Y0144897D03*
X0280500Y0134897D03*
X0290500Y0134897D03*
X0290500Y0124897D03*
X0280500Y0124897D03*
X0280500Y0114897D03*
X0290500Y0114897D03*
X0290500Y0104897D03*
X0280500Y0104897D03*
X0280500Y0094897D03*
X0290500Y0094897D03*
X0290500Y0084897D03*
X0280500Y0084897D03*
X0280500Y0074897D03*
X0290500Y0074897D03*
X0290500Y0064897D03*
X0280500Y0064897D03*
X0206500Y0094897D03*
X0196500Y0094897D03*
X0196500Y0084897D03*
X0196500Y0104897D03*
X0206500Y0104897D03*
X0206500Y0114897D03*
X0196500Y0114897D03*
X0196500Y0124897D03*
X0206500Y0124897D03*
X0206500Y0134897D03*
X0196500Y0134897D03*
X0196500Y0144897D03*
X0206500Y0144897D03*
X0206500Y0154897D03*
X0196500Y0154897D03*
X0196500Y0164897D03*
X0206500Y0164897D03*
X0206500Y0174897D03*
X0196500Y0174897D03*
D15*
X0226522Y0046505D03*
D16*
X0214711Y0046505D03*
X0202900Y0046505D03*
X0191089Y0046505D03*
X0179278Y0046505D03*
D17*
X0355000Y0049147D03*
X0355000Y0123397D03*
X0355000Y0197647D03*
D18*
X0160176Y0018397D03*
X0132224Y0018397D03*
D19*
X0120400Y0037497D03*
X0120400Y0047497D03*
X0177200Y0182497D03*
X0177200Y0192497D03*
X0177200Y0202497D03*
X0177200Y0212497D03*
X0177200Y0222497D03*
D20*
X0246100Y0033097D03*
X0256100Y0033097D03*
X0266100Y0033097D03*
X0276100Y0033097D03*
X0286100Y0033097D03*
X0296100Y0033097D03*
X0306100Y0033097D03*
X0316100Y0033097D03*
X0316100Y0023097D03*
X0306100Y0023097D03*
X0296100Y0023097D03*
X0286100Y0023097D03*
X0276100Y0023097D03*
X0266100Y0023097D03*
X0256100Y0023097D03*
X0246100Y0023097D03*
D21*
X0249100Y0049397D03*
X0259600Y0048997D03*
X0277000Y0051797D03*
X0252000Y0067897D03*
X0245700Y0070797D03*
X0232700Y0074097D03*
X0226200Y0080197D03*
X0227100Y0067697D03*
X0177500Y0070597D03*
X0177200Y0078797D03*
X0141800Y0065497D03*
X0169500Y0054297D03*
X0158100Y0047097D03*
X0176700Y0036697D03*
X0201500Y0037097D03*
X0204800Y0027997D03*
X0170600Y0017697D03*
X0146200Y0018197D03*
X0121400Y0018797D03*
X0107700Y0020697D03*
X0105700Y0053197D03*
X0081000Y0054197D03*
X0071800Y0052597D03*
X0104300Y0070197D03*
X0080600Y0076497D03*
X0072000Y0075697D03*
X0047800Y0087497D03*
X0028600Y0099997D03*
X0047100Y0128697D03*
X0080900Y0116797D03*
X0103400Y0113697D03*
X0104900Y0091297D03*
X0171300Y0102597D03*
X0184700Y0139497D03*
X0177800Y0145097D03*
X0185500Y0153297D03*
X0177000Y0155997D03*
X0175600Y0164597D03*
X0186300Y0165197D03*
X0188200Y0173197D03*
X0194500Y0184897D03*
X0192400Y0195197D03*
X0156100Y0187697D03*
X0156000Y0208397D03*
X0141200Y0222497D03*
X0154100Y0223697D03*
X0129400Y0229297D03*
X0126400Y0218997D03*
X0065400Y0203197D03*
X0039300Y0199097D03*
X0033600Y0170797D03*
X0082700Y0155097D03*
X0102800Y0160297D03*
X0104100Y0143497D03*
X0082500Y0138397D03*
X0104300Y0179197D03*
X0190300Y0219797D03*
X0230100Y0230897D03*
X0247600Y0230697D03*
X0266500Y0230297D03*
X0251300Y0217597D03*
X0234700Y0217797D03*
X0254800Y0205497D03*
X0258900Y0192697D03*
X0248500Y0192697D03*
X0233700Y0193597D03*
X0230000Y0185997D03*
X0237200Y0179797D03*
X0227000Y0164597D03*
X0228200Y0153697D03*
X0229200Y0145897D03*
X0261300Y0145497D03*
X0261500Y0136697D03*
X0259800Y0126597D03*
X0235600Y0119597D03*
X0262900Y0108997D03*
X0231300Y0101397D03*
X0311600Y0075097D03*
X0322900Y0070197D03*
X0325300Y0063597D03*
X0336000Y0085597D03*
X0352400Y0085997D03*
X0369300Y0087397D03*
X0383700Y0084897D03*
X0392200Y0101897D03*
X0393600Y0116097D03*
X0393400Y0137397D03*
X0385700Y0150597D03*
X0373200Y0160497D03*
X0364800Y0160397D03*
X0348300Y0160797D03*
X0339600Y0161597D03*
X0333000Y0155097D03*
X0322400Y0152297D03*
X0326500Y0147097D03*
X0322300Y0139297D03*
X0322400Y0123897D03*
X0324000Y0099597D03*
X0392800Y0060897D03*
X0392800Y0047897D03*
X0389300Y0038097D03*
X0378800Y0018997D03*
X0339700Y0018397D03*
X0316400Y0163797D03*
X0317900Y0170197D03*
X0328500Y0173097D03*
X0313000Y0198497D03*
X0311500Y0209197D03*
X0308700Y0219897D03*
X0306400Y0228497D03*
X0331300Y0226897D03*
X0345600Y0229297D03*
X0367200Y0229997D03*
X0378000Y0224397D03*
X0393400Y0213197D03*
X0393400Y0199497D03*
X0385800Y0179297D03*
X0266200Y0164397D03*
X0264200Y0174497D03*
X0034000Y0044397D03*
D22*
X0162209Y0109331D03*
X0213234Y0128214D03*
X0220867Y0129420D03*
X0248590Y0147499D03*
X0243768Y0152321D03*
X0203993Y0182855D03*
X0216046Y0206560D03*
X0304034Y0137857D03*
X0273499Y0095269D03*
X0270285Y0088841D03*
X0267071Y0083216D03*
X0297606Y0092858D03*
X0300016Y0082011D03*
X0267071Y0063529D03*
X0284347Y0042235D03*
X0214037Y0102099D03*
X0214037Y0108527D03*
X0167030Y0067949D03*
D23*
X0224300Y0100097D03*
D24*
X0168700Y0131997D03*
M02*
