G75*
%MOIN*%
%OFA0B0*%
%FSLAX25Y25*%
%IPPOS*%
%LPD*%
%AMOC8*
5,1,8,0,0,1.08239X$1,22.5*
%
%ADD10C,0.00000*%
D10*
X0001500Y0002000D02*
X0401500Y0002000D01*
X0401500Y0227000D01*
X0001500Y0227000D01*
X0001500Y0002000D01*
X0004094Y0010500D02*
X0004096Y0010653D01*
X0004102Y0010807D01*
X0004112Y0010960D01*
X0004126Y0011112D01*
X0004144Y0011265D01*
X0004166Y0011416D01*
X0004191Y0011567D01*
X0004221Y0011718D01*
X0004255Y0011868D01*
X0004292Y0012016D01*
X0004333Y0012164D01*
X0004378Y0012310D01*
X0004427Y0012456D01*
X0004480Y0012600D01*
X0004536Y0012742D01*
X0004596Y0012883D01*
X0004660Y0013023D01*
X0004727Y0013161D01*
X0004798Y0013297D01*
X0004873Y0013431D01*
X0004950Y0013563D01*
X0005032Y0013693D01*
X0005116Y0013821D01*
X0005204Y0013947D01*
X0005295Y0014070D01*
X0005389Y0014191D01*
X0005487Y0014309D01*
X0005587Y0014425D01*
X0005691Y0014538D01*
X0005797Y0014649D01*
X0005906Y0014757D01*
X0006018Y0014862D01*
X0006132Y0014963D01*
X0006250Y0015062D01*
X0006369Y0015158D01*
X0006491Y0015251D01*
X0006616Y0015340D01*
X0006743Y0015427D01*
X0006872Y0015509D01*
X0007003Y0015589D01*
X0007136Y0015665D01*
X0007271Y0015738D01*
X0007408Y0015807D01*
X0007547Y0015872D01*
X0007687Y0015934D01*
X0007829Y0015992D01*
X0007972Y0016047D01*
X0008117Y0016098D01*
X0008263Y0016145D01*
X0008410Y0016188D01*
X0008558Y0016227D01*
X0008707Y0016263D01*
X0008857Y0016294D01*
X0009008Y0016322D01*
X0009159Y0016346D01*
X0009312Y0016366D01*
X0009464Y0016382D01*
X0009617Y0016394D01*
X0009770Y0016402D01*
X0009923Y0016406D01*
X0010077Y0016406D01*
X0010230Y0016402D01*
X0010383Y0016394D01*
X0010536Y0016382D01*
X0010688Y0016366D01*
X0010841Y0016346D01*
X0010992Y0016322D01*
X0011143Y0016294D01*
X0011293Y0016263D01*
X0011442Y0016227D01*
X0011590Y0016188D01*
X0011737Y0016145D01*
X0011883Y0016098D01*
X0012028Y0016047D01*
X0012171Y0015992D01*
X0012313Y0015934D01*
X0012453Y0015872D01*
X0012592Y0015807D01*
X0012729Y0015738D01*
X0012864Y0015665D01*
X0012997Y0015589D01*
X0013128Y0015509D01*
X0013257Y0015427D01*
X0013384Y0015340D01*
X0013509Y0015251D01*
X0013631Y0015158D01*
X0013750Y0015062D01*
X0013868Y0014963D01*
X0013982Y0014862D01*
X0014094Y0014757D01*
X0014203Y0014649D01*
X0014309Y0014538D01*
X0014413Y0014425D01*
X0014513Y0014309D01*
X0014611Y0014191D01*
X0014705Y0014070D01*
X0014796Y0013947D01*
X0014884Y0013821D01*
X0014968Y0013693D01*
X0015050Y0013563D01*
X0015127Y0013431D01*
X0015202Y0013297D01*
X0015273Y0013161D01*
X0015340Y0013023D01*
X0015404Y0012883D01*
X0015464Y0012742D01*
X0015520Y0012600D01*
X0015573Y0012456D01*
X0015622Y0012310D01*
X0015667Y0012164D01*
X0015708Y0012016D01*
X0015745Y0011868D01*
X0015779Y0011718D01*
X0015809Y0011567D01*
X0015834Y0011416D01*
X0015856Y0011265D01*
X0015874Y0011112D01*
X0015888Y0010960D01*
X0015898Y0010807D01*
X0015904Y0010653D01*
X0015906Y0010500D01*
X0015904Y0010347D01*
X0015898Y0010193D01*
X0015888Y0010040D01*
X0015874Y0009888D01*
X0015856Y0009735D01*
X0015834Y0009584D01*
X0015809Y0009433D01*
X0015779Y0009282D01*
X0015745Y0009132D01*
X0015708Y0008984D01*
X0015667Y0008836D01*
X0015622Y0008690D01*
X0015573Y0008544D01*
X0015520Y0008400D01*
X0015464Y0008258D01*
X0015404Y0008117D01*
X0015340Y0007977D01*
X0015273Y0007839D01*
X0015202Y0007703D01*
X0015127Y0007569D01*
X0015050Y0007437D01*
X0014968Y0007307D01*
X0014884Y0007179D01*
X0014796Y0007053D01*
X0014705Y0006930D01*
X0014611Y0006809D01*
X0014513Y0006691D01*
X0014413Y0006575D01*
X0014309Y0006462D01*
X0014203Y0006351D01*
X0014094Y0006243D01*
X0013982Y0006138D01*
X0013868Y0006037D01*
X0013750Y0005938D01*
X0013631Y0005842D01*
X0013509Y0005749D01*
X0013384Y0005660D01*
X0013257Y0005573D01*
X0013128Y0005491D01*
X0012997Y0005411D01*
X0012864Y0005335D01*
X0012729Y0005262D01*
X0012592Y0005193D01*
X0012453Y0005128D01*
X0012313Y0005066D01*
X0012171Y0005008D01*
X0012028Y0004953D01*
X0011883Y0004902D01*
X0011737Y0004855D01*
X0011590Y0004812D01*
X0011442Y0004773D01*
X0011293Y0004737D01*
X0011143Y0004706D01*
X0010992Y0004678D01*
X0010841Y0004654D01*
X0010688Y0004634D01*
X0010536Y0004618D01*
X0010383Y0004606D01*
X0010230Y0004598D01*
X0010077Y0004594D01*
X0009923Y0004594D01*
X0009770Y0004598D01*
X0009617Y0004606D01*
X0009464Y0004618D01*
X0009312Y0004634D01*
X0009159Y0004654D01*
X0009008Y0004678D01*
X0008857Y0004706D01*
X0008707Y0004737D01*
X0008558Y0004773D01*
X0008410Y0004812D01*
X0008263Y0004855D01*
X0008117Y0004902D01*
X0007972Y0004953D01*
X0007829Y0005008D01*
X0007687Y0005066D01*
X0007547Y0005128D01*
X0007408Y0005193D01*
X0007271Y0005262D01*
X0007136Y0005335D01*
X0007003Y0005411D01*
X0006872Y0005491D01*
X0006743Y0005573D01*
X0006616Y0005660D01*
X0006491Y0005749D01*
X0006369Y0005842D01*
X0006250Y0005938D01*
X0006132Y0006037D01*
X0006018Y0006138D01*
X0005906Y0006243D01*
X0005797Y0006351D01*
X0005691Y0006462D01*
X0005587Y0006575D01*
X0005487Y0006691D01*
X0005389Y0006809D01*
X0005295Y0006930D01*
X0005204Y0007053D01*
X0005116Y0007179D01*
X0005032Y0007307D01*
X0004950Y0007437D01*
X0004873Y0007569D01*
X0004798Y0007703D01*
X0004727Y0007839D01*
X0004660Y0007977D01*
X0004596Y0008117D01*
X0004536Y0008258D01*
X0004480Y0008400D01*
X0004427Y0008544D01*
X0004378Y0008690D01*
X0004333Y0008836D01*
X0004292Y0008984D01*
X0004255Y0009132D01*
X0004221Y0009282D01*
X0004191Y0009433D01*
X0004166Y0009584D01*
X0004144Y0009735D01*
X0004126Y0009888D01*
X0004112Y0010040D01*
X0004102Y0010193D01*
X0004096Y0010347D01*
X0004094Y0010500D01*
X0050250Y0050300D02*
X0050252Y0050467D01*
X0050258Y0050634D01*
X0050268Y0050800D01*
X0050283Y0050967D01*
X0050301Y0051132D01*
X0050324Y0051298D01*
X0050350Y0051463D01*
X0050381Y0051627D01*
X0050415Y0051790D01*
X0050454Y0051952D01*
X0050496Y0052114D01*
X0050543Y0052274D01*
X0050593Y0052433D01*
X0050648Y0052591D01*
X0050706Y0052747D01*
X0050768Y0052902D01*
X0050833Y0053056D01*
X0050903Y0053207D01*
X0050976Y0053357D01*
X0051053Y0053505D01*
X0051133Y0053652D01*
X0051217Y0053796D01*
X0051305Y0053938D01*
X0051396Y0054078D01*
X0051490Y0054215D01*
X0051588Y0054351D01*
X0051689Y0054484D01*
X0051794Y0054614D01*
X0051901Y0054742D01*
X0052012Y0054867D01*
X0052125Y0054989D01*
X0052242Y0055108D01*
X0052361Y0055225D01*
X0052483Y0055338D01*
X0052608Y0055449D01*
X0052736Y0055556D01*
X0052866Y0055661D01*
X0052999Y0055762D01*
X0053135Y0055860D01*
X0053272Y0055954D01*
X0053412Y0056045D01*
X0053554Y0056133D01*
X0053698Y0056217D01*
X0053845Y0056297D01*
X0053993Y0056374D01*
X0054143Y0056447D01*
X0054294Y0056517D01*
X0054448Y0056582D01*
X0054603Y0056644D01*
X0054759Y0056702D01*
X0054917Y0056757D01*
X0055076Y0056807D01*
X0055236Y0056854D01*
X0055398Y0056896D01*
X0055560Y0056935D01*
X0055723Y0056969D01*
X0055887Y0057000D01*
X0056052Y0057026D01*
X0056218Y0057049D01*
X0056383Y0057067D01*
X0056550Y0057082D01*
X0056716Y0057092D01*
X0056883Y0057098D01*
X0057050Y0057100D01*
X0057217Y0057098D01*
X0057384Y0057092D01*
X0057550Y0057082D01*
X0057717Y0057067D01*
X0057882Y0057049D01*
X0058048Y0057026D01*
X0058213Y0057000D01*
X0058377Y0056969D01*
X0058540Y0056935D01*
X0058702Y0056896D01*
X0058864Y0056854D01*
X0059024Y0056807D01*
X0059183Y0056757D01*
X0059341Y0056702D01*
X0059497Y0056644D01*
X0059652Y0056582D01*
X0059806Y0056517D01*
X0059957Y0056447D01*
X0060107Y0056374D01*
X0060255Y0056297D01*
X0060402Y0056217D01*
X0060546Y0056133D01*
X0060688Y0056045D01*
X0060828Y0055954D01*
X0060965Y0055860D01*
X0061101Y0055762D01*
X0061234Y0055661D01*
X0061364Y0055556D01*
X0061492Y0055449D01*
X0061617Y0055338D01*
X0061739Y0055225D01*
X0061858Y0055108D01*
X0061975Y0054989D01*
X0062088Y0054867D01*
X0062199Y0054742D01*
X0062306Y0054614D01*
X0062411Y0054484D01*
X0062512Y0054351D01*
X0062610Y0054215D01*
X0062704Y0054078D01*
X0062795Y0053938D01*
X0062883Y0053796D01*
X0062967Y0053652D01*
X0063047Y0053505D01*
X0063124Y0053357D01*
X0063197Y0053207D01*
X0063267Y0053056D01*
X0063332Y0052902D01*
X0063394Y0052747D01*
X0063452Y0052591D01*
X0063507Y0052433D01*
X0063557Y0052274D01*
X0063604Y0052114D01*
X0063646Y0051952D01*
X0063685Y0051790D01*
X0063719Y0051627D01*
X0063750Y0051463D01*
X0063776Y0051298D01*
X0063799Y0051132D01*
X0063817Y0050967D01*
X0063832Y0050800D01*
X0063842Y0050634D01*
X0063848Y0050467D01*
X0063850Y0050300D01*
X0063848Y0050133D01*
X0063842Y0049966D01*
X0063832Y0049800D01*
X0063817Y0049633D01*
X0063799Y0049468D01*
X0063776Y0049302D01*
X0063750Y0049137D01*
X0063719Y0048973D01*
X0063685Y0048810D01*
X0063646Y0048648D01*
X0063604Y0048486D01*
X0063557Y0048326D01*
X0063507Y0048167D01*
X0063452Y0048009D01*
X0063394Y0047853D01*
X0063332Y0047698D01*
X0063267Y0047544D01*
X0063197Y0047393D01*
X0063124Y0047243D01*
X0063047Y0047095D01*
X0062967Y0046948D01*
X0062883Y0046804D01*
X0062795Y0046662D01*
X0062704Y0046522D01*
X0062610Y0046385D01*
X0062512Y0046249D01*
X0062411Y0046116D01*
X0062306Y0045986D01*
X0062199Y0045858D01*
X0062088Y0045733D01*
X0061975Y0045611D01*
X0061858Y0045492D01*
X0061739Y0045375D01*
X0061617Y0045262D01*
X0061492Y0045151D01*
X0061364Y0045044D01*
X0061234Y0044939D01*
X0061101Y0044838D01*
X0060965Y0044740D01*
X0060828Y0044646D01*
X0060688Y0044555D01*
X0060546Y0044467D01*
X0060402Y0044383D01*
X0060255Y0044303D01*
X0060107Y0044226D01*
X0059957Y0044153D01*
X0059806Y0044083D01*
X0059652Y0044018D01*
X0059497Y0043956D01*
X0059341Y0043898D01*
X0059183Y0043843D01*
X0059024Y0043793D01*
X0058864Y0043746D01*
X0058702Y0043704D01*
X0058540Y0043665D01*
X0058377Y0043631D01*
X0058213Y0043600D01*
X0058048Y0043574D01*
X0057882Y0043551D01*
X0057717Y0043533D01*
X0057550Y0043518D01*
X0057384Y0043508D01*
X0057217Y0043502D01*
X0057050Y0043500D01*
X0056883Y0043502D01*
X0056716Y0043508D01*
X0056550Y0043518D01*
X0056383Y0043533D01*
X0056218Y0043551D01*
X0056052Y0043574D01*
X0055887Y0043600D01*
X0055723Y0043631D01*
X0055560Y0043665D01*
X0055398Y0043704D01*
X0055236Y0043746D01*
X0055076Y0043793D01*
X0054917Y0043843D01*
X0054759Y0043898D01*
X0054603Y0043956D01*
X0054448Y0044018D01*
X0054294Y0044083D01*
X0054143Y0044153D01*
X0053993Y0044226D01*
X0053845Y0044303D01*
X0053698Y0044383D01*
X0053554Y0044467D01*
X0053412Y0044555D01*
X0053272Y0044646D01*
X0053135Y0044740D01*
X0052999Y0044838D01*
X0052866Y0044939D01*
X0052736Y0045044D01*
X0052608Y0045151D01*
X0052483Y0045262D01*
X0052361Y0045375D01*
X0052242Y0045492D01*
X0052125Y0045611D01*
X0052012Y0045733D01*
X0051901Y0045858D01*
X0051794Y0045986D01*
X0051689Y0046116D01*
X0051588Y0046249D01*
X0051490Y0046385D01*
X0051396Y0046522D01*
X0051305Y0046662D01*
X0051217Y0046804D01*
X0051133Y0046948D01*
X0051053Y0047095D01*
X0050976Y0047243D01*
X0050903Y0047393D01*
X0050833Y0047544D01*
X0050768Y0047698D01*
X0050706Y0047853D01*
X0050648Y0048009D01*
X0050593Y0048167D01*
X0050543Y0048326D01*
X0050496Y0048486D01*
X0050454Y0048648D01*
X0050415Y0048810D01*
X0050381Y0048973D01*
X0050350Y0049137D01*
X0050324Y0049302D01*
X0050301Y0049468D01*
X0050283Y0049633D01*
X0050268Y0049800D01*
X0050258Y0049966D01*
X0050252Y0050133D01*
X0050250Y0050300D01*
X0132937Y0025500D02*
X0132939Y0025653D01*
X0132945Y0025807D01*
X0132955Y0025960D01*
X0132969Y0026112D01*
X0132987Y0026265D01*
X0133009Y0026416D01*
X0133034Y0026567D01*
X0133064Y0026718D01*
X0133098Y0026868D01*
X0133135Y0027016D01*
X0133176Y0027164D01*
X0133221Y0027310D01*
X0133270Y0027456D01*
X0133323Y0027600D01*
X0133379Y0027742D01*
X0133439Y0027883D01*
X0133503Y0028023D01*
X0133570Y0028161D01*
X0133641Y0028297D01*
X0133716Y0028431D01*
X0133793Y0028563D01*
X0133875Y0028693D01*
X0133959Y0028821D01*
X0134047Y0028947D01*
X0134138Y0029070D01*
X0134232Y0029191D01*
X0134330Y0029309D01*
X0134430Y0029425D01*
X0134534Y0029538D01*
X0134640Y0029649D01*
X0134749Y0029757D01*
X0134861Y0029862D01*
X0134975Y0029963D01*
X0135093Y0030062D01*
X0135212Y0030158D01*
X0135334Y0030251D01*
X0135459Y0030340D01*
X0135586Y0030427D01*
X0135715Y0030509D01*
X0135846Y0030589D01*
X0135979Y0030665D01*
X0136114Y0030738D01*
X0136251Y0030807D01*
X0136390Y0030872D01*
X0136530Y0030934D01*
X0136672Y0030992D01*
X0136815Y0031047D01*
X0136960Y0031098D01*
X0137106Y0031145D01*
X0137253Y0031188D01*
X0137401Y0031227D01*
X0137550Y0031263D01*
X0137700Y0031294D01*
X0137851Y0031322D01*
X0138002Y0031346D01*
X0138155Y0031366D01*
X0138307Y0031382D01*
X0138460Y0031394D01*
X0138613Y0031402D01*
X0138766Y0031406D01*
X0138920Y0031406D01*
X0139073Y0031402D01*
X0139226Y0031394D01*
X0139379Y0031382D01*
X0139531Y0031366D01*
X0139684Y0031346D01*
X0139835Y0031322D01*
X0139986Y0031294D01*
X0140136Y0031263D01*
X0140285Y0031227D01*
X0140433Y0031188D01*
X0140580Y0031145D01*
X0140726Y0031098D01*
X0140871Y0031047D01*
X0141014Y0030992D01*
X0141156Y0030934D01*
X0141296Y0030872D01*
X0141435Y0030807D01*
X0141572Y0030738D01*
X0141707Y0030665D01*
X0141840Y0030589D01*
X0141971Y0030509D01*
X0142100Y0030427D01*
X0142227Y0030340D01*
X0142352Y0030251D01*
X0142474Y0030158D01*
X0142593Y0030062D01*
X0142711Y0029963D01*
X0142825Y0029862D01*
X0142937Y0029757D01*
X0143046Y0029649D01*
X0143152Y0029538D01*
X0143256Y0029425D01*
X0143356Y0029309D01*
X0143454Y0029191D01*
X0143548Y0029070D01*
X0143639Y0028947D01*
X0143727Y0028821D01*
X0143811Y0028693D01*
X0143893Y0028563D01*
X0143970Y0028431D01*
X0144045Y0028297D01*
X0144116Y0028161D01*
X0144183Y0028023D01*
X0144247Y0027883D01*
X0144307Y0027742D01*
X0144363Y0027600D01*
X0144416Y0027456D01*
X0144465Y0027310D01*
X0144510Y0027164D01*
X0144551Y0027016D01*
X0144588Y0026868D01*
X0144622Y0026718D01*
X0144652Y0026567D01*
X0144677Y0026416D01*
X0144699Y0026265D01*
X0144717Y0026112D01*
X0144731Y0025960D01*
X0144741Y0025807D01*
X0144747Y0025653D01*
X0144749Y0025500D01*
X0144747Y0025347D01*
X0144741Y0025193D01*
X0144731Y0025040D01*
X0144717Y0024888D01*
X0144699Y0024735D01*
X0144677Y0024584D01*
X0144652Y0024433D01*
X0144622Y0024282D01*
X0144588Y0024132D01*
X0144551Y0023984D01*
X0144510Y0023836D01*
X0144465Y0023690D01*
X0144416Y0023544D01*
X0144363Y0023400D01*
X0144307Y0023258D01*
X0144247Y0023117D01*
X0144183Y0022977D01*
X0144116Y0022839D01*
X0144045Y0022703D01*
X0143970Y0022569D01*
X0143893Y0022437D01*
X0143811Y0022307D01*
X0143727Y0022179D01*
X0143639Y0022053D01*
X0143548Y0021930D01*
X0143454Y0021809D01*
X0143356Y0021691D01*
X0143256Y0021575D01*
X0143152Y0021462D01*
X0143046Y0021351D01*
X0142937Y0021243D01*
X0142825Y0021138D01*
X0142711Y0021037D01*
X0142593Y0020938D01*
X0142474Y0020842D01*
X0142352Y0020749D01*
X0142227Y0020660D01*
X0142100Y0020573D01*
X0141971Y0020491D01*
X0141840Y0020411D01*
X0141707Y0020335D01*
X0141572Y0020262D01*
X0141435Y0020193D01*
X0141296Y0020128D01*
X0141156Y0020066D01*
X0141014Y0020008D01*
X0140871Y0019953D01*
X0140726Y0019902D01*
X0140580Y0019855D01*
X0140433Y0019812D01*
X0140285Y0019773D01*
X0140136Y0019737D01*
X0139986Y0019706D01*
X0139835Y0019678D01*
X0139684Y0019654D01*
X0139531Y0019634D01*
X0139379Y0019618D01*
X0139226Y0019606D01*
X0139073Y0019598D01*
X0138920Y0019594D01*
X0138766Y0019594D01*
X0138613Y0019598D01*
X0138460Y0019606D01*
X0138307Y0019618D01*
X0138155Y0019634D01*
X0138002Y0019654D01*
X0137851Y0019678D01*
X0137700Y0019706D01*
X0137550Y0019737D01*
X0137401Y0019773D01*
X0137253Y0019812D01*
X0137106Y0019855D01*
X0136960Y0019902D01*
X0136815Y0019953D01*
X0136672Y0020008D01*
X0136530Y0020066D01*
X0136390Y0020128D01*
X0136251Y0020193D01*
X0136114Y0020262D01*
X0135979Y0020335D01*
X0135846Y0020411D01*
X0135715Y0020491D01*
X0135586Y0020573D01*
X0135459Y0020660D01*
X0135334Y0020749D01*
X0135212Y0020842D01*
X0135093Y0020938D01*
X0134975Y0021037D01*
X0134861Y0021138D01*
X0134749Y0021243D01*
X0134640Y0021351D01*
X0134534Y0021462D01*
X0134430Y0021575D01*
X0134330Y0021691D01*
X0134232Y0021809D01*
X0134138Y0021930D01*
X0134047Y0022053D01*
X0133959Y0022179D01*
X0133875Y0022307D01*
X0133793Y0022437D01*
X0133716Y0022569D01*
X0133641Y0022703D01*
X0133570Y0022839D01*
X0133503Y0022977D01*
X0133439Y0023117D01*
X0133379Y0023258D01*
X0133323Y0023400D01*
X0133270Y0023544D01*
X0133221Y0023690D01*
X0133176Y0023836D01*
X0133135Y0023984D01*
X0133098Y0024132D01*
X0133064Y0024282D01*
X0133034Y0024433D01*
X0133009Y0024584D01*
X0132987Y0024735D01*
X0132969Y0024888D01*
X0132955Y0025040D01*
X0132945Y0025193D01*
X0132939Y0025347D01*
X0132937Y0025500D01*
X0163251Y0025500D02*
X0163253Y0025653D01*
X0163259Y0025807D01*
X0163269Y0025960D01*
X0163283Y0026112D01*
X0163301Y0026265D01*
X0163323Y0026416D01*
X0163348Y0026567D01*
X0163378Y0026718D01*
X0163412Y0026868D01*
X0163449Y0027016D01*
X0163490Y0027164D01*
X0163535Y0027310D01*
X0163584Y0027456D01*
X0163637Y0027600D01*
X0163693Y0027742D01*
X0163753Y0027883D01*
X0163817Y0028023D01*
X0163884Y0028161D01*
X0163955Y0028297D01*
X0164030Y0028431D01*
X0164107Y0028563D01*
X0164189Y0028693D01*
X0164273Y0028821D01*
X0164361Y0028947D01*
X0164452Y0029070D01*
X0164546Y0029191D01*
X0164644Y0029309D01*
X0164744Y0029425D01*
X0164848Y0029538D01*
X0164954Y0029649D01*
X0165063Y0029757D01*
X0165175Y0029862D01*
X0165289Y0029963D01*
X0165407Y0030062D01*
X0165526Y0030158D01*
X0165648Y0030251D01*
X0165773Y0030340D01*
X0165900Y0030427D01*
X0166029Y0030509D01*
X0166160Y0030589D01*
X0166293Y0030665D01*
X0166428Y0030738D01*
X0166565Y0030807D01*
X0166704Y0030872D01*
X0166844Y0030934D01*
X0166986Y0030992D01*
X0167129Y0031047D01*
X0167274Y0031098D01*
X0167420Y0031145D01*
X0167567Y0031188D01*
X0167715Y0031227D01*
X0167864Y0031263D01*
X0168014Y0031294D01*
X0168165Y0031322D01*
X0168316Y0031346D01*
X0168469Y0031366D01*
X0168621Y0031382D01*
X0168774Y0031394D01*
X0168927Y0031402D01*
X0169080Y0031406D01*
X0169234Y0031406D01*
X0169387Y0031402D01*
X0169540Y0031394D01*
X0169693Y0031382D01*
X0169845Y0031366D01*
X0169998Y0031346D01*
X0170149Y0031322D01*
X0170300Y0031294D01*
X0170450Y0031263D01*
X0170599Y0031227D01*
X0170747Y0031188D01*
X0170894Y0031145D01*
X0171040Y0031098D01*
X0171185Y0031047D01*
X0171328Y0030992D01*
X0171470Y0030934D01*
X0171610Y0030872D01*
X0171749Y0030807D01*
X0171886Y0030738D01*
X0172021Y0030665D01*
X0172154Y0030589D01*
X0172285Y0030509D01*
X0172414Y0030427D01*
X0172541Y0030340D01*
X0172666Y0030251D01*
X0172788Y0030158D01*
X0172907Y0030062D01*
X0173025Y0029963D01*
X0173139Y0029862D01*
X0173251Y0029757D01*
X0173360Y0029649D01*
X0173466Y0029538D01*
X0173570Y0029425D01*
X0173670Y0029309D01*
X0173768Y0029191D01*
X0173862Y0029070D01*
X0173953Y0028947D01*
X0174041Y0028821D01*
X0174125Y0028693D01*
X0174207Y0028563D01*
X0174284Y0028431D01*
X0174359Y0028297D01*
X0174430Y0028161D01*
X0174497Y0028023D01*
X0174561Y0027883D01*
X0174621Y0027742D01*
X0174677Y0027600D01*
X0174730Y0027456D01*
X0174779Y0027310D01*
X0174824Y0027164D01*
X0174865Y0027016D01*
X0174902Y0026868D01*
X0174936Y0026718D01*
X0174966Y0026567D01*
X0174991Y0026416D01*
X0175013Y0026265D01*
X0175031Y0026112D01*
X0175045Y0025960D01*
X0175055Y0025807D01*
X0175061Y0025653D01*
X0175063Y0025500D01*
X0175061Y0025347D01*
X0175055Y0025193D01*
X0175045Y0025040D01*
X0175031Y0024888D01*
X0175013Y0024735D01*
X0174991Y0024584D01*
X0174966Y0024433D01*
X0174936Y0024282D01*
X0174902Y0024132D01*
X0174865Y0023984D01*
X0174824Y0023836D01*
X0174779Y0023690D01*
X0174730Y0023544D01*
X0174677Y0023400D01*
X0174621Y0023258D01*
X0174561Y0023117D01*
X0174497Y0022977D01*
X0174430Y0022839D01*
X0174359Y0022703D01*
X0174284Y0022569D01*
X0174207Y0022437D01*
X0174125Y0022307D01*
X0174041Y0022179D01*
X0173953Y0022053D01*
X0173862Y0021930D01*
X0173768Y0021809D01*
X0173670Y0021691D01*
X0173570Y0021575D01*
X0173466Y0021462D01*
X0173360Y0021351D01*
X0173251Y0021243D01*
X0173139Y0021138D01*
X0173025Y0021037D01*
X0172907Y0020938D01*
X0172788Y0020842D01*
X0172666Y0020749D01*
X0172541Y0020660D01*
X0172414Y0020573D01*
X0172285Y0020491D01*
X0172154Y0020411D01*
X0172021Y0020335D01*
X0171886Y0020262D01*
X0171749Y0020193D01*
X0171610Y0020128D01*
X0171470Y0020066D01*
X0171328Y0020008D01*
X0171185Y0019953D01*
X0171040Y0019902D01*
X0170894Y0019855D01*
X0170747Y0019812D01*
X0170599Y0019773D01*
X0170450Y0019737D01*
X0170300Y0019706D01*
X0170149Y0019678D01*
X0169998Y0019654D01*
X0169845Y0019634D01*
X0169693Y0019618D01*
X0169540Y0019606D01*
X0169387Y0019598D01*
X0169234Y0019594D01*
X0169080Y0019594D01*
X0168927Y0019598D01*
X0168774Y0019606D01*
X0168621Y0019618D01*
X0168469Y0019634D01*
X0168316Y0019654D01*
X0168165Y0019678D01*
X0168014Y0019706D01*
X0167864Y0019737D01*
X0167715Y0019773D01*
X0167567Y0019812D01*
X0167420Y0019855D01*
X0167274Y0019902D01*
X0167129Y0019953D01*
X0166986Y0020008D01*
X0166844Y0020066D01*
X0166704Y0020128D01*
X0166565Y0020193D01*
X0166428Y0020262D01*
X0166293Y0020335D01*
X0166160Y0020411D01*
X0166029Y0020491D01*
X0165900Y0020573D01*
X0165773Y0020660D01*
X0165648Y0020749D01*
X0165526Y0020842D01*
X0165407Y0020938D01*
X0165289Y0021037D01*
X0165175Y0021138D01*
X0165063Y0021243D01*
X0164954Y0021351D01*
X0164848Y0021462D01*
X0164744Y0021575D01*
X0164644Y0021691D01*
X0164546Y0021809D01*
X0164452Y0021930D01*
X0164361Y0022053D01*
X0164273Y0022179D01*
X0164189Y0022307D01*
X0164107Y0022437D01*
X0164030Y0022569D01*
X0163955Y0022703D01*
X0163884Y0022839D01*
X0163817Y0022977D01*
X0163753Y0023117D01*
X0163693Y0023258D01*
X0163637Y0023400D01*
X0163584Y0023544D01*
X0163535Y0023690D01*
X0163490Y0023836D01*
X0163449Y0023984D01*
X0163412Y0024132D01*
X0163378Y0024282D01*
X0163348Y0024433D01*
X0163323Y0024584D01*
X0163301Y0024735D01*
X0163283Y0024888D01*
X0163269Y0025040D01*
X0163259Y0025193D01*
X0163253Y0025347D01*
X0163251Y0025500D01*
X0352244Y0040250D02*
X0352246Y0040355D01*
X0352252Y0040460D01*
X0352262Y0040564D01*
X0352276Y0040668D01*
X0352294Y0040772D01*
X0352316Y0040874D01*
X0352341Y0040976D01*
X0352371Y0041077D01*
X0352404Y0041176D01*
X0352441Y0041274D01*
X0352482Y0041371D01*
X0352527Y0041466D01*
X0352575Y0041559D01*
X0352626Y0041651D01*
X0352682Y0041740D01*
X0352740Y0041827D01*
X0352802Y0041912D01*
X0352866Y0041995D01*
X0352934Y0042075D01*
X0353005Y0042152D01*
X0353079Y0042226D01*
X0353156Y0042298D01*
X0353235Y0042367D01*
X0353317Y0042432D01*
X0353401Y0042495D01*
X0353488Y0042554D01*
X0353577Y0042610D01*
X0353668Y0042663D01*
X0353761Y0042712D01*
X0353855Y0042757D01*
X0353951Y0042799D01*
X0354049Y0042837D01*
X0354148Y0042871D01*
X0354249Y0042902D01*
X0354350Y0042928D01*
X0354453Y0042951D01*
X0354556Y0042970D01*
X0354660Y0042985D01*
X0354764Y0042996D01*
X0354869Y0043003D01*
X0354974Y0043006D01*
X0355079Y0043005D01*
X0355184Y0043000D01*
X0355288Y0042991D01*
X0355392Y0042978D01*
X0355496Y0042961D01*
X0355599Y0042940D01*
X0355701Y0042915D01*
X0355802Y0042887D01*
X0355901Y0042854D01*
X0356000Y0042818D01*
X0356097Y0042778D01*
X0356192Y0042735D01*
X0356286Y0042687D01*
X0356378Y0042637D01*
X0356468Y0042583D01*
X0356556Y0042525D01*
X0356641Y0042464D01*
X0356724Y0042400D01*
X0356805Y0042333D01*
X0356883Y0042263D01*
X0356958Y0042189D01*
X0357030Y0042114D01*
X0357100Y0042035D01*
X0357166Y0041954D01*
X0357230Y0041870D01*
X0357290Y0041784D01*
X0357346Y0041696D01*
X0357400Y0041605D01*
X0357450Y0041513D01*
X0357496Y0041419D01*
X0357539Y0041323D01*
X0357578Y0041225D01*
X0357613Y0041127D01*
X0357644Y0041026D01*
X0357672Y0040925D01*
X0357696Y0040823D01*
X0357716Y0040720D01*
X0357732Y0040616D01*
X0357744Y0040512D01*
X0357752Y0040407D01*
X0357756Y0040302D01*
X0357756Y0040198D01*
X0357752Y0040093D01*
X0357744Y0039988D01*
X0357732Y0039884D01*
X0357716Y0039780D01*
X0357696Y0039677D01*
X0357672Y0039575D01*
X0357644Y0039474D01*
X0357613Y0039373D01*
X0357578Y0039275D01*
X0357539Y0039177D01*
X0357496Y0039081D01*
X0357450Y0038987D01*
X0357400Y0038895D01*
X0357346Y0038804D01*
X0357290Y0038716D01*
X0357230Y0038630D01*
X0357166Y0038546D01*
X0357100Y0038465D01*
X0357030Y0038386D01*
X0356958Y0038311D01*
X0356883Y0038237D01*
X0356805Y0038167D01*
X0356724Y0038100D01*
X0356641Y0038036D01*
X0356556Y0037975D01*
X0356468Y0037917D01*
X0356378Y0037863D01*
X0356286Y0037813D01*
X0356192Y0037765D01*
X0356097Y0037722D01*
X0356000Y0037682D01*
X0355901Y0037646D01*
X0355802Y0037613D01*
X0355701Y0037585D01*
X0355599Y0037560D01*
X0355496Y0037539D01*
X0355392Y0037522D01*
X0355288Y0037509D01*
X0355184Y0037500D01*
X0355079Y0037495D01*
X0354974Y0037494D01*
X0354869Y0037497D01*
X0354764Y0037504D01*
X0354660Y0037515D01*
X0354556Y0037530D01*
X0354453Y0037549D01*
X0354350Y0037572D01*
X0354249Y0037598D01*
X0354148Y0037629D01*
X0354049Y0037663D01*
X0353951Y0037701D01*
X0353855Y0037743D01*
X0353761Y0037788D01*
X0353668Y0037837D01*
X0353577Y0037890D01*
X0353488Y0037946D01*
X0353401Y0038005D01*
X0353317Y0038068D01*
X0353235Y0038133D01*
X0353156Y0038202D01*
X0353079Y0038274D01*
X0353005Y0038348D01*
X0352934Y0038425D01*
X0352866Y0038505D01*
X0352802Y0038588D01*
X0352740Y0038673D01*
X0352682Y0038760D01*
X0352626Y0038849D01*
X0352575Y0038941D01*
X0352527Y0039034D01*
X0352482Y0039129D01*
X0352441Y0039226D01*
X0352404Y0039324D01*
X0352371Y0039423D01*
X0352341Y0039524D01*
X0352316Y0039626D01*
X0352294Y0039728D01*
X0352276Y0039832D01*
X0352262Y0039936D01*
X0352252Y0040040D01*
X0352246Y0040145D01*
X0352244Y0040250D01*
X0387094Y0010500D02*
X0387096Y0010653D01*
X0387102Y0010807D01*
X0387112Y0010960D01*
X0387126Y0011112D01*
X0387144Y0011265D01*
X0387166Y0011416D01*
X0387191Y0011567D01*
X0387221Y0011718D01*
X0387255Y0011868D01*
X0387292Y0012016D01*
X0387333Y0012164D01*
X0387378Y0012310D01*
X0387427Y0012456D01*
X0387480Y0012600D01*
X0387536Y0012742D01*
X0387596Y0012883D01*
X0387660Y0013023D01*
X0387727Y0013161D01*
X0387798Y0013297D01*
X0387873Y0013431D01*
X0387950Y0013563D01*
X0388032Y0013693D01*
X0388116Y0013821D01*
X0388204Y0013947D01*
X0388295Y0014070D01*
X0388389Y0014191D01*
X0388487Y0014309D01*
X0388587Y0014425D01*
X0388691Y0014538D01*
X0388797Y0014649D01*
X0388906Y0014757D01*
X0389018Y0014862D01*
X0389132Y0014963D01*
X0389250Y0015062D01*
X0389369Y0015158D01*
X0389491Y0015251D01*
X0389616Y0015340D01*
X0389743Y0015427D01*
X0389872Y0015509D01*
X0390003Y0015589D01*
X0390136Y0015665D01*
X0390271Y0015738D01*
X0390408Y0015807D01*
X0390547Y0015872D01*
X0390687Y0015934D01*
X0390829Y0015992D01*
X0390972Y0016047D01*
X0391117Y0016098D01*
X0391263Y0016145D01*
X0391410Y0016188D01*
X0391558Y0016227D01*
X0391707Y0016263D01*
X0391857Y0016294D01*
X0392008Y0016322D01*
X0392159Y0016346D01*
X0392312Y0016366D01*
X0392464Y0016382D01*
X0392617Y0016394D01*
X0392770Y0016402D01*
X0392923Y0016406D01*
X0393077Y0016406D01*
X0393230Y0016402D01*
X0393383Y0016394D01*
X0393536Y0016382D01*
X0393688Y0016366D01*
X0393841Y0016346D01*
X0393992Y0016322D01*
X0394143Y0016294D01*
X0394293Y0016263D01*
X0394442Y0016227D01*
X0394590Y0016188D01*
X0394737Y0016145D01*
X0394883Y0016098D01*
X0395028Y0016047D01*
X0395171Y0015992D01*
X0395313Y0015934D01*
X0395453Y0015872D01*
X0395592Y0015807D01*
X0395729Y0015738D01*
X0395864Y0015665D01*
X0395997Y0015589D01*
X0396128Y0015509D01*
X0396257Y0015427D01*
X0396384Y0015340D01*
X0396509Y0015251D01*
X0396631Y0015158D01*
X0396750Y0015062D01*
X0396868Y0014963D01*
X0396982Y0014862D01*
X0397094Y0014757D01*
X0397203Y0014649D01*
X0397309Y0014538D01*
X0397413Y0014425D01*
X0397513Y0014309D01*
X0397611Y0014191D01*
X0397705Y0014070D01*
X0397796Y0013947D01*
X0397884Y0013821D01*
X0397968Y0013693D01*
X0398050Y0013563D01*
X0398127Y0013431D01*
X0398202Y0013297D01*
X0398273Y0013161D01*
X0398340Y0013023D01*
X0398404Y0012883D01*
X0398464Y0012742D01*
X0398520Y0012600D01*
X0398573Y0012456D01*
X0398622Y0012310D01*
X0398667Y0012164D01*
X0398708Y0012016D01*
X0398745Y0011868D01*
X0398779Y0011718D01*
X0398809Y0011567D01*
X0398834Y0011416D01*
X0398856Y0011265D01*
X0398874Y0011112D01*
X0398888Y0010960D01*
X0398898Y0010807D01*
X0398904Y0010653D01*
X0398906Y0010500D01*
X0398904Y0010347D01*
X0398898Y0010193D01*
X0398888Y0010040D01*
X0398874Y0009888D01*
X0398856Y0009735D01*
X0398834Y0009584D01*
X0398809Y0009433D01*
X0398779Y0009282D01*
X0398745Y0009132D01*
X0398708Y0008984D01*
X0398667Y0008836D01*
X0398622Y0008690D01*
X0398573Y0008544D01*
X0398520Y0008400D01*
X0398464Y0008258D01*
X0398404Y0008117D01*
X0398340Y0007977D01*
X0398273Y0007839D01*
X0398202Y0007703D01*
X0398127Y0007569D01*
X0398050Y0007437D01*
X0397968Y0007307D01*
X0397884Y0007179D01*
X0397796Y0007053D01*
X0397705Y0006930D01*
X0397611Y0006809D01*
X0397513Y0006691D01*
X0397413Y0006575D01*
X0397309Y0006462D01*
X0397203Y0006351D01*
X0397094Y0006243D01*
X0396982Y0006138D01*
X0396868Y0006037D01*
X0396750Y0005938D01*
X0396631Y0005842D01*
X0396509Y0005749D01*
X0396384Y0005660D01*
X0396257Y0005573D01*
X0396128Y0005491D01*
X0395997Y0005411D01*
X0395864Y0005335D01*
X0395729Y0005262D01*
X0395592Y0005193D01*
X0395453Y0005128D01*
X0395313Y0005066D01*
X0395171Y0005008D01*
X0395028Y0004953D01*
X0394883Y0004902D01*
X0394737Y0004855D01*
X0394590Y0004812D01*
X0394442Y0004773D01*
X0394293Y0004737D01*
X0394143Y0004706D01*
X0393992Y0004678D01*
X0393841Y0004654D01*
X0393688Y0004634D01*
X0393536Y0004618D01*
X0393383Y0004606D01*
X0393230Y0004598D01*
X0393077Y0004594D01*
X0392923Y0004594D01*
X0392770Y0004598D01*
X0392617Y0004606D01*
X0392464Y0004618D01*
X0392312Y0004634D01*
X0392159Y0004654D01*
X0392008Y0004678D01*
X0391857Y0004706D01*
X0391707Y0004737D01*
X0391558Y0004773D01*
X0391410Y0004812D01*
X0391263Y0004855D01*
X0391117Y0004902D01*
X0390972Y0004953D01*
X0390829Y0005008D01*
X0390687Y0005066D01*
X0390547Y0005128D01*
X0390408Y0005193D01*
X0390271Y0005262D01*
X0390136Y0005335D01*
X0390003Y0005411D01*
X0389872Y0005491D01*
X0389743Y0005573D01*
X0389616Y0005660D01*
X0389491Y0005749D01*
X0389369Y0005842D01*
X0389250Y0005938D01*
X0389132Y0006037D01*
X0389018Y0006138D01*
X0388906Y0006243D01*
X0388797Y0006351D01*
X0388691Y0006462D01*
X0388587Y0006575D01*
X0388487Y0006691D01*
X0388389Y0006809D01*
X0388295Y0006930D01*
X0388204Y0007053D01*
X0388116Y0007179D01*
X0388032Y0007307D01*
X0387950Y0007437D01*
X0387873Y0007569D01*
X0387798Y0007703D01*
X0387727Y0007839D01*
X0387660Y0007977D01*
X0387596Y0008117D01*
X0387536Y0008258D01*
X0387480Y0008400D01*
X0387427Y0008544D01*
X0387378Y0008690D01*
X0387333Y0008836D01*
X0387292Y0008984D01*
X0387255Y0009132D01*
X0387221Y0009282D01*
X0387191Y0009433D01*
X0387166Y0009584D01*
X0387144Y0009735D01*
X0387126Y0009888D01*
X0387112Y0010040D01*
X0387102Y0010193D01*
X0387096Y0010347D01*
X0387094Y0010500D01*
X0352244Y0114500D02*
X0352246Y0114605D01*
X0352252Y0114710D01*
X0352262Y0114814D01*
X0352276Y0114918D01*
X0352294Y0115022D01*
X0352316Y0115124D01*
X0352341Y0115226D01*
X0352371Y0115327D01*
X0352404Y0115426D01*
X0352441Y0115524D01*
X0352482Y0115621D01*
X0352527Y0115716D01*
X0352575Y0115809D01*
X0352626Y0115901D01*
X0352682Y0115990D01*
X0352740Y0116077D01*
X0352802Y0116162D01*
X0352866Y0116245D01*
X0352934Y0116325D01*
X0353005Y0116402D01*
X0353079Y0116476D01*
X0353156Y0116548D01*
X0353235Y0116617D01*
X0353317Y0116682D01*
X0353401Y0116745D01*
X0353488Y0116804D01*
X0353577Y0116860D01*
X0353668Y0116913D01*
X0353761Y0116962D01*
X0353855Y0117007D01*
X0353951Y0117049D01*
X0354049Y0117087D01*
X0354148Y0117121D01*
X0354249Y0117152D01*
X0354350Y0117178D01*
X0354453Y0117201D01*
X0354556Y0117220D01*
X0354660Y0117235D01*
X0354764Y0117246D01*
X0354869Y0117253D01*
X0354974Y0117256D01*
X0355079Y0117255D01*
X0355184Y0117250D01*
X0355288Y0117241D01*
X0355392Y0117228D01*
X0355496Y0117211D01*
X0355599Y0117190D01*
X0355701Y0117165D01*
X0355802Y0117137D01*
X0355901Y0117104D01*
X0356000Y0117068D01*
X0356097Y0117028D01*
X0356192Y0116985D01*
X0356286Y0116937D01*
X0356378Y0116887D01*
X0356468Y0116833D01*
X0356556Y0116775D01*
X0356641Y0116714D01*
X0356724Y0116650D01*
X0356805Y0116583D01*
X0356883Y0116513D01*
X0356958Y0116439D01*
X0357030Y0116364D01*
X0357100Y0116285D01*
X0357166Y0116204D01*
X0357230Y0116120D01*
X0357290Y0116034D01*
X0357346Y0115946D01*
X0357400Y0115855D01*
X0357450Y0115763D01*
X0357496Y0115669D01*
X0357539Y0115573D01*
X0357578Y0115475D01*
X0357613Y0115377D01*
X0357644Y0115276D01*
X0357672Y0115175D01*
X0357696Y0115073D01*
X0357716Y0114970D01*
X0357732Y0114866D01*
X0357744Y0114762D01*
X0357752Y0114657D01*
X0357756Y0114552D01*
X0357756Y0114448D01*
X0357752Y0114343D01*
X0357744Y0114238D01*
X0357732Y0114134D01*
X0357716Y0114030D01*
X0357696Y0113927D01*
X0357672Y0113825D01*
X0357644Y0113724D01*
X0357613Y0113623D01*
X0357578Y0113525D01*
X0357539Y0113427D01*
X0357496Y0113331D01*
X0357450Y0113237D01*
X0357400Y0113145D01*
X0357346Y0113054D01*
X0357290Y0112966D01*
X0357230Y0112880D01*
X0357166Y0112796D01*
X0357100Y0112715D01*
X0357030Y0112636D01*
X0356958Y0112561D01*
X0356883Y0112487D01*
X0356805Y0112417D01*
X0356724Y0112350D01*
X0356641Y0112286D01*
X0356556Y0112225D01*
X0356468Y0112167D01*
X0356378Y0112113D01*
X0356286Y0112063D01*
X0356192Y0112015D01*
X0356097Y0111972D01*
X0356000Y0111932D01*
X0355901Y0111896D01*
X0355802Y0111863D01*
X0355701Y0111835D01*
X0355599Y0111810D01*
X0355496Y0111789D01*
X0355392Y0111772D01*
X0355288Y0111759D01*
X0355184Y0111750D01*
X0355079Y0111745D01*
X0354974Y0111744D01*
X0354869Y0111747D01*
X0354764Y0111754D01*
X0354660Y0111765D01*
X0354556Y0111780D01*
X0354453Y0111799D01*
X0354350Y0111822D01*
X0354249Y0111848D01*
X0354148Y0111879D01*
X0354049Y0111913D01*
X0353951Y0111951D01*
X0353855Y0111993D01*
X0353761Y0112038D01*
X0353668Y0112087D01*
X0353577Y0112140D01*
X0353488Y0112196D01*
X0353401Y0112255D01*
X0353317Y0112318D01*
X0353235Y0112383D01*
X0353156Y0112452D01*
X0353079Y0112524D01*
X0353005Y0112598D01*
X0352934Y0112675D01*
X0352866Y0112755D01*
X0352802Y0112838D01*
X0352740Y0112923D01*
X0352682Y0113010D01*
X0352626Y0113099D01*
X0352575Y0113191D01*
X0352527Y0113284D01*
X0352482Y0113379D01*
X0352441Y0113476D01*
X0352404Y0113574D01*
X0352371Y0113673D01*
X0352341Y0113774D01*
X0352316Y0113876D01*
X0352294Y0113978D01*
X0352276Y0114082D01*
X0352262Y0114186D01*
X0352252Y0114290D01*
X0352246Y0114395D01*
X0352244Y0114500D01*
X0352244Y0188750D02*
X0352246Y0188855D01*
X0352252Y0188960D01*
X0352262Y0189064D01*
X0352276Y0189168D01*
X0352294Y0189272D01*
X0352316Y0189374D01*
X0352341Y0189476D01*
X0352371Y0189577D01*
X0352404Y0189676D01*
X0352441Y0189774D01*
X0352482Y0189871D01*
X0352527Y0189966D01*
X0352575Y0190059D01*
X0352626Y0190151D01*
X0352682Y0190240D01*
X0352740Y0190327D01*
X0352802Y0190412D01*
X0352866Y0190495D01*
X0352934Y0190575D01*
X0353005Y0190652D01*
X0353079Y0190726D01*
X0353156Y0190798D01*
X0353235Y0190867D01*
X0353317Y0190932D01*
X0353401Y0190995D01*
X0353488Y0191054D01*
X0353577Y0191110D01*
X0353668Y0191163D01*
X0353761Y0191212D01*
X0353855Y0191257D01*
X0353951Y0191299D01*
X0354049Y0191337D01*
X0354148Y0191371D01*
X0354249Y0191402D01*
X0354350Y0191428D01*
X0354453Y0191451D01*
X0354556Y0191470D01*
X0354660Y0191485D01*
X0354764Y0191496D01*
X0354869Y0191503D01*
X0354974Y0191506D01*
X0355079Y0191505D01*
X0355184Y0191500D01*
X0355288Y0191491D01*
X0355392Y0191478D01*
X0355496Y0191461D01*
X0355599Y0191440D01*
X0355701Y0191415D01*
X0355802Y0191387D01*
X0355901Y0191354D01*
X0356000Y0191318D01*
X0356097Y0191278D01*
X0356192Y0191235D01*
X0356286Y0191187D01*
X0356378Y0191137D01*
X0356468Y0191083D01*
X0356556Y0191025D01*
X0356641Y0190964D01*
X0356724Y0190900D01*
X0356805Y0190833D01*
X0356883Y0190763D01*
X0356958Y0190689D01*
X0357030Y0190614D01*
X0357100Y0190535D01*
X0357166Y0190454D01*
X0357230Y0190370D01*
X0357290Y0190284D01*
X0357346Y0190196D01*
X0357400Y0190105D01*
X0357450Y0190013D01*
X0357496Y0189919D01*
X0357539Y0189823D01*
X0357578Y0189725D01*
X0357613Y0189627D01*
X0357644Y0189526D01*
X0357672Y0189425D01*
X0357696Y0189323D01*
X0357716Y0189220D01*
X0357732Y0189116D01*
X0357744Y0189012D01*
X0357752Y0188907D01*
X0357756Y0188802D01*
X0357756Y0188698D01*
X0357752Y0188593D01*
X0357744Y0188488D01*
X0357732Y0188384D01*
X0357716Y0188280D01*
X0357696Y0188177D01*
X0357672Y0188075D01*
X0357644Y0187974D01*
X0357613Y0187873D01*
X0357578Y0187775D01*
X0357539Y0187677D01*
X0357496Y0187581D01*
X0357450Y0187487D01*
X0357400Y0187395D01*
X0357346Y0187304D01*
X0357290Y0187216D01*
X0357230Y0187130D01*
X0357166Y0187046D01*
X0357100Y0186965D01*
X0357030Y0186886D01*
X0356958Y0186811D01*
X0356883Y0186737D01*
X0356805Y0186667D01*
X0356724Y0186600D01*
X0356641Y0186536D01*
X0356556Y0186475D01*
X0356468Y0186417D01*
X0356378Y0186363D01*
X0356286Y0186313D01*
X0356192Y0186265D01*
X0356097Y0186222D01*
X0356000Y0186182D01*
X0355901Y0186146D01*
X0355802Y0186113D01*
X0355701Y0186085D01*
X0355599Y0186060D01*
X0355496Y0186039D01*
X0355392Y0186022D01*
X0355288Y0186009D01*
X0355184Y0186000D01*
X0355079Y0185995D01*
X0354974Y0185994D01*
X0354869Y0185997D01*
X0354764Y0186004D01*
X0354660Y0186015D01*
X0354556Y0186030D01*
X0354453Y0186049D01*
X0354350Y0186072D01*
X0354249Y0186098D01*
X0354148Y0186129D01*
X0354049Y0186163D01*
X0353951Y0186201D01*
X0353855Y0186243D01*
X0353761Y0186288D01*
X0353668Y0186337D01*
X0353577Y0186390D01*
X0353488Y0186446D01*
X0353401Y0186505D01*
X0353317Y0186568D01*
X0353235Y0186633D01*
X0353156Y0186702D01*
X0353079Y0186774D01*
X0353005Y0186848D01*
X0352934Y0186925D01*
X0352866Y0187005D01*
X0352802Y0187088D01*
X0352740Y0187173D01*
X0352682Y0187260D01*
X0352626Y0187349D01*
X0352575Y0187441D01*
X0352527Y0187534D01*
X0352482Y0187629D01*
X0352441Y0187726D01*
X0352404Y0187824D01*
X0352371Y0187923D01*
X0352341Y0188024D01*
X0352316Y0188126D01*
X0352294Y0188228D01*
X0352276Y0188332D01*
X0352262Y0188436D01*
X0352252Y0188540D01*
X0352246Y0188645D01*
X0352244Y0188750D01*
X0387094Y0218000D02*
X0387096Y0218153D01*
X0387102Y0218307D01*
X0387112Y0218460D01*
X0387126Y0218612D01*
X0387144Y0218765D01*
X0387166Y0218916D01*
X0387191Y0219067D01*
X0387221Y0219218D01*
X0387255Y0219368D01*
X0387292Y0219516D01*
X0387333Y0219664D01*
X0387378Y0219810D01*
X0387427Y0219956D01*
X0387480Y0220100D01*
X0387536Y0220242D01*
X0387596Y0220383D01*
X0387660Y0220523D01*
X0387727Y0220661D01*
X0387798Y0220797D01*
X0387873Y0220931D01*
X0387950Y0221063D01*
X0388032Y0221193D01*
X0388116Y0221321D01*
X0388204Y0221447D01*
X0388295Y0221570D01*
X0388389Y0221691D01*
X0388487Y0221809D01*
X0388587Y0221925D01*
X0388691Y0222038D01*
X0388797Y0222149D01*
X0388906Y0222257D01*
X0389018Y0222362D01*
X0389132Y0222463D01*
X0389250Y0222562D01*
X0389369Y0222658D01*
X0389491Y0222751D01*
X0389616Y0222840D01*
X0389743Y0222927D01*
X0389872Y0223009D01*
X0390003Y0223089D01*
X0390136Y0223165D01*
X0390271Y0223238D01*
X0390408Y0223307D01*
X0390547Y0223372D01*
X0390687Y0223434D01*
X0390829Y0223492D01*
X0390972Y0223547D01*
X0391117Y0223598D01*
X0391263Y0223645D01*
X0391410Y0223688D01*
X0391558Y0223727D01*
X0391707Y0223763D01*
X0391857Y0223794D01*
X0392008Y0223822D01*
X0392159Y0223846D01*
X0392312Y0223866D01*
X0392464Y0223882D01*
X0392617Y0223894D01*
X0392770Y0223902D01*
X0392923Y0223906D01*
X0393077Y0223906D01*
X0393230Y0223902D01*
X0393383Y0223894D01*
X0393536Y0223882D01*
X0393688Y0223866D01*
X0393841Y0223846D01*
X0393992Y0223822D01*
X0394143Y0223794D01*
X0394293Y0223763D01*
X0394442Y0223727D01*
X0394590Y0223688D01*
X0394737Y0223645D01*
X0394883Y0223598D01*
X0395028Y0223547D01*
X0395171Y0223492D01*
X0395313Y0223434D01*
X0395453Y0223372D01*
X0395592Y0223307D01*
X0395729Y0223238D01*
X0395864Y0223165D01*
X0395997Y0223089D01*
X0396128Y0223009D01*
X0396257Y0222927D01*
X0396384Y0222840D01*
X0396509Y0222751D01*
X0396631Y0222658D01*
X0396750Y0222562D01*
X0396868Y0222463D01*
X0396982Y0222362D01*
X0397094Y0222257D01*
X0397203Y0222149D01*
X0397309Y0222038D01*
X0397413Y0221925D01*
X0397513Y0221809D01*
X0397611Y0221691D01*
X0397705Y0221570D01*
X0397796Y0221447D01*
X0397884Y0221321D01*
X0397968Y0221193D01*
X0398050Y0221063D01*
X0398127Y0220931D01*
X0398202Y0220797D01*
X0398273Y0220661D01*
X0398340Y0220523D01*
X0398404Y0220383D01*
X0398464Y0220242D01*
X0398520Y0220100D01*
X0398573Y0219956D01*
X0398622Y0219810D01*
X0398667Y0219664D01*
X0398708Y0219516D01*
X0398745Y0219368D01*
X0398779Y0219218D01*
X0398809Y0219067D01*
X0398834Y0218916D01*
X0398856Y0218765D01*
X0398874Y0218612D01*
X0398888Y0218460D01*
X0398898Y0218307D01*
X0398904Y0218153D01*
X0398906Y0218000D01*
X0398904Y0217847D01*
X0398898Y0217693D01*
X0398888Y0217540D01*
X0398874Y0217388D01*
X0398856Y0217235D01*
X0398834Y0217084D01*
X0398809Y0216933D01*
X0398779Y0216782D01*
X0398745Y0216632D01*
X0398708Y0216484D01*
X0398667Y0216336D01*
X0398622Y0216190D01*
X0398573Y0216044D01*
X0398520Y0215900D01*
X0398464Y0215758D01*
X0398404Y0215617D01*
X0398340Y0215477D01*
X0398273Y0215339D01*
X0398202Y0215203D01*
X0398127Y0215069D01*
X0398050Y0214937D01*
X0397968Y0214807D01*
X0397884Y0214679D01*
X0397796Y0214553D01*
X0397705Y0214430D01*
X0397611Y0214309D01*
X0397513Y0214191D01*
X0397413Y0214075D01*
X0397309Y0213962D01*
X0397203Y0213851D01*
X0397094Y0213743D01*
X0396982Y0213638D01*
X0396868Y0213537D01*
X0396750Y0213438D01*
X0396631Y0213342D01*
X0396509Y0213249D01*
X0396384Y0213160D01*
X0396257Y0213073D01*
X0396128Y0212991D01*
X0395997Y0212911D01*
X0395864Y0212835D01*
X0395729Y0212762D01*
X0395592Y0212693D01*
X0395453Y0212628D01*
X0395313Y0212566D01*
X0395171Y0212508D01*
X0395028Y0212453D01*
X0394883Y0212402D01*
X0394737Y0212355D01*
X0394590Y0212312D01*
X0394442Y0212273D01*
X0394293Y0212237D01*
X0394143Y0212206D01*
X0393992Y0212178D01*
X0393841Y0212154D01*
X0393688Y0212134D01*
X0393536Y0212118D01*
X0393383Y0212106D01*
X0393230Y0212098D01*
X0393077Y0212094D01*
X0392923Y0212094D01*
X0392770Y0212098D01*
X0392617Y0212106D01*
X0392464Y0212118D01*
X0392312Y0212134D01*
X0392159Y0212154D01*
X0392008Y0212178D01*
X0391857Y0212206D01*
X0391707Y0212237D01*
X0391558Y0212273D01*
X0391410Y0212312D01*
X0391263Y0212355D01*
X0391117Y0212402D01*
X0390972Y0212453D01*
X0390829Y0212508D01*
X0390687Y0212566D01*
X0390547Y0212628D01*
X0390408Y0212693D01*
X0390271Y0212762D01*
X0390136Y0212835D01*
X0390003Y0212911D01*
X0389872Y0212991D01*
X0389743Y0213073D01*
X0389616Y0213160D01*
X0389491Y0213249D01*
X0389369Y0213342D01*
X0389250Y0213438D01*
X0389132Y0213537D01*
X0389018Y0213638D01*
X0388906Y0213743D01*
X0388797Y0213851D01*
X0388691Y0213962D01*
X0388587Y0214075D01*
X0388487Y0214191D01*
X0388389Y0214309D01*
X0388295Y0214430D01*
X0388204Y0214553D01*
X0388116Y0214679D01*
X0388032Y0214807D01*
X0387950Y0214937D01*
X0387873Y0215069D01*
X0387798Y0215203D01*
X0387727Y0215339D01*
X0387660Y0215477D01*
X0387596Y0215617D01*
X0387536Y0215758D01*
X0387480Y0215900D01*
X0387427Y0216044D01*
X0387378Y0216190D01*
X0387333Y0216336D01*
X0387292Y0216484D01*
X0387255Y0216632D01*
X0387221Y0216782D01*
X0387191Y0216933D01*
X0387166Y0217084D01*
X0387144Y0217235D01*
X0387126Y0217388D01*
X0387112Y0217540D01*
X0387102Y0217693D01*
X0387096Y0217847D01*
X0387094Y0218000D01*
X0068750Y0168300D02*
X0068752Y0168467D01*
X0068758Y0168634D01*
X0068768Y0168800D01*
X0068783Y0168967D01*
X0068801Y0169132D01*
X0068824Y0169298D01*
X0068850Y0169463D01*
X0068881Y0169627D01*
X0068915Y0169790D01*
X0068954Y0169952D01*
X0068996Y0170114D01*
X0069043Y0170274D01*
X0069093Y0170433D01*
X0069148Y0170591D01*
X0069206Y0170747D01*
X0069268Y0170902D01*
X0069333Y0171056D01*
X0069403Y0171207D01*
X0069476Y0171357D01*
X0069553Y0171505D01*
X0069633Y0171652D01*
X0069717Y0171796D01*
X0069805Y0171938D01*
X0069896Y0172078D01*
X0069990Y0172215D01*
X0070088Y0172351D01*
X0070189Y0172484D01*
X0070294Y0172614D01*
X0070401Y0172742D01*
X0070512Y0172867D01*
X0070625Y0172989D01*
X0070742Y0173108D01*
X0070861Y0173225D01*
X0070983Y0173338D01*
X0071108Y0173449D01*
X0071236Y0173556D01*
X0071366Y0173661D01*
X0071499Y0173762D01*
X0071635Y0173860D01*
X0071772Y0173954D01*
X0071912Y0174045D01*
X0072054Y0174133D01*
X0072198Y0174217D01*
X0072345Y0174297D01*
X0072493Y0174374D01*
X0072643Y0174447D01*
X0072794Y0174517D01*
X0072948Y0174582D01*
X0073103Y0174644D01*
X0073259Y0174702D01*
X0073417Y0174757D01*
X0073576Y0174807D01*
X0073736Y0174854D01*
X0073898Y0174896D01*
X0074060Y0174935D01*
X0074223Y0174969D01*
X0074387Y0175000D01*
X0074552Y0175026D01*
X0074718Y0175049D01*
X0074883Y0175067D01*
X0075050Y0175082D01*
X0075216Y0175092D01*
X0075383Y0175098D01*
X0075550Y0175100D01*
X0075717Y0175098D01*
X0075884Y0175092D01*
X0076050Y0175082D01*
X0076217Y0175067D01*
X0076382Y0175049D01*
X0076548Y0175026D01*
X0076713Y0175000D01*
X0076877Y0174969D01*
X0077040Y0174935D01*
X0077202Y0174896D01*
X0077364Y0174854D01*
X0077524Y0174807D01*
X0077683Y0174757D01*
X0077841Y0174702D01*
X0077997Y0174644D01*
X0078152Y0174582D01*
X0078306Y0174517D01*
X0078457Y0174447D01*
X0078607Y0174374D01*
X0078755Y0174297D01*
X0078902Y0174217D01*
X0079046Y0174133D01*
X0079188Y0174045D01*
X0079328Y0173954D01*
X0079465Y0173860D01*
X0079601Y0173762D01*
X0079734Y0173661D01*
X0079864Y0173556D01*
X0079992Y0173449D01*
X0080117Y0173338D01*
X0080239Y0173225D01*
X0080358Y0173108D01*
X0080475Y0172989D01*
X0080588Y0172867D01*
X0080699Y0172742D01*
X0080806Y0172614D01*
X0080911Y0172484D01*
X0081012Y0172351D01*
X0081110Y0172215D01*
X0081204Y0172078D01*
X0081295Y0171938D01*
X0081383Y0171796D01*
X0081467Y0171652D01*
X0081547Y0171505D01*
X0081624Y0171357D01*
X0081697Y0171207D01*
X0081767Y0171056D01*
X0081832Y0170902D01*
X0081894Y0170747D01*
X0081952Y0170591D01*
X0082007Y0170433D01*
X0082057Y0170274D01*
X0082104Y0170114D01*
X0082146Y0169952D01*
X0082185Y0169790D01*
X0082219Y0169627D01*
X0082250Y0169463D01*
X0082276Y0169298D01*
X0082299Y0169132D01*
X0082317Y0168967D01*
X0082332Y0168800D01*
X0082342Y0168634D01*
X0082348Y0168467D01*
X0082350Y0168300D01*
X0082348Y0168133D01*
X0082342Y0167966D01*
X0082332Y0167800D01*
X0082317Y0167633D01*
X0082299Y0167468D01*
X0082276Y0167302D01*
X0082250Y0167137D01*
X0082219Y0166973D01*
X0082185Y0166810D01*
X0082146Y0166648D01*
X0082104Y0166486D01*
X0082057Y0166326D01*
X0082007Y0166167D01*
X0081952Y0166009D01*
X0081894Y0165853D01*
X0081832Y0165698D01*
X0081767Y0165544D01*
X0081697Y0165393D01*
X0081624Y0165243D01*
X0081547Y0165095D01*
X0081467Y0164948D01*
X0081383Y0164804D01*
X0081295Y0164662D01*
X0081204Y0164522D01*
X0081110Y0164385D01*
X0081012Y0164249D01*
X0080911Y0164116D01*
X0080806Y0163986D01*
X0080699Y0163858D01*
X0080588Y0163733D01*
X0080475Y0163611D01*
X0080358Y0163492D01*
X0080239Y0163375D01*
X0080117Y0163262D01*
X0079992Y0163151D01*
X0079864Y0163044D01*
X0079734Y0162939D01*
X0079601Y0162838D01*
X0079465Y0162740D01*
X0079328Y0162646D01*
X0079188Y0162555D01*
X0079046Y0162467D01*
X0078902Y0162383D01*
X0078755Y0162303D01*
X0078607Y0162226D01*
X0078457Y0162153D01*
X0078306Y0162083D01*
X0078152Y0162018D01*
X0077997Y0161956D01*
X0077841Y0161898D01*
X0077683Y0161843D01*
X0077524Y0161793D01*
X0077364Y0161746D01*
X0077202Y0161704D01*
X0077040Y0161665D01*
X0076877Y0161631D01*
X0076713Y0161600D01*
X0076548Y0161574D01*
X0076382Y0161551D01*
X0076217Y0161533D01*
X0076050Y0161518D01*
X0075884Y0161508D01*
X0075717Y0161502D01*
X0075550Y0161500D01*
X0075383Y0161502D01*
X0075216Y0161508D01*
X0075050Y0161518D01*
X0074883Y0161533D01*
X0074718Y0161551D01*
X0074552Y0161574D01*
X0074387Y0161600D01*
X0074223Y0161631D01*
X0074060Y0161665D01*
X0073898Y0161704D01*
X0073736Y0161746D01*
X0073576Y0161793D01*
X0073417Y0161843D01*
X0073259Y0161898D01*
X0073103Y0161956D01*
X0072948Y0162018D01*
X0072794Y0162083D01*
X0072643Y0162153D01*
X0072493Y0162226D01*
X0072345Y0162303D01*
X0072198Y0162383D01*
X0072054Y0162467D01*
X0071912Y0162555D01*
X0071772Y0162646D01*
X0071635Y0162740D01*
X0071499Y0162838D01*
X0071366Y0162939D01*
X0071236Y0163044D01*
X0071108Y0163151D01*
X0070983Y0163262D01*
X0070861Y0163375D01*
X0070742Y0163492D01*
X0070625Y0163611D01*
X0070512Y0163733D01*
X0070401Y0163858D01*
X0070294Y0163986D01*
X0070189Y0164116D01*
X0070088Y0164249D01*
X0069990Y0164385D01*
X0069896Y0164522D01*
X0069805Y0164662D01*
X0069717Y0164804D01*
X0069633Y0164948D01*
X0069553Y0165095D01*
X0069476Y0165243D01*
X0069403Y0165393D01*
X0069333Y0165544D01*
X0069268Y0165698D01*
X0069206Y0165853D01*
X0069148Y0166009D01*
X0069093Y0166167D01*
X0069043Y0166326D01*
X0068996Y0166486D01*
X0068954Y0166648D01*
X0068915Y0166810D01*
X0068881Y0166973D01*
X0068850Y0167137D01*
X0068824Y0167302D01*
X0068801Y0167468D01*
X0068783Y0167633D01*
X0068768Y0167800D01*
X0068758Y0167966D01*
X0068752Y0168133D01*
X0068750Y0168300D01*
X0004094Y0218000D02*
X0004096Y0218153D01*
X0004102Y0218307D01*
X0004112Y0218460D01*
X0004126Y0218612D01*
X0004144Y0218765D01*
X0004166Y0218916D01*
X0004191Y0219067D01*
X0004221Y0219218D01*
X0004255Y0219368D01*
X0004292Y0219516D01*
X0004333Y0219664D01*
X0004378Y0219810D01*
X0004427Y0219956D01*
X0004480Y0220100D01*
X0004536Y0220242D01*
X0004596Y0220383D01*
X0004660Y0220523D01*
X0004727Y0220661D01*
X0004798Y0220797D01*
X0004873Y0220931D01*
X0004950Y0221063D01*
X0005032Y0221193D01*
X0005116Y0221321D01*
X0005204Y0221447D01*
X0005295Y0221570D01*
X0005389Y0221691D01*
X0005487Y0221809D01*
X0005587Y0221925D01*
X0005691Y0222038D01*
X0005797Y0222149D01*
X0005906Y0222257D01*
X0006018Y0222362D01*
X0006132Y0222463D01*
X0006250Y0222562D01*
X0006369Y0222658D01*
X0006491Y0222751D01*
X0006616Y0222840D01*
X0006743Y0222927D01*
X0006872Y0223009D01*
X0007003Y0223089D01*
X0007136Y0223165D01*
X0007271Y0223238D01*
X0007408Y0223307D01*
X0007547Y0223372D01*
X0007687Y0223434D01*
X0007829Y0223492D01*
X0007972Y0223547D01*
X0008117Y0223598D01*
X0008263Y0223645D01*
X0008410Y0223688D01*
X0008558Y0223727D01*
X0008707Y0223763D01*
X0008857Y0223794D01*
X0009008Y0223822D01*
X0009159Y0223846D01*
X0009312Y0223866D01*
X0009464Y0223882D01*
X0009617Y0223894D01*
X0009770Y0223902D01*
X0009923Y0223906D01*
X0010077Y0223906D01*
X0010230Y0223902D01*
X0010383Y0223894D01*
X0010536Y0223882D01*
X0010688Y0223866D01*
X0010841Y0223846D01*
X0010992Y0223822D01*
X0011143Y0223794D01*
X0011293Y0223763D01*
X0011442Y0223727D01*
X0011590Y0223688D01*
X0011737Y0223645D01*
X0011883Y0223598D01*
X0012028Y0223547D01*
X0012171Y0223492D01*
X0012313Y0223434D01*
X0012453Y0223372D01*
X0012592Y0223307D01*
X0012729Y0223238D01*
X0012864Y0223165D01*
X0012997Y0223089D01*
X0013128Y0223009D01*
X0013257Y0222927D01*
X0013384Y0222840D01*
X0013509Y0222751D01*
X0013631Y0222658D01*
X0013750Y0222562D01*
X0013868Y0222463D01*
X0013982Y0222362D01*
X0014094Y0222257D01*
X0014203Y0222149D01*
X0014309Y0222038D01*
X0014413Y0221925D01*
X0014513Y0221809D01*
X0014611Y0221691D01*
X0014705Y0221570D01*
X0014796Y0221447D01*
X0014884Y0221321D01*
X0014968Y0221193D01*
X0015050Y0221063D01*
X0015127Y0220931D01*
X0015202Y0220797D01*
X0015273Y0220661D01*
X0015340Y0220523D01*
X0015404Y0220383D01*
X0015464Y0220242D01*
X0015520Y0220100D01*
X0015573Y0219956D01*
X0015622Y0219810D01*
X0015667Y0219664D01*
X0015708Y0219516D01*
X0015745Y0219368D01*
X0015779Y0219218D01*
X0015809Y0219067D01*
X0015834Y0218916D01*
X0015856Y0218765D01*
X0015874Y0218612D01*
X0015888Y0218460D01*
X0015898Y0218307D01*
X0015904Y0218153D01*
X0015906Y0218000D01*
X0015904Y0217847D01*
X0015898Y0217693D01*
X0015888Y0217540D01*
X0015874Y0217388D01*
X0015856Y0217235D01*
X0015834Y0217084D01*
X0015809Y0216933D01*
X0015779Y0216782D01*
X0015745Y0216632D01*
X0015708Y0216484D01*
X0015667Y0216336D01*
X0015622Y0216190D01*
X0015573Y0216044D01*
X0015520Y0215900D01*
X0015464Y0215758D01*
X0015404Y0215617D01*
X0015340Y0215477D01*
X0015273Y0215339D01*
X0015202Y0215203D01*
X0015127Y0215069D01*
X0015050Y0214937D01*
X0014968Y0214807D01*
X0014884Y0214679D01*
X0014796Y0214553D01*
X0014705Y0214430D01*
X0014611Y0214309D01*
X0014513Y0214191D01*
X0014413Y0214075D01*
X0014309Y0213962D01*
X0014203Y0213851D01*
X0014094Y0213743D01*
X0013982Y0213638D01*
X0013868Y0213537D01*
X0013750Y0213438D01*
X0013631Y0213342D01*
X0013509Y0213249D01*
X0013384Y0213160D01*
X0013257Y0213073D01*
X0013128Y0212991D01*
X0012997Y0212911D01*
X0012864Y0212835D01*
X0012729Y0212762D01*
X0012592Y0212693D01*
X0012453Y0212628D01*
X0012313Y0212566D01*
X0012171Y0212508D01*
X0012028Y0212453D01*
X0011883Y0212402D01*
X0011737Y0212355D01*
X0011590Y0212312D01*
X0011442Y0212273D01*
X0011293Y0212237D01*
X0011143Y0212206D01*
X0010992Y0212178D01*
X0010841Y0212154D01*
X0010688Y0212134D01*
X0010536Y0212118D01*
X0010383Y0212106D01*
X0010230Y0212098D01*
X0010077Y0212094D01*
X0009923Y0212094D01*
X0009770Y0212098D01*
X0009617Y0212106D01*
X0009464Y0212118D01*
X0009312Y0212134D01*
X0009159Y0212154D01*
X0009008Y0212178D01*
X0008857Y0212206D01*
X0008707Y0212237D01*
X0008558Y0212273D01*
X0008410Y0212312D01*
X0008263Y0212355D01*
X0008117Y0212402D01*
X0007972Y0212453D01*
X0007829Y0212508D01*
X0007687Y0212566D01*
X0007547Y0212628D01*
X0007408Y0212693D01*
X0007271Y0212762D01*
X0007136Y0212835D01*
X0007003Y0212911D01*
X0006872Y0212991D01*
X0006743Y0213073D01*
X0006616Y0213160D01*
X0006491Y0213249D01*
X0006369Y0213342D01*
X0006250Y0213438D01*
X0006132Y0213537D01*
X0006018Y0213638D01*
X0005906Y0213743D01*
X0005797Y0213851D01*
X0005691Y0213962D01*
X0005587Y0214075D01*
X0005487Y0214191D01*
X0005389Y0214309D01*
X0005295Y0214430D01*
X0005204Y0214553D01*
X0005116Y0214679D01*
X0005032Y0214807D01*
X0004950Y0214937D01*
X0004873Y0215069D01*
X0004798Y0215203D01*
X0004727Y0215339D01*
X0004660Y0215477D01*
X0004596Y0215617D01*
X0004536Y0215758D01*
X0004480Y0215900D01*
X0004427Y0216044D01*
X0004378Y0216190D01*
X0004333Y0216336D01*
X0004292Y0216484D01*
X0004255Y0216632D01*
X0004221Y0216782D01*
X0004191Y0216933D01*
X0004166Y0217084D01*
X0004144Y0217235D01*
X0004126Y0217388D01*
X0004112Y0217540D01*
X0004102Y0217693D01*
X0004096Y0217847D01*
X0004094Y0218000D01*
M02*
