G75*
%MOIN*%
%OFA0B0*%
%FSLAX25Y25*%
%IPPOS*%
%LPD*%
%AMOC8*
5,1,8,0,0,1.08239X$1,22.5*
%
%ADD10C,0.00400*%
%ADD11C,0.00800*%
%ADD12C,0.02200*%
%ADD13C,0.01000*%
%ADD14C,0.00700*%
%ADD15R,0.03000X0.01800*%
%ADD16R,0.01800X0.03000*%
%ADD17C,0.02400*%
%ADD18C,0.00500*%
%ADD19C,0.00600*%
%ADD20C,0.00100*%
D10*
X0110796Y0067556D02*
X0111563Y0066789D01*
X0112331Y0066789D01*
X0113098Y0067556D01*
X0113098Y0069091D01*
X0113865Y0069858D01*
X0114633Y0069858D01*
X0115400Y0069091D01*
X0115400Y0067556D01*
X0114633Y0066789D01*
X0110796Y0067556D02*
X0110796Y0069091D01*
X0111563Y0069858D01*
X0112331Y0071393D02*
X0110796Y0072928D01*
X0115400Y0072928D01*
X0115400Y0074462D02*
X0115400Y0071393D01*
X0140596Y0064695D02*
X0140596Y0063160D01*
X0141363Y0062393D01*
X0141363Y0060858D02*
X0140596Y0060091D01*
X0140596Y0057789D01*
X0145200Y0057789D01*
X0145200Y0060091D01*
X0144433Y0060858D01*
X0141363Y0060858D01*
X0142898Y0063928D02*
X0142898Y0064695D01*
X0143665Y0065462D01*
X0144433Y0065462D01*
X0145200Y0064695D01*
X0145200Y0063160D01*
X0144433Y0062393D01*
X0142898Y0064695D02*
X0142131Y0065462D01*
X0141363Y0065462D01*
X0140596Y0064695D01*
X0139577Y0055801D02*
X0136508Y0055801D01*
X0136508Y0053499D01*
X0138042Y0054266D01*
X0138810Y0054266D01*
X0139577Y0053499D01*
X0139577Y0051964D01*
X0138810Y0051197D01*
X0137275Y0051197D01*
X0136508Y0051964D01*
X0134973Y0051197D02*
X0131904Y0051197D01*
X0133439Y0051197D02*
X0133439Y0055801D01*
X0131904Y0054266D01*
X0130369Y0053499D02*
X0129602Y0052732D01*
X0127300Y0052732D01*
X0128835Y0052732D02*
X0130369Y0051197D01*
X0130369Y0053499D02*
X0130369Y0055034D01*
X0129602Y0055801D01*
X0127300Y0055801D01*
X0127300Y0051197D01*
X0149200Y0047601D02*
X0149200Y0042997D01*
X0151502Y0042997D01*
X0152269Y0043764D01*
X0152269Y0046834D01*
X0151502Y0047601D01*
X0149200Y0047601D01*
X0153804Y0045299D02*
X0156873Y0045299D01*
X0156106Y0047601D02*
X0153804Y0045299D01*
X0156106Y0042997D02*
X0156106Y0047601D01*
X0163363Y0055789D02*
X0166433Y0055789D01*
X0167200Y0056556D01*
X0167200Y0058091D01*
X0166433Y0058858D01*
X0166433Y0060393D02*
X0167200Y0061160D01*
X0167200Y0062695D01*
X0166433Y0063462D01*
X0164898Y0063462D01*
X0164131Y0062695D01*
X0164131Y0061928D01*
X0164898Y0060393D01*
X0162596Y0060393D01*
X0162596Y0063462D01*
X0163363Y0058858D02*
X0162596Y0058091D01*
X0162596Y0056556D01*
X0163363Y0055789D01*
X0175596Y0058732D02*
X0175596Y0060266D01*
X0175596Y0059499D02*
X0179433Y0059499D01*
X0180200Y0058732D01*
X0180200Y0057964D01*
X0179433Y0057197D01*
X0185100Y0055301D02*
X0187402Y0055301D01*
X0188169Y0054534D01*
X0188169Y0052999D01*
X0187402Y0052232D01*
X0185100Y0052232D01*
X0186635Y0052232D02*
X0188169Y0050697D01*
X0189704Y0051464D02*
X0189704Y0052232D01*
X0190471Y0052999D01*
X0192006Y0052999D01*
X0192773Y0052232D01*
X0192773Y0051464D01*
X0192006Y0050697D01*
X0190471Y0050697D01*
X0189704Y0051464D01*
X0190471Y0052999D02*
X0189704Y0053766D01*
X0189704Y0054534D01*
X0190471Y0055301D01*
X0192006Y0055301D01*
X0192773Y0054534D01*
X0192773Y0053766D01*
X0192006Y0052999D01*
X0185100Y0050697D02*
X0185100Y0055301D01*
X0180200Y0061801D02*
X0175596Y0061801D01*
X0175596Y0064103D01*
X0176363Y0064870D01*
X0177898Y0064870D01*
X0178665Y0064103D01*
X0178665Y0061801D01*
X0178665Y0066405D02*
X0178665Y0068707D01*
X0177898Y0069474D01*
X0176363Y0069474D01*
X0175596Y0068707D01*
X0175596Y0066405D01*
X0180200Y0066405D01*
X0178665Y0067939D02*
X0180200Y0069474D01*
X0179433Y0071009D02*
X0180200Y0071776D01*
X0180200Y0073311D01*
X0179433Y0074078D01*
X0176363Y0074078D01*
X0175596Y0073311D01*
X0175596Y0071776D01*
X0176363Y0071009D01*
X0179433Y0071009D01*
X0179433Y0075613D02*
X0176363Y0075613D01*
X0175596Y0076380D01*
X0175596Y0077915D01*
X0176363Y0078682D01*
X0177898Y0078682D02*
X0177898Y0077147D01*
X0177898Y0078682D02*
X0179433Y0078682D01*
X0180200Y0077915D01*
X0180200Y0076380D01*
X0179433Y0075613D01*
X0200792Y0055401D02*
X0203094Y0055401D01*
X0203861Y0054634D01*
X0203861Y0053099D01*
X0203094Y0052332D01*
X0200792Y0052332D01*
X0202327Y0052332D02*
X0203861Y0050797D01*
X0205396Y0050797D02*
X0205396Y0051564D01*
X0208465Y0054634D01*
X0208465Y0055401D01*
X0205396Y0055401D01*
X0200792Y0055401D02*
X0200792Y0050797D01*
X0236592Y0071764D02*
X0237359Y0070997D01*
X0238894Y0070997D01*
X0239661Y0071764D01*
X0241196Y0071764D02*
X0241196Y0070997D01*
X0241196Y0071764D02*
X0244265Y0074834D01*
X0244265Y0075601D01*
X0241196Y0075601D01*
X0239661Y0074834D02*
X0238894Y0075601D01*
X0237359Y0075601D01*
X0236592Y0074834D01*
X0236592Y0071764D01*
X0260096Y0070899D02*
X0260096Y0069364D01*
X0260863Y0068597D01*
X0263933Y0068597D01*
X0264700Y0069364D01*
X0264700Y0070899D01*
X0263933Y0071666D01*
X0263933Y0073201D02*
X0264700Y0073968D01*
X0264700Y0075503D01*
X0263933Y0076270D01*
X0263165Y0076270D01*
X0262398Y0075503D01*
X0262398Y0073201D01*
X0263933Y0073201D01*
X0262398Y0073201D02*
X0260863Y0074735D01*
X0260096Y0076270D01*
X0260863Y0071666D02*
X0260096Y0070899D01*
X0246433Y0088593D02*
X0242596Y0088593D01*
X0242596Y0091662D02*
X0246433Y0091662D01*
X0247200Y0090895D01*
X0247200Y0089360D01*
X0246433Y0088593D01*
X0244898Y0093197D02*
X0244898Y0096266D01*
X0242596Y0095499D02*
X0244898Y0093197D01*
X0247200Y0095499D02*
X0242596Y0095499D01*
X0247963Y0106397D02*
X0251033Y0106397D01*
X0251800Y0107164D01*
X0251800Y0108699D01*
X0251033Y0109466D01*
X0251033Y0111001D02*
X0250265Y0111001D01*
X0249498Y0111768D01*
X0249498Y0113303D01*
X0250265Y0114070D01*
X0251033Y0114070D01*
X0251800Y0113303D01*
X0251800Y0111768D01*
X0251033Y0111001D01*
X0249498Y0111768D02*
X0248731Y0111001D01*
X0247963Y0111001D01*
X0247196Y0111768D01*
X0247196Y0113303D01*
X0247963Y0114070D01*
X0248731Y0114070D01*
X0249498Y0113303D01*
X0247963Y0109466D02*
X0247196Y0108699D01*
X0247196Y0107164D01*
X0247963Y0106397D01*
X0229700Y0107364D02*
X0228933Y0106597D01*
X0225863Y0106597D01*
X0225096Y0107364D01*
X0225096Y0108899D01*
X0225863Y0109666D01*
X0225863Y0111201D02*
X0226631Y0111201D01*
X0227398Y0111968D01*
X0227398Y0114270D01*
X0225863Y0114270D02*
X0225096Y0113503D01*
X0225096Y0111968D01*
X0225863Y0111201D01*
X0228933Y0111201D02*
X0229700Y0111968D01*
X0229700Y0113503D01*
X0228933Y0114270D01*
X0225863Y0114270D01*
X0228933Y0109666D02*
X0229700Y0108899D01*
X0229700Y0107364D01*
X0182573Y0102001D02*
X0181039Y0101234D01*
X0179504Y0099699D01*
X0181806Y0099699D01*
X0182573Y0098932D01*
X0182573Y0098164D01*
X0181806Y0097397D01*
X0180271Y0097397D01*
X0179504Y0098164D01*
X0179504Y0099699D01*
X0177969Y0099699D02*
X0177202Y0098932D01*
X0174900Y0098932D01*
X0176435Y0098932D02*
X0177969Y0097397D01*
X0177969Y0099699D02*
X0177969Y0101234D01*
X0177202Y0102001D01*
X0174900Y0102001D01*
X0174900Y0097397D01*
X0154465Y0104199D02*
X0151396Y0104199D01*
X0153698Y0106501D01*
X0153698Y0101897D01*
X0149861Y0101897D02*
X0146792Y0101897D01*
X0145257Y0101897D02*
X0143723Y0103432D01*
X0144490Y0103432D02*
X0142188Y0103432D01*
X0142188Y0101897D02*
X0142188Y0106501D01*
X0144490Y0106501D01*
X0145257Y0105734D01*
X0145257Y0104199D01*
X0144490Y0103432D01*
X0146792Y0104966D02*
X0148327Y0106501D01*
X0148327Y0101897D01*
X0141248Y0092752D02*
X0139714Y0092752D01*
X0138946Y0091985D01*
X0137412Y0091985D02*
X0136644Y0092752D01*
X0135110Y0092752D01*
X0134343Y0091985D01*
X0134343Y0088915D01*
X0135110Y0088148D01*
X0136644Y0088148D01*
X0137412Y0088915D01*
X0138946Y0088915D02*
X0139714Y0088148D01*
X0141248Y0088148D01*
X0142016Y0088915D01*
X0142016Y0089683D01*
X0141248Y0090450D01*
X0140481Y0090450D01*
X0141248Y0090450D02*
X0142016Y0091217D01*
X0142016Y0091985D01*
X0141248Y0092752D01*
X0119545Y0091591D02*
X0116476Y0091591D01*
X0119545Y0094661D01*
X0119545Y0095428D01*
X0118778Y0096195D01*
X0117243Y0096195D01*
X0116476Y0095428D01*
X0111872Y0096195D02*
X0111872Y0091591D01*
X0114941Y0091591D01*
X0088765Y0090783D02*
X0088765Y0088481D01*
X0084161Y0088481D01*
X0084161Y0090783D01*
X0084928Y0091550D01*
X0085695Y0091550D01*
X0086463Y0090783D01*
X0086463Y0088481D01*
X0086463Y0090783D02*
X0087230Y0091550D01*
X0087997Y0091550D01*
X0088765Y0090783D01*
X0088765Y0093085D02*
X0085695Y0093085D01*
X0084161Y0094620D01*
X0085695Y0096154D01*
X0088765Y0096154D01*
X0086463Y0096154D02*
X0086463Y0093085D01*
X0084161Y0097689D02*
X0084161Y0100758D01*
X0084161Y0099224D02*
X0088765Y0099224D01*
X0088765Y0102293D02*
X0088765Y0105362D01*
X0088765Y0103828D02*
X0084161Y0103828D01*
X0085695Y0102293D01*
X0110375Y0112726D02*
X0110375Y0115028D01*
X0111142Y0115795D01*
X0114211Y0115795D01*
X0114979Y0115028D01*
X0114979Y0112726D01*
X0110375Y0112726D01*
X0111142Y0117330D02*
X0110375Y0118097D01*
X0110375Y0119632D01*
X0111142Y0120399D01*
X0111909Y0120399D01*
X0114979Y0117330D01*
X0114979Y0120399D01*
X0144949Y0133916D02*
X0145717Y0133149D01*
X0147251Y0133149D01*
X0148018Y0133916D01*
X0148018Y0137753D01*
X0149553Y0137753D02*
X0152622Y0137753D01*
X0152622Y0136986D01*
X0149553Y0133916D01*
X0149553Y0133149D01*
X0144949Y0133916D02*
X0144949Y0137753D01*
X0144696Y0143097D02*
X0147765Y0146166D01*
X0147765Y0146934D01*
X0146998Y0147701D01*
X0145463Y0147701D01*
X0144696Y0146934D01*
X0141627Y0147701D02*
X0141627Y0143097D01*
X0143161Y0143097D02*
X0140092Y0143097D01*
X0138557Y0143097D02*
X0137023Y0144632D01*
X0137790Y0144632D02*
X0135488Y0144632D01*
X0135488Y0143097D02*
X0135488Y0147701D01*
X0137790Y0147701D01*
X0138557Y0146934D01*
X0138557Y0145399D01*
X0137790Y0144632D01*
X0140092Y0146166D02*
X0141627Y0147701D01*
X0144696Y0143097D02*
X0147765Y0143097D01*
X0155498Y0128862D02*
X0155498Y0125793D01*
X0153196Y0128095D01*
X0157800Y0128095D01*
X0157033Y0124258D02*
X0157800Y0123491D01*
X0157800Y0121956D01*
X0157033Y0121189D01*
X0153963Y0121189D01*
X0153196Y0121956D01*
X0153196Y0123491D01*
X0153963Y0124258D01*
X0153711Y0118611D02*
X0156013Y0118611D01*
X0156780Y0117844D01*
X0156780Y0116309D01*
X0156013Y0115542D01*
X0153711Y0115542D01*
X0155246Y0115542D02*
X0156780Y0114007D01*
X0158315Y0114007D02*
X0161384Y0114007D01*
X0159850Y0114007D02*
X0159850Y0118611D01*
X0158315Y0117076D01*
X0162919Y0117844D02*
X0163686Y0118611D01*
X0165221Y0118611D01*
X0165988Y0117844D01*
X0165988Y0117076D01*
X0165221Y0116309D01*
X0165988Y0115542D01*
X0165988Y0114774D01*
X0165221Y0114007D01*
X0163686Y0114007D01*
X0162919Y0114774D01*
X0164454Y0116309D02*
X0165221Y0116309D01*
X0153711Y0114007D02*
X0153711Y0118611D01*
X0120945Y0149691D02*
X0117876Y0149691D01*
X0119410Y0149691D02*
X0119410Y0154295D01*
X0117876Y0152761D01*
X0116341Y0149691D02*
X0113272Y0149691D01*
X0113272Y0154295D01*
X0129596Y0165497D02*
X0129596Y0167799D01*
X0130363Y0168566D01*
X0131898Y0168566D01*
X0132665Y0167799D01*
X0132665Y0165497D01*
X0132665Y0167032D02*
X0134200Y0168566D01*
X0133433Y0170101D02*
X0134200Y0170868D01*
X0134200Y0172403D01*
X0133433Y0173170D01*
X0132665Y0173170D01*
X0131898Y0172403D01*
X0131898Y0171635D01*
X0131898Y0172403D02*
X0131131Y0173170D01*
X0130363Y0173170D01*
X0129596Y0172403D01*
X0129596Y0170868D01*
X0130363Y0170101D01*
X0129596Y0165497D02*
X0134200Y0165497D01*
X0143800Y0164234D02*
X0143800Y0161164D01*
X0144567Y0160397D01*
X0146102Y0160397D01*
X0146869Y0161164D01*
X0148404Y0160397D02*
X0151473Y0160397D01*
X0149939Y0160397D02*
X0149939Y0165001D01*
X0148404Y0163466D01*
X0146869Y0164234D02*
X0146102Y0165001D01*
X0144567Y0165001D01*
X0143800Y0164234D01*
X0156211Y0172307D02*
X0156211Y0176911D01*
X0158513Y0176911D01*
X0159280Y0176144D01*
X0159280Y0174609D01*
X0158513Y0173842D01*
X0156211Y0173842D01*
X0157746Y0173842D02*
X0159280Y0172307D01*
X0160815Y0172307D02*
X0163884Y0175376D01*
X0163884Y0176144D01*
X0163117Y0176911D01*
X0161582Y0176911D01*
X0160815Y0176144D01*
X0160815Y0172307D02*
X0163884Y0172307D01*
X0155373Y0190797D02*
X0152304Y0190797D01*
X0155373Y0193866D01*
X0155373Y0194634D01*
X0154606Y0195401D01*
X0153071Y0195401D01*
X0152304Y0194634D01*
X0150769Y0194634D02*
X0150002Y0195401D01*
X0148467Y0195401D01*
X0147700Y0194634D01*
X0147700Y0191564D01*
X0148467Y0190797D01*
X0150002Y0190797D01*
X0150769Y0191564D01*
X0141165Y0201897D02*
X0138096Y0201897D01*
X0136561Y0201897D02*
X0135027Y0203432D01*
X0135794Y0203432D02*
X0133492Y0203432D01*
X0133492Y0201897D02*
X0133492Y0206501D01*
X0135794Y0206501D01*
X0136561Y0205734D01*
X0136561Y0204199D01*
X0135794Y0203432D01*
X0138096Y0204966D02*
X0139631Y0206501D01*
X0139631Y0201897D01*
X0130322Y0196053D02*
X0128788Y0195286D01*
X0127253Y0193751D01*
X0129555Y0193751D01*
X0130322Y0192984D01*
X0130322Y0192216D01*
X0129555Y0191449D01*
X0128020Y0191449D01*
X0127253Y0192216D01*
X0127253Y0193751D01*
X0125718Y0192216D02*
X0125718Y0196053D01*
X0122649Y0196053D02*
X0122649Y0192216D01*
X0123417Y0191449D01*
X0124951Y0191449D01*
X0125718Y0192216D01*
X0115679Y0182299D02*
X0115679Y0179230D01*
X0115679Y0180765D02*
X0111075Y0180765D01*
X0112609Y0179230D01*
X0111842Y0177695D02*
X0111075Y0176928D01*
X0111075Y0174626D01*
X0115679Y0174626D01*
X0115679Y0176928D01*
X0114911Y0177695D01*
X0111842Y0177695D01*
X0191100Y0201264D02*
X0191867Y0200497D01*
X0193402Y0200497D01*
X0194169Y0201264D01*
X0195704Y0200497D02*
X0198773Y0200497D01*
X0197239Y0200497D02*
X0197239Y0205101D01*
X0195704Y0203566D01*
X0194169Y0204334D02*
X0193402Y0205101D01*
X0191867Y0205101D01*
X0191100Y0204334D01*
X0191100Y0201264D01*
X0200308Y0201264D02*
X0201075Y0200497D01*
X0202610Y0200497D01*
X0203377Y0201264D01*
X0203377Y0202799D01*
X0202610Y0203566D01*
X0201842Y0203566D01*
X0200308Y0202799D01*
X0200308Y0205101D01*
X0203377Y0205101D01*
X0209035Y0224285D02*
X0210570Y0224285D01*
X0211337Y0225052D01*
X0211337Y0228889D01*
X0212872Y0228122D02*
X0213639Y0228889D01*
X0215174Y0228889D01*
X0215941Y0228122D01*
X0215941Y0227354D01*
X0215174Y0226587D01*
X0215941Y0225820D01*
X0215941Y0225052D01*
X0215174Y0224285D01*
X0213639Y0224285D01*
X0212872Y0225052D01*
X0214406Y0226587D02*
X0215174Y0226587D01*
X0209035Y0224285D02*
X0208268Y0225052D01*
X0208268Y0228889D01*
X0264826Y0223575D02*
X0264826Y0219738D01*
X0265593Y0218971D01*
X0267128Y0218971D01*
X0267895Y0219738D01*
X0267895Y0223575D01*
X0269430Y0222808D02*
X0270197Y0223575D01*
X0271732Y0223575D01*
X0272499Y0222808D01*
X0272499Y0222040D01*
X0269430Y0218971D01*
X0272499Y0218971D01*
X0288596Y0218487D02*
X0288596Y0216952D01*
X0289363Y0216185D01*
X0292433Y0216185D01*
X0293200Y0216952D01*
X0293200Y0218487D01*
X0292433Y0219254D01*
X0293200Y0220789D02*
X0293200Y0223858D01*
X0293200Y0222324D02*
X0288596Y0222324D01*
X0290131Y0220789D01*
X0289363Y0219254D02*
X0288596Y0218487D01*
X0289363Y0225393D02*
X0288596Y0226160D01*
X0288596Y0227695D01*
X0289363Y0228462D01*
X0292433Y0225393D01*
X0293200Y0226160D01*
X0293200Y0227695D01*
X0292433Y0228462D01*
X0289363Y0228462D01*
X0289363Y0225393D02*
X0292433Y0225393D01*
X0301500Y0213501D02*
X0303802Y0213501D01*
X0304569Y0212734D01*
X0304569Y0211199D01*
X0303802Y0210432D01*
X0301500Y0210432D01*
X0303035Y0210432D02*
X0304569Y0208897D01*
X0306104Y0209664D02*
X0306871Y0208897D01*
X0308406Y0208897D01*
X0309173Y0209664D01*
X0309173Y0211199D01*
X0308406Y0211966D01*
X0307639Y0211966D01*
X0306104Y0211199D01*
X0306104Y0213501D01*
X0309173Y0213501D01*
X0301500Y0213501D02*
X0301500Y0208897D01*
X0302100Y0203601D02*
X0304402Y0203601D01*
X0305169Y0202834D01*
X0305169Y0201299D01*
X0304402Y0200532D01*
X0302100Y0200532D01*
X0303635Y0200532D02*
X0305169Y0198997D01*
X0306704Y0201299D02*
X0309773Y0201299D01*
X0309006Y0203601D02*
X0306704Y0201299D01*
X0309006Y0198997D02*
X0309006Y0203601D01*
X0302100Y0203601D02*
X0302100Y0198997D01*
X0362085Y0202397D02*
X0365154Y0202397D01*
X0362085Y0205466D01*
X0362085Y0206234D01*
X0362852Y0207001D01*
X0364387Y0207001D01*
X0365154Y0206234D01*
X0366689Y0206234D02*
X0366689Y0205466D01*
X0367456Y0204699D01*
X0369758Y0204699D01*
X0369758Y0202397D02*
X0369758Y0207001D01*
X0367456Y0207001D01*
X0366689Y0206234D01*
X0367456Y0204699D02*
X0366689Y0203932D01*
X0366689Y0203164D01*
X0367456Y0202397D01*
X0369758Y0202397D01*
X0317400Y0159374D02*
X0317400Y0156305D01*
X0317400Y0157839D02*
X0312796Y0157839D01*
X0314331Y0156305D01*
X0317400Y0154770D02*
X0317400Y0151701D01*
X0317400Y0153235D02*
X0312796Y0153235D01*
X0314331Y0151701D01*
X0315098Y0150166D02*
X0313563Y0150166D01*
X0312796Y0149399D01*
X0312796Y0147097D01*
X0317400Y0147097D01*
X0315865Y0147097D02*
X0315865Y0149399D01*
X0315098Y0150166D01*
X0315865Y0148632D02*
X0317400Y0150166D01*
X0318133Y0125762D02*
X0318900Y0124995D01*
X0318900Y0123460D01*
X0318133Y0122693D01*
X0315063Y0125762D01*
X0318133Y0125762D01*
X0318133Y0122693D02*
X0315063Y0122693D01*
X0314296Y0123460D01*
X0314296Y0124995D01*
X0315063Y0125762D01*
X0318900Y0121158D02*
X0318900Y0118089D01*
X0318900Y0116554D02*
X0317365Y0115020D01*
X0317365Y0115787D02*
X0317365Y0113485D01*
X0318900Y0113485D02*
X0314296Y0113485D01*
X0314296Y0115787D01*
X0315063Y0116554D01*
X0316598Y0116554D01*
X0317365Y0115787D01*
X0315831Y0118089D02*
X0314296Y0119624D01*
X0318900Y0119624D01*
X0336631Y0118791D02*
X0336631Y0116489D01*
X0337398Y0115722D01*
X0338933Y0115722D01*
X0339700Y0116489D01*
X0339700Y0118791D01*
X0340467Y0118791D02*
X0336631Y0118791D01*
X0340467Y0118791D02*
X0341235Y0118024D01*
X0341235Y0117256D01*
X0339700Y0114187D02*
X0337398Y0114187D01*
X0336631Y0113420D01*
X0336631Y0111118D01*
X0339700Y0111118D01*
X0339700Y0109583D02*
X0339700Y0108048D01*
X0339700Y0108816D02*
X0336631Y0108816D01*
X0336631Y0108048D01*
X0336631Y0106514D02*
X0336631Y0105746D01*
X0338165Y0104212D01*
X0336631Y0104212D02*
X0339700Y0104212D01*
X0338165Y0102677D02*
X0338165Y0099608D01*
X0337398Y0099608D02*
X0336631Y0100375D01*
X0336631Y0101910D01*
X0337398Y0102677D01*
X0338165Y0102677D01*
X0339700Y0101910D02*
X0339700Y0100375D01*
X0338933Y0099608D01*
X0337398Y0099608D01*
X0337398Y0098073D02*
X0338165Y0098073D01*
X0338165Y0095004D01*
X0337398Y0095004D02*
X0336631Y0095771D01*
X0336631Y0097306D01*
X0337398Y0098073D01*
X0339700Y0097306D02*
X0339700Y0095771D01*
X0338933Y0095004D01*
X0337398Y0095004D01*
X0337398Y0093469D02*
X0339700Y0093469D01*
X0337398Y0093469D02*
X0336631Y0092702D01*
X0336631Y0090400D01*
X0339700Y0090400D01*
X0339700Y0088865D02*
X0339700Y0087331D01*
X0339700Y0088098D02*
X0336631Y0088098D01*
X0336631Y0087331D01*
X0336631Y0085796D02*
X0336631Y0083494D01*
X0337398Y0082727D01*
X0338933Y0082727D01*
X0339700Y0083494D01*
X0339700Y0085796D01*
X0340467Y0085796D02*
X0336631Y0085796D01*
X0335096Y0088098D02*
X0334329Y0088098D01*
X0332200Y0087331D02*
X0330665Y0088865D01*
X0327596Y0088865D01*
X0329131Y0090400D02*
X0327596Y0091935D01*
X0332200Y0091935D01*
X0332200Y0093469D02*
X0332200Y0090400D01*
X0332200Y0087331D02*
X0330665Y0085796D01*
X0327596Y0085796D01*
X0324700Y0086180D02*
X0324700Y0087715D01*
X0324700Y0086947D02*
X0321631Y0086947D01*
X0321631Y0086180D01*
X0321631Y0084645D02*
X0321631Y0083111D01*
X0320863Y0083878D02*
X0323933Y0083878D01*
X0324700Y0084645D01*
X0324700Y0081576D02*
X0323933Y0080809D01*
X0320863Y0080809D01*
X0321631Y0081576D02*
X0321631Y0080041D01*
X0321631Y0078507D02*
X0324700Y0078507D01*
X0322398Y0078507D02*
X0322398Y0075437D01*
X0321631Y0075437D02*
X0320096Y0076972D01*
X0321631Y0078507D01*
X0321631Y0075437D02*
X0324700Y0075437D01*
X0327596Y0076588D02*
X0332200Y0076588D01*
X0332200Y0078890D01*
X0331433Y0079658D01*
X0329898Y0079658D01*
X0329131Y0078890D01*
X0329131Y0076588D01*
X0329898Y0075054D02*
X0332200Y0075054D01*
X0332200Y0072752D01*
X0331433Y0071984D01*
X0330665Y0072752D01*
X0330665Y0075054D01*
X0329898Y0075054D02*
X0329131Y0074286D01*
X0329131Y0072752D01*
X0332200Y0070450D02*
X0332200Y0067381D01*
X0327596Y0067381D01*
X0324700Y0066230D02*
X0324700Y0068532D01*
X0323933Y0069299D01*
X0323165Y0068532D01*
X0323165Y0066997D01*
X0322398Y0066230D01*
X0321631Y0066997D01*
X0321631Y0069299D01*
X0322398Y0064695D02*
X0324700Y0064695D01*
X0322398Y0064695D02*
X0321631Y0063928D01*
X0321631Y0061626D01*
X0324700Y0061626D01*
X0323933Y0060091D02*
X0322398Y0060091D01*
X0321631Y0059324D01*
X0321631Y0057789D01*
X0322398Y0057022D01*
X0323933Y0057022D01*
X0324700Y0057789D01*
X0324700Y0059324D01*
X0323933Y0060091D01*
X0329131Y0058940D02*
X0329131Y0061242D01*
X0330665Y0060475D02*
X0330665Y0058940D01*
X0329898Y0058173D01*
X0329131Y0058940D01*
X0330665Y0060475D02*
X0331433Y0061242D01*
X0332200Y0060475D01*
X0332200Y0058173D01*
X0332200Y0056638D02*
X0332200Y0054336D01*
X0331433Y0053569D01*
X0329898Y0053569D01*
X0329131Y0054336D01*
X0329131Y0056638D01*
X0324700Y0055487D02*
X0323933Y0054720D01*
X0320863Y0054720D01*
X0321631Y0055487D02*
X0321631Y0053952D01*
X0321631Y0052418D02*
X0323933Y0052418D01*
X0324700Y0051650D01*
X0323933Y0050883D01*
X0324700Y0050116D01*
X0323933Y0049348D01*
X0321631Y0049348D01*
X0322398Y0047814D02*
X0323165Y0047814D01*
X0323165Y0044745D01*
X0322398Y0044745D02*
X0323933Y0044745D01*
X0324700Y0045512D01*
X0324700Y0047047D01*
X0322398Y0047814D02*
X0321631Y0047047D01*
X0321631Y0045512D01*
X0322398Y0044745D01*
X0324700Y0043210D02*
X0320096Y0043210D01*
X0318665Y0043501D02*
X0316363Y0041199D01*
X0319432Y0041199D01*
X0320096Y0040141D02*
X0324700Y0043210D01*
X0325571Y0041966D02*
X0327105Y0043501D01*
X0327105Y0038897D01*
X0325571Y0038897D02*
X0328640Y0038897D01*
X0329131Y0038990D02*
X0329898Y0039757D01*
X0332200Y0039757D01*
X0333244Y0038897D02*
X0330175Y0038897D01*
X0333244Y0041966D01*
X0333244Y0042734D01*
X0332477Y0043501D01*
X0330942Y0043501D01*
X0330175Y0042734D01*
X0329131Y0041292D02*
X0331433Y0041292D01*
X0332200Y0042059D01*
X0332200Y0044361D01*
X0332967Y0044361D02*
X0333735Y0043594D01*
X0333735Y0042826D01*
X0332967Y0044361D02*
X0329131Y0044361D01*
X0329898Y0045896D02*
X0329131Y0046663D01*
X0329131Y0048965D01*
X0329131Y0050499D02*
X0329131Y0051267D01*
X0332200Y0051267D01*
X0332200Y0052034D02*
X0332200Y0050499D01*
X0331433Y0048965D02*
X0330665Y0048197D01*
X0330665Y0046663D01*
X0329898Y0045896D01*
X0332200Y0045896D02*
X0332200Y0048197D01*
X0331433Y0048965D01*
X0335096Y0049732D02*
X0335863Y0050499D01*
X0335096Y0049732D02*
X0335096Y0048197D01*
X0335863Y0047430D01*
X0338933Y0047430D01*
X0339700Y0048197D01*
X0339700Y0049732D01*
X0338933Y0050499D01*
X0339700Y0052034D02*
X0336631Y0052034D01*
X0338165Y0052034D02*
X0336631Y0053569D01*
X0336631Y0054336D01*
X0337398Y0055871D02*
X0336631Y0056638D01*
X0336631Y0058173D01*
X0337398Y0058940D01*
X0338165Y0058940D01*
X0338165Y0055871D01*
X0337398Y0055871D02*
X0338933Y0055871D01*
X0339700Y0056638D01*
X0339700Y0058173D01*
X0338933Y0060475D02*
X0337398Y0060475D01*
X0336631Y0061242D01*
X0336631Y0062777D01*
X0337398Y0063544D01*
X0338165Y0063544D01*
X0338165Y0060475D01*
X0338933Y0060475D02*
X0339700Y0061242D01*
X0339700Y0062777D01*
X0339700Y0065079D02*
X0335096Y0065079D01*
X0336631Y0067380D02*
X0338165Y0065079D01*
X0339700Y0067380D01*
X0339700Y0073519D02*
X0335096Y0073519D01*
X0335096Y0076588D01*
X0336631Y0078123D02*
X0336631Y0080425D01*
X0337398Y0081192D01*
X0339700Y0081192D01*
X0341235Y0084262D02*
X0341235Y0085029D01*
X0340467Y0085796D01*
X0339700Y0078123D02*
X0336631Y0078123D01*
X0337398Y0075054D02*
X0337398Y0073519D01*
X0339700Y0073519D02*
X0339700Y0076588D01*
X0324700Y0090016D02*
X0324700Y0092318D01*
X0324700Y0090016D02*
X0323933Y0089249D01*
X0322398Y0089249D01*
X0321631Y0090016D01*
X0321631Y0092318D01*
X0320096Y0086947D02*
X0319329Y0086947D01*
X0329131Y0097306D02*
X0327596Y0098841D01*
X0332200Y0098841D01*
X0332200Y0100375D02*
X0332200Y0097306D01*
X0332200Y0095771D02*
X0332200Y0095004D01*
X0331433Y0095004D01*
X0331433Y0095771D01*
X0332200Y0095771D01*
X0334329Y0108816D02*
X0335096Y0108816D01*
X0361835Y0126797D02*
X0364904Y0126797D01*
X0363369Y0126797D02*
X0363369Y0131401D01*
X0364904Y0129866D01*
X0366439Y0129866D02*
X0367206Y0129099D01*
X0369508Y0129099D01*
X0369508Y0126797D02*
X0369508Y0131401D01*
X0367206Y0131401D01*
X0366439Y0130634D01*
X0366439Y0129866D01*
X0367206Y0129099D02*
X0366439Y0128332D01*
X0366439Y0127564D01*
X0367206Y0126797D01*
X0369508Y0126797D01*
X0317133Y0066062D02*
X0314063Y0066062D01*
X0313296Y0065295D01*
X0313296Y0063760D01*
X0314063Y0062993D01*
X0314831Y0062993D01*
X0315598Y0063760D01*
X0315598Y0066062D01*
X0317133Y0066062D02*
X0317900Y0065295D01*
X0317900Y0063760D01*
X0317133Y0062993D01*
X0317900Y0061458D02*
X0316365Y0059924D01*
X0316365Y0060691D02*
X0316365Y0058389D01*
X0317900Y0058389D02*
X0313296Y0058389D01*
X0313296Y0060691D01*
X0314063Y0061458D01*
X0315598Y0061458D01*
X0316365Y0060691D01*
X0326829Y0051267D02*
X0327596Y0051267D01*
X0318665Y0043501D02*
X0318665Y0038897D01*
X0320096Y0040141D02*
X0324700Y0040141D01*
X0327596Y0036688D02*
X0332200Y0036688D01*
X0329898Y0036688D02*
X0329131Y0037455D01*
X0329131Y0038990D01*
X0329898Y0035153D02*
X0330665Y0034386D01*
X0330665Y0032084D01*
X0332200Y0032084D02*
X0327596Y0032084D01*
X0327596Y0034386D01*
X0328363Y0035153D01*
X0329898Y0035153D01*
X0336631Y0035920D02*
X0338165Y0034386D01*
X0336631Y0034386D02*
X0339700Y0034386D01*
X0338933Y0032851D02*
X0337398Y0032851D01*
X0336631Y0032084D01*
X0336631Y0030549D01*
X0337398Y0029782D01*
X0338933Y0029782D01*
X0339700Y0030549D01*
X0339700Y0032084D01*
X0338933Y0032851D01*
X0336631Y0035920D02*
X0336631Y0036688D01*
X0336631Y0038222D02*
X0336631Y0040524D01*
X0337398Y0041292D01*
X0339700Y0041292D01*
X0339382Y0042734D02*
X0339382Y0039664D01*
X0342452Y0042734D01*
X0342452Y0039664D01*
X0341684Y0038897D01*
X0340150Y0038897D01*
X0339382Y0039664D01*
X0339700Y0038222D02*
X0336631Y0038222D01*
X0339382Y0042734D02*
X0340150Y0043501D01*
X0341684Y0043501D01*
X0342452Y0042734D01*
X0343986Y0042734D02*
X0344754Y0043501D01*
X0346288Y0043501D01*
X0347056Y0042734D01*
X0347056Y0041966D01*
X0346288Y0041199D01*
X0347056Y0040432D01*
X0347056Y0039664D01*
X0346288Y0038897D01*
X0344754Y0038897D01*
X0343986Y0039664D01*
X0345521Y0041199D02*
X0346288Y0041199D01*
X0359427Y0040284D02*
X0362496Y0037214D01*
X0361729Y0036447D01*
X0360194Y0036447D01*
X0359427Y0037214D01*
X0359427Y0040284D01*
X0360194Y0041051D01*
X0361729Y0041051D01*
X0362496Y0040284D01*
X0362496Y0037214D01*
X0364031Y0037214D02*
X0364798Y0036447D01*
X0367100Y0036447D01*
X0367100Y0041051D01*
X0364798Y0041051D01*
X0364031Y0040284D01*
X0364031Y0039516D01*
X0364798Y0038749D01*
X0367100Y0038749D01*
X0364798Y0038749D02*
X0364031Y0037982D01*
X0364031Y0037214D01*
X0339700Y0028247D02*
X0337398Y0028247D01*
X0336631Y0027480D01*
X0336631Y0025945D01*
X0337398Y0025178D01*
X0336631Y0023643D02*
X0338165Y0021341D01*
X0339700Y0023643D01*
X0339700Y0025178D02*
X0335096Y0025178D01*
X0335096Y0021341D02*
X0339700Y0021341D01*
X0339700Y0019807D02*
X0339700Y0018272D01*
X0339700Y0019039D02*
X0335096Y0019039D01*
X0335096Y0018272D01*
X0335096Y0016737D02*
X0335096Y0013668D01*
X0339700Y0013668D01*
X0339700Y0016737D01*
X0337398Y0015203D02*
X0337398Y0013668D01*
X0327440Y0014332D02*
X0327440Y0017401D01*
X0324371Y0017401D02*
X0324371Y0014332D01*
X0325905Y0012797D01*
X0327440Y0014332D01*
X0322836Y0013564D02*
X0322069Y0012797D01*
X0320534Y0012797D01*
X0319767Y0013564D01*
X0322836Y0016634D01*
X0322836Y0013564D01*
X0319767Y0013564D02*
X0319767Y0016634D01*
X0320534Y0017401D01*
X0322069Y0017401D01*
X0322836Y0016634D01*
X0309024Y0017401D02*
X0307490Y0016634D01*
X0305955Y0015099D01*
X0308257Y0015099D01*
X0309024Y0014332D01*
X0309024Y0013564D01*
X0308257Y0012797D01*
X0306722Y0012797D01*
X0305955Y0013564D01*
X0305955Y0015099D01*
X0304420Y0015866D02*
X0303653Y0015099D01*
X0304420Y0014332D01*
X0304420Y0013564D01*
X0303653Y0012797D01*
X0302118Y0012797D01*
X0301351Y0013564D01*
X0302886Y0015099D02*
X0303653Y0015099D01*
X0304420Y0015866D02*
X0304420Y0016634D01*
X0303653Y0017401D01*
X0302118Y0017401D01*
X0301351Y0016634D01*
X0295212Y0016634D02*
X0295212Y0015866D01*
X0294445Y0015099D01*
X0295212Y0014332D01*
X0295212Y0013564D01*
X0294445Y0012797D01*
X0292910Y0012797D01*
X0292143Y0013564D01*
X0290609Y0012797D02*
X0287539Y0012797D01*
X0290609Y0015866D01*
X0290609Y0016634D01*
X0289841Y0017401D01*
X0288307Y0017401D01*
X0287539Y0016634D01*
X0292143Y0016634D02*
X0292910Y0017401D01*
X0294445Y0017401D01*
X0295212Y0016634D01*
X0294445Y0015099D02*
X0293678Y0015099D01*
X0276797Y0015099D02*
X0276797Y0013564D01*
X0276029Y0012797D01*
X0274495Y0012797D01*
X0273727Y0013564D01*
X0273727Y0015099D02*
X0275262Y0015866D01*
X0276029Y0015866D01*
X0276797Y0015099D01*
X0276797Y0017401D02*
X0273727Y0017401D01*
X0273727Y0015099D01*
X0272193Y0015866D02*
X0272193Y0016634D01*
X0271426Y0017401D01*
X0269891Y0017401D01*
X0269124Y0016634D01*
X0272193Y0015866D02*
X0269124Y0012797D01*
X0272193Y0012797D01*
X0262985Y0012797D02*
X0259916Y0012797D01*
X0261450Y0012797D02*
X0261450Y0017401D01*
X0259916Y0015866D01*
X0258381Y0015866D02*
X0257614Y0015099D01*
X0258381Y0014332D01*
X0258381Y0013564D01*
X0257614Y0012797D01*
X0256079Y0012797D01*
X0255312Y0013564D01*
X0256846Y0015099D02*
X0257614Y0015099D01*
X0258381Y0015866D02*
X0258381Y0016634D01*
X0257614Y0017401D01*
X0256079Y0017401D01*
X0255312Y0016634D01*
X0249173Y0017401D02*
X0249173Y0014332D01*
X0247639Y0012797D01*
X0246104Y0014332D01*
X0246104Y0017401D01*
X0244569Y0017401D02*
X0241500Y0017401D01*
X0241500Y0015099D01*
X0243035Y0015866D01*
X0243802Y0015866D01*
X0244569Y0015099D01*
X0244569Y0013564D01*
X0243802Y0012797D01*
X0242267Y0012797D01*
X0241500Y0013564D01*
X0243467Y0038897D02*
X0242700Y0039664D01*
X0243467Y0038897D02*
X0245002Y0038897D01*
X0245769Y0039664D01*
X0245769Y0040432D01*
X0245002Y0041199D01*
X0244235Y0041199D01*
X0245002Y0041199D02*
X0245769Y0041966D01*
X0245769Y0042734D01*
X0245002Y0043501D01*
X0243467Y0043501D01*
X0242700Y0042734D01*
X0247304Y0043501D02*
X0247304Y0040432D01*
X0248839Y0038897D01*
X0250373Y0040432D01*
X0250373Y0043501D01*
X0256512Y0042734D02*
X0257279Y0043501D01*
X0258814Y0043501D01*
X0259581Y0042734D01*
X0256512Y0039664D01*
X0257279Y0038897D01*
X0258814Y0038897D01*
X0259581Y0039664D01*
X0259581Y0042734D01*
X0261116Y0042734D02*
X0261883Y0043501D01*
X0263418Y0043501D01*
X0264185Y0042734D01*
X0264185Y0041966D01*
X0261116Y0038897D01*
X0264185Y0038897D01*
X0270324Y0039664D02*
X0271091Y0038897D01*
X0272626Y0038897D01*
X0273393Y0039664D01*
X0273393Y0040432D01*
X0272626Y0041199D01*
X0271858Y0041199D01*
X0272626Y0041199D02*
X0273393Y0041966D01*
X0273393Y0042734D01*
X0272626Y0043501D01*
X0271091Y0043501D01*
X0270324Y0042734D01*
X0274927Y0042734D02*
X0275695Y0043501D01*
X0277229Y0043501D01*
X0277997Y0042734D01*
X0277997Y0041966D01*
X0274927Y0038897D01*
X0277997Y0038897D01*
X0284135Y0039664D02*
X0284903Y0038897D01*
X0286437Y0038897D01*
X0287205Y0039664D01*
X0287205Y0040432D01*
X0286437Y0041199D01*
X0285670Y0041199D01*
X0286437Y0041199D02*
X0287205Y0041966D01*
X0287205Y0042734D01*
X0286437Y0043501D01*
X0284903Y0043501D01*
X0284135Y0042734D01*
X0288739Y0041199D02*
X0291809Y0041199D01*
X0291041Y0038897D02*
X0291041Y0043501D01*
X0288739Y0041199D01*
X0297947Y0039664D02*
X0297947Y0042734D01*
X0298714Y0043501D01*
X0300249Y0043501D01*
X0301016Y0042734D01*
X0297947Y0039664D01*
X0298714Y0038897D01*
X0300249Y0038897D01*
X0301016Y0039664D01*
X0301016Y0042734D01*
X0302551Y0043501D02*
X0302551Y0041199D01*
X0304086Y0041966D01*
X0304853Y0041966D01*
X0305620Y0041199D01*
X0305620Y0039664D01*
X0304853Y0038897D01*
X0303318Y0038897D01*
X0302551Y0039664D01*
X0302551Y0043501D02*
X0305620Y0043501D01*
X0311759Y0042734D02*
X0311759Y0039664D01*
X0314828Y0042734D01*
X0314828Y0039664D01*
X0314061Y0038897D01*
X0312526Y0038897D01*
X0311759Y0039664D01*
X0311759Y0042734D02*
X0312526Y0043501D01*
X0314061Y0043501D01*
X0314828Y0042734D01*
X0256512Y0042734D02*
X0256512Y0039664D01*
X0148865Y0019834D02*
X0148865Y0019066D01*
X0148098Y0018299D01*
X0148865Y0017532D01*
X0148865Y0016764D01*
X0148098Y0015997D01*
X0146563Y0015997D01*
X0145796Y0016764D01*
X0144261Y0016764D02*
X0143494Y0015997D01*
X0141959Y0015997D01*
X0141192Y0016764D01*
X0141959Y0018299D02*
X0143494Y0018299D01*
X0144261Y0017532D01*
X0144261Y0016764D01*
X0141959Y0018299D02*
X0141192Y0019066D01*
X0141192Y0019834D01*
X0141959Y0020601D01*
X0143494Y0020601D01*
X0144261Y0019834D01*
X0145796Y0019834D02*
X0146563Y0020601D01*
X0148098Y0020601D01*
X0148865Y0019834D01*
X0148098Y0018299D02*
X0147331Y0018299D01*
D11*
X0050765Y0006958D02*
X0044627Y0006958D01*
X0047696Y0003889D02*
X0047696Y0010028D01*
X0115400Y0034997D02*
X0117900Y0032497D01*
X0122900Y0032497D01*
X0125400Y0034997D01*
X0125400Y0039997D01*
X0122900Y0042497D01*
X0125400Y0044997D01*
X0125400Y0049997D01*
X0122900Y0052497D01*
X0117900Y0052497D01*
X0115400Y0049997D01*
X0115400Y0044997D01*
X0117900Y0042497D01*
X0115400Y0039997D01*
X0115400Y0034997D01*
X0128483Y0025287D02*
X0130452Y0025287D01*
X0128483Y0025287D02*
X0128483Y0011507D01*
X0163917Y0011507D01*
X0163917Y0025287D01*
X0161948Y0025287D01*
X0146859Y0040854D02*
X0146859Y0042428D01*
X0141741Y0042428D01*
X0141741Y0047940D01*
X0146859Y0047940D02*
X0146859Y0042428D01*
X0141741Y0042428D02*
X0141741Y0040854D01*
X0146541Y0058454D02*
X0146541Y0063965D01*
X0151659Y0063965D01*
X0151659Y0058454D01*
X0151659Y0063965D02*
X0151659Y0065540D01*
X0146541Y0065540D02*
X0146541Y0063965D01*
X0137000Y0064534D02*
X0137000Y0076660D01*
X0132000Y0080597D02*
X0122118Y0080597D01*
X0117000Y0076660D02*
X0117000Y0064534D01*
X0122118Y0060597D02*
X0131882Y0060597D01*
X0122000Y0070597D02*
X0122002Y0070738D01*
X0122008Y0070879D01*
X0122018Y0071019D01*
X0122032Y0071159D01*
X0122050Y0071299D01*
X0122071Y0071438D01*
X0122097Y0071577D01*
X0122126Y0071715D01*
X0122160Y0071851D01*
X0122197Y0071987D01*
X0122238Y0072122D01*
X0122283Y0072256D01*
X0122332Y0072388D01*
X0122384Y0072519D01*
X0122440Y0072648D01*
X0122500Y0072775D01*
X0122563Y0072901D01*
X0122629Y0073025D01*
X0122700Y0073148D01*
X0122773Y0073268D01*
X0122850Y0073386D01*
X0122930Y0073502D01*
X0123014Y0073615D01*
X0123100Y0073726D01*
X0123190Y0073835D01*
X0123283Y0073941D01*
X0123378Y0074044D01*
X0123477Y0074145D01*
X0123578Y0074243D01*
X0123682Y0074338D01*
X0123789Y0074430D01*
X0123898Y0074519D01*
X0124010Y0074604D01*
X0124124Y0074687D01*
X0124240Y0074767D01*
X0124359Y0074843D01*
X0124480Y0074915D01*
X0124602Y0074985D01*
X0124727Y0075050D01*
X0124853Y0075113D01*
X0124981Y0075171D01*
X0125111Y0075226D01*
X0125242Y0075278D01*
X0125375Y0075325D01*
X0125509Y0075369D01*
X0125644Y0075410D01*
X0125780Y0075446D01*
X0125917Y0075478D01*
X0126055Y0075507D01*
X0126193Y0075532D01*
X0126333Y0075552D01*
X0126473Y0075569D01*
X0126613Y0075582D01*
X0126754Y0075591D01*
X0126894Y0075596D01*
X0127035Y0075597D01*
X0127176Y0075594D01*
X0127317Y0075587D01*
X0127457Y0075576D01*
X0127597Y0075561D01*
X0127737Y0075542D01*
X0127876Y0075520D01*
X0128014Y0075493D01*
X0128152Y0075463D01*
X0128288Y0075428D01*
X0128424Y0075390D01*
X0128558Y0075348D01*
X0128692Y0075302D01*
X0128824Y0075253D01*
X0128954Y0075199D01*
X0129083Y0075142D01*
X0129210Y0075082D01*
X0129336Y0075018D01*
X0129459Y0074950D01*
X0129581Y0074879D01*
X0129701Y0074805D01*
X0129818Y0074727D01*
X0129933Y0074646D01*
X0130046Y0074562D01*
X0130157Y0074475D01*
X0130265Y0074384D01*
X0130370Y0074291D01*
X0130473Y0074194D01*
X0130573Y0074095D01*
X0130670Y0073993D01*
X0130764Y0073888D01*
X0130855Y0073781D01*
X0130943Y0073671D01*
X0131028Y0073559D01*
X0131110Y0073444D01*
X0131189Y0073327D01*
X0131264Y0073208D01*
X0131336Y0073087D01*
X0131404Y0072964D01*
X0131469Y0072839D01*
X0131531Y0072712D01*
X0131588Y0072583D01*
X0131643Y0072453D01*
X0131693Y0072322D01*
X0131740Y0072189D01*
X0131783Y0072055D01*
X0131822Y0071919D01*
X0131857Y0071783D01*
X0131889Y0071646D01*
X0131916Y0071508D01*
X0131940Y0071369D01*
X0131960Y0071229D01*
X0131976Y0071089D01*
X0131988Y0070949D01*
X0131996Y0070808D01*
X0132000Y0070667D01*
X0132000Y0070527D01*
X0131996Y0070386D01*
X0131988Y0070245D01*
X0131976Y0070105D01*
X0131960Y0069965D01*
X0131940Y0069825D01*
X0131916Y0069686D01*
X0131889Y0069548D01*
X0131857Y0069411D01*
X0131822Y0069275D01*
X0131783Y0069139D01*
X0131740Y0069005D01*
X0131693Y0068872D01*
X0131643Y0068741D01*
X0131588Y0068611D01*
X0131531Y0068482D01*
X0131469Y0068355D01*
X0131404Y0068230D01*
X0131336Y0068107D01*
X0131264Y0067986D01*
X0131189Y0067867D01*
X0131110Y0067750D01*
X0131028Y0067635D01*
X0130943Y0067523D01*
X0130855Y0067413D01*
X0130764Y0067306D01*
X0130670Y0067201D01*
X0130573Y0067099D01*
X0130473Y0067000D01*
X0130370Y0066903D01*
X0130265Y0066810D01*
X0130157Y0066719D01*
X0130046Y0066632D01*
X0129933Y0066548D01*
X0129818Y0066467D01*
X0129701Y0066389D01*
X0129581Y0066315D01*
X0129459Y0066244D01*
X0129336Y0066176D01*
X0129210Y0066112D01*
X0129083Y0066052D01*
X0128954Y0065995D01*
X0128824Y0065941D01*
X0128692Y0065892D01*
X0128558Y0065846D01*
X0128424Y0065804D01*
X0128288Y0065766D01*
X0128152Y0065731D01*
X0128014Y0065701D01*
X0127876Y0065674D01*
X0127737Y0065652D01*
X0127597Y0065633D01*
X0127457Y0065618D01*
X0127317Y0065607D01*
X0127176Y0065600D01*
X0127035Y0065597D01*
X0126894Y0065598D01*
X0126754Y0065603D01*
X0126613Y0065612D01*
X0126473Y0065625D01*
X0126333Y0065642D01*
X0126193Y0065662D01*
X0126055Y0065687D01*
X0125917Y0065716D01*
X0125780Y0065748D01*
X0125644Y0065784D01*
X0125509Y0065825D01*
X0125375Y0065869D01*
X0125242Y0065916D01*
X0125111Y0065968D01*
X0124981Y0066023D01*
X0124853Y0066081D01*
X0124727Y0066144D01*
X0124602Y0066209D01*
X0124480Y0066279D01*
X0124359Y0066351D01*
X0124240Y0066427D01*
X0124124Y0066507D01*
X0124010Y0066590D01*
X0123898Y0066675D01*
X0123789Y0066764D01*
X0123682Y0066856D01*
X0123578Y0066951D01*
X0123477Y0067049D01*
X0123378Y0067150D01*
X0123283Y0067253D01*
X0123190Y0067359D01*
X0123100Y0067468D01*
X0123014Y0067579D01*
X0122930Y0067692D01*
X0122850Y0067808D01*
X0122773Y0067926D01*
X0122700Y0068046D01*
X0122629Y0068169D01*
X0122563Y0068293D01*
X0122500Y0068419D01*
X0122440Y0068546D01*
X0122384Y0068675D01*
X0122332Y0068806D01*
X0122283Y0068938D01*
X0122238Y0069072D01*
X0122197Y0069207D01*
X0122160Y0069343D01*
X0122126Y0069479D01*
X0122097Y0069617D01*
X0122071Y0069756D01*
X0122050Y0069895D01*
X0122032Y0070035D01*
X0122018Y0070175D01*
X0122008Y0070315D01*
X0122002Y0070456D01*
X0122000Y0070597D01*
X0121978Y0095326D02*
X0119924Y0097192D01*
X0121978Y0095326D02*
X0122071Y0095243D01*
X0122166Y0095163D01*
X0122265Y0095085D01*
X0122365Y0095011D01*
X0122468Y0094941D01*
X0122573Y0094873D01*
X0122680Y0094809D01*
X0122789Y0094748D01*
X0122900Y0094691D01*
X0123013Y0094638D01*
X0123128Y0094587D01*
X0123243Y0094541D01*
X0123361Y0094498D01*
X0123479Y0094459D01*
X0123599Y0094424D01*
X0123720Y0094393D01*
X0123842Y0094365D01*
X0123965Y0094342D01*
X0124088Y0094322D01*
X0124212Y0094306D01*
X0124336Y0094294D01*
X0124461Y0094286D01*
X0124586Y0094282D01*
X0124710Y0094282D01*
X0124835Y0094286D01*
X0124960Y0094294D01*
X0125084Y0094306D01*
X0125208Y0094322D01*
X0125331Y0094342D01*
X0125454Y0094365D01*
X0125576Y0094393D01*
X0125697Y0094424D01*
X0125817Y0094459D01*
X0125935Y0094498D01*
X0126053Y0094541D01*
X0126168Y0094587D01*
X0126283Y0094638D01*
X0126396Y0094691D01*
X0126507Y0094748D01*
X0126616Y0094809D01*
X0126723Y0094873D01*
X0126828Y0094941D01*
X0126931Y0095011D01*
X0127031Y0095085D01*
X0127130Y0095163D01*
X0127225Y0095243D01*
X0127318Y0095326D01*
X0127319Y0095326D02*
X0129372Y0097192D01*
X0137549Y0099939D02*
X0141549Y0099939D01*
X0140900Y0108297D02*
X0140900Y0112297D01*
X0152811Y0112307D02*
X0152811Y0108307D01*
X0129372Y0104279D02*
X0127010Y0106641D01*
X0122286Y0106641D01*
X0119924Y0104279D01*
X0118379Y0108726D02*
X0117579Y0108726D01*
X0117579Y0129126D01*
X0118379Y0129126D01*
X0127979Y0129126D02*
X0128779Y0129126D01*
X0128779Y0109126D01*
X0127979Y0109126D01*
X0127179Y0115926D02*
X0119179Y0115926D01*
X0123179Y0121526D01*
X0127179Y0121526D01*
X0123179Y0121526D02*
X0122779Y0121526D01*
X0127179Y0115926D01*
X0131399Y0121458D02*
X0131772Y0121458D01*
X0131399Y0121458D02*
X0131399Y0127839D01*
X0131772Y0127839D01*
X0135431Y0123480D02*
X0135431Y0122739D01*
X0135431Y0123480D02*
X0139368Y0123480D01*
X0139368Y0122699D01*
X0143026Y0121458D02*
X0143399Y0121458D01*
X0143399Y0127839D01*
X0143026Y0127839D01*
X0137500Y0137197D02*
X0137500Y0141197D01*
X0127919Y0153726D02*
X0129972Y0155592D01*
X0127918Y0153726D02*
X0127825Y0153643D01*
X0127730Y0153563D01*
X0127631Y0153485D01*
X0127531Y0153411D01*
X0127428Y0153341D01*
X0127323Y0153273D01*
X0127216Y0153209D01*
X0127107Y0153148D01*
X0126996Y0153091D01*
X0126883Y0153038D01*
X0126768Y0152987D01*
X0126653Y0152941D01*
X0126535Y0152898D01*
X0126417Y0152859D01*
X0126297Y0152824D01*
X0126176Y0152793D01*
X0126054Y0152765D01*
X0125931Y0152742D01*
X0125808Y0152722D01*
X0125684Y0152706D01*
X0125560Y0152694D01*
X0125435Y0152686D01*
X0125310Y0152682D01*
X0125186Y0152682D01*
X0125061Y0152686D01*
X0124936Y0152694D01*
X0124812Y0152706D01*
X0124688Y0152722D01*
X0124565Y0152742D01*
X0124442Y0152765D01*
X0124320Y0152793D01*
X0124199Y0152824D01*
X0124079Y0152859D01*
X0123961Y0152898D01*
X0123843Y0152941D01*
X0123728Y0152987D01*
X0123613Y0153038D01*
X0123500Y0153091D01*
X0123389Y0153148D01*
X0123280Y0153209D01*
X0123173Y0153273D01*
X0123068Y0153341D01*
X0122965Y0153411D01*
X0122865Y0153485D01*
X0122766Y0153563D01*
X0122671Y0153643D01*
X0122578Y0153726D01*
X0120524Y0155592D01*
X0120524Y0162679D02*
X0122886Y0165041D01*
X0127610Y0165041D01*
X0129972Y0162679D01*
X0129079Y0167826D02*
X0128279Y0167826D01*
X0129079Y0167826D02*
X0129079Y0187826D01*
X0128279Y0187826D01*
X0131699Y0186539D02*
X0132072Y0186539D01*
X0131699Y0186539D02*
X0131699Y0180158D01*
X0132072Y0180158D01*
X0135731Y0181439D02*
X0135731Y0182180D01*
X0139668Y0182180D01*
X0139668Y0181399D01*
X0143326Y0180158D02*
X0143699Y0180158D01*
X0143699Y0186539D01*
X0143326Y0186539D01*
X0137800Y0195697D02*
X0137800Y0199697D01*
X0118679Y0187826D02*
X0117879Y0187826D01*
X0117879Y0167426D01*
X0118679Y0167426D01*
X0119479Y0174626D02*
X0127479Y0174626D01*
X0123079Y0180226D01*
X0123479Y0180226D01*
X0119479Y0174626D01*
X0119479Y0180226D02*
X0123079Y0180226D01*
X0123479Y0180226D02*
X0127479Y0180226D01*
X0141200Y0170997D02*
X0141200Y0166997D01*
X0153211Y0167007D02*
X0153211Y0171007D01*
X0208144Y0210291D02*
X0213656Y0210291D01*
X0216806Y0222102D02*
X0204994Y0222102D01*
X0273000Y0184897D02*
X0278000Y0187397D01*
X0278000Y0182397D01*
X0273000Y0184897D01*
X0273151Y0184972D02*
X0278000Y0184972D01*
X0278000Y0184174D02*
X0274446Y0184174D01*
X0274748Y0185771D02*
X0278000Y0185771D01*
X0278000Y0186569D02*
X0276345Y0186569D01*
X0277942Y0187368D02*
X0278000Y0187368D01*
X0278000Y0183375D02*
X0276043Y0183375D01*
X0277640Y0182577D02*
X0278000Y0182577D01*
X0251935Y0160197D02*
X0251937Y0160244D01*
X0251943Y0160291D01*
X0251953Y0160338D01*
X0251966Y0160383D01*
X0251984Y0160427D01*
X0252005Y0160469D01*
X0252029Y0160510D01*
X0252057Y0160548D01*
X0252088Y0160584D01*
X0252122Y0160617D01*
X0252158Y0160647D01*
X0252197Y0160674D01*
X0252238Y0160698D01*
X0252281Y0160718D01*
X0252325Y0160734D01*
X0252371Y0160747D01*
X0252417Y0160756D01*
X0252465Y0160761D01*
X0252512Y0160762D01*
X0252559Y0160759D01*
X0252606Y0160752D01*
X0252652Y0160741D01*
X0252697Y0160727D01*
X0252741Y0160708D01*
X0252782Y0160686D01*
X0252822Y0160661D01*
X0252860Y0160632D01*
X0252895Y0160601D01*
X0252928Y0160566D01*
X0252957Y0160529D01*
X0252983Y0160490D01*
X0253006Y0160448D01*
X0253025Y0160405D01*
X0253041Y0160360D01*
X0253053Y0160314D01*
X0253061Y0160268D01*
X0253065Y0160221D01*
X0253065Y0160173D01*
X0253061Y0160126D01*
X0253053Y0160080D01*
X0253041Y0160034D01*
X0253025Y0159989D01*
X0253006Y0159946D01*
X0252983Y0159904D01*
X0252957Y0159865D01*
X0252928Y0159828D01*
X0252895Y0159793D01*
X0252860Y0159762D01*
X0252822Y0159733D01*
X0252783Y0159708D01*
X0252741Y0159686D01*
X0252697Y0159667D01*
X0252652Y0159653D01*
X0252606Y0159642D01*
X0252559Y0159635D01*
X0252512Y0159632D01*
X0252465Y0159633D01*
X0252417Y0159638D01*
X0252371Y0159647D01*
X0252325Y0159660D01*
X0252281Y0159676D01*
X0252238Y0159696D01*
X0252197Y0159720D01*
X0252158Y0159747D01*
X0252122Y0159777D01*
X0252088Y0159810D01*
X0252057Y0159846D01*
X0252029Y0159884D01*
X0252005Y0159925D01*
X0251984Y0159967D01*
X0251966Y0160011D01*
X0251953Y0160056D01*
X0251943Y0160103D01*
X0251937Y0160150D01*
X0251935Y0160197D01*
X0351063Y0133846D02*
X0351063Y0128334D01*
X0351063Y0133846D02*
X0358937Y0133846D01*
X0358937Y0128334D01*
X0360638Y0124578D02*
X0365362Y0124578D01*
X0363000Y0122216D01*
X0360638Y0124578D01*
X0360244Y0122216D02*
X0363000Y0122216D01*
X0365756Y0122216D01*
X0358937Y0118460D02*
X0358937Y0112948D01*
X0351063Y0112948D01*
X0351063Y0118460D01*
X0350063Y0053084D02*
X0344551Y0053084D01*
X0344551Y0045210D01*
X0350063Y0045210D01*
X0353819Y0043903D02*
X0353819Y0041147D01*
X0356181Y0038785D01*
X0356181Y0043509D01*
X0353819Y0041147D01*
X0353819Y0038391D01*
X0359937Y0045210D02*
X0365449Y0045210D01*
X0365449Y0053084D01*
X0359937Y0053084D01*
X0214000Y0074897D02*
X0209000Y0072397D01*
X0209000Y0077397D01*
X0214000Y0074897D01*
X0213762Y0074778D02*
X0209000Y0074778D01*
X0209000Y0075576D02*
X0212641Y0075576D01*
X0212165Y0073979D02*
X0209000Y0073979D01*
X0209000Y0073181D02*
X0210568Y0073181D01*
X0211044Y0076375D02*
X0209000Y0076375D01*
X0209000Y0077173D02*
X0209447Y0077173D01*
X0122779Y0121526D02*
X0119179Y0121526D01*
X0351063Y0187198D02*
X0358937Y0187198D01*
X0358937Y0192710D01*
X0360244Y0196466D02*
X0363000Y0196466D01*
X0365362Y0198828D01*
X0360638Y0198828D01*
X0363000Y0196466D01*
X0365756Y0196466D01*
X0358937Y0202584D02*
X0358937Y0208096D01*
X0351063Y0208096D01*
X0351063Y0202584D01*
X0351063Y0192710D02*
X0351063Y0187198D01*
D12*
X0281000Y0224377D02*
X0281000Y0224617D01*
X0197220Y0212497D02*
X0196980Y0212497D01*
X0148620Y0183197D02*
X0148380Y0183197D01*
X0140020Y0158597D02*
X0139780Y0158597D01*
X0148080Y0124497D02*
X0148320Y0124497D01*
X0233880Y0110397D02*
X0234120Y0110397D01*
X0242880Y0110397D02*
X0243120Y0110397D01*
X0261880Y0084897D02*
X0262120Y0084897D01*
X0250200Y0080017D02*
X0250200Y0079777D01*
X0157920Y0062297D02*
X0157680Y0062297D01*
D13*
X0144900Y0069497D02*
X0173900Y0069497D01*
X0173900Y0099497D01*
X0144900Y0099497D01*
X0144900Y0069497D01*
X0166207Y0050363D02*
X0169435Y0050363D01*
X0169435Y0043276D01*
X0171404Y0043276D01*
X0171404Y0050363D01*
X0175341Y0050363D01*
X0175407Y0050361D01*
X0175473Y0050356D01*
X0175539Y0050346D01*
X0175604Y0050333D01*
X0175668Y0050317D01*
X0175731Y0050297D01*
X0175793Y0050273D01*
X0175853Y0050246D01*
X0175912Y0050216D01*
X0175969Y0050182D01*
X0176024Y0050145D01*
X0176077Y0050105D01*
X0176128Y0050063D01*
X0176176Y0050017D01*
X0176222Y0049969D01*
X0176264Y0049918D01*
X0176304Y0049865D01*
X0176341Y0049810D01*
X0176375Y0049753D01*
X0176405Y0049694D01*
X0176432Y0049634D01*
X0176456Y0049572D01*
X0176476Y0049509D01*
X0176492Y0049445D01*
X0176505Y0049380D01*
X0176515Y0049314D01*
X0176520Y0049248D01*
X0176522Y0049182D01*
X0176522Y0044064D01*
X0182034Y0044064D01*
X0182034Y0049182D01*
X0182036Y0049248D01*
X0182041Y0049314D01*
X0182051Y0049380D01*
X0182064Y0049445D01*
X0182080Y0049509D01*
X0182100Y0049572D01*
X0182124Y0049634D01*
X0182151Y0049694D01*
X0182181Y0049753D01*
X0182215Y0049810D01*
X0182252Y0049865D01*
X0182292Y0049918D01*
X0182334Y0049969D01*
X0182380Y0050017D01*
X0182428Y0050063D01*
X0182479Y0050105D01*
X0182532Y0050145D01*
X0182587Y0050182D01*
X0182644Y0050216D01*
X0182703Y0050246D01*
X0182763Y0050273D01*
X0182825Y0050297D01*
X0182888Y0050317D01*
X0182952Y0050333D01*
X0183017Y0050346D01*
X0183083Y0050356D01*
X0183149Y0050361D01*
X0183215Y0050363D01*
X0187152Y0050363D01*
X0187218Y0050361D01*
X0187284Y0050356D01*
X0187350Y0050346D01*
X0187415Y0050333D01*
X0187479Y0050317D01*
X0187542Y0050297D01*
X0187604Y0050273D01*
X0187664Y0050246D01*
X0187723Y0050216D01*
X0187780Y0050182D01*
X0187835Y0050145D01*
X0187888Y0050105D01*
X0187939Y0050063D01*
X0187987Y0050017D01*
X0188033Y0049969D01*
X0188075Y0049918D01*
X0188115Y0049865D01*
X0188152Y0049810D01*
X0188186Y0049753D01*
X0188216Y0049694D01*
X0188243Y0049634D01*
X0188267Y0049572D01*
X0188287Y0049509D01*
X0188303Y0049445D01*
X0188316Y0049380D01*
X0188326Y0049314D01*
X0188331Y0049248D01*
X0188333Y0049182D01*
X0188333Y0044064D01*
X0193845Y0044064D01*
X0193845Y0049182D01*
X0193847Y0049248D01*
X0193852Y0049314D01*
X0193862Y0049380D01*
X0193875Y0049445D01*
X0193891Y0049509D01*
X0193911Y0049572D01*
X0193935Y0049634D01*
X0193962Y0049694D01*
X0193992Y0049753D01*
X0194026Y0049810D01*
X0194063Y0049865D01*
X0194103Y0049918D01*
X0194145Y0049969D01*
X0194191Y0050017D01*
X0194239Y0050063D01*
X0194290Y0050105D01*
X0194343Y0050145D01*
X0194398Y0050182D01*
X0194455Y0050216D01*
X0194514Y0050246D01*
X0194574Y0050273D01*
X0194636Y0050297D01*
X0194699Y0050317D01*
X0194763Y0050333D01*
X0194828Y0050346D01*
X0194894Y0050356D01*
X0194960Y0050361D01*
X0195026Y0050363D01*
X0198963Y0050363D01*
X0199029Y0050361D01*
X0199095Y0050356D01*
X0199161Y0050346D01*
X0199226Y0050333D01*
X0199290Y0050317D01*
X0199353Y0050297D01*
X0199415Y0050273D01*
X0199475Y0050246D01*
X0199534Y0050216D01*
X0199591Y0050182D01*
X0199646Y0050145D01*
X0199699Y0050105D01*
X0199750Y0050063D01*
X0199798Y0050017D01*
X0199844Y0049969D01*
X0199886Y0049918D01*
X0199926Y0049865D01*
X0199963Y0049810D01*
X0199997Y0049753D01*
X0200027Y0049694D01*
X0200054Y0049634D01*
X0200078Y0049572D01*
X0200098Y0049509D01*
X0200114Y0049445D01*
X0200127Y0049380D01*
X0200137Y0049314D01*
X0200142Y0049248D01*
X0200144Y0049182D01*
X0200144Y0044064D01*
X0205656Y0044064D01*
X0205656Y0049182D01*
X0205658Y0049248D01*
X0205663Y0049314D01*
X0205673Y0049380D01*
X0205686Y0049445D01*
X0205702Y0049509D01*
X0205722Y0049572D01*
X0205746Y0049634D01*
X0205773Y0049694D01*
X0205803Y0049753D01*
X0205837Y0049810D01*
X0205874Y0049865D01*
X0205914Y0049918D01*
X0205956Y0049969D01*
X0206002Y0050017D01*
X0206050Y0050063D01*
X0206101Y0050105D01*
X0206154Y0050145D01*
X0206209Y0050182D01*
X0206266Y0050216D01*
X0206325Y0050246D01*
X0206385Y0050273D01*
X0206447Y0050297D01*
X0206510Y0050317D01*
X0206574Y0050333D01*
X0206639Y0050346D01*
X0206705Y0050356D01*
X0206771Y0050361D01*
X0206837Y0050363D01*
X0210774Y0050363D01*
X0210840Y0050361D01*
X0210906Y0050356D01*
X0210972Y0050346D01*
X0211037Y0050333D01*
X0211101Y0050317D01*
X0211164Y0050297D01*
X0211226Y0050273D01*
X0211286Y0050246D01*
X0211345Y0050216D01*
X0211402Y0050182D01*
X0211457Y0050145D01*
X0211510Y0050105D01*
X0211561Y0050063D01*
X0211609Y0050017D01*
X0211655Y0049969D01*
X0211697Y0049918D01*
X0211737Y0049865D01*
X0211774Y0049810D01*
X0211808Y0049753D01*
X0211838Y0049694D01*
X0211865Y0049634D01*
X0211889Y0049572D01*
X0211909Y0049509D01*
X0211925Y0049445D01*
X0211938Y0049380D01*
X0211948Y0049314D01*
X0211953Y0049248D01*
X0211955Y0049182D01*
X0211955Y0044064D01*
X0217467Y0044064D01*
X0217467Y0049182D01*
X0217469Y0049248D01*
X0217474Y0049314D01*
X0217484Y0049380D01*
X0217497Y0049445D01*
X0217513Y0049509D01*
X0217533Y0049572D01*
X0217557Y0049634D01*
X0217584Y0049694D01*
X0217614Y0049753D01*
X0217648Y0049810D01*
X0217685Y0049865D01*
X0217725Y0049918D01*
X0217767Y0049969D01*
X0217813Y0050017D01*
X0217861Y0050063D01*
X0217912Y0050105D01*
X0217965Y0050145D01*
X0218020Y0050182D01*
X0218077Y0050216D01*
X0218136Y0050246D01*
X0218196Y0050273D01*
X0218258Y0050297D01*
X0218321Y0050317D01*
X0218385Y0050333D01*
X0218450Y0050346D01*
X0218516Y0050356D01*
X0218582Y0050361D01*
X0218648Y0050363D01*
X0222585Y0050363D01*
X0222656Y0050351D01*
X0222725Y0050335D01*
X0222794Y0050316D01*
X0222862Y0050294D01*
X0222929Y0050267D01*
X0222994Y0050238D01*
X0223058Y0050205D01*
X0223120Y0050169D01*
X0223180Y0050130D01*
X0223238Y0050087D01*
X0223293Y0050042D01*
X0223347Y0049994D01*
X0223397Y0049944D01*
X0223445Y0049890D01*
X0223490Y0049835D01*
X0223533Y0049777D01*
X0223572Y0049717D01*
X0223608Y0049655D01*
X0223641Y0049591D01*
X0223670Y0049526D01*
X0223697Y0049459D01*
X0223719Y0049391D01*
X0223738Y0049322D01*
X0223754Y0049253D01*
X0223766Y0049182D01*
X0223766Y0044064D01*
X0229278Y0044064D01*
X0229278Y0049182D01*
X0229280Y0049248D01*
X0229285Y0049314D01*
X0229295Y0049380D01*
X0229308Y0049445D01*
X0229324Y0049509D01*
X0229344Y0049572D01*
X0229368Y0049634D01*
X0229395Y0049694D01*
X0229425Y0049753D01*
X0229459Y0049810D01*
X0229496Y0049865D01*
X0229536Y0049918D01*
X0229578Y0049969D01*
X0229624Y0050017D01*
X0229672Y0050063D01*
X0229723Y0050105D01*
X0229776Y0050145D01*
X0229831Y0050182D01*
X0229888Y0050216D01*
X0229947Y0050246D01*
X0230007Y0050273D01*
X0230069Y0050297D01*
X0230132Y0050317D01*
X0230196Y0050333D01*
X0230261Y0050346D01*
X0230327Y0050356D01*
X0230393Y0050361D01*
X0230459Y0050363D01*
X0234396Y0050363D01*
X0234396Y0043276D01*
X0236365Y0043276D01*
X0236365Y0050363D01*
X0239593Y0050363D01*
X0239593Y0015717D01*
X0234396Y0011387D01*
X0171404Y0011387D01*
X0166207Y0015717D01*
X0166207Y0050363D01*
X0184000Y0064897D02*
X0184000Y0194897D01*
X0219000Y0194897D01*
X0219000Y0064897D01*
X0184000Y0064897D01*
X0198963Y0020048D02*
X0198963Y0017686D01*
X0206837Y0017686D01*
X0206837Y0013749D01*
X0198963Y0013749D01*
X0198963Y0017686D01*
X0198963Y0020048D02*
X0206837Y0020048D01*
X0206837Y0017686D01*
X0268000Y0044897D02*
X0303000Y0044897D01*
X0303000Y0194897D01*
X0268000Y0194897D01*
X0268000Y0044897D01*
D14*
X0215369Y0058747D02*
X0213167Y0058747D01*
X0214268Y0058747D02*
X0214268Y0062050D01*
X0213167Y0060949D01*
X0211686Y0062050D02*
X0210585Y0062050D01*
X0211135Y0062050D02*
X0211135Y0059297D01*
X0210585Y0058747D01*
X0210034Y0058747D01*
X0209484Y0059297D01*
X0271400Y0197747D02*
X0271951Y0197747D01*
X0272501Y0198297D01*
X0272501Y0201050D01*
X0271951Y0201050D02*
X0273052Y0201050D01*
X0274533Y0200499D02*
X0275084Y0201050D01*
X0276185Y0201050D01*
X0276735Y0200499D01*
X0276735Y0199949D01*
X0274533Y0197747D01*
X0276735Y0197747D01*
X0271400Y0197747D02*
X0270850Y0198297D01*
D15*
X0308500Y0152897D03*
X0309500Y0119897D03*
X0308500Y0062397D03*
X0179000Y0089597D03*
X0131900Y0045697D03*
D16*
X0188600Y0058397D03*
X0204100Y0058497D03*
X0295200Y0200897D03*
X0295300Y0210297D03*
D17*
X0279861Y0213450D02*
X0279863Y0213494D01*
X0279869Y0213538D01*
X0279879Y0213581D01*
X0279892Y0213623D01*
X0279910Y0213663D01*
X0279931Y0213702D01*
X0279955Y0213739D01*
X0279982Y0213774D01*
X0280013Y0213806D01*
X0280046Y0213835D01*
X0280082Y0213861D01*
X0280120Y0213883D01*
X0280160Y0213902D01*
X0280201Y0213918D01*
X0280244Y0213930D01*
X0280287Y0213938D01*
X0280331Y0213942D01*
X0280375Y0213942D01*
X0280419Y0213938D01*
X0280462Y0213930D01*
X0280505Y0213918D01*
X0280546Y0213902D01*
X0280586Y0213883D01*
X0280624Y0213861D01*
X0280660Y0213835D01*
X0280693Y0213806D01*
X0280724Y0213774D01*
X0280751Y0213739D01*
X0280775Y0213702D01*
X0280796Y0213663D01*
X0280814Y0213623D01*
X0280827Y0213581D01*
X0280837Y0213538D01*
X0280843Y0213494D01*
X0280845Y0213450D01*
X0280843Y0213406D01*
X0280837Y0213362D01*
X0280827Y0213319D01*
X0280814Y0213277D01*
X0280796Y0213237D01*
X0280775Y0213198D01*
X0280751Y0213161D01*
X0280724Y0213126D01*
X0280693Y0213094D01*
X0280660Y0213065D01*
X0280624Y0213039D01*
X0280586Y0213017D01*
X0280546Y0212998D01*
X0280505Y0212982D01*
X0280462Y0212970D01*
X0280419Y0212962D01*
X0280375Y0212958D01*
X0280331Y0212958D01*
X0280287Y0212962D01*
X0280244Y0212970D01*
X0280201Y0212982D01*
X0280160Y0212998D01*
X0280120Y0213017D01*
X0280082Y0213039D01*
X0280046Y0213065D01*
X0280013Y0213094D01*
X0279982Y0213126D01*
X0279955Y0213161D01*
X0279931Y0213198D01*
X0279910Y0213237D01*
X0279892Y0213277D01*
X0279879Y0213319D01*
X0279869Y0213362D01*
X0279863Y0213406D01*
X0279861Y0213450D01*
X0279863Y0213494D01*
X0279869Y0213538D01*
X0279879Y0213581D01*
X0279892Y0213623D01*
X0279910Y0213663D01*
X0279931Y0213702D01*
X0279955Y0213739D01*
X0279982Y0213774D01*
X0280013Y0213806D01*
X0280046Y0213835D01*
X0280082Y0213861D01*
X0280120Y0213883D01*
X0280160Y0213902D01*
X0280201Y0213918D01*
X0280244Y0213930D01*
X0280287Y0213938D01*
X0280331Y0213942D01*
X0280375Y0213942D01*
X0280419Y0213938D01*
X0280462Y0213930D01*
X0280505Y0213918D01*
X0280546Y0213902D01*
X0280586Y0213883D01*
X0280624Y0213861D01*
X0280660Y0213835D01*
X0280693Y0213806D01*
X0280724Y0213774D01*
X0280751Y0213739D01*
X0280775Y0213702D01*
X0280796Y0213663D01*
X0280814Y0213623D01*
X0280827Y0213581D01*
X0280837Y0213538D01*
X0280843Y0213494D01*
X0280845Y0213450D01*
X0280843Y0213406D01*
X0280837Y0213362D01*
X0280827Y0213319D01*
X0280814Y0213277D01*
X0280796Y0213237D01*
X0280775Y0213198D01*
X0280751Y0213161D01*
X0280724Y0213126D01*
X0280693Y0213094D01*
X0280660Y0213065D01*
X0280624Y0213039D01*
X0280586Y0213017D01*
X0280546Y0212998D01*
X0280505Y0212982D01*
X0280462Y0212970D01*
X0280419Y0212962D01*
X0280375Y0212958D01*
X0280331Y0212958D01*
X0280287Y0212962D01*
X0280244Y0212970D01*
X0280201Y0212982D01*
X0280160Y0212998D01*
X0280120Y0213017D01*
X0280082Y0213039D01*
X0280046Y0213065D01*
X0280013Y0213094D01*
X0279982Y0213126D01*
X0279955Y0213161D01*
X0279931Y0213198D01*
X0279910Y0213237D01*
X0279892Y0213277D01*
X0279879Y0213319D01*
X0279869Y0213362D01*
X0279863Y0213406D01*
X0279861Y0213450D01*
D18*
X0285274Y0217879D02*
X0269526Y0217879D01*
X0269526Y0203115D01*
X0285274Y0203115D01*
X0285274Y0217879D01*
X0189150Y0218839D02*
X0184646Y0218839D01*
X0184646Y0221091D01*
X0185397Y0221842D01*
X0186898Y0221842D01*
X0187649Y0221091D01*
X0187649Y0218839D01*
X0188399Y0216487D02*
X0184646Y0216487D01*
X0184646Y0215736D02*
X0184646Y0217238D01*
X0188399Y0216487D02*
X0189150Y0215736D01*
X0189150Y0214986D01*
X0188399Y0214235D01*
X0189150Y0223443D02*
X0189150Y0226446D01*
X0189150Y0224944D02*
X0184646Y0224944D01*
X0186147Y0223443D01*
X0132568Y0182949D02*
X0132570Y0183016D01*
X0132576Y0183083D01*
X0132586Y0183149D01*
X0132600Y0183215D01*
X0132617Y0183279D01*
X0132639Y0183343D01*
X0132664Y0183405D01*
X0132693Y0183465D01*
X0132725Y0183524D01*
X0132761Y0183581D01*
X0132800Y0183635D01*
X0132842Y0183687D01*
X0132887Y0183737D01*
X0132936Y0183783D01*
X0132986Y0183827D01*
X0133040Y0183868D01*
X0133095Y0183905D01*
X0133153Y0183939D01*
X0133213Y0183970D01*
X0133274Y0183997D01*
X0133337Y0184020D01*
X0133401Y0184040D01*
X0133466Y0184056D01*
X0133532Y0184068D01*
X0133599Y0184076D01*
X0133665Y0184080D01*
X0133733Y0184080D01*
X0133799Y0184076D01*
X0133866Y0184068D01*
X0133932Y0184056D01*
X0133997Y0184040D01*
X0134061Y0184020D01*
X0134124Y0183997D01*
X0134185Y0183970D01*
X0134245Y0183939D01*
X0134303Y0183905D01*
X0134358Y0183868D01*
X0134412Y0183827D01*
X0134462Y0183783D01*
X0134511Y0183737D01*
X0134556Y0183687D01*
X0134598Y0183635D01*
X0134637Y0183581D01*
X0134673Y0183524D01*
X0134705Y0183465D01*
X0134734Y0183405D01*
X0134759Y0183343D01*
X0134781Y0183279D01*
X0134798Y0183215D01*
X0134812Y0183149D01*
X0134822Y0183083D01*
X0134828Y0183016D01*
X0134830Y0182949D01*
X0134828Y0182882D01*
X0134822Y0182815D01*
X0134812Y0182749D01*
X0134798Y0182683D01*
X0134781Y0182619D01*
X0134759Y0182555D01*
X0134734Y0182493D01*
X0134705Y0182433D01*
X0134673Y0182374D01*
X0134637Y0182317D01*
X0134598Y0182263D01*
X0134556Y0182211D01*
X0134511Y0182161D01*
X0134462Y0182115D01*
X0134412Y0182071D01*
X0134358Y0182030D01*
X0134303Y0181993D01*
X0134245Y0181959D01*
X0134185Y0181928D01*
X0134124Y0181901D01*
X0134061Y0181878D01*
X0133997Y0181858D01*
X0133932Y0181842D01*
X0133866Y0181830D01*
X0133799Y0181822D01*
X0133733Y0181818D01*
X0133665Y0181818D01*
X0133599Y0181822D01*
X0133532Y0181830D01*
X0133466Y0181842D01*
X0133401Y0181858D01*
X0133337Y0181878D01*
X0133274Y0181901D01*
X0133213Y0181928D01*
X0133153Y0181959D01*
X0133095Y0181993D01*
X0133040Y0182030D01*
X0132986Y0182071D01*
X0132936Y0182115D01*
X0132887Y0182161D01*
X0132842Y0182211D01*
X0132800Y0182263D01*
X0132761Y0182317D01*
X0132725Y0182374D01*
X0132693Y0182433D01*
X0132664Y0182493D01*
X0132639Y0182555D01*
X0132617Y0182619D01*
X0132600Y0182683D01*
X0132586Y0182749D01*
X0132576Y0182815D01*
X0132570Y0182882D01*
X0132568Y0182949D01*
X0132268Y0124249D02*
X0132270Y0124316D01*
X0132276Y0124383D01*
X0132286Y0124449D01*
X0132300Y0124515D01*
X0132317Y0124579D01*
X0132339Y0124643D01*
X0132364Y0124705D01*
X0132393Y0124765D01*
X0132425Y0124824D01*
X0132461Y0124881D01*
X0132500Y0124935D01*
X0132542Y0124987D01*
X0132587Y0125037D01*
X0132636Y0125083D01*
X0132686Y0125127D01*
X0132740Y0125168D01*
X0132795Y0125205D01*
X0132853Y0125239D01*
X0132913Y0125270D01*
X0132974Y0125297D01*
X0133037Y0125320D01*
X0133101Y0125340D01*
X0133166Y0125356D01*
X0133232Y0125368D01*
X0133299Y0125376D01*
X0133365Y0125380D01*
X0133433Y0125380D01*
X0133499Y0125376D01*
X0133566Y0125368D01*
X0133632Y0125356D01*
X0133697Y0125340D01*
X0133761Y0125320D01*
X0133824Y0125297D01*
X0133885Y0125270D01*
X0133945Y0125239D01*
X0134003Y0125205D01*
X0134058Y0125168D01*
X0134112Y0125127D01*
X0134162Y0125083D01*
X0134211Y0125037D01*
X0134256Y0124987D01*
X0134298Y0124935D01*
X0134337Y0124881D01*
X0134373Y0124824D01*
X0134405Y0124765D01*
X0134434Y0124705D01*
X0134459Y0124643D01*
X0134481Y0124579D01*
X0134498Y0124515D01*
X0134512Y0124449D01*
X0134522Y0124383D01*
X0134528Y0124316D01*
X0134530Y0124249D01*
X0134528Y0124182D01*
X0134522Y0124115D01*
X0134512Y0124049D01*
X0134498Y0123983D01*
X0134481Y0123919D01*
X0134459Y0123855D01*
X0134434Y0123793D01*
X0134405Y0123733D01*
X0134373Y0123674D01*
X0134337Y0123617D01*
X0134298Y0123563D01*
X0134256Y0123511D01*
X0134211Y0123461D01*
X0134162Y0123415D01*
X0134112Y0123371D01*
X0134058Y0123330D01*
X0134003Y0123293D01*
X0133945Y0123259D01*
X0133885Y0123228D01*
X0133824Y0123201D01*
X0133761Y0123178D01*
X0133697Y0123158D01*
X0133632Y0123142D01*
X0133566Y0123130D01*
X0133499Y0123122D01*
X0133433Y0123118D01*
X0133365Y0123118D01*
X0133299Y0123122D01*
X0133232Y0123130D01*
X0133166Y0123142D01*
X0133101Y0123158D01*
X0133037Y0123178D01*
X0132974Y0123201D01*
X0132913Y0123228D01*
X0132853Y0123259D01*
X0132795Y0123293D01*
X0132740Y0123330D01*
X0132686Y0123371D01*
X0132636Y0123415D01*
X0132587Y0123461D01*
X0132542Y0123511D01*
X0132500Y0123563D01*
X0132461Y0123617D01*
X0132425Y0123674D01*
X0132393Y0123733D01*
X0132364Y0123793D01*
X0132339Y0123855D01*
X0132317Y0123919D01*
X0132300Y0123983D01*
X0132286Y0124049D01*
X0132276Y0124115D01*
X0132270Y0124182D01*
X0132268Y0124249D01*
X0236626Y0101271D02*
X0236626Y0099696D01*
X0236626Y0101271D02*
X0238201Y0101271D01*
X0250799Y0101271D02*
X0252374Y0101271D01*
X0252374Y0099696D01*
X0252374Y0087098D02*
X0252374Y0085523D01*
X0250799Y0085523D01*
X0238201Y0085523D02*
X0236626Y0087098D01*
X0322946Y0033195D02*
X0323697Y0033946D01*
X0324447Y0033946D01*
X0325198Y0033195D01*
X0325198Y0031694D01*
X0324447Y0030943D01*
X0323697Y0030943D01*
X0322946Y0031694D01*
X0322946Y0033195D01*
X0325198Y0033195D02*
X0325949Y0033946D01*
X0326699Y0033946D01*
X0327450Y0033195D01*
X0327450Y0031694D01*
X0326699Y0030943D01*
X0325949Y0030943D01*
X0325198Y0031694D01*
X0324447Y0029342D02*
X0323697Y0029342D01*
X0322946Y0028591D01*
X0322946Y0027090D01*
X0323697Y0026339D01*
X0323697Y0024738D02*
X0322946Y0023987D01*
X0322946Y0022486D01*
X0323697Y0021735D01*
X0324447Y0021735D01*
X0325198Y0022486D01*
X0325198Y0023987D01*
X0325949Y0024738D01*
X0326699Y0024738D01*
X0327450Y0023987D01*
X0327450Y0022486D01*
X0326699Y0021735D01*
X0326699Y0020134D02*
X0322946Y0020134D01*
X0322946Y0017131D02*
X0326699Y0017131D01*
X0327450Y0017882D01*
X0327450Y0019383D01*
X0326699Y0020134D01*
X0328201Y0023236D02*
X0322196Y0023236D01*
X0327450Y0026339D02*
X0324447Y0029342D01*
X0327450Y0029342D02*
X0327450Y0026339D01*
X0112950Y0033198D02*
X0112950Y0033948D01*
X0112199Y0034699D01*
X0108446Y0034699D01*
X0108446Y0035449D02*
X0108446Y0033948D01*
X0108446Y0037051D02*
X0108446Y0039303D01*
X0109197Y0040053D01*
X0110698Y0040053D01*
X0111449Y0039303D01*
X0111449Y0037051D01*
X0112950Y0037051D02*
X0108446Y0037051D01*
X0109197Y0041655D02*
X0108446Y0042405D01*
X0108446Y0043907D01*
X0109197Y0044657D01*
X0109947Y0044657D01*
X0110698Y0043907D01*
X0111449Y0044657D01*
X0112199Y0044657D01*
X0112950Y0043907D01*
X0112950Y0042405D01*
X0112199Y0041655D01*
X0110698Y0043156D02*
X0110698Y0043907D01*
X0112950Y0033198D02*
X0112199Y0032447D01*
D19*
X0241100Y0035597D02*
X0241100Y0020597D01*
X0243600Y0018097D01*
X0248600Y0018097D01*
X0251100Y0020597D01*
X0251100Y0035597D01*
X0253600Y0038097D01*
X0258600Y0038097D01*
X0261100Y0035597D01*
X0261100Y0020597D01*
X0258600Y0018097D01*
X0253600Y0018097D01*
X0251100Y0020597D01*
X0261100Y0020597D02*
X0263600Y0018097D01*
X0268600Y0018097D01*
X0271100Y0020597D01*
X0271100Y0035597D01*
X0268600Y0038097D01*
X0263600Y0038097D01*
X0261100Y0035597D01*
X0251100Y0035597D02*
X0248600Y0038097D01*
X0243600Y0038097D01*
X0241100Y0035597D01*
X0271100Y0035597D02*
X0273600Y0038097D01*
X0278600Y0038097D01*
X0281100Y0035597D01*
X0281100Y0020597D01*
X0278600Y0018097D01*
X0273600Y0018097D01*
X0271100Y0020597D01*
X0281100Y0020597D02*
X0283600Y0018097D01*
X0288600Y0018097D01*
X0291100Y0020597D01*
X0291100Y0035597D01*
X0288600Y0038097D01*
X0283600Y0038097D01*
X0281100Y0035597D01*
X0291100Y0035597D02*
X0293600Y0038097D01*
X0298600Y0038097D01*
X0301100Y0035597D01*
X0301100Y0020597D01*
X0298600Y0018097D01*
X0293600Y0018097D01*
X0291100Y0020597D01*
X0301100Y0020597D02*
X0303600Y0018097D01*
X0308600Y0018097D01*
X0311100Y0020597D01*
X0311100Y0035597D01*
X0308600Y0038097D01*
X0303600Y0038097D01*
X0301100Y0035597D01*
X0311100Y0035597D02*
X0313600Y0038097D01*
X0318600Y0038097D01*
X0321100Y0035597D01*
X0321100Y0020597D01*
X0318600Y0018097D01*
X0313600Y0018097D01*
X0311100Y0020597D01*
X0254699Y0143299D02*
X0254699Y0163395D01*
X0236101Y0163395D02*
X0236101Y0143299D01*
D20*
X0244807Y0154747D02*
X0245308Y0154747D01*
X0245558Y0154997D01*
X0245558Y0156248D01*
X0246030Y0155998D02*
X0246280Y0156248D01*
X0246781Y0156248D01*
X0247031Y0155998D01*
X0247503Y0155748D02*
X0248004Y0156248D01*
X0248004Y0154747D01*
X0248504Y0154747D02*
X0247503Y0154747D01*
X0247031Y0154997D02*
X0247031Y0155247D01*
X0246781Y0155498D01*
X0246280Y0155498D01*
X0246030Y0155748D01*
X0246030Y0155998D01*
X0246531Y0156498D02*
X0246531Y0154497D01*
X0246781Y0154747D02*
X0247031Y0154997D01*
X0246781Y0154747D02*
X0246280Y0154747D01*
X0246030Y0154997D01*
X0244807Y0154747D02*
X0244557Y0154997D01*
X0244557Y0156248D01*
X0248977Y0156248D02*
X0249978Y0156248D01*
X0249978Y0155998D01*
X0248977Y0154997D01*
X0248977Y0154747D01*
M02*
