G75*
%MOIN*%
%OFA0B0*%
%FSLAX25Y25*%
%IPPOS*%
%LPD*%
%AMOC8*
5,1,8,0,0,1.08239X$1,22.5*
%
%ADD10C,0.13011*%
%ADD11C,0.10255*%
%ADD12C,0.14800*%
%ADD13R,0.05137X0.05531*%
%ADD14R,0.05531X0.05137*%
%ADD15R,0.04468X0.03680*%
%ADD16R,0.07600X0.07600*%
%ADD17OC8,0.07600*%
%ADD18R,0.04200X0.07200*%
%ADD19R,0.04100X0.12200*%
%ADD20R,0.03169X0.05924*%
%ADD21R,0.05924X0.03169*%
%ADD22R,0.03562X0.03169*%
%ADD23R,0.03169X0.03562*%
%ADD24R,0.04350X0.03169*%
%ADD25R,0.01987X0.01987*%
%ADD26C,0.00500*%
%ADD27R,0.03956X0.02342*%
%ADD28R,0.02342X0.03956*%
%ADD29R,0.03600X0.09900*%
%ADD30R,0.07616X0.07616*%
%ADD31C,0.07616*%
%ADD32R,0.06712X0.05924*%
%ADD33C,0.06712*%
%ADD34R,0.09074X0.09074*%
%ADD35R,0.03365X0.05924*%
%ADD36R,0.06318X0.06318*%
%ADD37R,0.03680X0.04468*%
%ADD38R,0.05924X0.06712*%
%ADD39OC8,0.08600*%
%ADD40R,0.08600X0.08600*%
%ADD41C,0.08600*%
D10*
X0010000Y0010500D03*
X0138843Y0025500D03*
X0169157Y0025500D03*
X0393000Y0010500D03*
X0393000Y0218000D03*
X0010000Y0218000D03*
D11*
X0041300Y0202300D03*
X0091300Y0202300D03*
D12*
X0075550Y0168300D03*
X0057050Y0050300D03*
D13*
X0139549Y0087696D03*
X0139549Y0094389D03*
X0148200Y0112254D03*
X0148200Y0118946D03*
X0139900Y0146354D03*
X0139900Y0153046D03*
X0148500Y0170954D03*
X0148500Y0177646D03*
X0164900Y0192854D03*
X0164900Y0199546D03*
X0197100Y0200254D03*
X0197100Y0206946D03*
X0178600Y0170246D03*
X0178600Y0163554D03*
X0234000Y0104846D03*
X0243000Y0104846D03*
X0243000Y0098154D03*
X0234000Y0098154D03*
X0262000Y0079346D03*
X0262000Y0072654D03*
X0308500Y0056846D03*
X0308500Y0050154D03*
X0205600Y0031846D03*
X0205600Y0025154D03*
X0196700Y0025254D03*
X0196700Y0031946D03*
X0157800Y0050054D03*
X0157800Y0056746D03*
X0179000Y0077354D03*
X0179000Y0084046D03*
X0309500Y0107654D03*
X0309500Y0114346D03*
X0308500Y0140654D03*
X0308500Y0147346D03*
D14*
X0239046Y0196300D03*
X0232354Y0196300D03*
X0232254Y0204900D03*
X0238946Y0204900D03*
X0251454Y0206100D03*
X0258146Y0206100D03*
X0258046Y0196700D03*
X0251354Y0196700D03*
X0277654Y0215600D03*
X0284346Y0215600D03*
X0156557Y0160110D03*
X0149865Y0160110D03*
X0144546Y0160100D03*
X0137854Y0160100D03*
X0141146Y0188800D03*
X0134454Y0188800D03*
X0134154Y0130300D03*
X0140846Y0130300D03*
X0137554Y0101400D03*
X0144246Y0101400D03*
X0149465Y0101410D03*
X0156157Y0101410D03*
X0246854Y0071000D03*
X0253546Y0071000D03*
D15*
X0149100Y0057628D03*
X0149100Y0048572D03*
D16*
X0206500Y0076000D03*
X0280500Y0166000D03*
D17*
X0290500Y0166000D03*
X0290500Y0156000D03*
X0280500Y0156000D03*
X0280500Y0146000D03*
X0290500Y0146000D03*
X0290500Y0136000D03*
X0280500Y0136000D03*
X0280500Y0126000D03*
X0290500Y0126000D03*
X0290500Y0116000D03*
X0280500Y0116000D03*
X0280500Y0106000D03*
X0290500Y0106000D03*
X0290500Y0096000D03*
X0280500Y0096000D03*
X0280500Y0086000D03*
X0290500Y0086000D03*
X0290500Y0076000D03*
X0280500Y0076000D03*
X0280500Y0066000D03*
X0290500Y0066000D03*
X0290500Y0056000D03*
X0280500Y0056000D03*
X0206500Y0086000D03*
X0196500Y0086000D03*
X0196500Y0076000D03*
X0196500Y0096000D03*
X0206500Y0096000D03*
X0206500Y0106000D03*
X0196500Y0106000D03*
X0196500Y0116000D03*
X0206500Y0116000D03*
X0206500Y0126000D03*
X0196500Y0126000D03*
X0196500Y0136000D03*
X0206500Y0136000D03*
X0206500Y0146000D03*
X0196500Y0146000D03*
X0196500Y0156000D03*
X0206500Y0156000D03*
X0206500Y0166000D03*
X0196500Y0166000D03*
D18*
X0134500Y0072700D03*
X0119500Y0072700D03*
X0119500Y0050700D03*
X0134500Y0050700D03*
D19*
X0149400Y0067600D03*
X0154400Y0067600D03*
X0159400Y0067600D03*
X0164400Y0067600D03*
X0169400Y0067600D03*
X0169400Y0083600D03*
X0164400Y0083600D03*
X0159400Y0083600D03*
X0154400Y0083600D03*
X0149400Y0083600D03*
D20*
X0236926Y0178769D03*
X0240076Y0178769D03*
X0243225Y0178769D03*
X0246375Y0178769D03*
X0249524Y0178769D03*
X0252674Y0178769D03*
X0252674Y0187431D03*
X0249524Y0187431D03*
X0246375Y0187431D03*
X0243225Y0187431D03*
X0240076Y0187431D03*
X0236926Y0187431D03*
D21*
X0236532Y0183100D03*
X0253068Y0183100D03*
D22*
X0271494Y0195891D03*
X0277400Y0195891D03*
X0283306Y0195891D03*
X0283306Y0207309D03*
X0277400Y0207309D03*
X0271494Y0207309D03*
D23*
X0283306Y0201600D03*
D24*
X0216806Y0203363D03*
X0216806Y0207300D03*
X0216806Y0211237D03*
X0204994Y0211237D03*
X0204994Y0207300D03*
X0204994Y0203363D03*
D25*
X0210900Y0207300D03*
D26*
X0207849Y0207387D02*
X0214148Y0207387D01*
X0214148Y0207885D02*
X0207849Y0207885D01*
X0207849Y0208384D02*
X0214148Y0208384D01*
X0214148Y0208882D02*
X0207849Y0208882D01*
X0207849Y0209381D02*
X0214148Y0209381D01*
X0214148Y0209879D02*
X0207849Y0209879D01*
X0207849Y0210378D02*
X0214148Y0210378D01*
X0214148Y0210876D02*
X0207849Y0210876D01*
X0207849Y0211375D02*
X0214148Y0211375D01*
X0214148Y0211873D02*
X0207849Y0211873D01*
X0207849Y0212372D02*
X0214148Y0212372D01*
X0214148Y0212517D02*
X0207849Y0212517D01*
X0207849Y0202182D01*
X0212376Y0202182D01*
X0214148Y0203954D01*
X0214148Y0212517D01*
X0214148Y0206888D02*
X0207849Y0206888D01*
X0207849Y0206390D02*
X0214148Y0206390D01*
X0214148Y0205891D02*
X0207849Y0205891D01*
X0207849Y0205393D02*
X0214148Y0205393D01*
X0214148Y0204894D02*
X0207849Y0204894D01*
X0207849Y0204396D02*
X0214148Y0204396D01*
X0214092Y0203897D02*
X0207849Y0203897D01*
X0207849Y0203399D02*
X0213593Y0203399D01*
X0213095Y0202900D02*
X0207849Y0202900D01*
X0207849Y0202402D02*
X0212596Y0202402D01*
D27*
X0237118Y0089421D03*
X0237118Y0087453D03*
X0237118Y0085484D03*
X0237118Y0083516D03*
X0237118Y0081547D03*
X0237118Y0079579D03*
X0251882Y0079579D03*
X0251882Y0081547D03*
X0251882Y0083516D03*
X0251882Y0085484D03*
X0251882Y0087453D03*
X0251882Y0089421D03*
D28*
X0249421Y0091882D03*
X0247453Y0091882D03*
X0245484Y0091882D03*
X0243516Y0091882D03*
X0241547Y0091882D03*
X0239579Y0091882D03*
X0239579Y0077118D03*
X0241547Y0077118D03*
X0243516Y0077118D03*
X0245484Y0077118D03*
X0247453Y0077118D03*
X0249421Y0077118D03*
D29*
X0248000Y0121700D03*
X0243000Y0121700D03*
X0238000Y0121700D03*
X0253000Y0121700D03*
X0253000Y0142300D03*
X0248000Y0142300D03*
X0243000Y0142300D03*
X0238000Y0142300D03*
D30*
X0130378Y0008492D03*
D31*
X0142189Y0008492D03*
X0154000Y0008492D03*
X0165811Y0008492D03*
X0177622Y0008492D03*
D32*
X0355000Y0107594D03*
X0355000Y0121406D03*
X0355000Y0181844D03*
X0355000Y0195656D03*
D33*
X0355000Y0188750D03*
X0355000Y0114500D03*
X0355000Y0040250D03*
D34*
X0123179Y0101955D03*
X0123179Y0117703D03*
X0123479Y0160655D03*
X0123479Y0176403D03*
D35*
X0133959Y0179570D03*
X0137699Y0179570D03*
X0141439Y0179570D03*
X0141439Y0169333D03*
X0137699Y0169333D03*
X0133959Y0169333D03*
X0133659Y0120870D03*
X0137399Y0120870D03*
X0141139Y0120870D03*
X0141139Y0110633D03*
X0137399Y0110633D03*
X0133659Y0110633D03*
D36*
X0130554Y0091839D03*
X0118743Y0091839D03*
X0119343Y0150239D03*
X0131154Y0150239D03*
D37*
X0104128Y0217000D03*
X0095072Y0217000D03*
D38*
X0348094Y0040250D03*
X0361906Y0040250D03*
D39*
X0279500Y0020600D03*
X0269500Y0020600D03*
X0259500Y0020600D03*
X0249500Y0020600D03*
X0239500Y0020600D03*
X0229500Y0020600D03*
X0229500Y0010600D03*
X0239500Y0010600D03*
X0249500Y0010600D03*
X0259500Y0010600D03*
X0269500Y0010600D03*
X0279500Y0010600D03*
D40*
X0177500Y0209900D03*
D41*
X0177500Y0199900D03*
X0177500Y0189900D03*
X0177500Y0179900D03*
M02*
