G75*
%MOIN*%
%OFA0B0*%
%FSLAX25Y25*%
%IPPOS*%
%LPD*%
%AMOC8*
5,1,8,0,0,1.08239X$1,22.5*
%
%ADD10C,0.01000*%
%ADD11C,0.01600*%
%ADD12C,0.00800*%
%ADD13C,0.02200*%
%ADD14C,0.00700*%
%ADD15R,0.03000X0.01800*%
%ADD16R,0.01800X0.03000*%
%ADD17C,0.02400*%
%ADD18C,0.00500*%
%ADD19C,0.00600*%
D10*
X0111097Y0071259D02*
X0111764Y0070592D01*
X0112431Y0070592D01*
X0113098Y0071259D01*
X0113098Y0072594D01*
X0113766Y0073261D01*
X0114433Y0073261D01*
X0115100Y0072594D01*
X0115100Y0071259D01*
X0114433Y0070592D01*
X0111097Y0071259D02*
X0111097Y0072594D01*
X0111764Y0073261D01*
X0112431Y0075196D02*
X0111097Y0076531D01*
X0115100Y0076531D01*
X0115100Y0077865D02*
X0115100Y0075196D01*
X0140897Y0068198D02*
X0140897Y0066863D01*
X0141564Y0066196D01*
X0142898Y0067531D02*
X0142898Y0068198D01*
X0143566Y0068865D01*
X0144233Y0068865D01*
X0144900Y0068198D01*
X0144900Y0066863D01*
X0144233Y0066196D01*
X0144233Y0064261D02*
X0141564Y0064261D01*
X0140897Y0063594D01*
X0140897Y0061592D01*
X0144900Y0061592D01*
X0144900Y0063594D01*
X0144233Y0064261D01*
X0142898Y0068198D02*
X0142231Y0068865D01*
X0141564Y0068865D01*
X0140897Y0068198D01*
X0144900Y0073000D02*
X0173900Y0073000D01*
X0173900Y0103000D01*
X0144900Y0103000D01*
X0144900Y0073000D01*
X0162897Y0066865D02*
X0162897Y0064196D01*
X0164898Y0064196D01*
X0164231Y0065531D01*
X0164231Y0066198D01*
X0164898Y0066865D01*
X0166233Y0066865D01*
X0166900Y0066198D01*
X0166900Y0064863D01*
X0166233Y0064196D01*
X0166233Y0062261D02*
X0166900Y0061594D01*
X0166900Y0060259D01*
X0166233Y0059592D01*
X0163564Y0059592D01*
X0162897Y0060259D01*
X0162897Y0061594D01*
X0163564Y0062261D01*
X0166207Y0053866D02*
X0169435Y0053866D01*
X0169435Y0046780D01*
X0171404Y0046780D01*
X0171404Y0053866D01*
X0175341Y0053866D01*
X0175407Y0053864D01*
X0175473Y0053859D01*
X0175539Y0053849D01*
X0175604Y0053836D01*
X0175668Y0053820D01*
X0175731Y0053800D01*
X0175793Y0053776D01*
X0175853Y0053749D01*
X0175912Y0053719D01*
X0175969Y0053685D01*
X0176024Y0053648D01*
X0176077Y0053608D01*
X0176128Y0053566D01*
X0176176Y0053520D01*
X0176222Y0053472D01*
X0176264Y0053421D01*
X0176304Y0053368D01*
X0176341Y0053313D01*
X0176375Y0053256D01*
X0176405Y0053197D01*
X0176432Y0053137D01*
X0176456Y0053075D01*
X0176476Y0053012D01*
X0176492Y0052948D01*
X0176505Y0052883D01*
X0176515Y0052817D01*
X0176520Y0052751D01*
X0176522Y0052685D01*
X0176522Y0047567D01*
X0182034Y0047567D01*
X0182034Y0052685D01*
X0182036Y0052751D01*
X0182041Y0052817D01*
X0182051Y0052883D01*
X0182064Y0052948D01*
X0182080Y0053012D01*
X0182100Y0053075D01*
X0182124Y0053137D01*
X0182151Y0053197D01*
X0182181Y0053256D01*
X0182215Y0053313D01*
X0182252Y0053368D01*
X0182292Y0053421D01*
X0182334Y0053472D01*
X0182380Y0053520D01*
X0182428Y0053566D01*
X0182479Y0053608D01*
X0182532Y0053648D01*
X0182587Y0053685D01*
X0182644Y0053719D01*
X0182703Y0053749D01*
X0182763Y0053776D01*
X0182825Y0053800D01*
X0182888Y0053820D01*
X0182952Y0053836D01*
X0183017Y0053849D01*
X0183083Y0053859D01*
X0183149Y0053864D01*
X0183215Y0053866D01*
X0187152Y0053866D01*
X0187218Y0053864D01*
X0187284Y0053859D01*
X0187350Y0053849D01*
X0187415Y0053836D01*
X0187479Y0053820D01*
X0187542Y0053800D01*
X0187604Y0053776D01*
X0187664Y0053749D01*
X0187723Y0053719D01*
X0187780Y0053685D01*
X0187835Y0053648D01*
X0187888Y0053608D01*
X0187939Y0053566D01*
X0187987Y0053520D01*
X0188033Y0053472D01*
X0188075Y0053421D01*
X0188115Y0053368D01*
X0188152Y0053313D01*
X0188186Y0053256D01*
X0188216Y0053197D01*
X0188243Y0053137D01*
X0188267Y0053075D01*
X0188287Y0053012D01*
X0188303Y0052948D01*
X0188316Y0052883D01*
X0188326Y0052817D01*
X0188331Y0052751D01*
X0188333Y0052685D01*
X0188333Y0047567D01*
X0193845Y0047567D01*
X0193845Y0052685D01*
X0193847Y0052751D01*
X0193852Y0052817D01*
X0193862Y0052883D01*
X0193875Y0052948D01*
X0193891Y0053012D01*
X0193911Y0053075D01*
X0193935Y0053137D01*
X0193962Y0053197D01*
X0193992Y0053256D01*
X0194026Y0053313D01*
X0194063Y0053368D01*
X0194103Y0053421D01*
X0194145Y0053472D01*
X0194191Y0053520D01*
X0194239Y0053566D01*
X0194290Y0053608D01*
X0194343Y0053648D01*
X0194398Y0053685D01*
X0194455Y0053719D01*
X0194514Y0053749D01*
X0194574Y0053776D01*
X0194636Y0053800D01*
X0194699Y0053820D01*
X0194763Y0053836D01*
X0194828Y0053849D01*
X0194894Y0053859D01*
X0194960Y0053864D01*
X0195026Y0053866D01*
X0198963Y0053866D01*
X0199029Y0053864D01*
X0199095Y0053859D01*
X0199161Y0053849D01*
X0199226Y0053836D01*
X0199290Y0053820D01*
X0199353Y0053800D01*
X0199415Y0053776D01*
X0199475Y0053749D01*
X0199534Y0053719D01*
X0199591Y0053685D01*
X0199646Y0053648D01*
X0199699Y0053608D01*
X0199750Y0053566D01*
X0199798Y0053520D01*
X0199844Y0053472D01*
X0199886Y0053421D01*
X0199926Y0053368D01*
X0199963Y0053313D01*
X0199997Y0053256D01*
X0200027Y0053197D01*
X0200054Y0053137D01*
X0200078Y0053075D01*
X0200098Y0053012D01*
X0200114Y0052948D01*
X0200127Y0052883D01*
X0200137Y0052817D01*
X0200142Y0052751D01*
X0200144Y0052685D01*
X0200144Y0047567D01*
X0205656Y0047567D01*
X0205656Y0052685D01*
X0205658Y0052751D01*
X0205663Y0052817D01*
X0205673Y0052883D01*
X0205686Y0052948D01*
X0205702Y0053012D01*
X0205722Y0053075D01*
X0205746Y0053137D01*
X0205773Y0053197D01*
X0205803Y0053256D01*
X0205837Y0053313D01*
X0205874Y0053368D01*
X0205914Y0053421D01*
X0205956Y0053472D01*
X0206002Y0053520D01*
X0206050Y0053566D01*
X0206101Y0053608D01*
X0206154Y0053648D01*
X0206209Y0053685D01*
X0206266Y0053719D01*
X0206325Y0053749D01*
X0206385Y0053776D01*
X0206447Y0053800D01*
X0206510Y0053820D01*
X0206574Y0053836D01*
X0206639Y0053849D01*
X0206705Y0053859D01*
X0206771Y0053864D01*
X0206837Y0053866D01*
X0210774Y0053866D01*
X0210840Y0053864D01*
X0210906Y0053859D01*
X0210972Y0053849D01*
X0211037Y0053836D01*
X0211101Y0053820D01*
X0211164Y0053800D01*
X0211226Y0053776D01*
X0211286Y0053749D01*
X0211345Y0053719D01*
X0211402Y0053685D01*
X0211457Y0053648D01*
X0211510Y0053608D01*
X0211561Y0053566D01*
X0211609Y0053520D01*
X0211655Y0053472D01*
X0211697Y0053421D01*
X0211737Y0053368D01*
X0211774Y0053313D01*
X0211808Y0053256D01*
X0211838Y0053197D01*
X0211865Y0053137D01*
X0211889Y0053075D01*
X0211909Y0053012D01*
X0211925Y0052948D01*
X0211938Y0052883D01*
X0211948Y0052817D01*
X0211953Y0052751D01*
X0211955Y0052685D01*
X0211955Y0047567D01*
X0217467Y0047567D01*
X0217467Y0052685D01*
X0217469Y0052751D01*
X0217474Y0052817D01*
X0217484Y0052883D01*
X0217497Y0052948D01*
X0217513Y0053012D01*
X0217533Y0053075D01*
X0217557Y0053137D01*
X0217584Y0053197D01*
X0217614Y0053256D01*
X0217648Y0053313D01*
X0217685Y0053368D01*
X0217725Y0053421D01*
X0217767Y0053472D01*
X0217813Y0053520D01*
X0217861Y0053566D01*
X0217912Y0053608D01*
X0217965Y0053648D01*
X0218020Y0053685D01*
X0218077Y0053719D01*
X0218136Y0053749D01*
X0218196Y0053776D01*
X0218258Y0053800D01*
X0218321Y0053820D01*
X0218385Y0053836D01*
X0218450Y0053849D01*
X0218516Y0053859D01*
X0218582Y0053864D01*
X0218648Y0053866D01*
X0222585Y0053866D01*
X0222656Y0053854D01*
X0222725Y0053838D01*
X0222794Y0053819D01*
X0222862Y0053797D01*
X0222929Y0053770D01*
X0222994Y0053741D01*
X0223058Y0053708D01*
X0223120Y0053672D01*
X0223180Y0053633D01*
X0223238Y0053590D01*
X0223293Y0053545D01*
X0223347Y0053497D01*
X0223397Y0053447D01*
X0223445Y0053393D01*
X0223490Y0053338D01*
X0223533Y0053280D01*
X0223572Y0053220D01*
X0223608Y0053158D01*
X0223641Y0053094D01*
X0223670Y0053029D01*
X0223697Y0052962D01*
X0223719Y0052894D01*
X0223738Y0052825D01*
X0223754Y0052756D01*
X0223766Y0052685D01*
X0223766Y0047567D01*
X0229278Y0047567D01*
X0229278Y0052685D01*
X0229280Y0052751D01*
X0229285Y0052817D01*
X0229295Y0052883D01*
X0229308Y0052948D01*
X0229324Y0053012D01*
X0229344Y0053075D01*
X0229368Y0053137D01*
X0229395Y0053197D01*
X0229425Y0053256D01*
X0229459Y0053313D01*
X0229496Y0053368D01*
X0229536Y0053421D01*
X0229578Y0053472D01*
X0229624Y0053520D01*
X0229672Y0053566D01*
X0229723Y0053608D01*
X0229776Y0053648D01*
X0229831Y0053685D01*
X0229888Y0053719D01*
X0229947Y0053749D01*
X0230007Y0053776D01*
X0230069Y0053800D01*
X0230132Y0053820D01*
X0230196Y0053836D01*
X0230261Y0053849D01*
X0230327Y0053859D01*
X0230393Y0053864D01*
X0230459Y0053866D01*
X0234396Y0053866D01*
X0234396Y0046780D01*
X0236365Y0046780D01*
X0236365Y0053866D01*
X0239593Y0053866D01*
X0239593Y0019220D01*
X0234396Y0014890D01*
X0171404Y0014890D01*
X0166207Y0019220D01*
X0166207Y0053866D01*
X0178597Y0055588D02*
X0178597Y0057590D01*
X0179264Y0058257D01*
X0180598Y0058257D01*
X0181266Y0057590D01*
X0181266Y0055588D01*
X0182600Y0055588D02*
X0178597Y0055588D01*
X0181266Y0056923D02*
X0182600Y0058257D01*
X0182600Y0060192D02*
X0182600Y0062861D01*
X0182600Y0061527D02*
X0178597Y0061527D01*
X0179931Y0060192D01*
X0179931Y0064796D02*
X0179264Y0064796D01*
X0178597Y0065463D01*
X0178597Y0066798D01*
X0179264Y0067465D01*
X0179931Y0067465D01*
X0180598Y0066798D01*
X0180598Y0065463D01*
X0179931Y0064796D01*
X0180598Y0065463D02*
X0181266Y0064796D01*
X0181933Y0064796D01*
X0182600Y0065463D01*
X0182600Y0066798D01*
X0181933Y0067465D01*
X0181266Y0067465D01*
X0180598Y0066798D01*
X0184000Y0068400D02*
X0184000Y0198400D01*
X0219000Y0198400D01*
X0219000Y0068400D01*
X0184000Y0068400D01*
X0188403Y0065407D02*
X0192406Y0065407D01*
X0192406Y0064073D02*
X0192406Y0066742D01*
X0189737Y0064073D02*
X0188403Y0065407D01*
X0189070Y0062138D02*
X0191739Y0062138D01*
X0192406Y0061471D01*
X0192406Y0060136D01*
X0191739Y0059469D01*
X0189070Y0059469D01*
X0188403Y0060136D01*
X0188403Y0061471D01*
X0189070Y0062138D01*
X0191072Y0060803D02*
X0192406Y0062138D01*
X0207792Y0070667D02*
X0208459Y0070000D01*
X0209127Y0070000D01*
X0209794Y0070667D01*
X0209794Y0074003D01*
X0209127Y0074003D02*
X0210461Y0074003D01*
X0212396Y0072669D02*
X0213731Y0074003D01*
X0213731Y0070000D01*
X0215065Y0070000D02*
X0212396Y0070000D01*
X0212464Y0067065D02*
X0211797Y0066398D01*
X0211797Y0065063D01*
X0212464Y0064396D01*
X0213131Y0064396D01*
X0213798Y0065063D01*
X0213798Y0067065D01*
X0212464Y0067065D02*
X0215133Y0067065D01*
X0215800Y0066398D01*
X0215800Y0065063D01*
X0215133Y0064396D01*
X0215800Y0062461D02*
X0215800Y0059792D01*
X0215800Y0061127D02*
X0211797Y0061127D01*
X0213131Y0059792D01*
X0212464Y0057857D02*
X0213798Y0057857D01*
X0214466Y0057190D01*
X0214466Y0055188D01*
X0215800Y0055188D02*
X0211797Y0055188D01*
X0211797Y0057190D01*
X0212464Y0057857D01*
X0214466Y0056523D02*
X0215800Y0057857D01*
X0225397Y0057790D02*
X0225397Y0055788D01*
X0229400Y0055788D01*
X0228066Y0055788D02*
X0228066Y0057790D01*
X0227398Y0058457D01*
X0226064Y0058457D01*
X0225397Y0057790D01*
X0228066Y0057123D02*
X0229400Y0058457D01*
X0229400Y0060392D02*
X0229400Y0063061D01*
X0229400Y0061727D02*
X0225397Y0061727D01*
X0226731Y0060392D01*
X0225397Y0064996D02*
X0225397Y0067665D01*
X0226064Y0067665D01*
X0228733Y0064996D01*
X0229400Y0064996D01*
X0237397Y0076600D02*
X0237397Y0078602D01*
X0238064Y0079269D01*
X0239398Y0079269D01*
X0240066Y0078602D01*
X0240066Y0076600D01*
X0241400Y0076600D02*
X0237397Y0076600D01*
X0240066Y0077934D02*
X0241400Y0079269D01*
X0241400Y0081204D02*
X0240733Y0081204D01*
X0238064Y0083873D01*
X0237397Y0083873D01*
X0237397Y0081204D01*
X0246292Y0078336D02*
X0246292Y0075667D01*
X0246959Y0075000D01*
X0248294Y0075000D01*
X0248961Y0075667D01*
X0250896Y0075667D02*
X0250896Y0075000D01*
X0250896Y0075667D02*
X0253565Y0078336D01*
X0253565Y0079003D01*
X0250896Y0079003D01*
X0248961Y0078336D02*
X0248294Y0079003D01*
X0246959Y0079003D01*
X0246292Y0078336D01*
X0260397Y0079673D02*
X0261064Y0078338D01*
X0262398Y0077004D01*
X0262398Y0079006D01*
X0263066Y0079673D01*
X0263733Y0079673D01*
X0264400Y0079006D01*
X0264400Y0077671D01*
X0263733Y0077004D01*
X0262398Y0077004D01*
X0261064Y0075069D02*
X0260397Y0074402D01*
X0260397Y0073067D01*
X0261064Y0072400D01*
X0263733Y0072400D01*
X0264400Y0073067D01*
X0264400Y0074402D01*
X0263733Y0075069D01*
X0253933Y0064065D02*
X0253266Y0064065D01*
X0252598Y0063398D01*
X0252598Y0061396D01*
X0253933Y0061396D01*
X0254600Y0062063D01*
X0254600Y0063398D01*
X0253933Y0064065D01*
X0251264Y0062731D02*
X0252598Y0061396D01*
X0251264Y0062731D02*
X0250597Y0064065D01*
X0250597Y0058127D02*
X0254600Y0058127D01*
X0254600Y0059461D02*
X0254600Y0056792D01*
X0254600Y0054857D02*
X0253266Y0053523D01*
X0253266Y0054190D02*
X0253266Y0052188D01*
X0254600Y0052188D02*
X0250597Y0052188D01*
X0250597Y0054190D01*
X0251264Y0054857D01*
X0252598Y0054857D01*
X0253266Y0054190D01*
X0251931Y0056792D02*
X0250597Y0058127D01*
X0268000Y0048400D02*
X0303000Y0048400D01*
X0303000Y0198400D01*
X0268000Y0198400D01*
X0268000Y0048400D01*
X0268271Y0046703D02*
X0267604Y0046036D01*
X0268271Y0046703D02*
X0269606Y0046703D01*
X0270273Y0046036D01*
X0270273Y0045369D01*
X0267604Y0042700D01*
X0270273Y0042700D01*
X0273000Y0043167D02*
X0273667Y0042500D01*
X0275002Y0042500D01*
X0275669Y0043167D01*
X0275669Y0043834D01*
X0275002Y0044502D01*
X0274334Y0044502D01*
X0275002Y0044502D02*
X0275669Y0045169D01*
X0275669Y0045836D01*
X0275002Y0046503D01*
X0273667Y0046503D01*
X0273000Y0045836D01*
X0277604Y0044502D02*
X0280273Y0044502D01*
X0279606Y0046503D02*
X0279606Y0042500D01*
X0277604Y0044502D02*
X0279606Y0046503D01*
X0282800Y0046236D02*
X0282800Y0043567D01*
X0285469Y0046236D01*
X0285469Y0043567D01*
X0284802Y0042900D01*
X0283467Y0042900D01*
X0282800Y0043567D01*
X0282800Y0046236D02*
X0283467Y0046903D01*
X0284802Y0046903D01*
X0285469Y0046236D01*
X0287404Y0046903D02*
X0287404Y0044902D01*
X0288738Y0045569D01*
X0289406Y0045569D01*
X0290073Y0044902D01*
X0290073Y0043567D01*
X0289406Y0042900D01*
X0288071Y0042900D01*
X0287404Y0043567D01*
X0287404Y0046903D02*
X0290073Y0046903D01*
X0292800Y0046036D02*
X0292800Y0043367D01*
X0295469Y0046036D01*
X0295469Y0043367D01*
X0294802Y0042700D01*
X0293467Y0042700D01*
X0292800Y0043367D01*
X0292800Y0046036D02*
X0293467Y0046703D01*
X0294802Y0046703D01*
X0295469Y0046036D01*
X0297404Y0044702D02*
X0300073Y0044702D01*
X0299406Y0046703D02*
X0299406Y0042700D01*
X0297404Y0044702D02*
X0299406Y0046703D01*
X0302400Y0045769D02*
X0303734Y0047103D01*
X0303734Y0043100D01*
X0302400Y0043100D02*
X0305069Y0043100D01*
X0307004Y0043100D02*
X0309673Y0045769D01*
X0309673Y0046436D01*
X0309006Y0047103D01*
X0307671Y0047103D01*
X0307004Y0046436D01*
X0307004Y0043100D02*
X0309673Y0043100D01*
X0312600Y0043767D02*
X0312600Y0046436D01*
X0313267Y0047103D01*
X0314602Y0047103D01*
X0315269Y0046436D01*
X0312600Y0043767D01*
X0313267Y0043100D01*
X0314602Y0043100D01*
X0315269Y0043767D01*
X0315269Y0046436D01*
X0317204Y0046436D02*
X0317871Y0047103D01*
X0319206Y0047103D01*
X0319873Y0046436D01*
X0319873Y0045769D01*
X0319206Y0045102D01*
X0319873Y0044434D01*
X0319873Y0043767D01*
X0319206Y0043100D01*
X0317871Y0043100D01*
X0317204Y0043767D01*
X0318538Y0045102D02*
X0319206Y0045102D01*
X0322397Y0047144D02*
X0326400Y0049813D01*
X0322397Y0049813D01*
X0322397Y0047144D02*
X0326400Y0047144D01*
X0329897Y0043691D02*
X0333900Y0043691D01*
X0331898Y0043691D02*
X0331231Y0044358D01*
X0331231Y0045692D01*
X0331898Y0046360D01*
X0333900Y0046360D01*
X0333233Y0048295D02*
X0331231Y0048295D01*
X0333233Y0048295D02*
X0333900Y0048962D01*
X0333900Y0050964D01*
X0334567Y0050964D02*
X0335234Y0050296D01*
X0335234Y0049629D01*
X0334567Y0050964D02*
X0331231Y0050964D01*
X0331898Y0052899D02*
X0331231Y0053566D01*
X0331231Y0055568D01*
X0332566Y0054900D02*
X0332566Y0053566D01*
X0331898Y0052899D01*
X0333900Y0052899D02*
X0333900Y0054900D01*
X0333233Y0055568D01*
X0332566Y0054900D01*
X0333900Y0057503D02*
X0333900Y0058837D01*
X0333900Y0058170D02*
X0331231Y0058170D01*
X0331231Y0057503D01*
X0329897Y0058170D02*
X0329229Y0058170D01*
X0326400Y0058353D02*
X0325733Y0059021D01*
X0323731Y0059021D01*
X0323731Y0060955D02*
X0323731Y0062290D01*
X0323064Y0061623D02*
X0325733Y0061623D01*
X0326400Y0062290D01*
X0325733Y0064025D02*
X0326400Y0064692D01*
X0326400Y0066026D01*
X0325733Y0066694D01*
X0324398Y0066694D01*
X0323731Y0066026D01*
X0323731Y0064692D01*
X0324398Y0064025D01*
X0325733Y0064025D01*
X0331231Y0063241D02*
X0331231Y0061239D01*
X0331898Y0060572D01*
X0333233Y0060572D01*
X0333900Y0061239D01*
X0333900Y0063241D01*
X0333900Y0065176D02*
X0333900Y0067177D01*
X0333233Y0067845D01*
X0332566Y0067177D01*
X0332566Y0065843D01*
X0331898Y0065176D01*
X0331231Y0065843D01*
X0331231Y0067845D01*
X0326400Y0068629D02*
X0323731Y0068629D01*
X0323731Y0070630D01*
X0324398Y0071298D01*
X0326400Y0071298D01*
X0326400Y0073233D02*
X0326400Y0075234D01*
X0325733Y0075902D01*
X0325066Y0075234D01*
X0325066Y0073900D01*
X0324398Y0073233D01*
X0323731Y0073900D01*
X0323731Y0075902D01*
X0329897Y0074384D02*
X0333900Y0074384D01*
X0333900Y0077053D01*
X0333233Y0078988D02*
X0332566Y0079655D01*
X0332566Y0081656D01*
X0331898Y0081656D02*
X0333900Y0081656D01*
X0333900Y0079655D01*
X0333233Y0078988D01*
X0331231Y0079655D02*
X0331231Y0080989D01*
X0331898Y0081656D01*
X0331231Y0083591D02*
X0331231Y0085593D01*
X0331898Y0086260D01*
X0333233Y0086260D01*
X0333900Y0085593D01*
X0333900Y0083591D01*
X0329897Y0083591D01*
X0326400Y0082440D02*
X0323731Y0082440D01*
X0322397Y0083775D01*
X0323731Y0085109D01*
X0326400Y0085109D01*
X0324398Y0085109D02*
X0324398Y0082440D01*
X0323731Y0087044D02*
X0323731Y0088379D01*
X0323064Y0087712D02*
X0325733Y0087712D01*
X0326400Y0088379D01*
X0325733Y0090781D02*
X0323064Y0090781D01*
X0323731Y0090114D02*
X0323731Y0091448D01*
X0323731Y0093183D02*
X0323731Y0093850D01*
X0326400Y0093850D01*
X0326400Y0093183D02*
X0326400Y0094517D01*
X0325733Y0096252D02*
X0326400Y0096919D01*
X0326400Y0098921D01*
X0323731Y0098921D02*
X0323731Y0096919D01*
X0324398Y0096252D01*
X0325733Y0096252D01*
X0322397Y0093850D02*
X0321729Y0093850D01*
X0325733Y0090781D02*
X0326400Y0091448D01*
X0329897Y0092799D02*
X0332566Y0092799D01*
X0333900Y0094134D01*
X0332566Y0095468D01*
X0329897Y0095468D01*
X0331231Y0097403D02*
X0329897Y0098738D01*
X0333900Y0098738D01*
X0333900Y0100072D02*
X0333900Y0097403D01*
X0336729Y0095001D02*
X0337397Y0095001D01*
X0338731Y0095001D02*
X0341400Y0095001D01*
X0341400Y0094334D02*
X0341400Y0095668D01*
X0341400Y0097403D02*
X0338731Y0097403D01*
X0338731Y0099405D01*
X0339398Y0100072D01*
X0341400Y0100072D01*
X0340733Y0102007D02*
X0339398Y0102007D01*
X0338731Y0102674D01*
X0338731Y0104009D01*
X0339398Y0104676D01*
X0340066Y0104676D01*
X0340066Y0102007D01*
X0340733Y0102007D02*
X0341400Y0102674D01*
X0341400Y0104009D01*
X0340733Y0106611D02*
X0339398Y0106611D01*
X0338731Y0107278D01*
X0338731Y0108613D01*
X0339398Y0109280D01*
X0340066Y0109280D01*
X0340066Y0106611D01*
X0340733Y0106611D02*
X0341400Y0107278D01*
X0341400Y0108613D01*
X0341400Y0111215D02*
X0338731Y0111215D01*
X0338731Y0112549D02*
X0338731Y0113217D01*
X0338731Y0112549D02*
X0340066Y0111215D01*
X0341400Y0115052D02*
X0341400Y0116386D01*
X0341400Y0115719D02*
X0338731Y0115719D01*
X0338731Y0115052D01*
X0337397Y0115719D02*
X0336729Y0115719D01*
X0338731Y0118121D02*
X0338731Y0120123D01*
X0339398Y0120790D01*
X0341400Y0120790D01*
X0340733Y0122725D02*
X0339398Y0122725D01*
X0338731Y0123392D01*
X0338731Y0125394D01*
X0342067Y0125394D01*
X0342734Y0124726D01*
X0342734Y0124059D01*
X0341400Y0123392D02*
X0341400Y0125394D01*
X0341400Y0123392D02*
X0340733Y0122725D01*
X0341400Y0118121D02*
X0338731Y0118121D01*
X0333900Y0106978D02*
X0333900Y0104309D01*
X0331231Y0106978D01*
X0330564Y0106978D01*
X0329897Y0106311D01*
X0329897Y0104976D01*
X0330564Y0104309D01*
X0333233Y0102674D02*
X0333233Y0102007D01*
X0333900Y0102007D01*
X0333900Y0102674D01*
X0333233Y0102674D01*
X0338731Y0095001D02*
X0338731Y0094334D01*
X0338731Y0092399D02*
X0338731Y0090397D01*
X0339398Y0089730D01*
X0340733Y0089730D01*
X0341400Y0090397D01*
X0341400Y0092399D01*
X0342067Y0092399D02*
X0338731Y0092399D01*
X0342067Y0092399D02*
X0342734Y0091732D01*
X0342734Y0091064D01*
X0341400Y0087795D02*
X0339398Y0087795D01*
X0338731Y0087128D01*
X0338731Y0085126D01*
X0341400Y0085126D01*
X0341400Y0083191D02*
X0341400Y0080522D01*
X0337397Y0080522D01*
X0337397Y0083191D01*
X0339398Y0081857D02*
X0339398Y0080522D01*
X0338731Y0074083D02*
X0340066Y0072082D01*
X0341400Y0074083D01*
X0341400Y0072082D02*
X0337397Y0072082D01*
X0339398Y0070147D02*
X0340066Y0070147D01*
X0340066Y0067478D01*
X0340733Y0067478D02*
X0339398Y0067478D01*
X0338731Y0068145D01*
X0338731Y0069479D01*
X0339398Y0070147D01*
X0341400Y0069479D02*
X0341400Y0068145D01*
X0340733Y0067478D01*
X0340066Y0065543D02*
X0339398Y0065543D01*
X0338731Y0064875D01*
X0338731Y0063541D01*
X0339398Y0062874D01*
X0340733Y0062874D01*
X0341400Y0063541D01*
X0341400Y0064875D01*
X0340066Y0065543D02*
X0340066Y0062874D01*
X0338731Y0061039D02*
X0338731Y0060372D01*
X0340066Y0059037D01*
X0341400Y0059037D02*
X0338731Y0059037D01*
X0338064Y0057102D02*
X0337397Y0056435D01*
X0337397Y0055100D01*
X0338064Y0054433D01*
X0340733Y0054433D01*
X0341400Y0055100D01*
X0341400Y0056435D01*
X0340733Y0057102D01*
X0341400Y0047894D02*
X0339398Y0047894D01*
X0338731Y0047227D01*
X0338731Y0045225D01*
X0341400Y0045225D01*
X0338731Y0043390D02*
X0338731Y0042723D01*
X0340066Y0041389D01*
X0341400Y0041389D02*
X0338731Y0041389D01*
X0339398Y0039454D02*
X0338731Y0038787D01*
X0338731Y0037452D01*
X0339398Y0036785D01*
X0340733Y0036785D01*
X0341400Y0037452D01*
X0341400Y0038787D01*
X0340733Y0039454D01*
X0339398Y0039454D01*
X0333900Y0039087D02*
X0329897Y0039087D01*
X0329897Y0041089D01*
X0330564Y0041756D01*
X0331898Y0041756D01*
X0332566Y0041089D01*
X0332566Y0039087D01*
X0327200Y0036698D02*
X0327200Y0035363D01*
X0326533Y0034696D01*
X0325866Y0034696D01*
X0325198Y0035363D01*
X0325198Y0036698D01*
X0325866Y0037365D01*
X0326533Y0037365D01*
X0327200Y0036698D01*
X0325198Y0036698D02*
X0324531Y0037365D01*
X0323864Y0037365D01*
X0323197Y0036698D01*
X0323197Y0035363D01*
X0323864Y0034696D01*
X0324531Y0034696D01*
X0325198Y0035363D01*
X0324531Y0032761D02*
X0323864Y0032761D01*
X0323197Y0032094D01*
X0323197Y0030759D01*
X0323864Y0030092D01*
X0323197Y0028157D02*
X0323197Y0026823D01*
X0323197Y0027490D02*
X0326533Y0027490D01*
X0327200Y0026823D01*
X0327200Y0026155D01*
X0326533Y0025488D01*
X0327200Y0030092D02*
X0324531Y0032761D01*
X0327200Y0032761D02*
X0327200Y0030092D01*
X0337397Y0028344D02*
X0341400Y0028344D01*
X0340066Y0028344D02*
X0338731Y0030346D01*
X0339398Y0032181D02*
X0338731Y0032848D01*
X0338731Y0034183D01*
X0339398Y0034850D01*
X0341400Y0034850D01*
X0341400Y0032181D02*
X0337397Y0032181D01*
X0341400Y0030346D02*
X0340066Y0028344D01*
X0341400Y0026609D02*
X0341400Y0025275D01*
X0341400Y0025942D02*
X0337397Y0025942D01*
X0337397Y0025275D01*
X0337397Y0023340D02*
X0337397Y0020671D01*
X0341400Y0020671D01*
X0341400Y0023340D01*
X0339398Y0022006D02*
X0339398Y0020671D01*
X0310273Y0021003D02*
X0310273Y0018334D01*
X0308938Y0017000D01*
X0307604Y0018334D01*
X0307604Y0021003D01*
X0305669Y0020336D02*
X0303000Y0017667D01*
X0303667Y0017000D01*
X0305002Y0017000D01*
X0305669Y0017667D01*
X0305669Y0020336D01*
X0305002Y0021003D01*
X0303667Y0021003D01*
X0303000Y0020336D01*
X0303000Y0017667D01*
X0290073Y0017934D02*
X0290073Y0017267D01*
X0289406Y0016600D01*
X0288071Y0016600D01*
X0287404Y0017267D01*
X0287404Y0018602D01*
X0289406Y0018602D01*
X0290073Y0017934D01*
X0288738Y0019936D02*
X0287404Y0018602D01*
X0288738Y0019936D02*
X0290073Y0020603D01*
X0285469Y0019936D02*
X0285469Y0019269D01*
X0284802Y0018602D01*
X0285469Y0017934D01*
X0285469Y0017267D01*
X0284802Y0016600D01*
X0283467Y0016600D01*
X0282800Y0017267D01*
X0284134Y0018602D02*
X0284802Y0018602D01*
X0285469Y0019936D02*
X0284802Y0020603D01*
X0283467Y0020603D01*
X0282800Y0019936D01*
X0280073Y0019736D02*
X0280073Y0019069D01*
X0279406Y0018402D01*
X0280073Y0017734D01*
X0280073Y0017067D01*
X0279406Y0016400D01*
X0278071Y0016400D01*
X0277404Y0017067D01*
X0278738Y0018402D02*
X0279406Y0018402D01*
X0280073Y0019736D02*
X0279406Y0020403D01*
X0278071Y0020403D01*
X0277404Y0019736D01*
X0275469Y0019736D02*
X0274802Y0020403D01*
X0273467Y0020403D01*
X0272800Y0019736D01*
X0275469Y0019736D02*
X0275469Y0019069D01*
X0272800Y0016400D01*
X0275469Y0016400D01*
X0270073Y0016867D02*
X0270073Y0018202D01*
X0269406Y0018869D01*
X0268738Y0018869D01*
X0267404Y0018202D01*
X0267404Y0020203D01*
X0270073Y0020203D01*
X0265469Y0019536D02*
X0264802Y0020203D01*
X0263467Y0020203D01*
X0262800Y0019536D01*
X0265469Y0019536D02*
X0265469Y0018869D01*
X0262800Y0016200D01*
X0265469Y0016200D01*
X0267404Y0016867D02*
X0268071Y0016200D01*
X0269406Y0016200D01*
X0270073Y0016867D01*
X0259473Y0017734D02*
X0258138Y0016400D01*
X0256804Y0017734D01*
X0256804Y0020403D01*
X0254869Y0019736D02*
X0254202Y0020403D01*
X0252867Y0020403D01*
X0252200Y0019736D01*
X0252200Y0017067D01*
X0254869Y0019736D01*
X0254869Y0017067D01*
X0254202Y0016400D01*
X0252867Y0016400D01*
X0252200Y0017067D01*
X0249073Y0017934D02*
X0249073Y0020603D01*
X0249073Y0017934D02*
X0247738Y0016600D01*
X0246404Y0017934D01*
X0246404Y0020603D01*
X0244469Y0020603D02*
X0241800Y0020603D01*
X0241800Y0018602D01*
X0243134Y0019269D01*
X0243802Y0019269D01*
X0244469Y0018602D01*
X0244469Y0017267D01*
X0243802Y0016600D01*
X0242467Y0016600D01*
X0241800Y0017267D01*
X0259473Y0017734D02*
X0259473Y0020403D01*
X0263667Y0042700D02*
X0263000Y0043367D01*
X0263667Y0042700D02*
X0265002Y0042700D01*
X0265669Y0043367D01*
X0265669Y0044034D01*
X0265002Y0044702D01*
X0264334Y0044702D01*
X0265002Y0044702D02*
X0265669Y0045369D01*
X0265669Y0046036D01*
X0265002Y0046703D01*
X0263667Y0046703D01*
X0263000Y0046036D01*
X0260073Y0045769D02*
X0257404Y0043100D01*
X0260073Y0043100D01*
X0260073Y0045769D02*
X0260073Y0046436D01*
X0259406Y0047103D01*
X0258071Y0047103D01*
X0257404Y0046436D01*
X0255469Y0046436D02*
X0255469Y0043767D01*
X0254802Y0043100D01*
X0253467Y0043100D01*
X0252800Y0043767D01*
X0255469Y0046436D01*
X0254802Y0047103D01*
X0253467Y0047103D01*
X0252800Y0046436D01*
X0252800Y0043767D01*
X0249073Y0044434D02*
X0249073Y0047103D01*
X0249073Y0044434D02*
X0247738Y0043100D01*
X0246404Y0044434D01*
X0246404Y0047103D01*
X0244469Y0046436D02*
X0244469Y0045769D01*
X0243802Y0045102D01*
X0244469Y0044434D01*
X0244469Y0043767D01*
X0243802Y0043100D01*
X0242467Y0043100D01*
X0241800Y0043767D01*
X0243134Y0045102D02*
X0243802Y0045102D01*
X0244469Y0046436D02*
X0243802Y0047103D01*
X0242467Y0047103D01*
X0241800Y0046436D01*
X0206837Y0023551D02*
X0206837Y0021189D01*
X0198963Y0021189D01*
X0198963Y0023551D01*
X0206837Y0023551D01*
X0206837Y0021189D02*
X0206837Y0017252D01*
X0198963Y0017252D01*
X0198963Y0021189D01*
X0154300Y0019794D02*
X0154300Y0018459D01*
X0153633Y0017792D01*
X0152298Y0018459D02*
X0152298Y0019794D01*
X0152966Y0020461D01*
X0153633Y0020461D01*
X0154300Y0019794D01*
X0152298Y0018459D02*
X0151631Y0017792D01*
X0150964Y0017792D01*
X0150297Y0018459D01*
X0150297Y0019794D01*
X0150964Y0020461D01*
X0150964Y0022396D02*
X0150297Y0023063D01*
X0150297Y0024398D01*
X0150964Y0025065D01*
X0151631Y0025065D01*
X0152298Y0024398D01*
X0152966Y0025065D01*
X0153633Y0025065D01*
X0154300Y0024398D01*
X0154300Y0023063D01*
X0153633Y0022396D01*
X0152298Y0023731D02*
X0152298Y0024398D01*
X0139300Y0043300D02*
X0135297Y0043300D01*
X0135297Y0045302D01*
X0135964Y0045969D01*
X0137298Y0045969D01*
X0137966Y0045302D01*
X0137966Y0043300D01*
X0137966Y0044634D02*
X0139300Y0045969D01*
X0139300Y0047904D02*
X0139300Y0050573D01*
X0139300Y0049238D02*
X0135297Y0049238D01*
X0136631Y0047904D01*
X0137298Y0052508D02*
X0136631Y0053842D01*
X0136631Y0054510D01*
X0137298Y0055177D01*
X0138633Y0055177D01*
X0139300Y0054510D01*
X0139300Y0053175D01*
X0138633Y0052508D01*
X0137298Y0052508D02*
X0135297Y0052508D01*
X0135297Y0055177D01*
X0148297Y0052806D02*
X0150298Y0050804D01*
X0150298Y0053473D01*
X0148297Y0052806D02*
X0152300Y0052806D01*
X0151633Y0048869D02*
X0148964Y0048869D01*
X0148297Y0048202D01*
X0148297Y0046200D01*
X0152300Y0046200D01*
X0152300Y0048202D01*
X0151633Y0048869D01*
X0179233Y0077200D02*
X0179900Y0077867D01*
X0179900Y0078534D01*
X0179233Y0079202D01*
X0175897Y0079202D01*
X0175897Y0079869D02*
X0175897Y0078534D01*
X0175897Y0081804D02*
X0175897Y0083806D01*
X0176564Y0084473D01*
X0177898Y0084473D01*
X0178566Y0083806D01*
X0178566Y0081804D01*
X0179900Y0081804D02*
X0175897Y0081804D01*
X0175200Y0101200D02*
X0175200Y0105203D01*
X0177202Y0105203D01*
X0177869Y0104536D01*
X0177869Y0103202D01*
X0177202Y0102534D01*
X0175200Y0102534D01*
X0176534Y0102534D02*
X0177869Y0101200D01*
X0179804Y0101867D02*
X0179804Y0103202D01*
X0181806Y0103202D01*
X0182473Y0102534D01*
X0182473Y0101867D01*
X0181806Y0101200D01*
X0180471Y0101200D01*
X0179804Y0101867D01*
X0179804Y0103202D02*
X0181138Y0104536D01*
X0182473Y0105203D01*
X0165888Y0118477D02*
X0165221Y0117810D01*
X0163886Y0117810D01*
X0163219Y0118477D01*
X0164553Y0119812D02*
X0165221Y0119812D01*
X0165888Y0119145D01*
X0165888Y0118477D01*
X0165221Y0119812D02*
X0165888Y0120479D01*
X0165888Y0121146D01*
X0165221Y0121814D01*
X0163886Y0121814D01*
X0163219Y0121146D01*
X0159949Y0121814D02*
X0159949Y0117810D01*
X0158615Y0117810D02*
X0161284Y0117810D01*
X0158615Y0120479D02*
X0159949Y0121814D01*
X0156680Y0121146D02*
X0156680Y0119812D01*
X0156013Y0119145D01*
X0154011Y0119145D01*
X0155345Y0119145D02*
X0156680Y0117810D01*
X0154011Y0117810D02*
X0154011Y0121814D01*
X0156013Y0121814D01*
X0156680Y0121146D01*
X0156833Y0124992D02*
X0157500Y0125659D01*
X0157500Y0126994D01*
X0156833Y0127661D01*
X0155498Y0129596D02*
X0155498Y0132265D01*
X0153497Y0131598D02*
X0155498Y0129596D01*
X0154164Y0127661D02*
X0153497Y0126994D01*
X0153497Y0125659D01*
X0154164Y0124992D01*
X0156833Y0124992D01*
X0157500Y0131598D02*
X0153497Y0131598D01*
X0134000Y0118998D02*
X0129997Y0118998D01*
X0131998Y0116996D01*
X0131998Y0119665D01*
X0134000Y0115061D02*
X0134000Y0112392D01*
X0134000Y0113727D02*
X0129997Y0113727D01*
X0131331Y0112392D01*
X0130664Y0110457D02*
X0131998Y0110457D01*
X0132666Y0109790D01*
X0132666Y0107788D01*
X0134000Y0107788D02*
X0129997Y0107788D01*
X0129997Y0109790D01*
X0130664Y0110457D01*
X0132666Y0109123D02*
X0134000Y0110457D01*
X0143243Y0108887D02*
X0143243Y0106218D01*
X0143910Y0105551D01*
X0145244Y0105551D01*
X0145911Y0106218D01*
X0147846Y0106218D02*
X0148514Y0105551D01*
X0149848Y0105551D01*
X0150515Y0106218D01*
X0150515Y0106886D01*
X0149848Y0107553D01*
X0149181Y0107553D01*
X0149848Y0107553D02*
X0150515Y0108220D01*
X0150515Y0108887D01*
X0149848Y0109555D01*
X0148514Y0109555D01*
X0147846Y0108887D01*
X0145911Y0108887D02*
X0145244Y0109555D01*
X0143910Y0109555D01*
X0143243Y0108887D01*
X0119445Y0098731D02*
X0118777Y0099398D01*
X0117443Y0099398D01*
X0116776Y0098731D01*
X0119445Y0098731D02*
X0119445Y0098063D01*
X0116776Y0095394D01*
X0119445Y0095394D01*
X0114841Y0095394D02*
X0112172Y0095394D01*
X0112172Y0099398D01*
X0088465Y0099557D02*
X0085796Y0099557D01*
X0084461Y0098223D01*
X0085796Y0096888D01*
X0088465Y0096888D01*
X0086463Y0096888D02*
X0086463Y0099557D01*
X0084461Y0101492D02*
X0084461Y0104161D01*
X0084461Y0102827D02*
X0088465Y0102827D01*
X0088465Y0106096D02*
X0088465Y0108765D01*
X0088465Y0107431D02*
X0084461Y0107431D01*
X0085796Y0106096D01*
X0085796Y0094953D02*
X0086463Y0094286D01*
X0086463Y0092284D01*
X0088465Y0092284D02*
X0084461Y0092284D01*
X0084461Y0094286D01*
X0085128Y0094953D01*
X0085796Y0094953D01*
X0086463Y0094286D02*
X0087130Y0094953D01*
X0087797Y0094953D01*
X0088465Y0094286D01*
X0088465Y0092284D01*
X0110675Y0116529D02*
X0110675Y0118531D01*
X0111343Y0119198D01*
X0114012Y0119198D01*
X0114679Y0118531D01*
X0114679Y0116529D01*
X0110675Y0116529D01*
X0111343Y0121133D02*
X0110675Y0121800D01*
X0110675Y0123135D01*
X0111343Y0123802D01*
X0112010Y0123802D01*
X0114679Y0121133D01*
X0114679Y0123802D01*
X0123916Y0136952D02*
X0125251Y0136952D01*
X0125918Y0137619D01*
X0125918Y0140955D01*
X0127853Y0140955D02*
X0130522Y0140955D01*
X0130522Y0140288D01*
X0127853Y0137619D01*
X0127853Y0136952D01*
X0123916Y0136952D02*
X0123249Y0137619D01*
X0123249Y0140955D01*
X0135788Y0146900D02*
X0135788Y0150903D01*
X0137790Y0150903D01*
X0138457Y0150236D01*
X0138457Y0148902D01*
X0137790Y0148234D01*
X0135788Y0148234D01*
X0137123Y0148234D02*
X0138457Y0146900D01*
X0140392Y0146900D02*
X0143061Y0146900D01*
X0141727Y0146900D02*
X0141727Y0150903D01*
X0140392Y0149569D01*
X0144996Y0150236D02*
X0145663Y0150903D01*
X0146998Y0150903D01*
X0147665Y0150236D01*
X0147665Y0149569D01*
X0144996Y0146900D01*
X0147665Y0146900D01*
X0120845Y0153494D02*
X0118176Y0153494D01*
X0119510Y0153494D02*
X0119510Y0157498D01*
X0118176Y0156163D01*
X0116241Y0153494D02*
X0113572Y0153494D01*
X0113572Y0157498D01*
X0129897Y0169300D02*
X0129897Y0171302D01*
X0130564Y0171969D01*
X0131898Y0171969D01*
X0132566Y0171302D01*
X0132566Y0169300D01*
X0133900Y0169300D02*
X0129897Y0169300D01*
X0132566Y0170634D02*
X0133900Y0171969D01*
X0133233Y0173904D02*
X0133900Y0174571D01*
X0133900Y0175906D01*
X0133233Y0176573D01*
X0132566Y0176573D01*
X0131898Y0175906D01*
X0131898Y0175238D01*
X0131898Y0175906D02*
X0131231Y0176573D01*
X0130564Y0176573D01*
X0129897Y0175906D01*
X0129897Y0174571D01*
X0130564Y0173904D01*
X0144100Y0167536D02*
X0144100Y0164867D01*
X0144767Y0164200D01*
X0146102Y0164200D01*
X0146769Y0164867D01*
X0148704Y0164200D02*
X0151373Y0164200D01*
X0150038Y0164200D02*
X0150038Y0168203D01*
X0148704Y0166869D01*
X0146769Y0167536D02*
X0146102Y0168203D01*
X0144767Y0168203D01*
X0144100Y0167536D01*
X0156511Y0176110D02*
X0156511Y0180114D01*
X0158513Y0180114D01*
X0159180Y0179446D01*
X0159180Y0178112D01*
X0158513Y0177445D01*
X0156511Y0177445D01*
X0157845Y0177445D02*
X0159180Y0176110D01*
X0161115Y0176110D02*
X0163784Y0178779D01*
X0163784Y0179446D01*
X0163117Y0180114D01*
X0161782Y0180114D01*
X0161115Y0179446D01*
X0161602Y0184200D02*
X0160267Y0184200D01*
X0159600Y0184867D01*
X0160934Y0186202D02*
X0161602Y0186202D01*
X0162269Y0185534D01*
X0162269Y0184867D01*
X0161602Y0184200D01*
X0161602Y0186202D02*
X0162269Y0186869D01*
X0162269Y0187536D01*
X0161602Y0188203D01*
X0160267Y0188203D01*
X0159600Y0187536D01*
X0164204Y0188203D02*
X0164204Y0185534D01*
X0165538Y0184200D01*
X0166873Y0185534D01*
X0166873Y0188203D01*
X0168808Y0187536D02*
X0169475Y0188203D01*
X0170810Y0188203D01*
X0171477Y0187536D01*
X0171477Y0186869D01*
X0170810Y0186202D01*
X0171477Y0185534D01*
X0171477Y0184867D01*
X0170810Y0184200D01*
X0169475Y0184200D01*
X0168808Y0184867D01*
X0170142Y0186202D02*
X0170810Y0186202D01*
X0171410Y0194600D02*
X0169408Y0194600D01*
X0169408Y0198603D01*
X0171410Y0198603D01*
X0172077Y0197936D01*
X0172077Y0195267D01*
X0171410Y0194600D01*
X0167473Y0194600D02*
X0167473Y0198603D01*
X0164804Y0198603D02*
X0164804Y0194600D01*
X0162869Y0195267D02*
X0162869Y0196602D01*
X0161534Y0196602D01*
X0160200Y0197936D02*
X0160200Y0195267D01*
X0160867Y0194600D01*
X0162202Y0194600D01*
X0162869Y0195267D01*
X0162869Y0197936D02*
X0162202Y0198603D01*
X0160867Y0198603D01*
X0160200Y0197936D01*
X0164804Y0198603D02*
X0167473Y0194600D01*
X0155273Y0194600D02*
X0152604Y0194600D01*
X0155273Y0197269D01*
X0155273Y0197936D01*
X0154606Y0198603D01*
X0153271Y0198603D01*
X0152604Y0197936D01*
X0150669Y0197936D02*
X0150002Y0198603D01*
X0148667Y0198603D01*
X0148000Y0197936D01*
X0148000Y0195267D01*
X0148667Y0194600D01*
X0150002Y0194600D01*
X0150669Y0195267D01*
X0141065Y0205700D02*
X0138396Y0205700D01*
X0139731Y0205700D02*
X0139731Y0209703D01*
X0138396Y0208369D01*
X0136461Y0209036D02*
X0135794Y0209703D01*
X0133792Y0209703D01*
X0133792Y0205700D01*
X0133792Y0207034D02*
X0135794Y0207034D01*
X0136461Y0207702D01*
X0136461Y0209036D01*
X0135127Y0207034D02*
X0136461Y0205700D01*
X0130222Y0199255D02*
X0128888Y0198588D01*
X0127553Y0197254D01*
X0129555Y0197254D01*
X0130222Y0196586D01*
X0130222Y0195919D01*
X0129555Y0195252D01*
X0128220Y0195252D01*
X0127553Y0195919D01*
X0127553Y0197254D01*
X0125618Y0195919D02*
X0125618Y0199255D01*
X0122949Y0199255D02*
X0122949Y0195919D01*
X0123616Y0195252D01*
X0124951Y0195252D01*
X0125618Y0195919D01*
X0115379Y0185702D02*
X0115379Y0183033D01*
X0115379Y0184368D02*
X0111375Y0184368D01*
X0112710Y0183033D01*
X0112043Y0181098D02*
X0111375Y0180431D01*
X0111375Y0178429D01*
X0115379Y0178429D01*
X0115379Y0180431D01*
X0114712Y0181098D01*
X0112043Y0181098D01*
X0161115Y0176110D02*
X0163784Y0176110D01*
X0192067Y0204300D02*
X0193402Y0204300D01*
X0194069Y0204967D01*
X0196004Y0204300D02*
X0198673Y0204300D01*
X0197338Y0204300D02*
X0197338Y0208303D01*
X0196004Y0206969D01*
X0194069Y0207636D02*
X0193402Y0208303D01*
X0192067Y0208303D01*
X0191400Y0207636D01*
X0191400Y0204967D01*
X0192067Y0204300D01*
X0200608Y0204967D02*
X0201275Y0204300D01*
X0202610Y0204300D01*
X0203277Y0204967D01*
X0203277Y0206302D01*
X0202610Y0206969D01*
X0201942Y0206969D01*
X0200608Y0206302D01*
X0200608Y0208303D01*
X0203277Y0208303D01*
X0188900Y0218655D02*
X0188900Y0219323D01*
X0188233Y0219990D01*
X0184897Y0219990D01*
X0184897Y0219323D02*
X0184897Y0220657D01*
X0184897Y0222592D02*
X0184897Y0224594D01*
X0185564Y0225261D01*
X0186898Y0225261D01*
X0187566Y0224594D01*
X0187566Y0222592D01*
X0188900Y0222592D02*
X0184897Y0222592D01*
X0186231Y0227196D02*
X0184897Y0228531D01*
X0188900Y0228531D01*
X0188900Y0229865D02*
X0188900Y0227196D01*
X0188900Y0218655D02*
X0188233Y0217988D01*
X0171681Y0218203D02*
X0169012Y0215534D01*
X0169679Y0216202D02*
X0171681Y0214200D01*
X0169012Y0214200D02*
X0169012Y0218203D01*
X0164408Y0218203D02*
X0164408Y0214200D01*
X0167077Y0214200D01*
X0162473Y0214867D02*
X0161806Y0214200D01*
X0160471Y0214200D01*
X0159804Y0214867D01*
X0159804Y0217536D01*
X0160471Y0218203D01*
X0161806Y0218203D01*
X0162473Y0217536D01*
X0157869Y0217536D02*
X0157202Y0218203D01*
X0155867Y0218203D01*
X0155200Y0217536D01*
X0155200Y0216869D01*
X0155867Y0216202D01*
X0157202Y0216202D01*
X0157869Y0215534D01*
X0157869Y0214867D01*
X0157202Y0214200D01*
X0155867Y0214200D01*
X0155200Y0214867D01*
X0156267Y0224000D02*
X0155600Y0224667D01*
X0156267Y0224000D02*
X0157602Y0224000D01*
X0158269Y0224667D01*
X0158269Y0225334D01*
X0157602Y0226002D01*
X0156267Y0226002D01*
X0155600Y0226669D01*
X0155600Y0227336D01*
X0156267Y0228003D01*
X0157602Y0228003D01*
X0158269Y0227336D01*
X0160204Y0228003D02*
X0162206Y0228003D01*
X0162873Y0227336D01*
X0162873Y0224667D01*
X0162206Y0224000D01*
X0160204Y0224000D01*
X0160204Y0228003D01*
X0164808Y0226669D02*
X0166142Y0228003D01*
X0167477Y0226669D01*
X0167477Y0224000D01*
X0167477Y0226002D02*
X0164808Y0226002D01*
X0164808Y0226669D02*
X0164808Y0224000D01*
X0170746Y0224000D02*
X0170746Y0228003D01*
X0169412Y0228003D02*
X0172081Y0228003D01*
X0208568Y0228755D02*
X0209235Y0228088D01*
X0210569Y0228088D01*
X0211237Y0228755D01*
X0211237Y0232092D01*
X0213172Y0231424D02*
X0213839Y0232092D01*
X0215173Y0232092D01*
X0215841Y0231424D01*
X0215841Y0230757D01*
X0215173Y0230090D01*
X0215841Y0229423D01*
X0215841Y0228755D01*
X0215173Y0228088D01*
X0213839Y0228088D01*
X0213172Y0228755D01*
X0214506Y0230090D02*
X0215173Y0230090D01*
X0208568Y0228755D02*
X0208568Y0232092D01*
X0265126Y0226777D02*
X0265126Y0223441D01*
X0265793Y0222774D01*
X0267128Y0222774D01*
X0267795Y0223441D01*
X0267795Y0226777D01*
X0269730Y0226110D02*
X0270397Y0226777D01*
X0271732Y0226777D01*
X0272399Y0226110D01*
X0272399Y0225443D01*
X0269730Y0222774D01*
X0272399Y0222774D01*
X0288897Y0221990D02*
X0288897Y0220655D01*
X0289564Y0219988D01*
X0292233Y0219988D01*
X0292900Y0220655D01*
X0292900Y0221990D01*
X0292233Y0222657D01*
X0292900Y0224592D02*
X0292900Y0227261D01*
X0292900Y0225927D02*
X0288897Y0225927D01*
X0290231Y0224592D01*
X0289564Y0222657D02*
X0288897Y0221990D01*
X0289564Y0229196D02*
X0288897Y0229863D01*
X0288897Y0231198D01*
X0289564Y0231865D01*
X0292233Y0229196D01*
X0292900Y0229863D01*
X0292900Y0231198D01*
X0292233Y0231865D01*
X0289564Y0231865D01*
X0289564Y0229196D02*
X0292233Y0229196D01*
X0302600Y0216503D02*
X0304602Y0216503D01*
X0305269Y0215836D01*
X0305269Y0214502D01*
X0304602Y0213834D01*
X0302600Y0213834D01*
X0302600Y0212500D02*
X0302600Y0216503D01*
X0303934Y0213834D02*
X0305269Y0212500D01*
X0307204Y0213167D02*
X0307871Y0212500D01*
X0309206Y0212500D01*
X0309873Y0213167D01*
X0309873Y0214502D01*
X0309206Y0215169D01*
X0308538Y0215169D01*
X0307204Y0214502D01*
X0307204Y0216503D01*
X0309873Y0216503D01*
X0309006Y0206803D02*
X0307004Y0204802D01*
X0309673Y0204802D01*
X0309006Y0206803D02*
X0309006Y0202800D01*
X0305069Y0202800D02*
X0303734Y0204134D01*
X0304402Y0204134D02*
X0302400Y0204134D01*
X0302400Y0202800D02*
X0302400Y0206803D01*
X0304402Y0206803D01*
X0305069Y0206136D01*
X0305069Y0204802D01*
X0304402Y0204134D01*
X0362185Y0206200D02*
X0364854Y0206200D01*
X0362185Y0208869D01*
X0362185Y0209536D01*
X0362852Y0210203D01*
X0364187Y0210203D01*
X0364854Y0209536D01*
X0366789Y0209536D02*
X0366789Y0208869D01*
X0367456Y0208202D01*
X0369458Y0208202D01*
X0369458Y0210203D02*
X0367456Y0210203D01*
X0366789Y0209536D01*
X0367456Y0208202D02*
X0366789Y0207534D01*
X0366789Y0206867D01*
X0367456Y0206200D01*
X0369458Y0206200D01*
X0369458Y0210203D01*
X0317100Y0162777D02*
X0317100Y0160108D01*
X0317100Y0161442D02*
X0313097Y0161442D01*
X0314431Y0160108D01*
X0317100Y0158173D02*
X0317100Y0155504D01*
X0317100Y0156838D02*
X0313097Y0156838D01*
X0314431Y0155504D01*
X0313764Y0153569D02*
X0315098Y0153569D01*
X0315766Y0152902D01*
X0315766Y0150900D01*
X0317100Y0150900D02*
X0313097Y0150900D01*
X0313097Y0152902D01*
X0313764Y0153569D01*
X0315766Y0152234D02*
X0317100Y0153569D01*
X0317933Y0129165D02*
X0318600Y0128498D01*
X0318600Y0127163D01*
X0317933Y0126496D01*
X0315264Y0129165D01*
X0317933Y0129165D01*
X0317933Y0126496D02*
X0315264Y0126496D01*
X0314597Y0127163D01*
X0314597Y0128498D01*
X0315264Y0129165D01*
X0318600Y0124561D02*
X0318600Y0121892D01*
X0318600Y0123227D02*
X0314597Y0123227D01*
X0315931Y0121892D01*
X0315264Y0119957D02*
X0316598Y0119957D01*
X0317266Y0119290D01*
X0317266Y0117288D01*
X0318600Y0117288D02*
X0314597Y0117288D01*
X0314597Y0119290D01*
X0315264Y0119957D01*
X0317266Y0118623D02*
X0318600Y0119957D01*
X0361935Y0130600D02*
X0364604Y0130600D01*
X0363269Y0130600D02*
X0363269Y0134603D01*
X0364604Y0133269D01*
X0366539Y0133269D02*
X0367206Y0132602D01*
X0369208Y0132602D01*
X0369208Y0134603D02*
X0367206Y0134603D01*
X0366539Y0133936D01*
X0366539Y0133269D01*
X0367206Y0132602D02*
X0366539Y0131934D01*
X0366539Y0131267D01*
X0367206Y0130600D01*
X0369208Y0130600D01*
X0369208Y0134603D01*
X0316933Y0069465D02*
X0314264Y0069465D01*
X0313597Y0068798D01*
X0313597Y0067463D01*
X0314264Y0066796D01*
X0314931Y0066796D01*
X0315598Y0067463D01*
X0315598Y0069465D01*
X0316933Y0069465D02*
X0317600Y0068798D01*
X0317600Y0067463D01*
X0316933Y0066796D01*
X0317600Y0064861D02*
X0316266Y0063527D01*
X0316266Y0064194D02*
X0316266Y0062192D01*
X0317600Y0062192D02*
X0313597Y0062192D01*
X0313597Y0064194D01*
X0314264Y0064861D01*
X0315598Y0064861D01*
X0316266Y0064194D01*
X0325733Y0057686D02*
X0326400Y0058353D01*
X0325733Y0057686D02*
X0326400Y0057019D01*
X0325733Y0056352D01*
X0323731Y0056352D01*
X0324398Y0054417D02*
X0325066Y0054417D01*
X0325066Y0051748D01*
X0325733Y0051748D02*
X0324398Y0051748D01*
X0323731Y0052415D01*
X0323731Y0053749D01*
X0324398Y0054417D01*
X0326400Y0053749D02*
X0326400Y0052415D01*
X0325733Y0051748D01*
X0359527Y0043586D02*
X0359527Y0040917D01*
X0360194Y0040250D01*
X0361529Y0040250D01*
X0362196Y0040917D01*
X0359527Y0043586D01*
X0360194Y0044253D01*
X0361529Y0044253D01*
X0362196Y0043586D01*
X0362196Y0040917D01*
X0364131Y0040917D02*
X0364798Y0040250D01*
X0366800Y0040250D01*
X0366800Y0044253D01*
X0364798Y0044253D01*
X0364131Y0043586D01*
X0364131Y0042919D01*
X0364798Y0042252D01*
X0366800Y0042252D01*
X0364798Y0042252D02*
X0364131Y0041584D01*
X0364131Y0040917D01*
X0246900Y0093063D02*
X0246900Y0094398D01*
X0246233Y0095065D01*
X0242897Y0095065D01*
X0242897Y0092396D02*
X0246233Y0092396D01*
X0246900Y0093063D01*
X0244898Y0097000D02*
X0244898Y0099669D01*
X0242897Y0099002D02*
X0246900Y0099002D01*
X0244898Y0097000D02*
X0242897Y0099002D01*
X0228073Y0089136D02*
X0228073Y0088469D01*
X0227406Y0087802D01*
X0226071Y0087802D01*
X0225404Y0088469D01*
X0225404Y0089136D01*
X0226071Y0089803D01*
X0227406Y0089803D01*
X0228073Y0089136D01*
X0227406Y0087802D02*
X0228073Y0087134D01*
X0228073Y0086467D01*
X0227406Y0085800D01*
X0226071Y0085800D01*
X0225404Y0086467D01*
X0225404Y0087134D01*
X0226071Y0087802D01*
X0223469Y0087802D02*
X0222802Y0087134D01*
X0220800Y0087134D01*
X0220800Y0085800D02*
X0220800Y0089803D01*
X0222802Y0089803D01*
X0223469Y0089136D01*
X0223469Y0087802D01*
X0222134Y0087134D02*
X0223469Y0085800D01*
X0226064Y0110400D02*
X0228733Y0110400D01*
X0229400Y0111067D01*
X0229400Y0112402D01*
X0228733Y0113069D01*
X0228733Y0115004D02*
X0229400Y0115671D01*
X0229400Y0117006D01*
X0228733Y0117673D01*
X0226064Y0117673D01*
X0225397Y0117006D01*
X0225397Y0115671D01*
X0226064Y0115004D01*
X0226731Y0115004D01*
X0227398Y0115671D01*
X0227398Y0117673D01*
X0226064Y0113069D02*
X0225397Y0112402D01*
X0225397Y0111067D01*
X0226064Y0110400D01*
X0247497Y0110867D02*
X0248164Y0110200D01*
X0250833Y0110200D01*
X0251500Y0110867D01*
X0251500Y0112202D01*
X0250833Y0112869D01*
X0250833Y0114804D02*
X0250166Y0114804D01*
X0249498Y0115471D01*
X0249498Y0116806D01*
X0250166Y0117473D01*
X0250833Y0117473D01*
X0251500Y0116806D01*
X0251500Y0115471D01*
X0250833Y0114804D01*
X0249498Y0115471D02*
X0248831Y0114804D01*
X0248164Y0114804D01*
X0247497Y0115471D01*
X0247497Y0116806D01*
X0248164Y0117473D01*
X0248831Y0117473D01*
X0249498Y0116806D01*
X0248164Y0112869D02*
X0247497Y0112202D01*
X0247497Y0110867D01*
X0246296Y0155300D02*
X0246296Y0155967D01*
X0248965Y0158636D01*
X0248965Y0159303D01*
X0246296Y0159303D01*
X0243027Y0159303D02*
X0243027Y0155300D01*
X0244361Y0155300D02*
X0241692Y0155300D01*
X0239757Y0155967D02*
X0239757Y0159303D01*
X0241692Y0157969D02*
X0243027Y0159303D01*
X0239757Y0155967D02*
X0239090Y0155300D01*
X0237755Y0155300D01*
X0237088Y0155967D01*
X0237088Y0159303D01*
D11*
X0293500Y0020000D02*
X0300700Y0017200D01*
X0293500Y0017200D01*
X0293500Y0020000D01*
X0293500Y0019196D02*
X0295569Y0019196D01*
X0293500Y0017597D02*
X0299679Y0017597D01*
X0313500Y0019400D02*
X0320700Y0016600D01*
X0320700Y0019400D01*
X0313500Y0019400D01*
X0314026Y0019196D02*
X0320700Y0019196D01*
X0320700Y0017597D02*
X0318136Y0017597D01*
D12*
X0050765Y0010461D02*
X0044627Y0010461D01*
X0047696Y0007392D02*
X0047696Y0013531D01*
X0115400Y0038500D02*
X0117900Y0036000D01*
X0122900Y0036000D01*
X0125400Y0038500D01*
X0125400Y0043500D01*
X0122900Y0046000D01*
X0125400Y0048500D01*
X0125400Y0053500D01*
X0122900Y0056000D01*
X0117900Y0056000D01*
X0115400Y0053500D01*
X0115400Y0048500D01*
X0117900Y0046000D01*
X0115400Y0043500D01*
X0115400Y0038500D01*
X0128483Y0028790D02*
X0130452Y0028790D01*
X0128483Y0028790D02*
X0128483Y0015010D01*
X0163917Y0015010D01*
X0163917Y0028790D01*
X0161948Y0028790D01*
X0146859Y0044357D02*
X0146859Y0045931D01*
X0141741Y0045931D01*
X0141741Y0051443D01*
X0146859Y0051443D02*
X0146859Y0045931D01*
X0141741Y0045931D02*
X0141741Y0044357D01*
X0146541Y0061957D02*
X0146541Y0067469D01*
X0151659Y0067469D01*
X0151659Y0061957D01*
X0151659Y0067469D02*
X0151659Y0069043D01*
X0146541Y0069043D02*
X0146541Y0067469D01*
X0137000Y0068037D02*
X0137000Y0080163D01*
X0132000Y0084100D02*
X0122118Y0084100D01*
X0117000Y0080163D02*
X0117000Y0068037D01*
X0122118Y0064100D02*
X0131882Y0064100D01*
X0122000Y0074100D02*
X0122002Y0074241D01*
X0122008Y0074382D01*
X0122018Y0074522D01*
X0122032Y0074662D01*
X0122050Y0074802D01*
X0122071Y0074941D01*
X0122097Y0075080D01*
X0122126Y0075218D01*
X0122160Y0075354D01*
X0122197Y0075490D01*
X0122238Y0075625D01*
X0122283Y0075759D01*
X0122332Y0075891D01*
X0122384Y0076022D01*
X0122440Y0076151D01*
X0122500Y0076278D01*
X0122563Y0076404D01*
X0122629Y0076528D01*
X0122700Y0076651D01*
X0122773Y0076771D01*
X0122850Y0076889D01*
X0122930Y0077005D01*
X0123014Y0077118D01*
X0123100Y0077229D01*
X0123190Y0077338D01*
X0123283Y0077444D01*
X0123378Y0077547D01*
X0123477Y0077648D01*
X0123578Y0077746D01*
X0123682Y0077841D01*
X0123789Y0077933D01*
X0123898Y0078022D01*
X0124010Y0078107D01*
X0124124Y0078190D01*
X0124240Y0078270D01*
X0124359Y0078346D01*
X0124480Y0078418D01*
X0124602Y0078488D01*
X0124727Y0078553D01*
X0124853Y0078616D01*
X0124981Y0078674D01*
X0125111Y0078729D01*
X0125242Y0078781D01*
X0125375Y0078828D01*
X0125509Y0078872D01*
X0125644Y0078913D01*
X0125780Y0078949D01*
X0125917Y0078981D01*
X0126055Y0079010D01*
X0126193Y0079035D01*
X0126333Y0079055D01*
X0126473Y0079072D01*
X0126613Y0079085D01*
X0126754Y0079094D01*
X0126894Y0079099D01*
X0127035Y0079100D01*
X0127176Y0079097D01*
X0127317Y0079090D01*
X0127457Y0079079D01*
X0127597Y0079064D01*
X0127737Y0079045D01*
X0127876Y0079023D01*
X0128014Y0078996D01*
X0128152Y0078966D01*
X0128288Y0078931D01*
X0128424Y0078893D01*
X0128558Y0078851D01*
X0128692Y0078805D01*
X0128824Y0078756D01*
X0128954Y0078702D01*
X0129083Y0078645D01*
X0129210Y0078585D01*
X0129336Y0078521D01*
X0129459Y0078453D01*
X0129581Y0078382D01*
X0129701Y0078308D01*
X0129818Y0078230D01*
X0129933Y0078149D01*
X0130046Y0078065D01*
X0130157Y0077978D01*
X0130265Y0077887D01*
X0130370Y0077794D01*
X0130473Y0077697D01*
X0130573Y0077598D01*
X0130670Y0077496D01*
X0130764Y0077391D01*
X0130855Y0077284D01*
X0130943Y0077174D01*
X0131028Y0077062D01*
X0131110Y0076947D01*
X0131189Y0076830D01*
X0131264Y0076711D01*
X0131336Y0076590D01*
X0131404Y0076467D01*
X0131469Y0076342D01*
X0131531Y0076215D01*
X0131588Y0076086D01*
X0131643Y0075956D01*
X0131693Y0075825D01*
X0131740Y0075692D01*
X0131783Y0075558D01*
X0131822Y0075422D01*
X0131857Y0075286D01*
X0131889Y0075149D01*
X0131916Y0075011D01*
X0131940Y0074872D01*
X0131960Y0074732D01*
X0131976Y0074592D01*
X0131988Y0074452D01*
X0131996Y0074311D01*
X0132000Y0074170D01*
X0132000Y0074030D01*
X0131996Y0073889D01*
X0131988Y0073748D01*
X0131976Y0073608D01*
X0131960Y0073468D01*
X0131940Y0073328D01*
X0131916Y0073189D01*
X0131889Y0073051D01*
X0131857Y0072914D01*
X0131822Y0072778D01*
X0131783Y0072642D01*
X0131740Y0072508D01*
X0131693Y0072375D01*
X0131643Y0072244D01*
X0131588Y0072114D01*
X0131531Y0071985D01*
X0131469Y0071858D01*
X0131404Y0071733D01*
X0131336Y0071610D01*
X0131264Y0071489D01*
X0131189Y0071370D01*
X0131110Y0071253D01*
X0131028Y0071138D01*
X0130943Y0071026D01*
X0130855Y0070916D01*
X0130764Y0070809D01*
X0130670Y0070704D01*
X0130573Y0070602D01*
X0130473Y0070503D01*
X0130370Y0070406D01*
X0130265Y0070313D01*
X0130157Y0070222D01*
X0130046Y0070135D01*
X0129933Y0070051D01*
X0129818Y0069970D01*
X0129701Y0069892D01*
X0129581Y0069818D01*
X0129459Y0069747D01*
X0129336Y0069679D01*
X0129210Y0069615D01*
X0129083Y0069555D01*
X0128954Y0069498D01*
X0128824Y0069444D01*
X0128692Y0069395D01*
X0128558Y0069349D01*
X0128424Y0069307D01*
X0128288Y0069269D01*
X0128152Y0069234D01*
X0128014Y0069204D01*
X0127876Y0069177D01*
X0127737Y0069155D01*
X0127597Y0069136D01*
X0127457Y0069121D01*
X0127317Y0069110D01*
X0127176Y0069103D01*
X0127035Y0069100D01*
X0126894Y0069101D01*
X0126754Y0069106D01*
X0126613Y0069115D01*
X0126473Y0069128D01*
X0126333Y0069145D01*
X0126193Y0069165D01*
X0126055Y0069190D01*
X0125917Y0069219D01*
X0125780Y0069251D01*
X0125644Y0069287D01*
X0125509Y0069328D01*
X0125375Y0069372D01*
X0125242Y0069419D01*
X0125111Y0069471D01*
X0124981Y0069526D01*
X0124853Y0069584D01*
X0124727Y0069647D01*
X0124602Y0069712D01*
X0124480Y0069782D01*
X0124359Y0069854D01*
X0124240Y0069930D01*
X0124124Y0070010D01*
X0124010Y0070093D01*
X0123898Y0070178D01*
X0123789Y0070267D01*
X0123682Y0070359D01*
X0123578Y0070454D01*
X0123477Y0070552D01*
X0123378Y0070653D01*
X0123283Y0070756D01*
X0123190Y0070862D01*
X0123100Y0070971D01*
X0123014Y0071082D01*
X0122930Y0071195D01*
X0122850Y0071311D01*
X0122773Y0071429D01*
X0122700Y0071549D01*
X0122629Y0071672D01*
X0122563Y0071796D01*
X0122500Y0071922D01*
X0122440Y0072049D01*
X0122384Y0072178D01*
X0122332Y0072309D01*
X0122283Y0072441D01*
X0122238Y0072575D01*
X0122197Y0072710D01*
X0122160Y0072846D01*
X0122126Y0072982D01*
X0122097Y0073120D01*
X0122071Y0073259D01*
X0122050Y0073398D01*
X0122032Y0073538D01*
X0122018Y0073678D01*
X0122008Y0073818D01*
X0122002Y0073959D01*
X0122000Y0074100D01*
X0121978Y0098830D02*
X0119924Y0100695D01*
X0121978Y0098829D02*
X0122071Y0098746D01*
X0122166Y0098666D01*
X0122265Y0098588D01*
X0122365Y0098514D01*
X0122468Y0098444D01*
X0122573Y0098376D01*
X0122680Y0098312D01*
X0122789Y0098251D01*
X0122900Y0098194D01*
X0123013Y0098141D01*
X0123128Y0098090D01*
X0123243Y0098044D01*
X0123361Y0098001D01*
X0123479Y0097962D01*
X0123599Y0097927D01*
X0123720Y0097896D01*
X0123842Y0097868D01*
X0123965Y0097845D01*
X0124088Y0097825D01*
X0124212Y0097809D01*
X0124336Y0097797D01*
X0124461Y0097789D01*
X0124586Y0097785D01*
X0124710Y0097785D01*
X0124835Y0097789D01*
X0124960Y0097797D01*
X0125084Y0097809D01*
X0125208Y0097825D01*
X0125331Y0097845D01*
X0125454Y0097868D01*
X0125576Y0097896D01*
X0125697Y0097927D01*
X0125817Y0097962D01*
X0125935Y0098001D01*
X0126053Y0098044D01*
X0126168Y0098090D01*
X0126283Y0098141D01*
X0126396Y0098194D01*
X0126507Y0098251D01*
X0126616Y0098312D01*
X0126723Y0098376D01*
X0126828Y0098444D01*
X0126931Y0098514D01*
X0127031Y0098588D01*
X0127130Y0098666D01*
X0127225Y0098746D01*
X0127318Y0098829D01*
X0127319Y0098830D02*
X0129372Y0100695D01*
X0137549Y0103443D02*
X0141549Y0103443D01*
X0140900Y0111800D02*
X0140900Y0115800D01*
X0128779Y0112629D02*
X0127979Y0112629D01*
X0128779Y0112629D02*
X0128779Y0132629D01*
X0127979Y0132629D01*
X0131399Y0131343D02*
X0131772Y0131343D01*
X0131399Y0131343D02*
X0131399Y0124961D01*
X0131772Y0124961D01*
X0135431Y0126242D02*
X0135431Y0126983D01*
X0139368Y0126983D01*
X0139368Y0126202D01*
X0143026Y0124961D02*
X0143399Y0124961D01*
X0143399Y0131343D01*
X0143026Y0131343D01*
X0137500Y0140700D02*
X0137500Y0144700D01*
X0127919Y0157230D02*
X0129972Y0159095D01*
X0127918Y0157229D02*
X0127825Y0157146D01*
X0127730Y0157066D01*
X0127631Y0156988D01*
X0127531Y0156914D01*
X0127428Y0156844D01*
X0127323Y0156776D01*
X0127216Y0156712D01*
X0127107Y0156651D01*
X0126996Y0156594D01*
X0126883Y0156541D01*
X0126768Y0156490D01*
X0126653Y0156444D01*
X0126535Y0156401D01*
X0126417Y0156362D01*
X0126297Y0156327D01*
X0126176Y0156296D01*
X0126054Y0156268D01*
X0125931Y0156245D01*
X0125808Y0156225D01*
X0125684Y0156209D01*
X0125560Y0156197D01*
X0125435Y0156189D01*
X0125310Y0156185D01*
X0125186Y0156185D01*
X0125061Y0156189D01*
X0124936Y0156197D01*
X0124812Y0156209D01*
X0124688Y0156225D01*
X0124565Y0156245D01*
X0124442Y0156268D01*
X0124320Y0156296D01*
X0124199Y0156327D01*
X0124079Y0156362D01*
X0123961Y0156401D01*
X0123843Y0156444D01*
X0123728Y0156490D01*
X0123613Y0156541D01*
X0123500Y0156594D01*
X0123389Y0156651D01*
X0123280Y0156712D01*
X0123173Y0156776D01*
X0123068Y0156844D01*
X0122965Y0156914D01*
X0122865Y0156988D01*
X0122766Y0157066D01*
X0122671Y0157146D01*
X0122578Y0157229D01*
X0122578Y0157230D02*
X0120524Y0159095D01*
X0120524Y0166182D02*
X0122886Y0168544D01*
X0127610Y0168544D01*
X0129972Y0166182D01*
X0129079Y0171329D02*
X0128279Y0171329D01*
X0129079Y0171329D02*
X0129079Y0191329D01*
X0128279Y0191329D01*
X0131699Y0190043D02*
X0132072Y0190043D01*
X0131699Y0190043D02*
X0131699Y0183661D01*
X0132072Y0183661D01*
X0135731Y0184942D02*
X0135731Y0185683D01*
X0139668Y0185683D01*
X0139668Y0184902D01*
X0143326Y0183661D02*
X0143699Y0183661D01*
X0143699Y0190043D01*
X0143326Y0190043D01*
X0137800Y0199200D02*
X0137800Y0203200D01*
X0118679Y0191329D02*
X0117879Y0191329D01*
X0117879Y0170929D01*
X0118679Y0170929D01*
X0119479Y0178129D02*
X0127479Y0178129D01*
X0123079Y0183729D01*
X0123479Y0183729D01*
X0119479Y0178129D01*
X0119479Y0183729D02*
X0123079Y0183729D01*
X0123479Y0183729D02*
X0127479Y0183729D01*
X0141200Y0174500D02*
X0141200Y0170500D01*
X0153211Y0170510D02*
X0153211Y0174510D01*
X0208144Y0213794D02*
X0213656Y0213794D01*
X0216806Y0225606D02*
X0204994Y0225606D01*
X0273000Y0188400D02*
X0278000Y0190900D01*
X0278000Y0185900D01*
X0273000Y0188400D01*
X0273151Y0188475D02*
X0278000Y0188475D01*
X0278000Y0187677D02*
X0274446Y0187677D01*
X0274748Y0189274D02*
X0278000Y0189274D01*
X0278000Y0190072D02*
X0276345Y0190072D01*
X0277942Y0190871D02*
X0278000Y0190871D01*
X0278000Y0186878D02*
X0276043Y0186878D01*
X0277640Y0186080D02*
X0278000Y0186080D01*
X0251935Y0163700D02*
X0251937Y0163747D01*
X0251943Y0163794D01*
X0251953Y0163841D01*
X0251966Y0163886D01*
X0251984Y0163930D01*
X0252005Y0163972D01*
X0252029Y0164013D01*
X0252057Y0164051D01*
X0252088Y0164087D01*
X0252122Y0164120D01*
X0252158Y0164150D01*
X0252197Y0164177D01*
X0252238Y0164201D01*
X0252281Y0164221D01*
X0252325Y0164237D01*
X0252371Y0164250D01*
X0252417Y0164259D01*
X0252465Y0164264D01*
X0252512Y0164265D01*
X0252559Y0164262D01*
X0252606Y0164255D01*
X0252652Y0164244D01*
X0252697Y0164230D01*
X0252741Y0164211D01*
X0252782Y0164189D01*
X0252822Y0164164D01*
X0252860Y0164135D01*
X0252895Y0164104D01*
X0252928Y0164069D01*
X0252957Y0164032D01*
X0252983Y0163993D01*
X0253006Y0163951D01*
X0253025Y0163908D01*
X0253041Y0163863D01*
X0253053Y0163817D01*
X0253061Y0163771D01*
X0253065Y0163724D01*
X0253065Y0163676D01*
X0253061Y0163629D01*
X0253053Y0163583D01*
X0253041Y0163537D01*
X0253025Y0163492D01*
X0253006Y0163449D01*
X0252983Y0163407D01*
X0252957Y0163368D01*
X0252928Y0163331D01*
X0252895Y0163296D01*
X0252860Y0163265D01*
X0252822Y0163236D01*
X0252783Y0163211D01*
X0252741Y0163189D01*
X0252697Y0163170D01*
X0252652Y0163156D01*
X0252606Y0163145D01*
X0252559Y0163138D01*
X0252512Y0163135D01*
X0252465Y0163136D01*
X0252417Y0163141D01*
X0252371Y0163150D01*
X0252325Y0163163D01*
X0252281Y0163179D01*
X0252238Y0163199D01*
X0252197Y0163223D01*
X0252158Y0163250D01*
X0252122Y0163280D01*
X0252088Y0163313D01*
X0252057Y0163349D01*
X0252029Y0163387D01*
X0252005Y0163428D01*
X0251984Y0163470D01*
X0251966Y0163514D01*
X0251953Y0163559D01*
X0251943Y0163606D01*
X0251937Y0163653D01*
X0251935Y0163700D01*
X0351063Y0137349D02*
X0351063Y0131837D01*
X0358937Y0131837D02*
X0358937Y0137349D01*
X0351063Y0137349D01*
X0360638Y0128081D02*
X0365362Y0128081D01*
X0363000Y0125719D01*
X0360638Y0128081D01*
X0360244Y0125719D02*
X0363000Y0125719D01*
X0365756Y0125719D01*
X0358937Y0121963D02*
X0358937Y0116451D01*
X0351063Y0116451D01*
X0351063Y0121963D01*
X0350063Y0056587D02*
X0344551Y0056587D01*
X0344551Y0048713D01*
X0350063Y0048713D01*
X0353819Y0047406D02*
X0353819Y0044650D01*
X0356181Y0042288D01*
X0356181Y0047012D01*
X0353819Y0044650D01*
X0353819Y0041894D01*
X0359937Y0048713D02*
X0365449Y0048713D01*
X0365449Y0056587D01*
X0359937Y0056587D01*
X0239431Y0062006D02*
X0239431Y0065156D01*
X0238250Y0065156D01*
X0231950Y0065156D02*
X0230769Y0065156D01*
X0230769Y0062006D01*
X0214000Y0078400D02*
X0209000Y0075900D01*
X0209000Y0080900D01*
X0214000Y0078400D01*
X0213762Y0078281D02*
X0209000Y0078281D01*
X0209000Y0079079D02*
X0212641Y0079079D01*
X0212165Y0077482D02*
X0209000Y0077482D01*
X0209000Y0076684D02*
X0210568Y0076684D01*
X0211044Y0079878D02*
X0209000Y0079878D01*
X0209000Y0080676D02*
X0209447Y0080676D01*
X0201831Y0064156D02*
X0201831Y0061006D01*
X0201831Y0064156D02*
X0200650Y0064156D01*
X0194350Y0064156D02*
X0193169Y0064156D01*
X0193169Y0061006D01*
X0129372Y0107782D02*
X0127010Y0110144D01*
X0122286Y0110144D01*
X0119924Y0107782D01*
X0118379Y0112229D02*
X0117579Y0112229D01*
X0117579Y0132629D01*
X0118379Y0132629D01*
X0119179Y0125029D02*
X0122779Y0125029D01*
X0127179Y0119429D01*
X0119179Y0119429D01*
X0123179Y0125029D01*
X0127179Y0125029D01*
X0123179Y0125029D02*
X0122779Y0125029D01*
X0152811Y0115810D02*
X0152811Y0111810D01*
X0351063Y0190701D02*
X0358937Y0190701D01*
X0358937Y0196213D01*
X0360244Y0199969D02*
X0363000Y0199969D01*
X0365362Y0202331D01*
X0360638Y0202331D01*
X0363000Y0199969D01*
X0365756Y0199969D01*
X0358937Y0206087D02*
X0358937Y0211599D01*
X0351063Y0211599D01*
X0351063Y0206087D01*
X0351063Y0196213D02*
X0351063Y0190701D01*
D13*
X0281000Y0227880D02*
X0281000Y0228120D01*
X0197220Y0216000D02*
X0196980Y0216000D01*
X0148620Y0186700D02*
X0148380Y0186700D01*
X0140020Y0162100D02*
X0139780Y0162100D01*
X0148080Y0128000D02*
X0148320Y0128000D01*
X0233880Y0113900D02*
X0234120Y0113900D01*
X0242880Y0113900D02*
X0243120Y0113900D01*
X0261880Y0088400D02*
X0262120Y0088400D01*
X0250200Y0083520D02*
X0250200Y0083280D01*
X0157920Y0065800D02*
X0157680Y0065800D01*
D14*
X0271000Y0193650D02*
X0271551Y0193650D01*
X0272101Y0194200D01*
X0272101Y0196953D01*
X0271551Y0196953D02*
X0272652Y0196953D01*
X0274133Y0196402D02*
X0274684Y0196953D01*
X0275785Y0196953D01*
X0276335Y0196402D01*
X0276335Y0195852D01*
X0274133Y0193650D01*
X0276335Y0193650D01*
X0271000Y0193650D02*
X0270450Y0194200D01*
D15*
X0308500Y0156400D03*
X0309500Y0123400D03*
X0233900Y0079000D03*
X0224200Y0078900D03*
X0222100Y0061400D03*
X0208700Y0061200D03*
X0185900Y0061200D03*
X0179000Y0093100D03*
X0247100Y0062000D03*
X0308500Y0065900D03*
X0131900Y0049200D03*
D16*
X0295200Y0204400D03*
X0295300Y0213800D03*
D17*
X0279861Y0216953D02*
X0279863Y0216997D01*
X0279869Y0217041D01*
X0279879Y0217084D01*
X0279892Y0217126D01*
X0279910Y0217166D01*
X0279931Y0217205D01*
X0279955Y0217242D01*
X0279982Y0217277D01*
X0280013Y0217309D01*
X0280046Y0217338D01*
X0280082Y0217364D01*
X0280120Y0217386D01*
X0280160Y0217405D01*
X0280201Y0217421D01*
X0280244Y0217433D01*
X0280287Y0217441D01*
X0280331Y0217445D01*
X0280375Y0217445D01*
X0280419Y0217441D01*
X0280462Y0217433D01*
X0280505Y0217421D01*
X0280546Y0217405D01*
X0280586Y0217386D01*
X0280624Y0217364D01*
X0280660Y0217338D01*
X0280693Y0217309D01*
X0280724Y0217277D01*
X0280751Y0217242D01*
X0280775Y0217205D01*
X0280796Y0217166D01*
X0280814Y0217126D01*
X0280827Y0217084D01*
X0280837Y0217041D01*
X0280843Y0216997D01*
X0280845Y0216953D01*
X0280843Y0216909D01*
X0280837Y0216865D01*
X0280827Y0216822D01*
X0280814Y0216780D01*
X0280796Y0216740D01*
X0280775Y0216701D01*
X0280751Y0216664D01*
X0280724Y0216629D01*
X0280693Y0216597D01*
X0280660Y0216568D01*
X0280624Y0216542D01*
X0280586Y0216520D01*
X0280546Y0216501D01*
X0280505Y0216485D01*
X0280462Y0216473D01*
X0280419Y0216465D01*
X0280375Y0216461D01*
X0280331Y0216461D01*
X0280287Y0216465D01*
X0280244Y0216473D01*
X0280201Y0216485D01*
X0280160Y0216501D01*
X0280120Y0216520D01*
X0280082Y0216542D01*
X0280046Y0216568D01*
X0280013Y0216597D01*
X0279982Y0216629D01*
X0279955Y0216664D01*
X0279931Y0216701D01*
X0279910Y0216740D01*
X0279892Y0216780D01*
X0279879Y0216822D01*
X0279869Y0216865D01*
X0279863Y0216909D01*
X0279861Y0216953D01*
X0279863Y0216997D01*
X0279869Y0217041D01*
X0279879Y0217084D01*
X0279892Y0217126D01*
X0279910Y0217166D01*
X0279931Y0217205D01*
X0279955Y0217242D01*
X0279982Y0217277D01*
X0280013Y0217309D01*
X0280046Y0217338D01*
X0280082Y0217364D01*
X0280120Y0217386D01*
X0280160Y0217405D01*
X0280201Y0217421D01*
X0280244Y0217433D01*
X0280287Y0217441D01*
X0280331Y0217445D01*
X0280375Y0217445D01*
X0280419Y0217441D01*
X0280462Y0217433D01*
X0280505Y0217421D01*
X0280546Y0217405D01*
X0280586Y0217386D01*
X0280624Y0217364D01*
X0280660Y0217338D01*
X0280693Y0217309D01*
X0280724Y0217277D01*
X0280751Y0217242D01*
X0280775Y0217205D01*
X0280796Y0217166D01*
X0280814Y0217126D01*
X0280827Y0217084D01*
X0280837Y0217041D01*
X0280843Y0216997D01*
X0280845Y0216953D01*
X0280843Y0216909D01*
X0280837Y0216865D01*
X0280827Y0216822D01*
X0280814Y0216780D01*
X0280796Y0216740D01*
X0280775Y0216701D01*
X0280751Y0216664D01*
X0280724Y0216629D01*
X0280693Y0216597D01*
X0280660Y0216568D01*
X0280624Y0216542D01*
X0280586Y0216520D01*
X0280546Y0216501D01*
X0280505Y0216485D01*
X0280462Y0216473D01*
X0280419Y0216465D01*
X0280375Y0216461D01*
X0280331Y0216461D01*
X0280287Y0216465D01*
X0280244Y0216473D01*
X0280201Y0216485D01*
X0280160Y0216501D01*
X0280120Y0216520D01*
X0280082Y0216542D01*
X0280046Y0216568D01*
X0280013Y0216597D01*
X0279982Y0216629D01*
X0279955Y0216664D01*
X0279931Y0216701D01*
X0279910Y0216740D01*
X0279892Y0216780D01*
X0279879Y0216822D01*
X0279869Y0216865D01*
X0279863Y0216909D01*
X0279861Y0216953D01*
D18*
X0285274Y0221382D02*
X0269526Y0221382D01*
X0269526Y0206618D01*
X0285274Y0206618D01*
X0285274Y0221382D01*
X0132568Y0186452D02*
X0132570Y0186519D01*
X0132576Y0186586D01*
X0132586Y0186652D01*
X0132600Y0186718D01*
X0132617Y0186782D01*
X0132639Y0186846D01*
X0132664Y0186908D01*
X0132693Y0186968D01*
X0132725Y0187027D01*
X0132761Y0187084D01*
X0132800Y0187138D01*
X0132842Y0187190D01*
X0132887Y0187240D01*
X0132936Y0187286D01*
X0132986Y0187330D01*
X0133040Y0187371D01*
X0133095Y0187408D01*
X0133153Y0187442D01*
X0133213Y0187473D01*
X0133274Y0187500D01*
X0133337Y0187523D01*
X0133401Y0187543D01*
X0133466Y0187559D01*
X0133532Y0187571D01*
X0133599Y0187579D01*
X0133665Y0187583D01*
X0133733Y0187583D01*
X0133799Y0187579D01*
X0133866Y0187571D01*
X0133932Y0187559D01*
X0133997Y0187543D01*
X0134061Y0187523D01*
X0134124Y0187500D01*
X0134185Y0187473D01*
X0134245Y0187442D01*
X0134303Y0187408D01*
X0134358Y0187371D01*
X0134412Y0187330D01*
X0134462Y0187286D01*
X0134511Y0187240D01*
X0134556Y0187190D01*
X0134598Y0187138D01*
X0134637Y0187084D01*
X0134673Y0187027D01*
X0134705Y0186968D01*
X0134734Y0186908D01*
X0134759Y0186846D01*
X0134781Y0186782D01*
X0134798Y0186718D01*
X0134812Y0186652D01*
X0134822Y0186586D01*
X0134828Y0186519D01*
X0134830Y0186452D01*
X0134828Y0186385D01*
X0134822Y0186318D01*
X0134812Y0186252D01*
X0134798Y0186186D01*
X0134781Y0186122D01*
X0134759Y0186058D01*
X0134734Y0185996D01*
X0134705Y0185936D01*
X0134673Y0185877D01*
X0134637Y0185820D01*
X0134598Y0185766D01*
X0134556Y0185714D01*
X0134511Y0185664D01*
X0134462Y0185618D01*
X0134412Y0185574D01*
X0134358Y0185533D01*
X0134303Y0185496D01*
X0134245Y0185462D01*
X0134185Y0185431D01*
X0134124Y0185404D01*
X0134061Y0185381D01*
X0133997Y0185361D01*
X0133932Y0185345D01*
X0133866Y0185333D01*
X0133799Y0185325D01*
X0133733Y0185321D01*
X0133665Y0185321D01*
X0133599Y0185325D01*
X0133532Y0185333D01*
X0133466Y0185345D01*
X0133401Y0185361D01*
X0133337Y0185381D01*
X0133274Y0185404D01*
X0133213Y0185431D01*
X0133153Y0185462D01*
X0133095Y0185496D01*
X0133040Y0185533D01*
X0132986Y0185574D01*
X0132936Y0185618D01*
X0132887Y0185664D01*
X0132842Y0185714D01*
X0132800Y0185766D01*
X0132761Y0185820D01*
X0132725Y0185877D01*
X0132693Y0185936D01*
X0132664Y0185996D01*
X0132639Y0186058D01*
X0132617Y0186122D01*
X0132600Y0186186D01*
X0132586Y0186252D01*
X0132576Y0186318D01*
X0132570Y0186385D01*
X0132568Y0186452D01*
X0132268Y0127752D02*
X0132270Y0127819D01*
X0132276Y0127886D01*
X0132286Y0127952D01*
X0132300Y0128018D01*
X0132317Y0128082D01*
X0132339Y0128146D01*
X0132364Y0128208D01*
X0132393Y0128268D01*
X0132425Y0128327D01*
X0132461Y0128384D01*
X0132500Y0128438D01*
X0132542Y0128490D01*
X0132587Y0128540D01*
X0132636Y0128586D01*
X0132686Y0128630D01*
X0132740Y0128671D01*
X0132795Y0128708D01*
X0132853Y0128742D01*
X0132913Y0128773D01*
X0132974Y0128800D01*
X0133037Y0128823D01*
X0133101Y0128843D01*
X0133166Y0128859D01*
X0133232Y0128871D01*
X0133299Y0128879D01*
X0133365Y0128883D01*
X0133433Y0128883D01*
X0133499Y0128879D01*
X0133566Y0128871D01*
X0133632Y0128859D01*
X0133697Y0128843D01*
X0133761Y0128823D01*
X0133824Y0128800D01*
X0133885Y0128773D01*
X0133945Y0128742D01*
X0134003Y0128708D01*
X0134058Y0128671D01*
X0134112Y0128630D01*
X0134162Y0128586D01*
X0134211Y0128540D01*
X0134256Y0128490D01*
X0134298Y0128438D01*
X0134337Y0128384D01*
X0134373Y0128327D01*
X0134405Y0128268D01*
X0134434Y0128208D01*
X0134459Y0128146D01*
X0134481Y0128082D01*
X0134498Y0128018D01*
X0134512Y0127952D01*
X0134522Y0127886D01*
X0134528Y0127819D01*
X0134530Y0127752D01*
X0134528Y0127685D01*
X0134522Y0127618D01*
X0134512Y0127552D01*
X0134498Y0127486D01*
X0134481Y0127422D01*
X0134459Y0127358D01*
X0134434Y0127296D01*
X0134405Y0127236D01*
X0134373Y0127177D01*
X0134337Y0127120D01*
X0134298Y0127066D01*
X0134256Y0127014D01*
X0134211Y0126964D01*
X0134162Y0126918D01*
X0134112Y0126874D01*
X0134058Y0126833D01*
X0134003Y0126796D01*
X0133945Y0126762D01*
X0133885Y0126731D01*
X0133824Y0126704D01*
X0133761Y0126681D01*
X0133697Y0126661D01*
X0133632Y0126645D01*
X0133566Y0126633D01*
X0133499Y0126625D01*
X0133433Y0126621D01*
X0133365Y0126621D01*
X0133299Y0126625D01*
X0133232Y0126633D01*
X0133166Y0126645D01*
X0133101Y0126661D01*
X0133037Y0126681D01*
X0132974Y0126704D01*
X0132913Y0126731D01*
X0132853Y0126762D01*
X0132795Y0126796D01*
X0132740Y0126833D01*
X0132686Y0126874D01*
X0132636Y0126918D01*
X0132587Y0126964D01*
X0132542Y0127014D01*
X0132500Y0127066D01*
X0132461Y0127120D01*
X0132425Y0127177D01*
X0132393Y0127236D01*
X0132364Y0127296D01*
X0132339Y0127358D01*
X0132317Y0127422D01*
X0132300Y0127486D01*
X0132286Y0127552D01*
X0132276Y0127618D01*
X0132270Y0127685D01*
X0132268Y0127752D01*
X0230319Y0071563D02*
X0230319Y0069228D01*
X0230903Y0068644D01*
X0232070Y0068644D01*
X0232654Y0069228D01*
X0232654Y0071563D01*
X0232070Y0072147D01*
X0230903Y0072147D01*
X0230319Y0071563D01*
X0231487Y0069811D02*
X0232654Y0068644D01*
X0234002Y0068644D02*
X0236337Y0070979D01*
X0236337Y0071563D01*
X0235754Y0072147D01*
X0234586Y0072147D01*
X0234002Y0071563D01*
X0234002Y0068644D02*
X0236337Y0068644D01*
X0238201Y0089026D02*
X0236626Y0090601D01*
X0250799Y0089026D02*
X0252374Y0089026D01*
X0252374Y0090601D01*
X0252374Y0103199D02*
X0252374Y0104774D01*
X0250799Y0104774D01*
X0238201Y0104774D02*
X0236626Y0104774D01*
X0236626Y0103199D01*
X0112950Y0047410D02*
X0112950Y0045908D01*
X0112199Y0045158D01*
X0110698Y0046659D02*
X0110698Y0047410D01*
X0111449Y0048160D01*
X0112199Y0048160D01*
X0112950Y0047410D01*
X0110698Y0047410D02*
X0109947Y0048160D01*
X0109197Y0048160D01*
X0108446Y0047410D01*
X0108446Y0045908D01*
X0109197Y0045158D01*
X0109197Y0043556D02*
X0110698Y0043556D01*
X0111449Y0042806D01*
X0111449Y0040554D01*
X0112950Y0040554D02*
X0108446Y0040554D01*
X0108446Y0042806D01*
X0109197Y0043556D01*
X0108446Y0038953D02*
X0108446Y0037451D01*
X0108446Y0038202D02*
X0112199Y0038202D01*
X0112950Y0037451D01*
X0112950Y0036701D01*
X0112199Y0035950D01*
D19*
X0241100Y0039100D02*
X0241100Y0024100D01*
X0243600Y0021600D01*
X0248600Y0021600D01*
X0251100Y0024100D01*
X0251100Y0039100D01*
X0253600Y0041600D01*
X0258600Y0041600D01*
X0261100Y0039100D01*
X0261100Y0024100D01*
X0258600Y0021600D01*
X0253600Y0021600D01*
X0251100Y0024100D01*
X0261100Y0024100D02*
X0263600Y0021600D01*
X0268600Y0021600D01*
X0271100Y0024100D01*
X0271100Y0039100D01*
X0268600Y0041600D01*
X0263600Y0041600D01*
X0261100Y0039100D01*
X0251100Y0039100D02*
X0248600Y0041600D01*
X0243600Y0041600D01*
X0241100Y0039100D01*
X0271100Y0039100D02*
X0273600Y0041600D01*
X0278600Y0041600D01*
X0281100Y0039100D01*
X0281100Y0024100D01*
X0278600Y0021600D01*
X0273600Y0021600D01*
X0271100Y0024100D01*
X0281100Y0024100D02*
X0283600Y0021600D01*
X0288600Y0021600D01*
X0291100Y0024100D01*
X0291100Y0039100D01*
X0288600Y0041600D01*
X0283600Y0041600D01*
X0281100Y0039100D01*
X0291100Y0039100D02*
X0293600Y0041600D01*
X0298600Y0041600D01*
X0301100Y0039100D01*
X0301100Y0024100D01*
X0298600Y0021600D01*
X0293600Y0021600D01*
X0291100Y0024100D01*
X0301100Y0024100D02*
X0303600Y0021600D01*
X0308600Y0021600D01*
X0311100Y0024100D01*
X0311100Y0039100D01*
X0308600Y0041600D01*
X0303600Y0041600D01*
X0301100Y0039100D01*
X0311100Y0039100D02*
X0313600Y0041600D01*
X0318600Y0041600D01*
X0321100Y0039100D01*
X0321100Y0024100D01*
X0318600Y0021600D01*
X0313600Y0021600D01*
X0311100Y0024100D01*
X0254699Y0146802D02*
X0254699Y0166898D01*
X0236101Y0166898D02*
X0236101Y0146802D01*
M02*
