G75*
%MOIN*%
%OFA0B0*%
%FSLAX25Y25*%
%IPPOS*%
%LPD*%
%AMOC8*
5,1,8,0,0,1.08239X$1,22.5*
%
%ADD10C,0.12411*%
%ADD11C,0.09655*%
%ADD12C,0.14200*%
%ADD13R,0.06600X0.06600*%
%ADD14OC8,0.06600*%
%ADD15R,0.06624X0.06624*%
%ADD16C,0.06624*%
%ADD17C,0.06112*%
%ADD18C,0.04143*%
%ADD19C,0.08000*%
%ADD20OC8,0.08000*%
%ADD21C,0.04362*%
D10*
X0010000Y0022900D03*
X0187743Y0033000D03*
X0218057Y0033000D03*
X0393000Y0022900D03*
X0393000Y0230400D03*
X0010000Y0230400D03*
D11*
X0041100Y0028900D03*
X0091100Y0028900D03*
D12*
X0056850Y0062900D03*
X0075350Y0180900D03*
D13*
X0206500Y0088400D03*
X0280500Y0178400D03*
D14*
X0290500Y0178400D03*
X0290500Y0168400D03*
X0280500Y0168400D03*
X0280500Y0158400D03*
X0290500Y0158400D03*
X0290500Y0148400D03*
X0280500Y0148400D03*
X0280500Y0138400D03*
X0290500Y0138400D03*
X0290500Y0128400D03*
X0280500Y0128400D03*
X0280500Y0118400D03*
X0290500Y0118400D03*
X0290500Y0108400D03*
X0280500Y0108400D03*
X0280500Y0098400D03*
X0290500Y0098400D03*
X0290500Y0088400D03*
X0280500Y0088400D03*
X0280500Y0078400D03*
X0290500Y0078400D03*
X0290500Y0068400D03*
X0280500Y0068400D03*
X0206500Y0098400D03*
X0196500Y0098400D03*
X0196500Y0088400D03*
X0196500Y0108400D03*
X0206500Y0108400D03*
X0206500Y0118400D03*
X0196500Y0118400D03*
X0196500Y0128400D03*
X0206500Y0128400D03*
X0206500Y0138400D03*
X0196500Y0138400D03*
X0196500Y0148400D03*
X0206500Y0148400D03*
X0206500Y0158400D03*
X0196500Y0158400D03*
X0196500Y0168400D03*
X0206500Y0168400D03*
X0206500Y0178400D03*
X0196500Y0178400D03*
D15*
X0226522Y0050008D03*
D16*
X0214711Y0050008D03*
X0202900Y0050008D03*
X0191089Y0050008D03*
X0179278Y0050008D03*
D17*
X0355000Y0052650D03*
X0355000Y0126900D03*
X0355000Y0201150D03*
D18*
X0160176Y0021900D03*
X0132224Y0021900D03*
D19*
X0120400Y0041000D03*
X0120400Y0051000D03*
X0177200Y0186000D03*
X0177200Y0196000D03*
X0177200Y0206000D03*
X0177200Y0216000D03*
X0177200Y0226000D03*
D20*
X0246100Y0036600D03*
X0256100Y0036600D03*
X0266100Y0036600D03*
X0276100Y0036600D03*
X0286100Y0036600D03*
X0296100Y0036600D03*
X0306100Y0036600D03*
X0316100Y0036600D03*
X0316100Y0026600D03*
X0306100Y0026600D03*
X0296100Y0026600D03*
X0286100Y0026600D03*
X0276100Y0026600D03*
X0266100Y0026600D03*
X0256100Y0026600D03*
X0246100Y0026600D03*
D21*
X0039300Y0202600D03*
X0065400Y0206700D03*
M02*
