G75*
%MOIN*%
%OFA0B0*%
%FSLAX25Y25*%
%IPPOS*%
%LPD*%
%AMOC8*
5,1,8,0,0,1.08239X$1,22.5*
%
%ADD10R,0.03937X0.04331*%
%ADD11R,0.04331X0.03937*%
%ADD12R,0.03268X0.02480*%
%ADD13R,0.03000X0.06000*%
%ADD14R,0.02900X0.11000*%
%ADD15R,0.01969X0.04724*%
%ADD16R,0.04724X0.01969*%
%ADD17R,0.02362X0.01969*%
%ADD18R,0.01969X0.02362*%
%ADD19R,0.03150X0.01969*%
%ADD20R,0.00787X0.00787*%
%ADD21C,0.00500*%
%ADD22R,0.02756X0.01142*%
%ADD23R,0.01142X0.02756*%
%ADD24R,0.02400X0.08700*%
%ADD25R,0.05512X0.04724*%
%ADD26R,0.07874X0.07874*%
%ADD27R,0.02165X0.04724*%
%ADD28R,0.05118X0.05118*%
%ADD29R,0.02480X0.03268*%
%ADD30R,0.04724X0.05512*%
D10*
X0139549Y0087696D03*
X0139549Y0094389D03*
X0148200Y0112254D03*
X0148200Y0118946D03*
X0139900Y0146354D03*
X0139900Y0153046D03*
X0148500Y0170954D03*
X0148500Y0177646D03*
X0164900Y0192854D03*
X0164900Y0199546D03*
X0197100Y0200254D03*
X0197100Y0206946D03*
X0178600Y0170246D03*
X0178600Y0163554D03*
X0234000Y0104846D03*
X0243000Y0104846D03*
X0243000Y0098154D03*
X0234000Y0098154D03*
X0262000Y0079346D03*
X0262000Y0072654D03*
X0308500Y0056846D03*
X0308500Y0050154D03*
X0205600Y0031846D03*
X0205600Y0025154D03*
X0196700Y0025254D03*
X0196700Y0031946D03*
X0157800Y0050054D03*
X0157800Y0056746D03*
X0179000Y0077354D03*
X0179000Y0084046D03*
X0309500Y0107654D03*
X0309500Y0114346D03*
X0308500Y0140654D03*
X0308500Y0147346D03*
D11*
X0239046Y0196300D03*
X0232354Y0196300D03*
X0232254Y0204900D03*
X0238946Y0204900D03*
X0251454Y0206100D03*
X0258146Y0206100D03*
X0258046Y0196700D03*
X0251354Y0196700D03*
X0277654Y0215600D03*
X0284346Y0215600D03*
X0156557Y0160110D03*
X0149865Y0160110D03*
X0144546Y0160100D03*
X0137854Y0160100D03*
X0141146Y0188800D03*
X0134454Y0188800D03*
X0134154Y0130300D03*
X0140846Y0130300D03*
X0137554Y0101400D03*
X0144246Y0101400D03*
X0149465Y0101410D03*
X0156157Y0101410D03*
X0246854Y0071000D03*
X0253546Y0071000D03*
D12*
X0149100Y0057628D03*
X0149100Y0048572D03*
D13*
X0119500Y0050700D03*
X0134500Y0050700D03*
X0134500Y0072700D03*
X0119500Y0072700D03*
D14*
X0149400Y0067600D03*
X0154400Y0067600D03*
X0159400Y0067600D03*
X0164400Y0067600D03*
X0169400Y0067600D03*
X0169400Y0083600D03*
X0164400Y0083600D03*
X0159400Y0083600D03*
X0154400Y0083600D03*
X0149400Y0083600D03*
D15*
X0236926Y0178769D03*
X0240076Y0178769D03*
X0243225Y0178769D03*
X0246375Y0178769D03*
X0249524Y0178769D03*
X0252674Y0178769D03*
X0252674Y0187431D03*
X0249524Y0187431D03*
X0246375Y0187431D03*
X0243225Y0187431D03*
X0240076Y0187431D03*
X0236926Y0187431D03*
D16*
X0236532Y0183100D03*
X0253068Y0183100D03*
D17*
X0271494Y0195891D03*
X0277400Y0195891D03*
X0283306Y0195891D03*
X0283306Y0207309D03*
X0277400Y0207309D03*
X0271494Y0207309D03*
D18*
X0283306Y0201600D03*
D19*
X0216806Y0203363D03*
X0216806Y0207300D03*
X0216806Y0211237D03*
X0204994Y0211237D03*
X0204994Y0207300D03*
X0204994Y0203363D03*
D20*
X0210900Y0207300D03*
D21*
X0208735Y0207387D02*
X0213065Y0207387D01*
X0213065Y0207885D02*
X0208735Y0207885D01*
X0208735Y0208384D02*
X0213065Y0208384D01*
X0213065Y0208882D02*
X0208735Y0208882D01*
X0208735Y0209381D02*
X0213065Y0209381D01*
X0213065Y0209879D02*
X0208735Y0209879D01*
X0208735Y0210378D02*
X0213065Y0210378D01*
X0213065Y0210876D02*
X0208735Y0210876D01*
X0208735Y0211375D02*
X0213065Y0211375D01*
X0213065Y0211434D02*
X0213065Y0204741D01*
X0211294Y0202969D01*
X0208735Y0202969D01*
X0208735Y0211434D01*
X0213065Y0211434D01*
X0213065Y0206888D02*
X0208735Y0206888D01*
X0208735Y0206390D02*
X0213065Y0206390D01*
X0213065Y0205891D02*
X0208735Y0205891D01*
X0208735Y0205393D02*
X0213065Y0205393D01*
X0213065Y0204894D02*
X0208735Y0204894D01*
X0208735Y0204396D02*
X0212720Y0204396D01*
X0212221Y0203897D02*
X0208735Y0203897D01*
X0208735Y0203399D02*
X0211723Y0203399D01*
D22*
X0237118Y0089421D03*
X0237118Y0087453D03*
X0237118Y0085484D03*
X0237118Y0083516D03*
X0237118Y0081547D03*
X0237118Y0079579D03*
X0251882Y0079579D03*
X0251882Y0081547D03*
X0251882Y0083516D03*
X0251882Y0085484D03*
X0251882Y0087453D03*
X0251882Y0089421D03*
D23*
X0249421Y0091882D03*
X0247453Y0091882D03*
X0245484Y0091882D03*
X0243516Y0091882D03*
X0241547Y0091882D03*
X0239579Y0091882D03*
X0239579Y0077118D03*
X0241547Y0077118D03*
X0243516Y0077118D03*
X0245484Y0077118D03*
X0247453Y0077118D03*
X0249421Y0077118D03*
D24*
X0248000Y0121700D03*
X0243000Y0121700D03*
X0238000Y0121700D03*
X0253000Y0121700D03*
X0253000Y0142300D03*
X0248000Y0142300D03*
X0243000Y0142300D03*
X0238000Y0142300D03*
D25*
X0355000Y0121406D03*
X0355000Y0107594D03*
X0355000Y0181844D03*
X0355000Y0195656D03*
D26*
X0123479Y0176403D03*
X0123479Y0160655D03*
X0123179Y0117703D03*
X0123179Y0101955D03*
D27*
X0133659Y0110633D03*
X0137399Y0110633D03*
X0141139Y0110633D03*
X0141139Y0120870D03*
X0137399Y0120870D03*
X0133659Y0120870D03*
X0133959Y0169333D03*
X0137699Y0169333D03*
X0141439Y0169333D03*
X0141439Y0179570D03*
X0137699Y0179570D03*
X0133959Y0179570D03*
D28*
X0131154Y0150239D03*
X0119343Y0150239D03*
X0118743Y0091839D03*
X0130554Y0091839D03*
D29*
X0104128Y0217000D03*
X0095072Y0217000D03*
D30*
X0348094Y0040250D03*
X0361906Y0040250D03*
M02*
