%
M48
M72
T01C0.0140
T02C0.0197
T03C0.0200
T04C0.0236
T05C0.0400
T06C0.0402
T07C0.0551
T08C0.1181
T09C0.1360
%
T01
X34000Y12550
X36600Y5525
X34000Y19975
T02
X26030Y18290
X25280Y17010
X20490Y17870
X15670Y14060
T03
X10315Y13740
X21323Y8075
X21404Y9320
X22850Y9561
X23292Y9119
X24578Y8758
X24779Y9883
X25743Y10887
X22689Y11892
X22850Y12575
X22489Y12936
X24055Y13499
X24538Y13017
X27350Y8637
X27029Y7994
X27310Y6990
X25140Y6066
X25622Y5584
X25381Y4579
X23935Y4579
X24578Y3133
X21846Y2651
T04
X21480Y1090
X20010Y860
X18590Y2510
X15720Y3920
X14880Y3980
X16950Y4540
X19470Y4690
X20720Y4510
X20770Y5250
X20300Y5760
X19780Y6360
X19520Y5600
X22300Y6490
X22560Y5830
X23020Y7470
X21840Y10010
X22630Y10530
X21470Y11170
X21910Y12120
X21530Y12550
X22780Y14370
X22600Y15210
X21780Y15470
X22640Y15880
X22430Y18020
X22430Y18620
X21140Y18680
X19950Y18880
X19250Y19310
X18630Y19210
X18780Y20210
X21100Y19480
X15720Y21240
X15090Y20450
X15600Y19950
X14930Y19640
X12960Y21180
X12720Y21960
X10790Y19240
X10380Y18140
X8800Y18670
X7050Y18270
X6140Y17220
X4050Y18350
X5950Y19200
X6920Y20050
X10420Y16810
X10110Y15750
X9580Y14940
X9260Y13150
X9370Y11500
X9390Y9120
X12710Y7210
X14240Y6270
X14180Y5660
X11140Y5430
X9760Y6230
X12460Y3610
X12590Y2500
X18540Y8350
X18900Y8740
X17130Y9370
X16710Y11150
X17700Y11640
X18530Y12050
X17980Y12350
X16870Y12310
X18550Y14440
X17700Y14710
X17560Y15570
X18630Y15630
X18820Y16430
X26230Y16720
X26870Y16330
X27180Y17350
X28040Y17590
X28210Y18390
X30010Y17990
X31080Y19030
X29970Y19690
X31060Y20020
X30720Y21230
X30370Y22050
X33130Y21800
X34560Y22040
X36720Y22110
X37800Y21550
X39340Y20430
X39340Y19060
X38580Y17040
X37320Y15160
X36480Y15150
X34830Y15190
X33960Y15270
X33300Y14620
X32650Y13820
X31590Y13470
X30730Y13160
X30000Y13940
X31500Y15830
X32850Y16420
X38570Y14170
X39340Y12850
X39360Y10720
X39220Y9300
X36930Y7850
X38370Y7600
X35240Y7710
X33600Y7670
X32400Y9070
X31570Y9070
X31390Y9920
X30070Y10880
X31760Y11450
X34000Y11470
X30290Y7240
X30790Y6720
X31500Y6230
X31960Y5360
X32530Y5470
X30200Y4450
X31080Y3490
X30410Y2980
X31560Y2230
X30510Y1720
X29650Y1010
X31540Y1180
X32960Y1240
X33970Y950
X37880Y1010
X38930Y2920
X39280Y3900
X39280Y5200
X26520Y12280
X26270Y13130
X26290Y13860
X26520Y15130
T05
X28050Y15600
X29050Y15600
X29050Y16600
X28050Y16600
X28050Y14600
X29050Y14600
X29050Y13600
X28050Y13600
X28050Y12600
X29050Y12600
X29050Y11600
X28050Y11600
X28050Y10600
X29050Y10600
X29050Y9600
X28050Y9600
X28050Y8600
X29050Y8600
X29050Y7600
X28050Y7600
X28050Y6600
X29050Y6600
X29050Y5600
X28050Y5600
X27950Y2060
X26950Y2060
X25950Y2060
X24950Y2060
X23950Y2060
X22950Y2060
X22950Y1060
X23950Y1060
X24950Y1060
X25950Y1060
X26950Y1060
X27950Y1060
X20650Y7600
X19650Y7600
X19650Y8600
X20650Y8600
X20650Y9600
X19650Y9600
X19650Y10600
X20650Y10600
X20650Y11600
X19650Y11600
X19650Y12600
X20650Y12600
X20650Y13600
X19650Y13600
X19650Y14600
X20650Y14600
X20650Y15600
X19650Y15600
X19650Y16600
X20650Y16600
X17750Y17990
X17750Y18990
X17750Y19990
X17750Y20990
X9130Y20230
X4130Y20230
T06
X13038Y849
X14219Y849
X15400Y849
X16581Y849
X17762Y849
T07
X35500Y4025
X35500Y11450
X35500Y18875
T08
X1000Y1050
X13884Y2550
X16916Y2550
X39300Y1050
X39300Y21800
X1000Y21800
T09
X7555Y16830
X5705Y5030
M30
