G75*
%MOIN*%
%OFA0B0*%
%FSLAX25Y25*%
%IPPOS*%
%LPD*%
%AMOC8*
5,1,8,0,0,1.08239X$1,22.5*
%
%ADD10C,0.13011*%
%ADD11C,0.10255*%
%ADD12C,0.14800*%
%ADD13R,0.07600X0.07600*%
%ADD14OC8,0.07600*%
%ADD15R,0.07616X0.07616*%
%ADD16C,0.07616*%
%ADD17C,0.06712*%
%ADD18OC8,0.08600*%
%ADD19R,0.08600X0.08600*%
%ADD20C,0.08600*%
D10*
X0010000Y0010500D03*
X0138843Y0025500D03*
X0169157Y0025500D03*
X0393000Y0010500D03*
X0393000Y0218000D03*
X0010000Y0218000D03*
D11*
X0041300Y0202300D03*
X0091300Y0202300D03*
D12*
X0075550Y0168300D03*
X0057050Y0050300D03*
D13*
X0206500Y0076000D03*
X0280500Y0166000D03*
D14*
X0290500Y0166000D03*
X0290500Y0156000D03*
X0280500Y0156000D03*
X0280500Y0146000D03*
X0290500Y0146000D03*
X0290500Y0136000D03*
X0280500Y0136000D03*
X0280500Y0126000D03*
X0290500Y0126000D03*
X0290500Y0116000D03*
X0280500Y0116000D03*
X0280500Y0106000D03*
X0290500Y0106000D03*
X0290500Y0096000D03*
X0280500Y0096000D03*
X0280500Y0086000D03*
X0290500Y0086000D03*
X0290500Y0076000D03*
X0280500Y0076000D03*
X0280500Y0066000D03*
X0290500Y0066000D03*
X0290500Y0056000D03*
X0280500Y0056000D03*
X0206500Y0086000D03*
X0196500Y0086000D03*
X0196500Y0076000D03*
X0196500Y0096000D03*
X0206500Y0096000D03*
X0206500Y0106000D03*
X0196500Y0106000D03*
X0196500Y0116000D03*
X0206500Y0116000D03*
X0206500Y0126000D03*
X0196500Y0126000D03*
X0196500Y0136000D03*
X0206500Y0136000D03*
X0206500Y0146000D03*
X0196500Y0146000D03*
X0196500Y0156000D03*
X0206500Y0156000D03*
X0206500Y0166000D03*
X0196500Y0166000D03*
D15*
X0130378Y0008492D03*
D16*
X0142189Y0008492D03*
X0154000Y0008492D03*
X0165811Y0008492D03*
X0177622Y0008492D03*
D17*
X0355000Y0040250D03*
X0355000Y0114500D03*
X0355000Y0188750D03*
D18*
X0279500Y0020600D03*
X0269500Y0020600D03*
X0259500Y0020600D03*
X0249500Y0020600D03*
X0239500Y0020600D03*
X0229500Y0020600D03*
X0229500Y0010600D03*
X0239500Y0010600D03*
X0249500Y0010600D03*
X0259500Y0010600D03*
X0269500Y0010600D03*
X0279500Y0010600D03*
D19*
X0177500Y0209900D03*
D20*
X0177500Y0199900D03*
X0177500Y0189900D03*
X0177500Y0179900D03*
M02*
